<svg width="55" height="52" viewBox="0 0 55 52" fill="none" xmlns="http://www.w3.org/2000/svg">
<path d="M28.8801 10.28C28.9101 15.79 24.4501 20.29 18.9401 20.32C13.4301 20.35 8.93005 15.89 8.90005 10.38C8.87005 4.86999 13.3301 0.369994 18.8401 0.339994C24.3501 0.309994 28.8501 4.77 28.8801 10.28ZM9.81006 10.38C9.84006 15.39 13.9301 19.44 18.9401 19.42C23.9501 19.4 28.0001 15.3 27.9801 10.29C27.9501 5.27999 23.8601 1.23 18.8501 1.25C13.8401 1.28 9.79006 5.36999 9.81006 10.38Z" fill="#375A64"/>
<path d="M20.4401 25.1199L18.8301 10.8199L20.0301 10.6499L21.5501 25.1199H20.4401Z" fill="#3787FF"/>
<path d="M29.0402 39.4099C29.0702 44.9199 24.6102 49.4199 19.1002 49.4499C13.5902 49.4799 9.09021 45.0199 9.06021 39.5099C9.03021 33.9999 13.4902 29.4999 19.0002 29.4699C24.5102 29.4399 29.0102 33.8999 29.0402 39.4099ZM9.97021 39.5099C10.0002 44.5199 14.0902 48.5699 19.1002 48.5499C24.1102 48.5199 28.1602 44.4299 28.1402 39.4199C28.1202 34.4099 24.0202 30.3599 19.0102 30.3799C14.0002 30.4099 9.95021 34.4999 9.97021 39.5099Z" fill="#375A64"/>
<path d="M4.3 17.23L1.95 18.03L1.02 17.43L0 13.77L0.600006 13.53L1.49001 16.81L2.39 17.16L4.10001 16.61L4.3 17.23Z" fill="#2C4251"/>
<path d="M18.3399 11.0801L7.32986 15.9801L19.4699 25.6501L18.6099 26.5201L6.64986 16.4201L5.95987 16.7601L9.08987 31.2201L7.97987 31.5301L5.10986 17.1101L4.17986 17.4201L3.85986 16.4301L17.7799 10.3401L18.3399 11.0801Z" fill="#3787FF"/>
<path d="M19.5499 38.9799L20.9499 29.9699L19.9799 29.9299L18.6899 38.7099L19.5499 38.9799Z" fill="#3787FF"/>
<path d="M18.3698 39.45L9.27979 32.77L9.83978 31.52L18.9898 38.61L18.3698 39.45Z" fill="#3787FF"/>
<path d="M20.96 30.3701C22.4787 30.3701 23.71 29.1389 23.71 27.6201C23.71 26.1013 22.4787 24.8701 20.96 24.8701C19.4412 24.8701 18.21 26.1013 18.21 27.6201C18.21 29.1389 19.4412 30.3701 20.96 30.3701Z" fill="#2C4251"/>
<path d="M7.97992 31.53L5.66992 32.22L5.67992 33.55L9.27992 32.77L9.83992 31.52L9.08992 31.22L7.97992 31.53Z" fill="#3787FF"/>
<path d="M5.65005 35.4001C5.97005 35.2901 7.32005 34.8201 7.36005 34.1401C7.41005 33.4601 6.65005 28.7701 6.47005 28.0601C6.35005 27.6101 5.61005 27.3601 5.61005 28.4201C5.61005 29.9501 4.93005 35.6201 5.65005 35.3901V35.4001Z" fill="#2C4251"/>
<path d="M19.08 38.25C19.74 38.25 20.28 38.78 20.29 39.45C20.3 40.12 19.76 40.65 19.09 40.66C18.42 40.67 17.89 40.13 17.88 39.46C17.87 38.79 18.41 38.26 19.08 38.25Z" fill="#2C4251"/>
<path d="M18.9199 9.13989C19.5799 9.13989 20.1199 9.66989 20.1299 10.3399C20.1399 11.0099 19.5999 11.5399 18.9299 11.5499C18.2599 11.5599 17.7299 11.0199 17.7199 10.3499C17.7099 9.67988 18.2499 9.14989 18.9199 9.13989Z" fill="#2C4251"/>
<path opacity="0.5" d="M4.3 17.23L1.95 18.03L1.02 17.43L0 13.77L0.600006 13.53L1.49001 16.81L2.39 17.16L4.10001 16.61L4.3 17.23Z" fill="#2C4251"/>
<path opacity="0.5" d="M20.96 30.3701C22.4787 30.3701 23.71 29.1389 23.71 27.6201C23.71 26.1013 22.4787 24.8701 20.96 24.8701C19.4412 24.8701 18.21 26.1013 18.21 27.6201C18.21 29.1389 19.4412 30.3701 20.96 30.3701Z" fill="#2C4251"/>
<path opacity="0.5" d="M5.65005 35.4001C5.97005 35.2901 7.32005 34.8201 7.36005 34.1401C7.41005 33.4601 6.65005 28.7701 6.47005 28.0601C6.35005 27.6101 5.61005 27.3601 5.61005 28.4201C5.61005 29.9501 4.93005 35.6201 5.65005 35.3901V35.4001Z" fill="#2C4251"/>
<path opacity="0.5" d="M19.08 38.25C19.74 38.25 20.28 38.78 20.29 39.45C20.3 40.12 19.76 40.65 19.09 40.66C18.42 40.67 17.89 40.13 17.88 39.46C17.87 38.79 18.41 38.26 19.08 38.25Z" fill="#2C4251"/>
<path opacity="0.5" d="M18.9199 9.13989C19.5799 9.13989 20.1199 9.66989 20.1299 10.3399C20.1399 11.0099 19.5999 11.5399 18.9299 11.5499C18.2599 11.5599 17.7299 11.0199 17.7199 10.3499C17.7099 9.67988 18.2499 9.14989 18.9199 9.13989Z" fill="#2C4251"/>
<path d="M21.5601 27.96L25.4101 27.94L25.4201 29.9L26.3901 29.89L26.3701 26.79L21.5601 26.81V27.96Z" fill="#3787FF"/>
<path d="M53.7897 49.5798H3.92969V51.5298H53.7897V49.5798Z" fill="#4A4646"/>
<path d="M54.7198 26.1899H3.00977V30.09H54.7198V26.1899Z" fill="#4A4646"/>
<path d="M3.95996 29.1101L3.95996 50.55H4.87996L4.87996 29.1101H3.95996Z" fill="#4A4646"/>
<path d="M11.3398 29.1201L11.3398 50.5601H12.2598L12.2598 29.1201H11.3398Z" fill="#4A4646"/>
<path d="M19.6499 29.11V50.55H20.5699V29.11H19.6499Z" fill="#4A4646"/>
<path d="M27.96 29.1101V50.55H28.88V29.1101H27.96Z" fill="#4A4646"/>
<path d="M36.2695 30.08V51.52H37.1895V30.08H36.2695Z" fill="#4A4646"/>
<path d="M44.5898 29.11V50.55H45.5098V29.11H44.5898Z" fill="#4A4646"/>
<path d="M52.8999 29.11V50.55H53.8199V29.11H52.8999Z" fill="#4A4646"/>
</svg>
