<svg width="52" height="26" viewBox="0 0 52 26" fill="none" xmlns="http://www.w3.org/2000/svg">
<path d="M29.5401 3.81006H8.19012C7.46012 3.81006 6.87012 4.39005 6.87012 5.11005V18.9501C6.87012 19.6701 7.46012 20.25 8.19012 20.25H29.5401C30.2701 20.25 30.8601 19.6701 30.8601 18.9501V5.11005C30.8601 4.39005 30.2701 3.81006 29.5401 3.81006Z" fill="#D7D7D7"/>
<path d="M15.7202 18.5101C19.3101 18.5101 22.2202 15.6492 22.2202 12.1201C22.2202 8.591 19.3101 5.7301 15.7202 5.7301C12.1304 5.7301 9.22021 8.591 9.22021 12.1201C9.22021 15.6492 12.1304 18.5101 15.7202 18.5101Z" fill="#191613"/>
<path d="M15.2001 11.9501C15.2001 11.9501 14.68 10.9601 14.17 10.0401C13.66 9.1201 12.8601 7.08009 14.3401 6.86009C15.8201 6.64009 17.89 7.1201 18.61 8.4601C19.33 9.8001 17.53 11.5801 16.37 12.0401C15.22 12.5101 15.2001 11.9401 15.2001 11.9401V11.9501Z" fill="#605C5A"/>
<path d="M15.8603 12.4801L17.9403 11.8001C18.9503 11.4701 21.1403 11.0101 21.1003 12.4901C21.0603 13.9701 20.2603 15.8801 18.7903 16.3601C17.3203 16.8401 15.8503 14.8001 15.5903 13.6101C15.3303 12.4301 15.8603 12.4801 15.8603 12.4801Z" fill="#605C5A"/>
<path d="M15.27 12.8101L14.05 14.5701C13.44 15.4301 11.96 17.0701 11.1 15.8701C10.24 14.6801 9.73 12.6401 10.61 11.4001C11.5 10.1601 13.92 10.9301 14.84 11.7501C15.76 12.5601 15.27 12.8101 15.27 12.8101Z" fill="#605C5A"/>
<path d="M16.2803 12.36C16.2803 12.5 16.2403 12.64 16.1603 12.75C16.0803 12.87 15.9703 12.96 15.8403 13.01C15.7103 13.06 15.5603 13.08 15.4303 13.05C15.2903 13.02 15.1603 12.96 15.0603 12.86C14.9603 12.76 14.8903 12.64 14.8603 12.5C14.8303 12.36 14.8503 12.22 14.9003 12.09C14.9503 11.96 15.0503 11.85 15.1603 11.77C15.2703 11.69 15.4203 11.65 15.5603 11.65C15.6503 11.65 15.7503 11.67 15.8403 11.7C15.9303 11.73 16.0103 11.79 16.0703 11.85C16.1403 11.92 16.1903 11.99 16.2303 12.08C16.2703 12.17 16.2803 12.26 16.2803 12.35V12.36Z" fill="#605C5A"/>
<path d="M15.9201 12.3601C15.9201 12.4101 15.9101 12.4701 15.8901 12.5201C15.8701 12.5701 15.8401 12.6101 15.8001 12.6501C15.7601 12.6901 15.7201 12.7201 15.6701 12.7401C15.6201 12.7601 15.5701 12.7701 15.5101 12.7701C15.4001 12.7701 15.3001 12.7301 15.2201 12.6501C15.1401 12.5701 15.1001 12.4701 15.1001 12.3601C15.1001 12.2501 15.1401 12.1501 15.2201 12.0701C15.3001 11.9901 15.4001 11.9501 15.5101 11.9501C15.6201 11.9501 15.7201 11.9901 15.8001 12.0701C15.8801 12.1501 15.9201 12.2501 15.9201 12.3601Z" fill="#3D3937"/>
<path d="M29.4704 6.21008H24.3803C24.2303 6.21008 24.1104 6.33008 24.1104 6.47008C24.1104 6.63008 24.2303 6.74008 24.3803 6.74008H29.4704C29.6204 6.74008 29.7403 6.62009 29.7403 6.48009C29.7403 6.32009 29.6204 6.21008 29.4704 6.21008Z" fill="#E7E6E6"/>
<path d="M29.4704 8.96008H24.3803C24.2303 8.96008 24.1104 9.08008 24.1104 9.22008C24.1104 9.38008 24.2303 9.49008 24.3803 9.49008H29.4704C29.6204 9.49008 29.7403 9.37009 29.7403 9.23009C29.7403 9.07009 29.6204 8.96008 29.4704 8.96008Z" fill="#E7E6E6"/>
<path d="M29.4704 11.7101H24.3803C24.2303 11.7101 24.1104 11.8301 24.1104 11.9701C24.1104 12.1301 24.2303 12.2401 24.3803 12.2401H29.4704C29.6204 12.2401 29.7403 12.1201 29.7403 11.9801C29.7403 11.8201 29.6204 11.7101 29.4704 11.7101Z" fill="#E7E6E6"/>
<path d="M29.4704 14.4401H24.3803C24.2303 14.4401 24.1104 14.5601 24.1104 14.7001C24.1104 14.8601 24.2303 14.9701 24.3803 14.9701H29.4704C29.6204 14.9701 29.7403 14.8501 29.7403 14.7101C29.7403 14.5501 29.6204 14.4401 29.4704 14.4401Z" fill="#E7E6E6"/>
<path d="M29.4704 17.1901H24.3803C24.2303 17.1901 24.1104 17.3101 24.1104 17.4501C24.1104 17.6101 24.2303 17.7201 24.3803 17.7201H29.4704C29.6204 17.7201 29.7403 17.6001 29.7403 17.4601C29.7403 17.3001 29.6204 17.1901 29.4704 17.1901Z" fill="#E7E6E6"/>
<path d="M50.7799 23.39H0.919922V25.34H50.7799V23.39Z" fill="#4A4646"/>
<path d="M51.71 0H0V3.90001H51.71V0Z" fill="#4A4646"/>
<path d="M0.950195 2.91999L0.950195 24.36H1.87019L1.87019 2.91999H0.950195Z" fill="#4A4646"/>
<path d="M8.33008 2.92999L8.33008 24.37H9.25008L9.25008 2.92999H8.33008Z" fill="#4A4646"/>
<path d="M16.6401 2.91998V24.36H17.5601V2.91998H16.6401Z" fill="#4A4646"/>
<path d="M24.9502 2.91999V24.36H25.8702V2.91999H24.9502Z" fill="#4A4646"/>
<path d="M33.2598 3.88995V25.33H34.1798V3.88995H33.2598Z" fill="#4A4646"/>
<path d="M41.5801 2.91998V24.36H42.5001V2.91998H41.5801Z" fill="#4A4646"/>
<path d="M49.8901 2.91998V24.36H50.8101V2.91998H49.8901Z" fill="#4A4646"/>
</svg>
