<svg width="40" height="14" viewBox="0 0 40 14" fill="none" xmlns="http://www.w3.org/2000/svg">
<path fill-rule="evenodd" clip-rule="evenodd" d="M9.99012 4.07994L13.3601 4.97995L10.5601 8.36995L7.76012 11.75L7.19012 7.46994L6.62012 3.18994L9.99012 4.07994Z" fill="#FFEB37"/>
<path fill-rule="evenodd" clip-rule="evenodd" d="M16.8301 5.35002L20.3101 5.69002L18.1601 9.48003L16.0101 13.28L14.6801 9.15002L13.3501 5.02002L16.8301 5.35002Z" fill="#5694FF"/>
<path fill-rule="evenodd" clip-rule="evenodd" d="M23.5698 5.37003L27.0398 5.03003L25.7498 9.16002L24.4498 13.29L22.2698 9.50003L20.0898 5.71002L23.5698 5.37003Z" fill="#FFEB37"/>
<path fill-rule="evenodd" clip-rule="evenodd" d="M30.3001 4.30983L33.7101 3.56982L32.9401 7.81982L32.1801 12.0698L29.5401 8.55983L26.8901 5.03983L30.3001 4.30983Z" fill="#5694FF"/>
<path fill-rule="evenodd" clip-rule="evenodd" d="M36.6802 2.35982L39.9002 1.05981L39.9302 5.37981L39.9702 9.6898L36.7202 6.66982L33.4702 3.65981L36.6802 2.35982Z" fill="#FFEB37"/>
<path fill-rule="evenodd" clip-rule="evenodd" d="M3.63 2.00992L7.25999 3.35992L3.92 6.38992L0.579994 9.40991L0.290001 5.03992L0 0.659912L3.63 2.00992Z" fill="#5694FF"/>
</svg>
