<svg width="52" height="26" viewBox="0 0 52 26" fill="none" xmlns="http://www.w3.org/2000/svg">
<g id="garden">
<g id="Group">
<g id="Group_2">
<path id="Vector" d="M8.20022 15.2599C8.32022 15.3499 8.44022 15.4399 8.58022 15.4699C8.72022 15.4999 8.89021 15.4499 8.96021 15.3199C9.00021 15.2399 9.00021 15.1499 8.99021 15.0599C8.93021 14.2499 8.49021 13.5099 7.92021 12.9299C7.35021 12.3499 6.16022 12.1199 6.61022 13.2999C6.89022 14.0399 7.59022 14.7799 8.19022 15.2699L8.20022 15.2599Z" fill="#89B731"/>
<path id="Vector_2" d="M9.99026 15.15C10.0403 15.27 10.1003 15.39 10.2003 15.47C10.3003 15.55 10.4503 15.58 10.5603 15.5C10.6203 15.46 10.6603 15.38 10.6903 15.31C10.9703 14.66 10.9303 13.9 10.7203 13.22C10.5103 12.54 9.68027 11.88 9.55027 12.98C9.47027 13.66 9.71026 14.53 9.99026 15.14V15.15Z" fill="#89B731"/>
<path id="Vector_3" d="M11.6802 14.94C11.6802 15.07 11.6802 15.2 11.7302 15.32C11.7802 15.44 11.9102 15.53 12.0402 15.51C12.1202 15.5 12.1802 15.45 12.2402 15.4C12.7802 14.94 13.0902 14.25 13.2102 13.55C13.3302 12.85 12.8902 11.89 12.2802 12.81C11.9002 13.39 11.7302 14.26 11.7002 14.94H11.6802Z" fill="#89B731"/>
<path id="Vector_4" d="M10.6802 13.57C10.6802 13.7 10.6802 13.83 10.7302 13.95C10.7802 14.07 10.9102 14.16 11.0402 14.14C11.1202 14.13 11.1802 14.08 11.2402 14.03C11.7802 13.57 12.0902 12.88 12.2102 12.18C12.3302 11.48 11.8902 10.52 11.2802 11.44C10.9002 12.02 10.7302 12.89 10.7002 13.57H10.6802Z" fill="#89B731"/>
<path id="Vector_5" d="M9.20027 14.1799C9.28027 14.2799 9.37026 14.3799 9.49026 14.4299C9.61026 14.4799 9.76027 14.4699 9.84027 14.3699C9.89027 14.3099 9.90027 14.2299 9.91027 14.1599C10.0003 13.4599 9.76027 12.7399 9.37027 12.1399C8.99027 11.5399 8.01027 11.1299 8.18027 12.2199C8.29027 12.8999 8.75027 13.6699 9.19027 14.1899L9.20027 14.1799Z" fill="#89B731"/>
<path id="Vector_6" d="M11.31 15.5699C11.21 15.6799 11.12 15.8 11.09 15.95C11.06 16.09 11.1 16.27 11.23 16.34C11.31 16.38 11.4 16.3799 11.49 16.3799C12.3 16.3399 13.06 15.93 13.66 15.39C14.26 14.84 14.54 13.6599 13.34 14.0699C12.59 14.3199 11.82 14.9999 11.32 15.5799L11.31 15.5699Z" fill="#89B731"/>
<path id="Vector_7" d="M10.4302 15.91C10.4302 16.06 10.4302 16.21 10.5002 16.34C10.5702 16.47 10.7102 16.57 10.8602 16.55C10.9502 16.53 11.0202 16.48 11.0802 16.42C11.6802 15.87 12.0002 15.07 12.1102 14.27C12.2202 13.47 11.6702 12.38 11.0102 13.46C10.6002 14.13 10.4402 15.14 10.4302 15.92V15.91Z" fill="#89B731"/>
<path id="Vector_8" d="M9.86999 16.2899C9.97999 16.3899 10.09 16.4899 10.24 16.5299C10.38 16.5699 10.56 16.5299 10.63 16.4099C10.68 16.3399 10.68 16.2399 10.68 16.1599C10.68 15.3499 10.31 14.5699 9.78999 13.9499C9.26999 13.3299 8.09999 12.9999 8.44999 14.2099C8.66999 14.9699 9.29999 15.7699 9.86999 16.2999V16.2899Z" fill="#89B731"/>
<path id="Vector_9" d="M9.05996 16.49C9.19996 16.53 9.34996 16.57 9.48996 16.54C9.62996 16.51 9.76997 16.4 9.78997 16.25C9.78997 16.16 9.75997 16.08 9.71997 16C9.35997 15.27 8.67997 14.74 7.92997 14.42C7.18997 14.09 5.98996 14.32 6.84996 15.25C7.37996 15.83 8.30997 16.26 9.04997 16.49H9.05996Z" fill="#89B731"/>
</g>
<path id="Vector_10" d="M6.84033 15.78L13.4203 15.86L11.7803 21.69H8.72033L6.84033 15.78Z" fill="#FFEB37"/>
</g>
<g id="Group_3">
<g id="Group_4">
<path id="Vector_11" d="M15.2002 15.2599C15.3202 15.3499 15.4402 15.4399 15.5802 15.4699C15.7202 15.4999 15.8902 15.4499 15.9602 15.3199C16.0002 15.2399 16.0002 15.1499 15.9902 15.0599C15.9302 14.2499 15.4902 13.5099 14.9202 12.9299C14.3502 12.3499 13.1602 12.1199 13.6102 13.2999C13.8902 14.0399 14.5902 14.7799 15.1902 15.2699L15.2002 15.2599Z" fill="#89B731"/>
<path id="Vector_12" d="M16.9903 15.15C17.0403 15.27 17.1003 15.39 17.2003 15.47C17.3003 15.55 17.4503 15.58 17.5603 15.5C17.6203 15.46 17.6603 15.38 17.6903 15.31C17.9703 14.66 17.9303 13.9 17.7203 13.22C17.5103 12.54 16.6803 11.88 16.5503 12.98C16.4703 13.66 16.7103 14.53 16.9903 15.14V15.15Z" fill="#89B731"/>
<path id="Vector_13" d="M18.6802 14.94C18.6802 15.07 18.6802 15.2 18.7302 15.32C18.7802 15.44 18.9102 15.53 19.0402 15.51C19.1202 15.5 19.1802 15.45 19.2402 15.4C19.7802 14.94 20.0902 14.25 20.2102 13.55C20.3302 12.85 19.8902 11.89 19.2802 12.81C18.9002 13.39 18.7302 14.26 18.7002 14.94H18.6802Z" fill="#89B731"/>
<path id="Vector_14" d="M17.6802 13.57C17.6802 13.7 17.6802 13.83 17.7302 13.95C17.7802 14.07 17.9102 14.16 18.0402 14.14C18.1202 14.13 18.1802 14.08 18.2402 14.03C18.7802 13.57 19.0902 12.88 19.2102 12.18C19.3302 11.48 18.8902 10.52 18.2802 11.44C17.9002 12.02 17.7302 12.89 17.7002 13.57H17.6802Z" fill="#89B731"/>
<path id="Vector_15" d="M16.2003 14.1799C16.2803 14.2799 16.3703 14.3799 16.4903 14.4299C16.6103 14.4799 16.7603 14.4699 16.8403 14.3699C16.8903 14.3099 16.9003 14.2299 16.9103 14.1599C17.0003 13.4599 16.7603 12.7399 16.3703 12.1399C15.9903 11.5399 15.0103 11.1299 15.1803 12.2199C15.2903 12.8999 15.7503 13.6699 16.1903 14.1899L16.2003 14.1799Z" fill="#89B731"/>
<path id="Vector_16" d="M18.31 15.5699C18.21 15.6799 18.12 15.8 18.09 15.95C18.06 16.09 18.1 16.27 18.23 16.34C18.31 16.38 18.4 16.3799 18.49 16.3799C19.3 16.3399 20.06 15.93 20.66 15.39C21.26 14.84 21.54 13.6599 20.34 14.0699C19.59 14.3199 18.82 14.9999 18.32 15.5799L18.31 15.5699Z" fill="#89B731"/>
<path id="Vector_17" d="M17.4302 15.91C17.4302 16.06 17.4302 16.21 17.5002 16.34C17.5702 16.47 17.7102 16.57 17.8602 16.55C17.9502 16.53 18.0202 16.48 18.0802 16.42C18.6802 15.87 19.0002 15.07 19.1102 14.27C19.2202 13.47 18.6702 12.38 18.0102 13.46C17.6002 14.13 17.4402 15.14 17.4302 15.92V15.91Z" fill="#89B731"/>
<path id="Vector_18" d="M16.87 16.2899C16.98 16.3899 17.09 16.4899 17.24 16.5299C17.38 16.5699 17.56 16.5299 17.63 16.4099C17.68 16.3399 17.68 16.2399 17.68 16.1599C17.68 15.3499 17.31 14.5699 16.79 13.9499C16.27 13.3299 15.1 12.9999 15.45 14.2099C15.67 14.9699 16.3 15.7699 16.87 16.2999V16.2899Z" fill="#89B731"/>
<path id="Vector_19" d="M16.06 16.49C16.2 16.53 16.35 16.57 16.49 16.54C16.63 16.51 16.77 16.4 16.79 16.25C16.79 16.16 16.76 16.08 16.72 16C16.36 15.27 15.68 14.74 14.93 14.42C14.19 14.09 12.99 14.32 13.85 15.25C14.38 15.83 15.31 16.26 16.05 16.49H16.06Z" fill="#89B731"/>
</g>
<path id="Vector_20" d="M13.8403 15.78L20.4203 15.86L18.7803 21.69H15.7203L13.8403 15.78Z" fill="#FF9E40"/>
</g>
<g id="Group_5">
<g id="Group_6">
<path id="Vector_21" d="M23.2002 15.2599C23.3202 15.3499 23.4402 15.4399 23.5802 15.4699C23.7202 15.4999 23.8902 15.4499 23.9602 15.3199C24.0002 15.2399 24.0002 15.1499 23.9902 15.0599C23.9302 14.2499 23.4902 13.5099 22.9202 12.9299C22.3502 12.3499 21.1602 12.1199 21.6102 13.2999C21.8902 14.0399 22.5902 14.7799 23.1902 15.2699L23.2002 15.2599Z" fill="#89B731"/>
<path id="Vector_22" d="M24.9903 15.15C25.0403 15.27 25.1003 15.39 25.2003 15.47C25.3003 15.55 25.4503 15.58 25.5603 15.5C25.6203 15.46 25.6603 15.38 25.6903 15.31C25.9703 14.66 25.9303 13.9 25.7203 13.22C25.5103 12.54 24.6803 11.88 24.5503 12.98C24.4703 13.66 24.7103 14.53 24.9903 15.14V15.15Z" fill="#89B731"/>
<path id="Vector_23" d="M26.6802 14.94C26.6802 15.07 26.6802 15.2 26.7302 15.32C26.7802 15.44 26.9102 15.53 27.0402 15.51C27.1202 15.5 27.1802 15.45 27.2402 15.4C27.7802 14.94 28.0902 14.25 28.2102 13.55C28.3302 12.85 27.8902 11.89 27.2802 12.81C26.9002 13.39 26.7302 14.26 26.7002 14.94H26.6802Z" fill="#89B731"/>
<path id="Vector_24" d="M25.6802 13.57C25.6802 13.7 25.6802 13.83 25.7302 13.95C25.7802 14.07 25.9102 14.16 26.0402 14.14C26.1202 14.13 26.1802 14.08 26.2402 14.03C26.7802 13.57 27.0902 12.88 27.2102 12.18C27.3302 11.48 26.8902 10.52 26.2802 11.44C25.9002 12.02 25.7302 12.89 25.7002 13.57H25.6802Z" fill="#89B731"/>
<path id="Vector_25" d="M24.2003 14.1799C24.2803 14.2799 24.3703 14.3799 24.4903 14.4299C24.6103 14.4799 24.7603 14.4699 24.8403 14.3699C24.8903 14.3099 24.9003 14.2299 24.9103 14.1599C25.0003 13.4599 24.7603 12.7399 24.3703 12.1399C23.9903 11.5399 23.0103 11.1299 23.1803 12.2199C23.2903 12.8999 23.7503 13.6699 24.1903 14.1899L24.2003 14.1799Z" fill="#89B731"/>
<path id="Vector_26" d="M26.31 15.5699C26.21 15.6799 26.12 15.8 26.09 15.95C26.06 16.09 26.1 16.27 26.23 16.34C26.31 16.38 26.4 16.3799 26.49 16.3799C27.3 16.3399 28.06 15.93 28.66 15.39C29.26 14.84 29.54 13.6599 28.34 14.0699C27.59 14.3199 26.82 14.9999 26.32 15.5799L26.31 15.5699Z" fill="#89B731"/>
<path id="Vector_27" d="M25.4302 15.91C25.4302 16.06 25.4302 16.21 25.5002 16.34C25.5702 16.47 25.7102 16.57 25.8602 16.55C25.9502 16.53 26.0202 16.48 26.0802 16.42C26.6802 15.87 27.0002 15.07 27.1102 14.27C27.2202 13.47 26.6702 12.38 26.0102 13.46C25.6002 14.13 25.4402 15.14 25.4302 15.92V15.91Z" fill="#89B731"/>
<path id="Vector_28" d="M24.87 16.2899C24.98 16.3899 25.09 16.4899 25.24 16.5299C25.38 16.5699 25.56 16.5299 25.63 16.4099C25.68 16.3399 25.68 16.2399 25.68 16.1599C25.68 15.3499 25.31 14.5699 24.79 13.9499C24.27 13.3299 23.1 12.9999 23.45 14.2099C23.67 14.9699 24.3 15.7699 24.87 16.2999V16.2899Z" fill="#89B731"/>
<path id="Vector_29" d="M24.06 16.49C24.2 16.53 24.35 16.57 24.49 16.54C24.63 16.51 24.77 16.4 24.79 16.25C24.79 16.16 24.76 16.08 24.72 16C24.36 15.27 23.68 14.74 22.93 14.42C22.19 14.09 20.99 14.32 21.85 15.25C22.38 15.83 23.31 16.26 24.05 16.49H24.06Z" fill="#89B731"/>
</g>
<path id="Vector_30" d="M21.8403 15.78L28.4203 15.86L26.7803 21.69H23.7203L21.8403 15.78Z" fill="#FFEB37"/>
</g>
<g id="Group_7">
<g id="Group_8">
<path id="Vector_31" d="M39.2002 15.2599C39.3202 15.3499 39.4402 15.4399 39.5802 15.4699C39.7202 15.4999 39.8902 15.4499 39.9602 15.3199C40.0002 15.2399 40.0002 15.1499 39.9902 15.0599C39.9302 14.2499 39.4902 13.5099 38.9202 12.9299C38.3502 12.3499 37.1602 12.1199 37.6102 13.2999C37.8902 14.0399 38.5902 14.7799 39.1902 15.2699L39.2002 15.2599Z" fill="#89B731"/>
<path id="Vector_32" d="M40.9903 15.15C41.0403 15.27 41.1003 15.39 41.2003 15.47C41.3003 15.55 41.4503 15.58 41.5603 15.5C41.6203 15.46 41.6603 15.38 41.6903 15.31C41.9703 14.66 41.9303 13.9 41.7203 13.22C41.5103 12.54 40.6803 11.88 40.5503 12.98C40.4703 13.66 40.7103 14.53 40.9903 15.14V15.15Z" fill="#89B731"/>
<path id="Vector_33" d="M42.6802 14.94C42.6802 15.07 42.6802 15.2 42.7302 15.32C42.7802 15.44 42.9102 15.53 43.0402 15.51C43.1202 15.5 43.1802 15.45 43.2402 15.4C43.7802 14.94 44.0902 14.25 44.2102 13.55C44.3302 12.85 43.8902 11.89 43.2802 12.81C42.9002 13.39 42.7302 14.26 42.7002 14.94H42.6802Z" fill="#89B731"/>
<path id="Vector_34" d="M41.6802 13.57C41.6802 13.7 41.6802 13.83 41.7302 13.95C41.7802 14.07 41.9102 14.16 42.0402 14.14C42.1202 14.13 42.1802 14.08 42.2402 14.03C42.7802 13.57 43.0902 12.88 43.2102 12.18C43.3302 11.48 42.8902 10.52 42.2802 11.44C41.9002 12.02 41.7302 12.89 41.7002 13.57H41.6802Z" fill="#89B731"/>
<path id="Vector_35" d="M40.2003 14.1799C40.2803 14.2799 40.3703 14.3799 40.4903 14.4299C40.6103 14.4799 40.7603 14.4699 40.8403 14.3699C40.8903 14.3099 40.9003 14.2299 40.9103 14.1599C41.0003 13.4599 40.7603 12.7399 40.3703 12.1399C39.9903 11.5399 39.0103 11.1299 39.1803 12.2199C39.2903 12.8999 39.7503 13.6699 40.1903 14.1899L40.2003 14.1799Z" fill="#89B731"/>
<path id="Vector_36" d="M42.31 15.5699C42.21 15.6799 42.12 15.8 42.09 15.95C42.06 16.09 42.1 16.27 42.23 16.34C42.31 16.38 42.4 16.3799 42.49 16.3799C43.3 16.3399 44.06 15.93 44.66 15.39C45.26 14.84 45.54 13.6599 44.34 14.0699C43.59 14.3199 42.82 14.9999 42.32 15.5799L42.31 15.5699Z" fill="#89B731"/>
<path id="Vector_37" d="M41.4302 15.91C41.4302 16.06 41.4302 16.21 41.5002 16.34C41.5702 16.47 41.7102 16.57 41.8602 16.55C41.9502 16.53 42.0202 16.48 42.0802 16.42C42.6802 15.87 43.0002 15.07 43.1102 14.27C43.2202 13.47 42.6702 12.38 42.0102 13.46C41.6002 14.13 41.4402 15.14 41.4302 15.92V15.91Z" fill="#89B731"/>
<path id="Vector_38" d="M40.87 16.2899C40.98 16.3899 41.09 16.4899 41.24 16.5299C41.38 16.5699 41.56 16.5299 41.63 16.4099C41.68 16.3399 41.68 16.2399 41.68 16.1599C41.68 15.3499 41.31 14.5699 40.79 13.9499C40.27 13.3299 39.1 12.9999 39.45 14.2099C39.67 14.9699 40.3 15.7699 40.87 16.2999V16.2899Z" fill="#89B731"/>
<path id="Vector_39" d="M40.06 16.49C40.2 16.53 40.35 16.57 40.49 16.54C40.63 16.51 40.77 16.4 40.79 16.25C40.79 16.16 40.76 16.08 40.72 16C40.36 15.27 39.68 14.74 38.93 14.42C38.19 14.09 36.99 14.32 37.85 15.25C38.38 15.83 39.31 16.26 40.05 16.49H40.06Z" fill="#89B731"/>
</g>
<path id="Vector_40" d="M37.8403 15.78L44.4203 15.86L42.7803 21.69H39.7203L37.8403 15.78Z" fill="#FFEB37"/>
</g>
<g id="Group_9">
<g id="Group_10">
<path id="Vector_41" d="M31.2002 15.2599C31.3202 15.3499 31.4402 15.4399 31.5802 15.4699C31.7202 15.4999 31.8902 15.4499 31.9602 15.3199C32.0002 15.2399 32.0002 15.1499 31.9902 15.0599C31.9302 14.2499 31.4902 13.5099 30.9202 12.9299C30.3502 12.3499 29.1602 12.1199 29.6102 13.2999C29.8902 14.0399 30.5902 14.7799 31.1902 15.2699L31.2002 15.2599Z" fill="#89B731"/>
<path id="Vector_42" d="M32.9903 15.15C33.0403 15.27 33.1003 15.39 33.2003 15.47C33.3003 15.55 33.4503 15.58 33.5603 15.5C33.6203 15.46 33.6603 15.38 33.6903 15.31C33.9703 14.66 33.9303 13.9 33.7203 13.22C33.5103 12.54 32.6803 11.88 32.5503 12.98C32.4703 13.66 32.7103 14.53 32.9903 15.14V15.15Z" fill="#89B731"/>
<path id="Vector_43" d="M34.6802 14.94C34.6802 15.07 34.6802 15.2 34.7302 15.32C34.7802 15.44 34.9102 15.53 35.0402 15.51C35.1202 15.5 35.1802 15.45 35.2402 15.4C35.7802 14.94 36.0902 14.25 36.2102 13.55C36.3302 12.85 35.8902 11.89 35.2802 12.81C34.9002 13.39 34.7302 14.26 34.7002 14.94H34.6802Z" fill="#89B731"/>
<path id="Vector_44" d="M33.6802 13.57C33.6802 13.7 33.6802 13.83 33.7302 13.95C33.7802 14.07 33.9102 14.16 34.0402 14.14C34.1202 14.13 34.1802 14.08 34.2402 14.03C34.7802 13.57 35.0902 12.88 35.2102 12.18C35.3302 11.48 34.8902 10.52 34.2802 11.44C33.9002 12.02 33.7302 12.89 33.7002 13.57H33.6802Z" fill="#89B731"/>
<path id="Vector_45" d="M32.2003 14.1799C32.2803 14.2799 32.3703 14.3799 32.4903 14.4299C32.6103 14.4799 32.7603 14.4699 32.8403 14.3699C32.8903 14.3099 32.9003 14.2299 32.9103 14.1599C33.0003 13.4599 32.7603 12.7399 32.3703 12.1399C31.9903 11.5399 31.0103 11.1299 31.1803 12.2199C31.2903 12.8999 31.7503 13.6699 32.1903 14.1899L32.2003 14.1799Z" fill="#89B731"/>
<path id="Vector_46" d="M34.31 15.5699C34.21 15.6799 34.12 15.8 34.09 15.95C34.06 16.09 34.1 16.27 34.23 16.34C34.31 16.38 34.4 16.3799 34.49 16.3799C35.3 16.3399 36.06 15.93 36.66 15.39C37.26 14.84 37.54 13.6599 36.34 14.0699C35.59 14.3199 34.82 14.9999 34.32 15.5799L34.31 15.5699Z" fill="#89B731"/>
<path id="Vector_47" d="M33.4302 15.91C33.4302 16.06 33.4302 16.21 33.5002 16.34C33.5702 16.47 33.7102 16.57 33.8602 16.55C33.9502 16.53 34.0202 16.48 34.0802 16.42C34.6802 15.87 35.0002 15.07 35.1102 14.27C35.2202 13.47 34.6702 12.38 34.0102 13.46C33.6002 14.13 33.4402 15.14 33.4302 15.92V15.91Z" fill="#89B731"/>
<path id="Vector_48" d="M32.87 16.2899C32.98 16.3899 33.09 16.4899 33.24 16.5299C33.38 16.5699 33.56 16.5299 33.63 16.4099C33.68 16.3399 33.68 16.2399 33.68 16.1599C33.68 15.3499 33.31 14.5699 32.79 13.9499C32.27 13.3299 31.1 12.9999 31.45 14.2099C31.67 14.9699 32.3 15.7699 32.87 16.2999V16.2899Z" fill="#89B731"/>
<path id="Vector_49" d="M32.06 16.49C32.2 16.53 32.35 16.57 32.49 16.54C32.63 16.51 32.77 16.4 32.79 16.25C32.79 16.16 32.76 16.08 32.72 16C32.36 15.27 31.68 14.74 30.93 14.42C30.19 14.09 28.99 14.32 29.85 15.25C30.38 15.83 31.31 16.26 32.05 16.49H32.06Z" fill="#89B731"/>
</g>
<path id="Vector_50" d="M29.8403 15.78L36.4203 15.86L34.7803 21.69H31.7203L29.8403 15.78Z" fill="#FF9E40"/>
</g>
<g id="Group_11">
<path id="Vector_51" d="M50.7799 23.58H0.919922V25.53H50.7799V23.58Z" fill="#4A4646"/>
<path id="Vector_52" d="M51.71 0.189941H0V4.08995H51.71V0.189941Z" fill="#4A4646"/>
<path id="Vector_53" d="M0.950195 3.10993L0.950195 24.5499H1.87019L1.87019 3.10993H0.950195Z" fill="#4A4646"/>
<path id="Vector_54" d="M8.33008 3.11993L8.33008 24.5599H9.25008L9.25008 3.11993H8.33008Z" fill="#4A4646"/>
<path id="Vector_55" d="M16.6401 3.10992V24.5499H17.5601V3.10992H16.6401Z" fill="#4A4646"/>
<path id="Vector_56" d="M24.9502 3.10993V24.5499H25.8702V3.10993H24.9502Z" fill="#4A4646"/>
<path id="Vector_57" d="M33.2598 4.0799V25.5199H34.1798V4.0799H33.2598Z" fill="#4A4646"/>
<path id="Vector_58" d="M41.5801 3.10992V24.5499H42.5001V3.10992H41.5801Z" fill="#4A4646"/>
<path id="Vector_59" d="M49.8901 3.10992V24.5499H50.8101V3.10992H49.8901Z" fill="#4A4646"/>
</g>
</g>
</svg>
