<svg width="44" height="16" viewBox="0 0 44 16" fill="none" xmlns="http://www.w3.org/2000/svg">
<path d="M16.558 5.27997C16.698 5.38997 16.848 5.49997 17.018 5.52997C17.188 5.55997 17.398 5.49997 17.478 5.33997C17.528 5.24997 17.528 5.13997 17.518 5.02997C17.438 4.04997 16.918 3.14997 16.228 2.44997C15.548 1.74997 14.098 1.45997 14.638 2.89997C14.978 3.78997 15.818 4.69997 16.548 5.27997H16.558Z" fill="#B0CC49"/>
<path d="M18.728 5.14996C18.788 5.28996 18.868 5.43996 18.988 5.52996C19.108 5.62996 19.298 5.65995 19.418 5.56995C19.488 5.51995 19.538 5.42996 19.568 5.33996C19.898 4.54996 19.848 3.63996 19.598 2.80996C19.348 1.98996 18.338 1.18995 18.188 2.51995C18.088 3.34995 18.388 4.38996 18.718 5.13996L18.728 5.14996Z" fill="#B0CC49"/>
<path d="M20.7681 4.8901C20.7681 5.0501 20.7681 5.21009 20.8281 5.35009C20.8981 5.49009 21.0481 5.60008 21.1981 5.58008C21.2881 5.57008 21.3681 5.51009 21.4381 5.45009C22.0881 4.89009 22.4581 4.06009 22.6081 3.21009C22.7581 2.37009 22.2181 1.20009 21.4781 2.31009C21.0181 3.01009 20.8081 4.0701 20.7681 4.8901Z" fill="#B0CC49"/>
<path d="M19.5679 3.24007C19.5679 3.40007 19.5679 3.56008 19.6279 3.70008C19.6979 3.84008 19.8479 3.95007 19.9979 3.93007C20.0879 3.92007 20.1679 3.86007 20.2379 3.80007C20.8879 3.24007 21.2579 2.41008 21.4079 1.56008C21.5579 0.720077 21.0179 -0.449923 20.2779 0.670077C19.8179 1.37008 19.6079 2.43008 19.5679 3.25008V3.24007Z" fill="#B0CC49"/>
<path d="M17.768 3.96999C17.868 4.08999 17.978 4.20999 18.118 4.26999C18.258 4.32999 18.448 4.30999 18.548 4.18999C18.608 4.11999 18.6281 4.02 18.6381 3.93C18.7481 3.08 18.4581 2.20999 17.9881 1.48999C17.5281 0.769993 16.338 0.269999 16.548 1.59C16.678 2.41 17.238 3.33999 17.768 3.96999Z" fill="#B0CC49"/>
<path d="M20.328 5.65003C20.208 5.79003 20.098 5.93002 20.058 6.10002C20.018 6.27002 20.078 6.48002 20.228 6.57002C20.318 6.62002 20.428 6.62003 20.538 6.62003C21.518 6.58003 22.438 6.08003 23.168 5.42003C23.888 4.76003 24.228 3.33002 22.778 3.82002C21.878 4.13002 20.938 4.94003 20.328 5.65003Z" fill="#B0CC49"/>
<path d="M19.2578 6.06011C19.2578 6.24011 19.2578 6.4201 19.3478 6.5801C19.4278 6.7401 19.6078 6.8601 19.7778 6.8301C19.8778 6.8101 19.9678 6.74012 20.0478 6.67012C20.7678 6.01012 21.1578 5.04011 21.2878 4.06011C21.4178 3.09011 20.7578 1.7801 19.9578 3.0801C19.4578 3.8901 19.2678 5.12011 19.2578 6.05011V6.06011Z" fill="#B0CC49"/>
<path d="M18.5778 6.5301C18.7078 6.6501 18.8478 6.77009 19.0178 6.82009C19.1878 6.87009 19.3978 6.8201 19.4878 6.6701C19.5478 6.5801 19.5478 6.4701 19.5478 6.3601C19.5478 5.3801 19.0978 4.44009 18.4678 3.68009C17.8378 2.93009 16.4278 2.5301 16.8478 4.0001C17.1078 4.9201 17.8778 5.8901 18.5578 6.5301H18.5778Z" fill="#B0CC49"/>
<path d="M17.5982 6.76004C17.7682 6.81004 17.9482 6.86004 18.1282 6.82004C18.2982 6.79004 18.4682 6.65003 18.4882 6.47003C18.4882 6.36003 18.4582 6.26005 18.4082 6.17005C17.9682 5.29005 17.1482 4.65004 16.2482 4.26004C15.3482 3.87004 13.9082 4.14004 14.9482 5.27004C15.5982 5.97004 16.7182 6.50004 17.6082 6.76004H17.5982Z" fill="#B0CC49"/>
<path d="M24.0082 5.78998C24.1482 5.89998 24.2982 6.00998 24.4682 6.03998C24.6382 6.06998 24.8482 6.00998 24.9282 5.84998C24.9782 5.75998 24.9782 5.64998 24.9682 5.53998C24.8882 4.55998 24.3682 3.65998 23.6782 2.95998C22.9982 2.25998 21.5482 1.96998 22.0882 3.40998C22.4282 4.29998 23.2682 5.20998 23.9982 5.78998H24.0082Z" fill="#4C9A51"/>
<path d="M26.1782 5.65996C26.2382 5.79996 26.3182 5.94996 26.4382 6.03996C26.5582 6.13996 26.7482 6.16995 26.8682 6.07995C26.9382 6.02995 26.9882 5.93996 27.0182 5.84996C27.3482 5.05996 27.2982 4.14996 27.0482 3.31996C26.7982 2.49996 25.7882 1.69997 25.6382 3.02997C25.5382 3.85997 25.8382 4.89996 26.1682 5.64996L26.1782 5.65996Z" fill="#4C9A51"/>
<path d="M28.2183 5.4C28.2183 5.56 28.2183 5.72 28.2783 5.86C28.3483 6 28.4983 6.11 28.6483 6.09C28.7383 6.08 28.8183 6.01999 28.8883 5.95999C29.5383 5.39999 29.9083 4.56999 30.0583 3.71999C30.2083 2.87999 29.6683 1.70999 28.9283 2.82999C28.4683 3.52999 28.2583 4.58999 28.2183 5.40999V5.4Z" fill="#4C9A51"/>
<path d="M27.0181 3.74996C27.0181 3.90996 27.0181 4.06995 27.0781 4.20995C27.1481 4.34995 27.2981 4.45995 27.4481 4.43995C27.5381 4.42995 27.6181 4.36996 27.6881 4.30996C28.3381 3.74996 28.7081 2.91995 28.8581 2.06995C29.0081 1.22995 28.4681 0.0599577 27.7281 1.16996C27.2681 1.86996 27.0581 2.92996 27.0181 3.74996Z" fill="#4C9A51"/>
<path d="M25.2182 4.48001C25.3182 4.60001 25.4282 4.72001 25.5682 4.78001C25.7082 4.84001 25.8982 4.82001 25.9982 4.70001C26.0582 4.63001 26.0782 4.53 26.0882 4.44C26.1982 3.59 25.9082 2.72001 25.4382 2.00001C24.9782 1.28001 23.7882 0.780003 23.9982 2.1C24.1282 2.92 24.6882 3.85001 25.2182 4.48001Z" fill="#4C9A51"/>
<path d="M27.7782 6.16004C27.6582 6.30004 27.5482 6.44005 27.5082 6.61005C27.4682 6.78005 27.5282 6.99003 27.6782 7.08003C27.7682 7.13003 27.8782 7.13004 27.9882 7.13004C28.9682 7.09004 29.8882 6.59004 30.6182 5.93004C31.3382 5.27004 31.6782 3.84003 30.2282 4.33003C29.3282 4.64003 28.3882 5.45004 27.7782 6.16004Z" fill="#4C9A51"/>
<path d="M26.708 6.56987C26.708 6.74987 26.708 6.92987 26.798 7.08987C26.878 7.24987 27.058 7.36987 27.228 7.33987C27.328 7.31987 27.418 7.24987 27.498 7.17987C28.218 6.51987 28.608 5.54987 28.738 4.56987C28.868 3.59987 28.208 2.28987 27.408 3.58987C26.908 4.39987 26.718 5.62987 26.708 6.55987V6.56987Z" fill="#4C9A51"/>
<path d="M26.028 7.03986C26.158 7.15986 26.298 7.27985 26.468 7.32985C26.638 7.37985 26.848 7.32986 26.938 7.17986C26.998 7.08986 26.998 6.97986 26.998 6.86986C26.998 5.88986 26.548 4.94986 25.918 4.18986C25.288 3.43986 23.878 3.03986 24.298 4.50986C24.558 5.42986 25.328 6.39986 26.008 7.03986H26.028Z" fill="#4C9A51"/>
<path d="M25.0484 7.27005C25.2184 7.32005 25.3984 7.37005 25.5784 7.33005C25.7484 7.30005 25.9184 7.16006 25.9384 6.98006C25.9384 6.87006 25.9084 6.77005 25.8584 6.68005C25.4184 5.80005 24.5984 5.16005 23.6984 4.77005C22.7984 4.38005 21.3584 4.65006 22.3984 5.78006C23.0484 6.48006 24.1684 7.01005 25.0584 7.27005H25.0484Z" fill="#4C9A51"/>
<path d="M17.7179 2.77998C17.3479 2.84998 17.1379 3.30998 17.2579 3.66998C17.3779 4.02998 17.7479 4.25998 18.1279 4.27998C18.2479 4.27998 18.3679 4.27997 18.4679 4.22997C18.6379 4.15997 18.7579 3.99996 18.8179 3.82996C18.9279 3.53996 18.8779 3.17997 18.6579 2.94997C18.4379 2.71997 18.0679 2.64997 17.7979 2.79997" fill="#E13030"/>
<path d="M26.1081 3.37005C25.7381 3.44005 25.5281 3.90005 25.6481 4.26005C25.7681 4.62005 26.1381 4.85005 26.5181 4.87005C26.6381 4.87005 26.7581 4.87005 26.8581 4.82005C27.0281 4.75005 27.1481 4.59006 27.2081 4.42006C27.3181 4.13006 27.2681 3.77005 27.0481 3.54005C26.8281 3.31005 26.4581 3.24006 26.1881 3.39006" fill="#E13030"/>
<path d="M2.03801 8.53998C2.17801 8.64998 2.32801 8.75998 2.49801 8.78998C2.66801 8.81998 2.87801 8.75998 2.95801 8.59998C3.00801 8.50998 3.00801 8.39998 2.99801 8.28998C2.91801 7.30998 2.39801 6.40998 1.70801 5.70998C1.02801 5.00998 -0.421998 4.71998 0.118002 6.15998C0.458002 7.04998 1.29801 7.95998 2.02801 8.53998H2.03801Z" fill="#B0CC49"/>
<path d="M4.20798 8.39996C4.26798 8.53996 4.34798 8.68996 4.46798 8.77996C4.58798 8.86996 4.77798 8.90995 4.89798 8.81995C4.96798 8.76995 5.01798 8.67996 5.04798 8.58996C5.37798 7.79996 5.32798 6.88996 5.07798 6.05996C4.82798 5.23996 3.81798 4.43995 3.66798 5.76995C3.56798 6.59995 3.86798 7.63996 4.19798 8.38996L4.20798 8.39996Z" fill="#B0CC49"/>
<path d="M6.24805 8.15C6.24805 8.31 6.24804 8.47 6.30804 8.61C6.37804 8.75 6.52805 8.86 6.67805 8.84C6.76805 8.83 6.84805 8.76999 6.91805 8.70999C7.56805 8.14999 7.93804 7.31999 8.08804 6.46999C8.23804 5.62999 7.69805 4.45999 6.95805 5.57999C6.49805 6.27999 6.28805 7.33999 6.24805 8.15999V8.15Z" fill="#B0CC49"/>
<path d="M5.04785 6.50009C5.04785 6.66009 5.04786 6.82009 5.10786 6.96009C5.17786 7.10009 5.32785 7.21008 5.47785 7.19008C5.56785 7.18008 5.64786 7.12009 5.71786 7.06009C6.36786 6.50009 6.73786 5.67009 6.88786 4.82009C7.03786 3.98009 6.49786 2.81009 5.75786 3.93009C5.29786 4.63009 5.08785 5.69009 5.04785 6.51009V6.50009Z" fill="#B0CC49"/>
<path d="M3.24803 7.23001C3.34803 7.35001 3.45803 7.47001 3.59803 7.53001C3.73803 7.59001 3.92803 7.57001 4.02803 7.45001C4.08803 7.38001 4.10802 7.28 4.11802 7.19C4.22802 6.34 3.93803 5.47001 3.46803 4.75001C3.00803 4.03001 1.81803 3.53 2.02803 4.85C2.15803 5.67 2.71803 6.60001 3.24803 7.23001Z" fill="#B0CC49"/>
<path d="M5.80796 8.91004C5.68796 9.05004 5.57796 9.19005 5.53796 9.36005C5.49796 9.53005 5.55796 9.74003 5.70796 9.83003C5.79796 9.88003 5.90796 9.88004 6.01796 9.88004C6.99796 9.84004 7.91796 9.34004 8.64796 8.68004C9.36796 8.02004 9.70796 6.59003 8.25796 7.08003C7.35796 7.39003 6.41796 8.20004 5.80796 8.91004Z" fill="#B0CC49"/>
<path d="M4.73779 9.32011C4.73779 9.50011 4.7378 9.68012 4.8278 9.84012C4.9078 10.0001 5.0878 10.1201 5.2578 10.0901C5.3578 10.0701 5.44779 10.0001 5.52779 9.93011C6.24779 9.27011 6.63779 8.30011 6.76779 7.32011C6.89779 6.35011 6.23779 5.04012 5.43779 6.34012C4.93779 7.15012 4.74779 8.38012 4.73779 9.31012V9.32011Z" fill="#B0CC49"/>
<path d="M4.05779 9.79011C4.18779 9.91011 4.3278 10.0301 4.4978 10.0801C4.6678 10.1301 4.8778 10.0801 4.9678 9.9301C5.0278 9.84011 5.0278 9.73011 5.0278 9.62011C5.0278 8.64011 4.57779 7.7001 3.94779 6.9401C3.31779 6.1901 1.9078 5.79011 2.3278 7.26011C2.5878 8.18011 3.3578 9.15011 4.0378 9.79011H4.05779Z" fill="#B0CC49"/>
<path d="M3.07816 10.02C3.24816 10.07 3.42816 10.12 3.60816 10.08C3.77816 10.05 3.94816 9.91006 3.96816 9.73006C3.96816 9.62006 3.93816 9.52005 3.88816 9.43005C3.44816 8.55005 2.62816 7.91005 1.72816 7.52005C0.828156 7.13005 -0.611839 7.40006 0.428161 8.53006C1.07816 9.23006 2.19816 9.76005 3.08816 10.02H3.07816Z" fill="#B0CC49"/>
<path d="M7.34806 8.02997C7.48806 8.13997 7.63806 8.24997 7.80806 8.27997C7.97806 8.30997 8.18806 8.24997 8.26806 8.08997C8.31806 7.99997 8.31806 7.88997 8.30806 7.77997C8.22806 6.79997 7.70806 5.89997 7.01806 5.19997C6.33806 4.49997 4.88806 4.20997 5.42806 5.64997C5.76806 6.53997 6.60806 7.44997 7.33806 8.02997H7.34806Z" fill="#4C9A51"/>
<path d="M9.51804 7.8902C9.57804 8.0302 9.65804 8.18018 9.77804 8.27018C9.89804 8.37018 10.088 8.40019 10.208 8.31019C10.278 8.26019 10.328 8.17018 10.358 8.08018C10.688 7.29018 10.638 6.38018 10.388 5.55018C10.138 4.73018 9.12804 3.93019 8.97804 5.26019C8.87804 6.09019 9.17805 7.13019 9.50805 7.88019L9.51804 7.8902Z" fill="#4C9A51"/>
<path d="M11.5581 7.63999C11.5581 7.79999 11.5581 7.95998 11.6181 8.09998C11.6881 8.23998 11.8381 8.34997 11.9881 8.32997C12.0781 8.31997 12.1581 8.25998 12.2281 8.19998C12.8781 7.63998 13.2481 6.80998 13.3981 5.95998C13.5481 5.11998 13.0081 3.94998 12.2681 5.06998C11.8081 5.76998 11.5981 6.82998 11.5581 7.64998V7.63999Z" fill="#4C9A51"/>
<path d="M10.3579 5.98007C10.3579 6.14007 10.3579 6.30007 10.4179 6.44007C10.4879 6.58007 10.6379 6.69008 10.7879 6.67008C10.8779 6.66008 10.9579 6.60007 11.0279 6.54007C11.6779 5.98007 12.0479 5.15007 12.1979 4.30007C12.3479 3.46007 11.8079 2.29007 11.0679 3.41007C10.6079 4.11007 10.3979 5.17007 10.3579 5.99007V5.98007Z" fill="#4C9A51"/>
<path d="M8.56785 6.71999C8.66785 6.83999 8.77785 6.95999 8.91785 7.01999C9.05785 7.07999 9.24785 7.05999 9.34785 6.93999C9.40785 6.86999 9.42785 6.77 9.43785 6.68C9.54785 5.83 9.25786 4.95999 8.78786 4.23999C8.32786 3.51999 7.13785 3.02 7.34785 4.34C7.47785 5.16 8.03785 6.08999 8.56785 6.71999Z" fill="#4C9A51"/>
<path d="M11.118 8.40003C10.998 8.54003 10.888 8.68002 10.848 8.85002C10.808 9.02002 10.868 9.23002 11.018 9.32002C11.108 9.37002 11.218 9.37003 11.328 9.37003C12.308 9.33003 13.228 8.83003 13.958 8.17003C14.678 7.51003 15.018 6.08002 13.568 6.57002C12.668 6.88002 11.728 7.69003 11.118 8.40003Z" fill="#4C9A51"/>
<path d="M10.0581 8.81011C10.0581 8.99011 10.0581 9.1701 10.1481 9.3301C10.2281 9.4901 10.4081 9.6101 10.5781 9.5801C10.6781 9.5601 10.7681 9.49012 10.8481 9.42012C11.5681 8.76012 11.9581 7.79011 12.0881 6.81011C12.2181 5.84011 11.5581 4.5301 10.7581 5.8301C10.2581 6.6401 10.0681 7.87011 10.0581 8.80011V8.81011Z" fill="#4C9A51"/>
<path d="M9.37811 9.27008C9.50811 9.39008 9.64811 9.51009 9.81811 9.56009C9.98811 9.61009 10.1981 9.56008 10.2881 9.41008C10.3481 9.32008 10.3481 9.21008 10.3481 9.10008C10.3481 8.12008 9.89811 7.18009 9.26811 6.42009C8.63811 5.67009 7.22811 5.27008 7.64811 6.74008C7.90811 7.66008 8.67811 8.63008 9.35811 9.27008H9.37811Z" fill="#4C9A51"/>
<path d="M8.38822 9.51004C8.55822 9.56004 8.73822 9.61004 8.91822 9.57004C9.08822 9.54004 9.25822 9.40003 9.27822 9.22003C9.27822 9.11003 9.24822 9.01005 9.19822 8.92005C8.75822 8.04005 7.93822 7.40004 7.03822 7.01004C6.13822 6.62004 4.69822 6.89004 5.73822 8.02004C6.38822 8.72004 7.50822 9.25004 8.39822 9.51004H8.38822Z" fill="#4C9A51"/>
<path d="M13.7582 8.35004C13.8982 8.46004 14.0482 8.57004 14.2182 8.60004C14.3882 8.63004 14.5982 8.57004 14.6782 8.41004C14.7282 8.32004 14.7282 8.21004 14.7182 8.10004C14.6382 7.12004 14.1182 6.22004 13.4282 5.52004C12.7482 4.82004 11.2982 4.53003 11.8382 5.97003C12.1782 6.86003 13.0182 7.77004 13.7482 8.35004H13.7582Z" fill="#B0CC49"/>
<path d="M15.9184 8.21001C15.9784 8.35001 16.0584 8.50002 16.1784 8.59002C16.2984 8.69002 16.4884 8.72001 16.6084 8.63001C16.6784 8.58001 16.7284 8.49002 16.7584 8.40002C17.0884 7.61002 17.0384 6.70002 16.7884 5.87002C16.5384 5.05002 15.5284 4.25001 15.3784 5.58001C15.2784 6.41001 15.5784 7.45002 15.9084 8.20002L15.9184 8.21001Z" fill="#B0CC49"/>
<path d="M17.958 7.96004C17.958 8.12004 17.958 8.28005 18.018 8.42005C18.088 8.56005 18.238 8.67004 18.388 8.65004C18.478 8.64004 18.558 8.58004 18.628 8.52004C19.278 7.96004 19.648 7.13005 19.798 6.28005C19.948 5.44005 19.408 4.27005 18.668 5.39005C18.208 6.09005 17.998 7.15003 17.958 7.97003V7.96004Z" fill="#B0CC49"/>
<path d="M16.7583 6.31015C16.7583 6.47015 16.7583 6.63014 16.8183 6.77014C16.8883 6.91014 17.0383 7.02016 17.1883 7.00016C17.2783 6.99016 17.3583 6.93015 17.4283 6.87015C18.0783 6.31015 18.4483 5.48015 18.5983 4.63015C18.7483 3.79015 18.2083 2.62015 17.4683 3.74015C17.0083 4.44015 16.7983 5.50015 16.7583 6.32015V6.31015Z" fill="#B0CC49"/>
<path d="M14.9682 7.04007C15.0682 7.16007 15.1782 7.28007 15.3182 7.34007C15.4582 7.40007 15.6482 7.38007 15.7482 7.26007C15.8082 7.19007 15.8282 7.09007 15.8382 7.00007C15.9482 6.15007 15.6582 5.28007 15.1882 4.56007C14.7282 3.84007 13.5382 3.34006 13.7482 4.66006C13.8782 5.48006 14.4382 6.41007 14.9682 7.04007Z" fill="#B0CC49"/>
<path d="M17.5282 8.72008C17.4082 8.86008 17.2982 9.00009 17.2582 9.17009C17.2182 9.34009 17.2782 9.55009 17.4282 9.64009C17.5182 9.69009 17.6282 9.69008 17.7382 9.69008C18.7182 9.65008 19.6382 9.15008 20.3682 8.49008C21.0882 7.83008 21.4282 6.40009 19.9782 6.89009C19.0782 7.20009 18.1382 8.01008 17.5282 8.72008Z" fill="#B0CC49"/>
<path d="M16.458 9.13017C16.458 9.31017 16.458 9.49018 16.548 9.65018C16.628 9.81018 16.808 9.93018 16.978 9.90018C17.078 9.88018 17.168 9.81017 17.248 9.74017C17.968 9.08017 18.358 8.11017 18.488 7.13017C18.618 6.16017 17.958 4.85018 17.158 6.15018C16.658 6.96018 16.468 8.19018 16.458 9.12018V9.13017Z" fill="#B0CC49"/>
<path d="M15.778 9.60016C15.908 9.72016 16.048 9.84017 16.218 9.89017C16.388 9.94017 16.598 9.89016 16.688 9.74016C16.748 9.65016 16.748 9.54016 16.748 9.43016C16.748 8.45016 16.298 7.51017 15.668 6.75017C15.038 6.00017 13.628 5.60016 14.048 7.07016C14.308 7.99016 15.078 8.96016 15.758 9.60016H15.778Z" fill="#B0CC49"/>
<path d="M14.7984 9.83011C14.9684 9.88011 15.1484 9.93012 15.3284 9.89012C15.4984 9.86012 15.6684 9.72012 15.6884 9.54012C15.6884 9.43012 15.6584 9.33011 15.6084 9.24011C15.1684 8.36011 14.3484 7.72011 13.4484 7.33011C12.5484 6.94011 11.1084 7.21012 12.1484 8.34012C12.7984 9.04012 13.9184 9.57011 14.8084 9.83011H14.7984Z" fill="#B0CC49"/>
<path d="M20.538 8.02997C20.678 8.13997 20.828 8.24997 20.998 8.27997C21.168 8.30997 21.378 8.24997 21.458 8.08997C21.508 7.99997 21.508 7.88997 21.498 7.77997C21.418 6.79997 20.898 5.89997 20.208 5.19997C19.528 4.49997 18.078 4.20997 18.618 5.64997C18.958 6.53997 19.798 7.44997 20.528 8.02997H20.538Z" fill="#4C9A51"/>
<path d="M22.708 7.8902C22.768 8.0302 22.848 8.18018 22.968 8.27018C23.088 8.37018 23.278 8.40019 23.398 8.31019C23.468 8.26019 23.518 8.17018 23.548 8.08018C23.878 7.29018 23.828 6.38018 23.578 5.55018C23.328 4.73018 22.318 3.93019 22.168 5.26019C22.068 6.09019 22.368 7.13019 22.698 7.88019L22.708 7.8902Z" fill="#4C9A51"/>
<path d="M24.748 7.63999C24.748 7.79999 24.748 7.95998 24.808 8.09998C24.878 8.23998 25.028 8.34997 25.178 8.32997C25.268 8.31997 25.348 8.25998 25.418 8.19998C26.068 7.63998 26.438 6.80998 26.588 5.95998C26.738 5.11998 26.198 3.94998 25.458 5.06998C24.998 5.76998 24.788 6.82998 24.748 7.64998V7.63999Z" fill="#4C9A51"/>
<path d="M23.5479 5.98007C23.5479 6.14007 23.5479 6.30007 23.6079 6.44007C23.6779 6.58007 23.8279 6.69008 23.9779 6.67008C24.0679 6.66008 24.1479 6.60007 24.2179 6.54007C24.8679 5.98007 25.2379 5.15007 25.3879 4.30007C25.5379 3.46007 24.9979 2.29007 24.2579 3.41007C23.7979 4.11007 23.5879 5.17007 23.5479 5.99007V5.98007Z" fill="#4C9A51"/>
<path d="M21.748 6.71999C21.848 6.83999 21.958 6.95999 22.098 7.01999C22.238 7.07999 22.428 7.05999 22.528 6.93999C22.588 6.86999 22.608 6.77 22.618 6.68C22.728 5.83 22.438 4.95999 21.968 4.23999C21.508 3.51999 20.318 3.02 20.528 4.34C20.658 5.16 21.218 6.08999 21.748 6.71999Z" fill="#4C9A51"/>
<path d="M24.308 8.40003C24.188 8.54003 24.078 8.68002 24.038 8.85002C23.998 9.02002 24.058 9.23002 24.208 9.32002C24.298 9.37002 24.408 9.37003 24.518 9.37003C25.498 9.33003 26.418 8.83003 27.148 8.17003C27.868 7.51003 28.208 6.08002 26.758 6.57002C25.858 6.88002 24.918 7.69003 24.308 8.40003Z" fill="#4C9A51"/>
<path d="M23.2378 8.81011C23.2378 8.99011 23.2378 9.1701 23.3278 9.3301C23.4078 9.4901 23.5878 9.6101 23.7578 9.5801C23.8578 9.5601 23.9478 9.49012 24.0278 9.42012C24.7478 8.76012 25.1378 7.79011 25.2678 6.81011C25.3978 5.84011 24.7378 4.5301 23.9378 5.8301C23.4378 6.6401 23.2478 7.87011 23.2378 8.80011V8.81011Z" fill="#4C9A51"/>
<path d="M22.5578 9.27008C22.6878 9.39008 22.8278 9.51009 22.9978 9.56009C23.1678 9.61009 23.3778 9.56008 23.4678 9.41008C23.5278 9.32008 23.5278 9.21008 23.5278 9.10008C23.5278 8.12008 23.0778 7.18009 22.4478 6.42009C21.8178 5.67009 20.4078 5.27008 20.8278 6.74008C21.0878 7.66008 21.8578 8.63008 22.5378 9.27008H22.5578Z" fill="#4C9A51"/>
<path d="M21.5782 9.51004C21.7482 9.56004 21.9282 9.61004 22.1082 9.57004C22.2782 9.54004 22.4482 9.40003 22.4682 9.22003C22.4682 9.11003 22.4382 9.01005 22.3882 8.92005C21.9482 8.04005 21.1282 7.40004 20.2282 7.01004C19.3282 6.62004 17.8882 6.89004 18.9282 8.02004C19.5782 8.72004 20.6982 9.25004 21.5882 9.51004H21.5782Z" fill="#4C9A51"/>
<path d="M27.9281 8.60004C28.0681 8.71004 28.2181 8.82004 28.3881 8.85004C28.5581 8.88004 28.7681 8.82004 28.8481 8.66004C28.8981 8.57004 28.8981 8.46004 28.8881 8.35004C28.8081 7.37004 28.2881 6.47004 27.5981 5.77004C26.9181 5.07004 25.4681 4.78003 26.0081 6.22003C26.3481 7.11003 27.1881 8.02004 27.9181 8.60004H27.9281Z" fill="#B0CC49"/>
<path d="M30.0981 8.46001C30.1581 8.60001 30.2381 8.75002 30.3581 8.84002C30.4781 8.94002 30.6681 8.97001 30.7881 8.88001C30.8581 8.83001 30.9081 8.74002 30.9381 8.65002C31.2681 7.86002 31.2181 6.95002 30.9681 6.12002C30.7181 5.30002 29.7081 4.50001 29.5581 5.83001C29.4581 6.66001 29.7581 7.70002 30.0881 8.45002L30.0981 8.46001Z" fill="#B0CC49"/>
<path d="M32.1279 8.21004C32.1279 8.37004 32.1279 8.53005 32.1879 8.67005C32.2579 8.81005 32.4079 8.92004 32.5579 8.90004C32.6479 8.89004 32.7279 8.83004 32.7979 8.77004C33.4479 8.21004 33.8179 7.38005 33.9679 6.53005C34.1179 5.69005 33.5779 4.52005 32.8379 5.64005C32.3779 6.34005 32.1679 7.40003 32.1279 8.22003V8.21004Z" fill="#B0CC49"/>
<path d="M30.9282 6.56015C30.9282 6.72015 30.9282 6.88014 30.9882 7.02014C31.0582 7.16014 31.2082 7.27016 31.3582 7.25016C31.4482 7.24016 31.5282 7.18015 31.5982 7.12015C32.2482 6.56015 32.6182 5.73015 32.7682 4.88015C32.9182 4.04015 32.3782 2.87015 31.6382 3.99015C31.1782 4.69015 30.9682 5.75015 30.9282 6.57015V6.56015Z" fill="#B0CC49"/>
<path d="M29.1382 7.29007C29.2382 7.41007 29.3482 7.53007 29.4882 7.59007C29.6282 7.65007 29.8182 7.63007 29.9182 7.51007C29.9782 7.44007 29.9982 7.34007 30.0082 7.25007C30.1182 6.40007 29.8282 5.53007 29.3582 4.81007C28.8982 4.09007 27.7082 3.59006 27.9182 4.91006C28.0482 5.73006 28.6082 6.66007 29.1382 7.29007Z" fill="#B0CC49"/>
<path d="M31.6981 8.97008C31.5781 9.11008 31.4681 9.25009 31.4281 9.42009C31.3881 9.59009 31.4481 9.80009 31.5981 9.89009C31.6881 9.94009 31.7981 9.94008 31.9081 9.94008C32.8881 9.90008 33.8081 9.40008 34.5381 8.74008C35.2581 8.08008 35.5981 6.65009 34.1481 7.14009C33.2481 7.45009 32.3081 8.26008 31.6981 8.97008Z" fill="#B0CC49"/>
<path d="M30.6279 9.38017C30.6279 9.56017 30.6279 9.74018 30.7179 9.90018C30.7979 10.0602 30.9779 10.1802 31.1479 10.1502C31.2479 10.1302 31.3379 10.0602 31.4179 9.99017C32.1379 9.33017 32.5279 8.36017 32.6579 7.38017C32.7879 6.41017 32.1279 5.10018 31.3279 6.40018C30.8279 7.21018 30.6379 8.44018 30.6279 9.37018V9.38017Z" fill="#B0CC49"/>
<path d="M29.9479 9.85016C30.0779 9.97016 30.2179 10.0902 30.3879 10.1402C30.5579 10.1902 30.7679 10.1402 30.8579 9.99016C30.9179 9.90016 30.9179 9.79016 30.9179 9.68016C30.9179 8.70016 30.4679 7.76017 29.8379 7.00017C29.2079 6.25017 27.7979 5.85016 28.2179 7.32016C28.4779 8.24016 29.2479 9.21016 29.9279 9.85016H29.9479Z" fill="#B0CC49"/>
<path d="M28.9683 10.0801C29.1383 10.1301 29.3183 10.1801 29.4983 10.1401C29.6683 10.1101 29.8383 9.97012 29.8583 9.79012C29.8583 9.68012 29.8283 9.58011 29.7783 9.49011C29.3383 8.61011 28.5183 7.97011 27.6183 7.58011C26.7183 7.19011 25.2783 7.46012 26.3183 8.59012C26.9683 9.29012 28.0883 9.82011 28.9783 10.0801H28.9683Z" fill="#B0CC49"/>
<path d="M33.6879 8.22014C33.8279 8.33014 33.9779 8.44014 34.1479 8.47014C34.3179 8.50014 34.5279 8.44015 34.6079 8.28015C34.6579 8.19015 34.6579 8.08014 34.6479 7.97014C34.5679 6.99014 34.0479 6.09016 33.3579 5.39016C32.6779 4.69016 31.2279 4.40015 31.7679 5.84015C32.1079 6.73015 32.9479 7.64014 33.6779 8.22014H33.6879Z" fill="#4C9A51"/>
<path d="M35.8481 8.08012C35.9081 8.22012 35.9881 8.37013 36.1081 8.46013C36.2281 8.56013 36.4181 8.59013 36.5381 8.50013C36.6081 8.45013 36.6581 8.36012 36.6881 8.27012C37.0181 7.48012 36.9681 6.57013 36.7181 5.74013C36.4681 4.92013 35.4581 4.12013 35.3081 5.45013C35.2081 6.28013 35.5081 7.32013 35.8381 8.07013L35.8481 8.08012Z" fill="#4C9A51"/>
<path d="M37.8877 7.83016C37.8877 7.99016 37.8877 8.15016 37.9477 8.29016C38.0177 8.43016 38.1677 8.54016 38.3177 8.52016C38.4077 8.51016 38.4877 8.45017 38.5577 8.39017C39.2077 7.83017 39.5777 7.00016 39.7277 6.15016C39.8777 5.31016 39.3377 4.14017 38.5977 5.26017C38.1377 5.96017 37.9277 7.02017 37.8877 7.84017V7.83016Z" fill="#4C9A51"/>
<path d="M36.688 6.17013C36.688 6.33013 36.688 6.49012 36.748 6.63012C36.818 6.77012 36.968 6.88013 37.118 6.86013C37.208 6.85013 37.288 6.79012 37.358 6.73012C38.008 6.17012 38.378 5.34012 38.528 4.49012C38.678 3.65012 38.138 2.48012 37.398 3.59012C36.938 4.29012 36.728 5.35013 36.688 6.17013Z" fill="#4C9A51"/>
<path d="M34.8979 6.91017C34.9979 7.03017 35.1079 7.15018 35.2479 7.21018C35.3879 7.27018 35.5779 7.25018 35.6779 7.13018C35.7379 7.06018 35.7579 6.96018 35.7679 6.87018C35.8779 6.02018 35.5879 5.15018 35.1179 4.43018C34.6579 3.71018 33.4679 3.21018 33.6779 4.53019C33.8079 5.35019 34.3679 6.28017 34.8979 6.91017Z" fill="#4C9A51"/>
<path d="M37.4481 8.59021C37.3281 8.73021 37.2181 8.87021 37.1781 9.04021C37.1381 9.21021 37.1981 9.42021 37.3481 9.51021C37.4381 9.56021 37.5481 9.56021 37.6581 9.56021C38.6381 9.52021 39.5581 9.02022 40.2881 8.36022C41.0081 7.70022 41.3481 6.27021 39.8981 6.76021C38.9981 7.07021 38.0581 7.88021 37.4481 8.59021Z" fill="#4C9A51"/>
<path d="M36.3877 9.00006C36.3877 9.18006 36.3877 9.36005 36.4777 9.52005C36.5577 9.68005 36.7377 9.80005 36.9077 9.77005C37.0077 9.75005 37.0977 9.68006 37.1777 9.61006C37.8977 8.95006 38.2877 7.98006 38.4177 7.00006C38.5477 6.03006 37.8877 4.72005 37.0877 6.02005C36.5877 6.83005 36.3977 8.06005 36.3877 8.99005V9.00006Z" fill="#4C9A51"/>
<path d="M35.7077 9.46002C35.8377 9.58002 35.9777 9.70003 36.1477 9.75003C36.3177 9.80003 36.5277 9.75002 36.6177 9.60002C36.6777 9.51002 36.6777 9.40002 36.6777 9.29002C36.6777 8.31002 36.2277 7.37003 35.5977 6.61003C34.9677 5.86003 33.5577 5.46002 33.9777 6.93002C34.2377 7.85002 35.0077 8.82002 35.6877 9.46002H35.7077Z" fill="#4C9A51"/>
<path d="M34.7281 9.70023C34.8981 9.75023 35.0781 9.80023 35.2581 9.76023C35.4281 9.73023 35.5981 9.59022 35.6181 9.41022C35.6181 9.30022 35.5881 9.20023 35.5381 9.11023C35.0981 8.23023 34.2781 7.59023 33.3781 7.20023C32.4781 6.81023 31.0381 7.08022 32.0781 8.21022C32.7281 8.91022 33.8481 9.44023 34.7381 9.70023H34.7281Z" fill="#4C9A51"/>
<path d="M36.4482 8.09003C36.5882 8.20003 36.7382 8.31003 36.9082 8.34003C37.0782 8.37003 37.2882 8.31003 37.3682 8.15003C37.4182 8.06003 37.4182 7.95003 37.4082 7.84003C37.3282 6.86003 36.8082 5.96003 36.1182 5.26003C35.4382 4.56003 33.9882 4.27003 34.5282 5.71003C34.8682 6.60003 35.7082 7.51003 36.4382 8.09003H36.4482Z" fill="#B0CC49"/>
<path d="M38.6084 7.95025C38.6684 8.09025 38.7484 8.24024 38.8684 8.33024C38.9884 8.43024 39.1784 8.46025 39.2984 8.37025C39.3684 8.32025 39.4184 8.23025 39.4484 8.14025C39.7784 7.35025 39.7284 6.44025 39.4784 5.61025C39.2284 4.79025 38.2184 3.99024 38.0684 5.32024C37.9684 6.15024 38.2684 7.19024 38.5984 7.94024L38.6084 7.95025Z" fill="#B0CC49"/>
<path d="M40.6479 7.70005C40.6479 7.86005 40.6479 8.02004 40.7079 8.16004C40.7779 8.30004 40.9279 8.41005 41.0779 8.39005C41.1679 8.38005 41.2479 8.32004 41.3179 8.26004C41.9679 7.70004 42.3379 6.87004 42.4879 6.02004C42.6379 5.18004 42.0979 4.01004 41.3579 5.13004C40.8979 5.83004 40.6879 6.89004 40.6479 7.71004V7.70005Z" fill="#B0CC49"/>
<path d="M39.4482 6.04013C39.4482 6.20013 39.4482 6.36014 39.5082 6.50014C39.5782 6.64014 39.7282 6.75013 39.8782 6.73013C39.9682 6.72013 40.0482 6.66013 40.1182 6.60013C40.7682 6.04013 41.1382 5.21014 41.2882 4.36014C41.4382 3.52014 40.8982 2.35012 40.1582 3.47012C39.6982 4.17012 39.4882 5.23012 39.4482 6.05012V6.04013Z" fill="#B0CC49"/>
<path d="M37.6582 6.78006C37.7582 6.90006 37.8682 7.02005 38.0082 7.08005C38.1482 7.14005 38.3382 7.12006 38.4382 7.00006C38.4982 6.93006 38.5182 6.83005 38.5282 6.74005C38.6382 5.89005 38.3482 5.02005 37.8782 4.30005C37.4182 3.58005 36.2282 3.08006 36.4382 4.40006C36.5682 5.22006 37.1282 6.15006 37.6582 6.78006Z" fill="#B0CC49"/>
<path d="M40.2084 8.46008C40.0884 8.60008 39.9784 8.74008 39.9384 8.91008C39.8984 9.08008 39.9584 9.29008 40.1084 9.38008C40.1984 9.43008 40.3084 9.43009 40.4184 9.43009C41.3984 9.39009 42.3184 8.89009 43.0484 8.23009C43.7684 7.57009 44.1084 6.14008 42.6584 6.63008C41.7584 6.94008 40.8184 7.75008 40.2084 8.46008Z" fill="#B0CC49"/>
<path d="M39.1479 8.87016C39.1479 9.05016 39.1479 9.23017 39.2379 9.39017C39.3179 9.55017 39.4979 9.67017 39.6679 9.64017C39.7679 9.62017 39.8579 9.55016 39.9379 9.48016C40.6579 8.82016 41.0479 7.85016 41.1779 6.87016C41.3079 5.90016 40.6479 4.59017 39.8479 5.89017C39.3479 6.70017 39.1579 7.93017 39.1479 8.86017V8.87016Z" fill="#B0CC49"/>
<path d="M38.468 9.33014C38.598 9.45014 38.738 9.57015 38.908 9.62015C39.078 9.67015 39.288 9.62014 39.378 9.47014C39.438 9.38014 39.438 9.27014 39.438 9.16014C39.438 8.18014 38.988 7.24015 38.358 6.48015C37.728 5.73015 36.318 5.33014 36.738 6.80014C36.998 7.72014 37.768 8.69014 38.448 9.33014H38.468Z" fill="#B0CC49"/>
<path d="M37.4883 9.5701C37.6583 9.6201 37.8383 9.6701 38.0183 9.6301C38.1883 9.6001 38.3583 9.46011 38.3783 9.28011C38.3783 9.17011 38.3483 9.07011 38.2983 8.98011C37.8583 8.10011 37.0383 7.4601 36.1383 7.0701C35.2383 6.6801 33.7983 6.9501 34.8383 8.0801C35.4883 8.7801 36.6083 9.3101 37.4983 9.5701H37.4883Z" fill="#B0CC49"/>
<path d="M0.248047 8.70996H43.818L42.468 15.51H1.67805L0.248047 8.70996Z" fill="#1E3962"/>
<path d="M7.81805 5.54999C7.44805 5.61999 7.23805 6.07998 7.35805 6.43998C7.47805 6.79998 7.84804 7.02999 8.22804 7.04999C8.34804 7.04999 8.46805 7.05 8.56805 7C8.73805 6.93 8.85804 6.76999 8.91804 6.59999C9.02804 6.30999 8.97805 5.94998 8.75805 5.71998C8.53805 5.48998 8.16805 5.41999 7.89805 5.56999" fill="#E13030"/>
<path d="M34.818 6.07C34.448 6.14 34.238 6.6 34.358 6.96C34.478 7.32 34.848 7.55 35.228 7.57C35.348 7.57 35.468 7.57 35.568 7.52C35.738 7.45 35.858 7.29001 35.918 7.12001C36.028 6.83001 35.978 6.47 35.758 6.24C35.538 6.01 35.168 5.94001 34.898 6.09001" fill="#E13030"/>
<path d="M22.6379 5.41009C22.2679 5.48009 22.0579 5.94009 22.1779 6.30009C22.2979 6.66009 22.6679 6.89009 23.0479 6.91009C23.1679 6.91009 23.2879 6.9101 23.3879 6.8601C23.5579 6.7901 23.6779 6.6301 23.7379 6.4601C23.8479 6.1701 23.7979 5.81009 23.5779 5.58009C23.3579 5.35009 22.9879 5.2801 22.7179 5.4301" fill="#E13030"/>
</svg>
