<svg width="52" height="35" viewBox="0 0 52 35" fill="none" xmlns="http://www.w3.org/2000/svg">
<g id="plants1">
<g id="Group">
<g id="Group_2">
<path id="Vector" d="M10.21 23.9101C10.33 24.0001 10.45 24.0901 10.59 24.1201C10.73 24.1501 10.9 24.1001 10.97 23.9701C11.01 23.8901 11.01 23.8001 11 23.7101C10.94 22.9001 10.5 22.1601 9.92998 21.5801C9.35998 21.0001 8.16998 20.7701 8.61998 21.9501C8.89998 22.6901 9.59998 23.4301 10.2 23.9201L10.21 23.9101Z" fill="#4C9A51"/>
<path id="Vector_2" d="M12 23.8C12.05 23.92 12.11 24.04 12.21 24.12C12.31 24.2 12.46 24.23 12.57 24.15C12.63 24.11 12.67 24.03 12.7 23.96C12.98 23.31 12.94 22.55 12.73 21.87C12.52 21.19 11.69 20.53 11.56 21.63C11.48 22.31 11.72 23.18 12 23.79V23.8Z" fill="#4C9A51"/>
<path id="Vector_3" d="M13.6899 23.59C13.6899 23.72 13.6899 23.85 13.7399 23.97C13.7899 24.09 13.9199 24.18 14.0499 24.16C14.1299 24.15 14.1899 24.1 14.2499 24.05C14.7899 23.59 15.0999 22.9 15.2199 22.2C15.3399 21.5 14.8999 20.54 14.2899 21.46C13.9099 22.04 13.7399 22.91 13.7099 23.59H13.6899Z" fill="#4C9A51"/>
<path id="Vector_4" d="M12.7002 22.22C12.7002 22.35 12.7002 22.48 12.7502 22.6C12.8002 22.72 12.9302 22.81 13.0602 22.79C13.1402 22.78 13.2002 22.73 13.2602 22.68C13.8002 22.22 14.1102 21.53 14.2302 20.83C14.3502 20.13 13.9102 19.17 13.3002 20.09C12.9202 20.67 12.7502 21.54 12.7202 22.22H12.7002Z" fill="#4C9A51"/>
<path id="Vector_5" d="M11.21 22.83C11.29 22.93 11.38 23.03 11.5 23.08C11.62 23.13 11.77 23.12 11.85 23.02C11.9 22.96 11.91 22.88 11.92 22.81C12.01 22.11 11.77 21.39 11.38 20.79C11 20.19 10.02 19.78 10.19 20.87C10.3 21.55 10.76 22.32 11.2 22.84L11.21 22.83Z" fill="#4C9A51"/>
<path id="Vector_6" d="M13.33 24.21C13.23 24.32 13.14 24.44 13.11 24.59C13.08 24.73 13.12 24.91 13.25 24.98C13.33 25.02 13.42 25.02 13.51 25.02C14.32 24.98 15.08 24.57 15.68 24.03C16.28 23.48 16.56 22.3 15.36 22.71C14.61 22.96 13.84 23.64 13.34 24.22L13.33 24.21Z" fill="#4C9A51"/>
<path id="Vector_7" d="M12.4502 24.55C12.4502 24.7 12.4502 24.85 12.5202 24.98C12.5902 25.11 12.7302 25.21 12.8802 25.19C12.9702 25.17 13.0402 25.12 13.1002 25.06C13.7002 24.51 14.0202 23.71 14.1302 22.91C14.2402 22.11 13.6902 21.02 13.0302 22.1C12.6202 22.77 12.4602 23.78 12.4502 24.56V24.55Z" fill="#4C9A51"/>
<path id="Vector_8" d="M11.8798 24.94C11.9898 25.04 12.0998 25.1399 12.2498 25.1799C12.3898 25.2199 12.5698 25.18 12.6398 25.06C12.6898 24.99 12.6898 24.89 12.6898 24.81C12.6898 24 12.3198 23.22 11.7998 22.6C11.2798 21.98 10.1098 21.65 10.4598 22.86C10.6798 23.62 11.3098 24.42 11.8798 24.95V24.94Z" fill="#4C9A51"/>
<path id="Vector_9" d="M11.0697 25.1299C11.2097 25.1699 11.3597 25.2099 11.4997 25.1799C11.6397 25.1499 11.7797 25.0399 11.7997 24.8899C11.7997 24.7999 11.7697 24.7199 11.7297 24.6399C11.3697 23.9099 10.6897 23.3799 9.93973 23.0599C9.19973 22.7299 7.99973 22.9599 8.85973 23.8899C9.38973 24.4699 10.3197 24.8999 11.0597 25.1299H11.0697Z" fill="#4C9A51"/>
</g>
<path id="Vector_10" d="M8.8501 24.42L15.4401 24.51L13.7901 30.33H10.7301L8.8501 24.42Z" fill="#1E3962"/>
</g>
<g id="Group_3">
<g id="Group_4">
<path id="Vector_11" d="M43.21 4.91006C43.33 5.00006 43.45 5.09005 43.59 5.12005C43.73 5.15005 43.9 5.10006 43.97 4.97006C44.01 4.89006 44.01 4.80006 44 4.71006C43.94 3.90006 43.5 3.16006 42.93 2.58006C42.36 2.00006 41.17 1.77005 41.62 2.95005C41.9 3.69005 42.6 4.43006 43.2 4.92006L43.21 4.91006Z" fill="#89B731"/>
<path id="Vector_12" d="M45 4.80002C45.05 4.92002 45.11 5.04001 45.21 5.12001C45.31 5.20001 45.46 5.23001 45.57 5.15001C45.63 5.11001 45.67 5.03002 45.7 4.96002C45.98 4.31002 45.94 3.55001 45.73 2.87001C45.52 2.19001 44.69 1.53002 44.56 2.63002C44.48 3.31002 44.72 4.18001 45 4.79001V4.80002Z" fill="#89B731"/>
<path id="Vector_13" d="M46.6899 4.58998C46.6899 4.71998 46.6899 4.84998 46.7399 4.96998C46.7899 5.08998 46.9199 5.17999 47.0499 5.15999C47.1299 5.14999 47.1899 5.09999 47.2499 5.04999C47.7899 4.58999 48.0999 3.89998 48.2199 3.19998C48.3399 2.49998 47.8999 1.53999 47.2899 2.45999C46.9099 3.03999 46.7399 3.90998 46.7099 4.58998H46.6899Z" fill="#89B731"/>
<path id="Vector_14" d="M45.7002 3.22C45.7002 3.35 45.7002 3.48 45.7502 3.6C45.8002 3.72 45.9302 3.80999 46.0602 3.78999C46.1402 3.77999 46.2002 3.72999 46.2602 3.67999C46.8002 3.21999 47.1102 2.53 47.2302 1.83C47.3502 1.13 46.9102 0.169992 46.3002 1.08999C45.9202 1.66999 45.7502 2.54 45.7202 3.22H45.7002Z" fill="#89B731"/>
<path id="Vector_15" d="M44.21 3.82996C44.29 3.92996 44.38 4.02996 44.5 4.07996C44.62 4.12996 44.77 4.11996 44.85 4.01996C44.9 3.95996 44.91 3.87996 44.92 3.80996C45.01 3.10996 44.77 2.38995 44.38 1.78995C44 1.18995 43.02 0.779955 43.19 1.86996C43.3 2.54996 43.76 3.31996 44.2 3.83996L44.21 3.82996Z" fill="#89B731"/>
<path id="Vector_16" d="M46.33 5.20996C46.23 5.31996 46.14 5.43995 46.11 5.58995C46.08 5.72995 46.12 5.90995 46.25 5.97995C46.33 6.01995 46.42 6.01996 46.51 6.01996C47.32 5.97996 48.08 5.56995 48.68 5.02995C49.28 4.47995 49.56 3.29996 48.36 3.70996C47.61 3.95996 46.84 4.63996 46.34 5.21996L46.33 5.20996Z" fill="#89B731"/>
<path id="Vector_17" d="M45.4502 5.54998C45.4502 5.69998 45.4502 5.84997 45.5202 5.97997C45.5902 6.10997 45.7302 6.20998 45.8802 6.18998C45.9702 6.16998 46.0402 6.11997 46.1002 6.05997C46.7002 5.50997 47.0202 4.70998 47.1302 3.90998C47.2402 3.10998 46.6902 2.01998 46.0302 3.09998C45.6202 3.76998 45.4602 4.77997 45.4502 5.55997V5.54998Z" fill="#89B731"/>
<path id="Vector_18" d="M44.8798 5.93996C44.9898 6.03996 45.0998 6.13995 45.2498 6.17995C45.3898 6.21995 45.5698 6.17995 45.6398 6.05995C45.6898 5.98995 45.6898 5.88995 45.6898 5.80995C45.6898 4.99995 45.3198 4.21996 44.7998 3.59996C44.2798 2.97996 43.1098 2.64995 43.4598 3.85995C43.6798 4.61995 44.3098 5.41995 44.8798 5.94995V5.93996Z" fill="#89B731"/>
<path id="Vector_19" d="M44.0697 6.12994C44.2097 6.16994 44.3597 6.20993 44.4997 6.17993C44.6397 6.14993 44.7797 6.03993 44.7997 5.88993C44.7997 5.79993 44.7697 5.71993 44.7297 5.63993C44.3697 4.90993 43.6897 4.37993 42.9397 4.05993C42.1997 3.72993 40.9997 3.95993 41.8597 4.88993C42.3897 5.46993 43.3197 5.89994 44.0597 6.12994H44.0697Z" fill="#89B731"/>
</g>
<path id="Vector_20" d="M41.8501 5.42004L48.4401 5.51004L46.7901 11.33H43.7301L41.8501 5.42004Z" fill="#1E3962"/>
</g>
<g id="Group_5">
<path id="Vector_21" d="M50.7799 33.0399H0.919922V34.9899H50.7799V33.0399Z" fill="#4A4646"/>
<path id="Vector_22" d="M51.71 9.6499H0V13.5499H51.71V9.6499Z" fill="#4A4646"/>
<path id="Vector_23" d="M0.950195 12.5699L0.950195 34.0099H1.87019L1.87019 12.5699H0.950195Z" fill="#4A4646"/>
<path id="Vector_24" d="M8.33008 12.5799L8.33008 34.0199H9.25008L9.25008 12.5799H8.33008Z" fill="#4A4646"/>
<path id="Vector_25" d="M16.6401 12.5699V34.0099H17.5601V12.5699H16.6401Z" fill="#4A4646"/>
<path id="Vector_26" d="M24.9502 12.5699V34.0099H25.8702V12.5699H24.9502Z" fill="#4A4646"/>
<path id="Vector_27" d="M33.2598 13.5399V34.9799H34.1798V13.5399H33.2598Z" fill="#4A4646"/>
<path id="Vector_28" d="M41.5801 12.5699V34.0099H42.5001V12.5699H41.5801Z" fill="#4A4646"/>
<path id="Vector_29" d="M49.8901 12.5699V34.0099H50.8101V12.5699H49.8901Z" fill="#4A4646"/>
</g>
</g>
</svg>
