<svg width="51" height="11" viewBox="0 0 51 11" fill="none" xmlns="http://www.w3.org/2000/svg">
<path d="M16.2135 4.28005C16.1735 4.61005 16.1035 4.93004 15.9835 5.21004C15.7235 5.87004 15.2135 6.36005 14.2835 6.50005C13.6435 6.60005 12.9935 6.54004 12.3435 6.51004C11.5635 6.48004 10.7835 6.49004 10.0035 6.51004C7.04352 6.60004 4.15353 6.81004 1.26353 6.19004C1.26353 6.19004 1.26353 6.20004 1.26353 6.21004C1.26353 6.30004 1.09352 6.33005 1.07352 6.23005C1.07352 6.20005 1.06352 6.17005 1.05352 6.14005C0.94352 6.11005 0.823524 6.09005 0.713524 6.06005C0.673524 6.06005 0.653522 6.03004 0.633522 6.01004C0.633522 6.03004 0.623526 6.04005 0.613526 6.06005C0.603526 6.08005 0.57352 6.09004 0.55352 6.08004C0.46352 6.05004 0.463525 6.05004 0.433525 5.97004C0.433525 5.94004 0.443526 5.92005 0.473526 5.92005C0.483526 5.92005 0.503527 5.91004 0.513527 5.90004C0.513527 5.90004 0.523524 5.90004 0.533524 5.90004C0.443524 5.56004 0.0935246 4.20005 0.0735246 4.06005C0.0135246 3.66005 -0.0564754 3.24004 0.0735246 2.85004C0.103525 2.77004 0.14352 2.69005 0.19352 2.61005C0.21352 2.58005 0.263526 2.57005 0.293526 2.59005C0.723526 2.87005 0.703524 3.42005 0.783524 3.84005C0.883524 4.37005 0.993523 4.91004 1.10352 5.44004C1.10352 5.45004 1.10352 5.46004 1.10352 5.47004C1.10352 5.47004 1.10352 5.45004 1.10352 5.44004C1.10352 5.37004 1.11352 5.29004 1.12352 5.22004C1.18352 4.48004 1.24353 3.74005 1.36353 3.00005C1.49353 2.19005 1.57353 1.18004 2.22353 0.540043C2.22353 0.530043 2.24352 0.520044 2.25352 0.510044C2.25352 0.510044 2.27352 0.50004 2.28352 0.49004C2.31352 0.48004 2.34352 0.49004 2.37352 0.49004C2.38352 0.49004 2.40353 0.510039 2.40353 0.520039C2.83353 1.09004 2.51352 2.08004 2.46352 2.72004C2.41352 3.36004 2.36352 4.00004 2.32352 4.65004C2.56352 4.00004 2.92352 3.40005 3.39352 2.84005C3.44352 2.78005 3.55353 2.78005 3.58353 2.86005C3.78353 3.47005 3.65353 4.14004 3.47353 4.80004C3.58353 4.61004 3.71352 4.42004 3.85352 4.24004C4.02352 4.02004 4.27353 3.71004 4.61353 3.72004C4.92353 3.73004 5.04352 3.97004 5.09352 4.21004C5.15352 4.55004 5.14352 4.92005 5.13352 5.28005C5.25352 5.03005 5.39353 4.78004 5.54353 4.55004C5.62353 4.41004 5.77352 4.06004 6.02352 4.08004C6.22352 4.08004 6.27352 4.24005 6.32352 4.37004C6.37352 4.48004 6.40352 4.60004 6.43353 4.72004C6.43353 4.73004 6.43352 4.75004 6.44352 4.76004C6.48352 4.30004 6.54352 3.85004 6.66352 3.40004C6.75352 3.05004 6.87353 2.01005 7.40353 1.89005C7.45353 1.88005 7.50353 1.88005 7.54353 1.89005C7.93353 1.94005 7.92352 2.68004 7.96352 2.90004C8.07352 3.51004 8.19352 4.12005 8.30352 4.73005C8.41352 4.35005 8.59352 3.99004 8.86353 3.65004C8.92353 3.57004 9.07352 3.57004 9.10352 3.68004C9.22352 4.07004 9.27353 4.47005 9.29353 4.86005C9.47353 4.50005 9.73352 4.18005 10.0735 4.17005C10.3835 4.17005 10.4835 4.47004 10.5035 4.80004C10.7135 4.35004 11.0135 3.89005 11.3935 3.95005C11.6735 3.99005 11.7935 4.32004 11.8435 4.68004C11.9535 4.42004 12.1435 4.21005 12.4935 4.20005C12.7335 4.20005 12.9035 4.29005 13.0235 4.42005C13.0235 4.30005 13.0335 4.18005 13.0435 4.06005C13.0735 3.62005 13.1135 3.19004 13.1735 2.76004C13.2535 2.22004 13.2935 1.66005 13.7135 1.23005C13.7635 1.18005 13.8535 1.19005 13.9035 1.23005C13.9135 1.23005 13.9235 1.25004 13.9335 1.26004C14.3435 1.58004 14.2535 2.11005 14.2435 2.56005C14.2335 3.08005 14.2135 3.61005 14.2035 4.14005C14.4335 3.64005 14.7835 3.21004 15.3935 2.99004C15.4935 2.96004 15.5635 3.04005 15.5735 3.11005C15.6435 3.58005 15.6435 4.03004 15.5735 4.49004C15.6935 4.38004 15.8335 4.28004 15.9935 4.18004C16.0835 4.13004 16.2335 4.20004 16.2235 4.30004L16.2135 4.28005Z" fill="#4C9A51"/>
<path d="M15.9835 5.21003C15.7235 5.87003 15.2135 6.36003 14.2835 6.50003C13.6435 6.60003 12.9935 6.54003 12.3435 6.51003C11.5635 6.48003 10.7835 6.49003 10.0035 6.51003C7.04352 6.60003 4.15353 6.81002 1.26353 6.19002C1.26353 6.19002 1.26353 6.20003 1.26353 6.21003C1.26353 6.30003 1.09352 6.33003 1.07352 6.23003C1.07352 6.20003 1.06352 6.17003 1.05352 6.14003C0.94352 6.11003 0.823524 6.09003 0.713524 6.06003C0.673524 6.06003 0.653522 6.03003 0.633522 6.01003C0.633522 6.03003 0.623526 6.04003 0.613526 6.06003C0.603526 6.08003 0.57352 6.09002 0.55352 6.08002C0.46352 6.05002 0.463525 6.05002 0.433525 5.97002C0.433525 5.94002 0.443526 5.92003 0.473526 5.92003C0.483526 5.92003 0.503527 5.91003 0.513527 5.90003C0.513527 5.90003 0.523524 5.90003 0.533524 5.90003C0.443524 5.56003 0.0935246 4.20003 0.0735246 4.06003C0.0135246 3.66003 -0.0564754 3.24003 0.0735246 2.85003C0.0535246 3.37003 0.12352 3.89003 0.30352 4.39003C0.42352 4.69003 0.723521 5.18002 1.09352 5.44002C1.09352 5.44002 1.09352 5.44002 1.10352 5.44002C1.13352 5.46002 1.17352 5.49003 1.20352 5.50003C1.16352 5.41003 1.14352 5.31003 1.12352 5.21003C1.18352 4.47003 1.24353 3.73002 1.36353 2.99002C1.49353 2.18002 1.57353 1.17003 2.22353 0.530033C2.22353 0.530033 2.22352 0.530033 2.23352 0.530033C2.25352 0.510033 2.26352 0.50003 2.27352 0.48003C2.30352 0.47003 2.33353 0.48003 2.36353 0.48003C2.33353 0.52003 2.31352 0.550031 2.28352 0.590031C2.29352 0.630031 2.28352 0.670032 2.24352 0.700032C2.21352 0.720032 2.19352 0.740035 2.17352 0.750035C1.41352 1.92003 1.34352 3.30003 1.78352 4.60003C1.82352 4.71003 1.99353 5.02003 2.11353 5.32003C2.13353 5.30003 2.15352 5.29002 2.16352 5.27002C2.20352 5.22002 2.29352 5.22003 2.31352 5.29003C2.40352 5.60003 2.98352 5.50002 3.24352 5.55002C3.57352 5.62002 3.88352 5.78003 4.21352 5.87003C5.04352 6.10003 6.09352 6.13002 6.55352 5.33002C6.56352 5.31002 6.58353 5.30003 6.61353 5.29003C6.51353 5.11003 6.44353 4.90002 6.40353 4.69002C6.40353 4.70002 6.40352 4.72003 6.41352 4.73003C6.45352 4.27003 6.51352 3.82003 6.63352 3.37003C6.72352 3.02003 6.84352 1.98004 7.37352 1.86004C7.42352 1.85004 7.47353 1.85004 7.51353 1.86004C7.06353 2.37004 6.99352 3.15002 6.98352 3.77002C6.98352 4.39002 7.10352 5.00003 7.31352 5.59003C7.99352 5.80003 8.65352 5.71002 9.44352 5.69002C9.90352 5.68002 10.3135 5.78003 10.7635 5.82003C11.2035 5.86003 11.6035 5.76002 12.0335 5.72002C12.5035 5.68002 12.9435 5.75002 13.3935 5.80002C13.1035 5.23002 13.0035 4.65002 13.0135 4.05002C13.0435 3.61002 13.0835 3.18003 13.1435 2.75003C13.2235 2.21003 13.2635 1.65002 13.6835 1.22002C13.7335 1.17002 13.8235 1.18002 13.8735 1.22002C13.8835 1.22002 13.8935 1.24003 13.9035 1.25003C13.8535 1.36003 13.8035 1.47002 13.7635 1.58002C13.6835 1.80002 13.6035 2.02002 13.5335 2.24002C13.2035 3.42002 13.2335 4.65002 13.6835 5.83002C13.9435 5.84002 14.2135 5.83003 14.4835 5.78003C14.9935 5.67003 15.5035 5.48003 15.9435 5.21003H15.9835Z" fill="#4C9A51"/>
<path d="M15.9434 5.80005L15.6134 7.44005L15.0234 10.3901H1.38338L0.793381 7.44005L0.463379 5.80005H15.9434Z" fill="#FF9E40"/>
<g style="mix-blend-mode:multiply" opacity="0.5">
<path d="M15.9434 5.80005L15.6134 7.44005H0.793381L0.463379 5.80005H15.9434Z" fill="#FF9E40"/>
</g>
<path d="M16.3934 5.47998H0.00341797V6.87997H16.3934V5.47998Z" fill="#FF9E40"/>
<path d="M7.60375 5.43991C7.88542 5.43991 8.11375 5.21158 8.11375 4.92992C8.11375 4.64825 7.88542 4.41992 7.60375 4.41992C7.32209 4.41992 7.09375 4.64825 7.09375 4.92992C7.09375 5.21158 7.32209 5.43991 7.60375 5.43991Z" fill="#DB001E"/>
<path d="M13.6833 4.42992C13.965 4.42992 14.1933 4.20159 14.1933 3.91992C14.1933 3.63826 13.965 3.40991 13.6833 3.40991C13.4017 3.40991 13.1733 3.63826 13.1733 3.91992C13.1733 4.20159 13.4017 4.42992 13.6833 4.42992Z" fill="#DB001E"/>
<path d="M33.4435 4.28005C33.4035 4.61005 33.3335 4.93004 33.2135 5.21004C32.9535 5.87004 32.4435 6.36005 31.5135 6.50005C30.8735 6.60005 30.2235 6.54004 29.5735 6.51004C28.7935 6.48004 28.0135 6.49004 27.2335 6.51004C24.2735 6.60004 21.3835 6.81004 18.4935 6.19004C18.4935 6.19004 18.4935 6.20004 18.4935 6.21004C18.4935 6.30004 18.3235 6.33005 18.3035 6.23005C18.3035 6.20005 18.2935 6.17005 18.2835 6.14005C18.1735 6.11005 18.0535 6.09005 17.9435 6.06005C17.9035 6.06005 17.8835 6.03004 17.8635 6.01004C17.8635 6.03004 17.8535 6.04005 17.8435 6.06005C17.8335 6.08005 17.8035 6.09004 17.7835 6.08004C17.6935 6.05004 17.6935 6.05004 17.6635 5.97004C17.6635 5.94004 17.6735 5.92005 17.7035 5.92005C17.7135 5.92005 17.7335 5.91004 17.7435 5.90004C17.7435 5.90004 17.7535 5.90004 17.7635 5.90004C17.6735 5.56004 17.3235 4.20005 17.3035 4.06005C17.2435 3.66005 17.1735 3.24004 17.3035 2.85004C17.3335 2.77004 17.3735 2.69005 17.4235 2.61005C17.4435 2.58005 17.4935 2.57005 17.5235 2.59005C17.9535 2.87005 17.9335 3.42005 18.0135 3.84005C18.1135 4.37005 18.2235 4.91004 18.3335 5.44004C18.3335 5.45004 18.3335 5.46004 18.3335 5.47004C18.3335 5.47004 18.3335 5.45004 18.3335 5.44004C18.3335 5.37004 18.3435 5.29004 18.3535 5.22004C18.4135 4.48004 18.4735 3.74005 18.5935 3.00005C18.7235 2.19005 18.8035 1.18004 19.4535 0.540043C19.4535 0.530043 19.4735 0.520044 19.4835 0.510044C19.4835 0.510044 19.5035 0.50004 19.5135 0.49004C19.5435 0.48004 19.5735 0.49004 19.6035 0.49004C19.6135 0.49004 19.6335 0.510039 19.6335 0.520039C20.0635 1.09004 19.7435 2.08004 19.6935 2.72004C19.6435 3.36004 19.5935 4.00004 19.5535 4.65004C19.7935 4.00004 20.1535 3.40005 20.6235 2.84005C20.6735 2.78005 20.7835 2.78005 20.8135 2.86005C21.0135 3.47005 20.8835 4.14004 20.7035 4.80004C20.8135 4.61004 20.9435 4.42004 21.0835 4.24004C21.2535 4.02004 21.5035 3.71004 21.8435 3.72004C22.1535 3.73004 22.2735 3.97004 22.3235 4.21004C22.3835 4.55004 22.3735 4.92005 22.3635 5.28005C22.4835 5.03005 22.6235 4.78004 22.7735 4.55004C22.8535 4.41004 23.0035 4.06004 23.2535 4.08004C23.4535 4.08004 23.5035 4.24005 23.5535 4.37004C23.6035 4.48004 23.6335 4.60004 23.6635 4.72004C23.6635 4.73004 23.6635 4.75004 23.6735 4.76004C23.7135 4.30004 23.7735 3.85004 23.8935 3.40004C23.9835 3.05004 24.1035 2.01005 24.6335 1.89005C24.6835 1.88005 24.7335 1.88005 24.7735 1.89005C25.1635 1.94005 25.1535 2.68004 25.1935 2.90004C25.3035 3.51004 25.4235 4.12005 25.5335 4.73005C25.6435 4.35005 25.8235 3.99004 26.0935 3.65004C26.1535 3.57004 26.3035 3.57004 26.3335 3.68004C26.4535 4.07004 26.5035 4.47005 26.5235 4.86005C26.7035 4.50005 26.9635 4.18005 27.3035 4.17005C27.6135 4.17005 27.7135 4.47004 27.7335 4.80004C27.9435 4.35004 28.2435 3.89005 28.6235 3.95005C28.9035 3.99005 29.0235 4.32004 29.0735 4.68004C29.1835 4.42004 29.3735 4.21005 29.7235 4.20005C29.9635 4.20005 30.1335 4.29005 30.2535 4.42005C30.2535 4.30005 30.2635 4.18005 30.2735 4.06005C30.3035 3.62005 30.3435 3.19004 30.4035 2.76004C30.4835 2.22004 30.5235 1.66005 30.9435 1.23005C30.9935 1.18005 31.0835 1.19005 31.1335 1.23005C31.1435 1.23005 31.1535 1.25004 31.1635 1.26004C31.5735 1.58004 31.4835 2.11005 31.4735 2.56005C31.4635 3.08005 31.4435 3.61005 31.4335 4.14005C31.6635 3.64005 32.0135 3.21004 32.6235 2.99004C32.7235 2.96004 32.7935 3.04005 32.8035 3.11005C32.8735 3.58005 32.8735 4.03004 32.8035 4.49004C32.9235 4.38004 33.0635 4.28004 33.2235 4.18004C33.3135 4.13004 33.4635 4.20004 33.4535 4.30004L33.4435 4.28005Z" fill="#4C9A51"/>
<path d="M33.2135 5.21003C32.9535 5.87003 32.4435 6.36003 31.5135 6.50003C30.8735 6.60003 30.2235 6.54003 29.5735 6.51003C28.7935 6.48003 28.0135 6.49003 27.2335 6.51003C24.2735 6.60003 21.3835 6.81002 18.4935 6.19002C18.4935 6.19002 18.4935 6.20003 18.4935 6.21003C18.4935 6.30003 18.3235 6.33003 18.3035 6.23003C18.3035 6.20003 18.2935 6.17003 18.2835 6.14003C18.1735 6.11003 18.0535 6.09003 17.9435 6.06003C17.9035 6.06003 17.8835 6.03003 17.8635 6.01003C17.8635 6.03003 17.8535 6.04003 17.8435 6.06003C17.8335 6.08003 17.8035 6.09002 17.7835 6.08002C17.6935 6.05002 17.6935 6.05002 17.6635 5.97002C17.6635 5.94002 17.6735 5.92003 17.7035 5.92003C17.7135 5.92003 17.7335 5.91003 17.7435 5.90003C17.7435 5.90003 17.7535 5.90003 17.7635 5.90003C17.6735 5.56003 17.3235 4.20003 17.3035 4.06003C17.2435 3.66003 17.1735 3.24003 17.3035 2.85003C17.2835 3.37003 17.3535 3.89003 17.5335 4.39003C17.6535 4.69003 17.9535 5.18002 18.3235 5.44002C18.3235 5.44002 18.3235 5.44002 18.3335 5.44002C18.3635 5.46002 18.4035 5.49003 18.4335 5.50003C18.3935 5.41003 18.3735 5.31003 18.3535 5.21003C18.4135 4.47003 18.4735 3.73002 18.5935 2.99002C18.7235 2.18002 18.8035 1.17003 19.4535 0.530033C19.4535 0.530033 19.4535 0.530033 19.4635 0.530033C19.4835 0.510033 19.4935 0.50003 19.5035 0.48003C19.5335 0.47003 19.5635 0.48003 19.5935 0.48003C19.5635 0.52003 19.5435 0.550031 19.5135 0.590031C19.5235 0.630031 19.5135 0.670032 19.4735 0.700032C19.4435 0.720032 19.4235 0.740035 19.4035 0.750035C18.6435 1.92003 18.5735 3.30003 19.0135 4.60003C19.0535 4.71003 19.2235 5.02003 19.3435 5.32003C19.3635 5.30003 19.3835 5.29002 19.3935 5.27002C19.4335 5.22002 19.5235 5.22003 19.5435 5.29003C19.6335 5.60003 20.2135 5.50002 20.4735 5.55002C20.8035 5.62002 21.1135 5.78003 21.4435 5.87003C22.2735 6.10003 23.3235 6.13002 23.7835 5.33002C23.7935 5.31002 23.8135 5.30003 23.8435 5.29003C23.7435 5.11003 23.6735 4.90002 23.6335 4.69002C23.6335 4.70002 23.6335 4.72003 23.6435 4.73003C23.6835 4.27003 23.7435 3.82003 23.8635 3.37003C23.9535 3.02003 24.0735 1.98004 24.6035 1.86004C24.6535 1.85004 24.7035 1.85004 24.7435 1.86004C24.2935 2.37004 24.2235 3.15002 24.2135 3.77002C24.2135 4.39002 24.3335 5.00003 24.5435 5.59003C25.2235 5.80003 25.8835 5.71002 26.6735 5.69002C27.1335 5.68002 27.5435 5.78003 27.9935 5.82003C28.4335 5.86003 28.8335 5.76002 29.2635 5.72002C29.7335 5.68002 30.1735 5.75002 30.6235 5.80002C30.3335 5.23002 30.2335 4.65002 30.2435 4.05002C30.2735 3.61002 30.3135 3.18003 30.3735 2.75003C30.4535 2.21003 30.4935 1.65002 30.9135 1.22002C30.9635 1.17002 31.0535 1.18002 31.1035 1.22002C31.1135 1.22002 31.1235 1.24003 31.1335 1.25003C31.0835 1.36003 31.0335 1.47002 30.9935 1.58002C30.9135 1.80002 30.8335 2.02002 30.7635 2.24002C30.4335 3.42002 30.4635 4.65002 30.9135 5.83002C31.1735 5.84002 31.4435 5.83003 31.7135 5.78003C32.2235 5.67003 32.7335 5.48003 33.1735 5.21003H33.2135Z" fill="#4C9A51"/>
<path d="M33.1634 5.80005L32.8334 7.44005L32.2534 10.3901H18.6034L18.0134 7.44005L17.6934 5.80005H33.1634Z" fill="#FF9E40"/>
<g style="mix-blend-mode:multiply" opacity="0.5">
<path d="M33.1634 5.80005L32.8334 7.44005H18.0134L17.6934 5.80005H33.1634Z" fill="#FF9E40"/>
</g>
<path d="M33.6234 5.47998H17.2334V6.87997H33.6234V5.47998Z" fill="#FF9E40"/>
<path d="M20.7737 4.42992C21.0553 4.42992 21.2837 4.20159 21.2837 3.91992C21.2837 3.63826 21.0553 3.40991 20.7737 3.40991C20.492 3.40991 20.2637 3.63826 20.2637 3.91992C20.2637 4.20159 20.492 4.42992 20.7737 4.42992Z" fill="#DB001E"/>
<path d="M24.8337 5.43991C25.1154 5.43991 25.3437 5.21158 25.3437 4.92992C25.3437 4.64825 25.1154 4.41992 24.8337 4.41992C24.5521 4.41992 24.3237 4.64825 24.3237 4.92992C24.3237 5.21158 24.5521 5.43991 24.8337 5.43991Z" fill="#DB001E"/>
<path d="M30.9133 4.42992C31.195 4.42992 31.4233 4.20159 31.4233 3.91992C31.4233 3.63826 31.195 3.40991 30.9133 3.40991C30.6316 3.40991 30.4033 3.63826 30.4033 3.91992C30.4033 4.20159 30.6316 4.42992 30.9133 4.42992Z" fill="#DB001E"/>
<path d="M50.6637 4.28005C50.6237 4.61005 50.5537 4.93004 50.4337 5.21004C50.1737 5.87004 49.6637 6.36005 48.7337 6.50005C48.0937 6.60005 47.4437 6.54004 46.7937 6.51004C46.0137 6.48004 45.2337 6.49004 44.4537 6.51004C41.4937 6.60004 38.6037 6.81004 35.7137 6.19004C35.7137 6.19004 35.7137 6.20004 35.7137 6.21004C35.7137 6.30004 35.5437 6.33005 35.5237 6.23005C35.5237 6.20005 35.5137 6.17005 35.5037 6.14005C35.3937 6.11005 35.2737 6.09005 35.1637 6.06005C35.1237 6.06005 35.1037 6.03004 35.0837 6.01004C35.0837 6.03004 35.0737 6.04005 35.0637 6.06005C35.0537 6.08005 35.0237 6.09004 35.0037 6.08004C34.9137 6.05004 34.9137 6.05004 34.8837 5.97004C34.8837 5.94004 34.8937 5.92005 34.9237 5.92005C34.9337 5.92005 34.9537 5.91004 34.9637 5.90004C34.9637 5.90004 34.9737 5.90004 34.9837 5.90004C34.8937 5.56004 34.5437 4.20005 34.5237 4.06005C34.4637 3.66005 34.3937 3.24004 34.5237 2.85004C34.5537 2.77004 34.5937 2.69005 34.6437 2.61005C34.6637 2.58005 34.7137 2.57005 34.7437 2.59005C35.1737 2.87005 35.1537 3.42005 35.2337 3.84005C35.3337 4.37005 35.4437 4.91004 35.5537 5.44004C35.5537 5.45004 35.5537 5.46004 35.5537 5.47004C35.5537 5.47004 35.5537 5.45004 35.5537 5.44004C35.5537 5.37004 35.5637 5.29004 35.5737 5.22004C35.6337 4.48004 35.6937 3.74005 35.8137 3.00005C35.9437 2.19005 36.0237 1.18004 36.6737 0.540043C36.6737 0.530043 36.6937 0.520044 36.7037 0.510044C36.7037 0.510044 36.7237 0.50004 36.7337 0.49004C36.7637 0.48004 36.7937 0.49004 36.8237 0.49004C36.8337 0.49004 36.8537 0.510039 36.8537 0.520039C37.2837 1.09004 36.9637 2.08004 36.9137 2.72004C36.8637 3.36004 36.8137 4.00004 36.7737 4.65004C37.0137 4.00004 37.3737 3.40005 37.8437 2.84005C37.8937 2.78005 38.0037 2.78005 38.0337 2.86005C38.2337 3.47005 38.1037 4.14004 37.9237 4.80004C38.0337 4.61004 38.1637 4.42004 38.3037 4.24004C38.4737 4.02004 38.7237 3.71004 39.0637 3.72004C39.3737 3.73004 39.4937 3.97004 39.5437 4.21004C39.6037 4.55004 39.5937 4.92005 39.5837 5.28005C39.7037 5.03005 39.8437 4.78004 39.9937 4.55004C40.0737 4.41004 40.2237 4.06004 40.4737 4.08004C40.6737 4.08004 40.7237 4.24005 40.7737 4.37004C40.8237 4.48004 40.8537 4.60004 40.8837 4.72004C40.8837 4.73004 40.8837 4.75004 40.8937 4.76004C40.9337 4.30004 40.9937 3.85004 41.1137 3.40004C41.2037 3.05004 41.3237 2.01005 41.8537 1.89005C41.9037 1.88005 41.9537 1.88005 41.9937 1.89005C42.3837 1.94005 42.3737 2.68004 42.4137 2.90004C42.5237 3.51004 42.6437 4.12005 42.7537 4.73005C42.8637 4.35005 43.0437 3.99004 43.3137 3.65004C43.3737 3.57004 43.5237 3.57004 43.5537 3.68004C43.6737 4.07004 43.7237 4.47005 43.7437 4.86005C43.9237 4.50005 44.1837 4.18005 44.5237 4.17005C44.8337 4.17005 44.9337 4.47004 44.9537 4.80004C45.1637 4.35004 45.4637 3.89005 45.8437 3.95005C46.1237 3.99005 46.2437 4.32004 46.2937 4.68004C46.4037 4.42004 46.5937 4.21005 46.9437 4.20005C47.1837 4.20005 47.3537 4.29005 47.4737 4.42005C47.4737 4.30005 47.4837 4.18005 47.4937 4.06005C47.5237 3.62005 47.5637 3.19004 47.6237 2.76004C47.7037 2.22004 47.7437 1.66005 48.1637 1.23005C48.2137 1.18005 48.3037 1.19005 48.3537 1.23005C48.3637 1.23005 48.3737 1.25004 48.3837 1.26004C48.7937 1.58004 48.7037 2.11005 48.6937 2.56005C48.6837 3.08005 48.6637 3.61005 48.6537 4.14005C48.8837 3.64005 49.2337 3.21004 49.8437 2.99004C49.9437 2.96004 50.0137 3.04005 50.0237 3.11005C50.0937 3.58005 50.0937 4.03004 50.0237 4.49004C50.1437 4.38004 50.2837 4.28004 50.4437 4.18004C50.5337 4.13004 50.6837 4.20004 50.6737 4.30004L50.6637 4.28005Z" fill="#4C9A51"/>
<path d="M50.4337 5.21003C50.1737 5.87003 49.6637 6.36003 48.7337 6.50003C48.0937 6.60003 47.4437 6.54003 46.7937 6.51003C46.0137 6.48003 45.2337 6.49003 44.4537 6.51003C41.4937 6.60003 38.6037 6.81002 35.7137 6.19002C35.7137 6.19002 35.7137 6.20003 35.7137 6.21003C35.7137 6.30003 35.5437 6.33003 35.5237 6.23003C35.5237 6.20003 35.5137 6.17003 35.5037 6.14003C35.3937 6.11003 35.2737 6.09003 35.1637 6.06003C35.1237 6.06003 35.1037 6.03003 35.0837 6.01003C35.0837 6.03003 35.0737 6.04003 35.0637 6.06003C35.0537 6.08003 35.0237 6.09002 35.0037 6.08002C34.9137 6.05002 34.9137 6.05002 34.8837 5.97002C34.8837 5.94002 34.8937 5.92003 34.9237 5.92003C34.9337 5.92003 34.9537 5.91003 34.9637 5.90003C34.9637 5.90003 34.9737 5.90003 34.9837 5.90003C34.8937 5.56003 34.5437 4.20003 34.5237 4.06003C34.4637 3.66003 34.3937 3.24003 34.5237 2.85003C34.5037 3.37003 34.5737 3.89003 34.7537 4.39003C34.8737 4.69003 35.1737 5.18002 35.5437 5.44002C35.5437 5.44002 35.5437 5.44002 35.5537 5.44002C35.5837 5.46002 35.6237 5.49003 35.6537 5.50003C35.6137 5.41003 35.5937 5.31003 35.5737 5.21003C35.6337 4.47003 35.6937 3.73002 35.8137 2.99002C35.9437 2.18002 36.0237 1.17003 36.6737 0.530033C36.6737 0.530033 36.6737 0.530033 36.6837 0.530033C36.7037 0.510033 36.7137 0.50003 36.7237 0.48003C36.7537 0.47003 36.7837 0.48003 36.8137 0.48003C36.7837 0.52003 36.7637 0.550031 36.7337 0.590031C36.7437 0.630031 36.7337 0.670032 36.6937 0.700032C36.6637 0.720032 36.6437 0.740035 36.6237 0.750035C35.8637 1.92003 35.7937 3.30003 36.2337 4.60003C36.2737 4.71003 36.4437 5.02003 36.5637 5.32003C36.5837 5.30003 36.6037 5.29002 36.6137 5.27002C36.6537 5.22002 36.7437 5.22003 36.7637 5.29003C36.8537 5.60003 37.4337 5.50002 37.6937 5.55002C38.0237 5.62002 38.3337 5.78003 38.6637 5.87003C39.4937 6.10003 40.5437 6.13002 41.0037 5.33002C41.0137 5.31002 41.0337 5.30003 41.0637 5.29003C40.9637 5.11003 40.8937 4.90002 40.8537 4.69002C40.8537 4.70002 40.8537 4.72003 40.8637 4.73003C40.9037 4.27003 40.9637 3.82003 41.0837 3.37003C41.1737 3.02003 41.2937 1.98004 41.8237 1.86004C41.8737 1.85004 41.9237 1.85004 41.9637 1.86004C41.5137 2.37004 41.4437 3.15002 41.4337 3.77002C41.4337 4.39002 41.5537 5.00003 41.7637 5.59003C42.4437 5.80003 43.1037 5.71002 43.8937 5.69002C44.3537 5.68002 44.7637 5.78003 45.2137 5.82003C45.6537 5.86003 46.0537 5.76002 46.4837 5.72002C46.9537 5.68002 47.3937 5.75002 47.8437 5.80002C47.5537 5.23002 47.4537 4.65002 47.4637 4.05002C47.4937 3.61002 47.5337 3.18003 47.5937 2.75003C47.6737 2.21003 47.7137 1.65002 48.1337 1.22002C48.1837 1.17002 48.2737 1.18002 48.3237 1.22002C48.3337 1.22002 48.3437 1.24003 48.3537 1.25003C48.3037 1.36003 48.2537 1.47002 48.2137 1.58002C48.1337 1.80002 48.0537 2.02002 47.9837 2.24002C47.6537 3.42002 47.6837 4.65002 48.1337 5.83002C48.3937 5.84002 48.6637 5.83003 48.9337 5.78003C49.4437 5.67003 49.9537 5.48003 50.3937 5.21003H50.4337Z" fill="#4C9A51"/>
<path d="M50.3836 5.80005L50.0636 7.44005L49.4736 10.3901H35.8236L35.2436 7.44005L34.9136 5.80005H50.3836Z" fill="#FF9E40"/>
<g style="mix-blend-mode:multiply" opacity="0.5">
<path d="M50.3836 5.80005L50.0636 7.44005H35.2436L34.9136 5.80005H50.3836Z" fill="#FF9E40"/>
</g>
<path d="M50.8436 5.47998H34.4536V6.87997H50.8436V5.47998Z" fill="#FF9E40"/>
<path d="M38.0037 4.42992C38.2853 4.42992 38.5137 4.20159 38.5137 3.91992C38.5137 3.63826 38.2853 3.40991 38.0037 3.40991C37.722 3.40991 37.4937 3.63826 37.4937 3.91992C37.4937 4.20159 37.722 4.42992 38.0037 4.42992Z" fill="#DB001E"/>
<path d="M42.0539 5.43991C42.3356 5.43991 42.5639 5.21158 42.5639 4.92992C42.5639 4.64825 42.3356 4.41992 42.0539 4.41992C41.7723 4.41992 41.5439 4.64825 41.5439 4.92992C41.5439 5.21158 41.7723 5.43991 42.0539 5.43991Z" fill="#DB001E"/>
<path d="M48.1335 4.42992C48.4152 4.42992 48.6435 4.20159 48.6435 3.91992C48.6435 3.63826 48.4152 3.40991 48.1335 3.40991C47.8519 3.40991 47.6235 3.63826 47.6235 3.91992C47.6235 4.20159 47.8519 4.42992 48.1335 4.42992Z" fill="#DB001E"/>
</svg>
