<svg width="75" height="18" viewBox="0 0 75 18" fill="none" xmlns="http://www.w3.org/2000/svg">
<path d="M5.15022 8.33998C5.72022 8.27998 6.30021 8.23998 6.82021 8.00998C7.34021 7.77998 7.80021 7.31998 7.86021 6.74998C7.91021 6.24998 7.65021 5.75998 7.68021 5.24998C7.73021 4.28998 8.73021 3.70998 9.61021 3.34998C12.9702 1.97998 14.0002 2.23998 17.6202 2.09998C18.0702 3.62998 18.5102 5.15998 18.9602 6.67998C19.3302 7.93998 19.6902 9.18998 20.0602 10.45C16.7102 10.67 15.9602 10.39 12.8502 11.66C11.9702 12.02 10.9702 12.6 10.9202 13.56C10.8902 14.06 11.1502 14.56 11.1002 15.06C11.0402 15.63 10.5802 16.09 10.0602 16.32C9.54021 16.55 8.96021 16.59 8.39021 16.65C6.86021 16.81 5.34021 17.09 3.85021 17.48C2.88021 14.68 1.79021 11.93 0.720215 9.13998C2.18021 8.75998 3.66021 8.48998 5.16021 8.33998H5.15022Z" fill="#FFEB00"/>
<path d="M4.68 6.53001C5.23 6.43001 5.79 6.33 6.32 6.13C6.85 5.93001 7.35 5.61 7.48 5.27C7.59 4.97 7.4 4.72001 7.48 4.42001C7.64 3.86001 8.67 3.4 9.57 3.08C12.96 1.88 13.92 1.9 17.41 1.38C17.65 2.21 17.89 3.04 18.14 3.88C18.34 4.56 18.54 5.25001 18.74 5.93001C15.5 6.47001 14.81 6.40001 11.67 7.51001C10.78 7.83001 9.75 8.29001 9.58 8.85001C9.49 9.15001 9.68 9.40001 9.58 9.70001C9.45 10.04 8.95 10.36 8.43 10.56C7.9 10.76 7.34 10.85 6.79 10.96C5.3 11.24 3.82 11.76 2.15 12.81C1.56 11.3 0.69 9.09001 0 7.60001C1.44 7.20001 3.24 6.81001 4.7 6.53001H4.68Z" fill="#3885FD"/>
<path d="M21.5598 16.33L21.7999 16.26C21.3899 14.87 20.9898 13.48 20.5798 12.09C19.5498 8.56998 18.5298 5.05998 17.4998 1.53998L17.3598 1.04997C17.2998 0.859973 17.0699 0.92998 17.1199 1.11998L17.2398 1.53998C17.7998 3.46998 18.3698 5.39997 18.9298 7.32997C19.3898 8.91997 19.8598 10.5 20.3198 12.09C20.7298 13.5 21.1498 14.92 21.5598 16.33Z" fill="#4A4444"/>
<path d="M69.2099 8.19006C68.6399 8.15006 68.0599 8.12006 67.5299 7.90006C66.9999 7.69006 66.5299 7.24007 66.4499 6.67007C66.3799 6.17007 66.6299 5.67007 66.5899 5.17007C66.5099 4.22007 65.4999 3.66006 64.5999 3.33006C61.2099 2.06006 60.1899 2.35007 56.5599 2.31007C56.1599 3.85007 55.7499 5.39006 55.3499 6.93006C55.0199 8.20006 54.6899 9.46007 54.3599 10.7301C57.7199 10.8501 58.4599 10.5501 61.5999 11.7301C62.4899 12.0701 63.5099 12.6201 63.5899 13.5701C63.6299 14.0701 63.3799 14.5701 63.4499 15.0701C63.5299 15.6401 63.9999 16.0801 64.5299 16.3001C65.0599 16.5101 65.6399 16.5401 66.2099 16.5901C67.7499 16.7001 69.2699 16.9401 70.7699 17.2901C71.6599 14.4601 72.6699 11.6901 73.6699 8.86007C72.1999 8.52007 70.7099 8.30006 69.2099 8.18006V8.19006Z" fill="#FFEB00"/>
<path d="M69.6398 6.37009C69.0898 6.28009 68.5198 6.20008 67.9898 6.02008C67.4598 5.84008 66.9498 5.53009 66.8098 5.20009C66.6898 4.91009 66.8698 4.65008 66.7798 4.35008C66.5998 3.79008 65.5598 3.36008 64.6598 3.07008C61.2398 1.96008 60.2798 2.02009 56.7698 1.59009C56.5498 2.43009 56.3298 3.27008 56.1098 4.10008C55.9298 4.79008 55.7498 5.48009 55.5698 6.17009C58.8298 6.61009 59.5098 6.52008 62.6798 7.55008C63.5798 7.84008 64.6198 8.27008 64.7998 8.83008C64.8898 9.12008 64.7098 9.38008 64.8298 9.68008C64.9698 10.0101 65.4798 10.3201 66.0098 10.5001C66.5398 10.6801 67.1098 10.7601 67.6598 10.8501C69.1598 11.0901 70.6498 11.5601 72.3498 12.5701C72.8998 11.0501 73.6998 8.81008 74.3498 7.30008C72.8998 6.94008 71.0898 6.60009 69.6298 6.37009H69.6398Z" fill="#3885FD"/>
<path d="M53.0398 16.64L52.7998 16.58C53.1698 15.18 53.5298 13.78 53.8998 12.38C54.8298 8.83002 55.7498 5.29003 56.6798 1.75003L56.8098 1.25003C56.8598 1.06003 57.0998 1.12003 57.0498 1.31003L56.9398 1.73003C56.4298 3.68003 55.9198 5.62002 55.4098 7.57002C54.9898 9.17002 54.5698 10.77 54.1498 12.37C53.7798 13.79 53.3998 15.22 53.0298 16.64H53.0398Z" fill="#4A4444"/>
</svg>
