<svg width="94" height="70" viewBox="0 0 94 70" fill="none" xmlns="http://www.w3.org/2000/svg">
<g clip-path="url(#clip0_58_22123)">
<path d="M82 70H0V0.59V0H82V70Z" fill="#A23840"/>
<path d="M68.6898 2H15.5698V55.15H68.6898V2Z" fill="#E13030"/>
<path d="M67.1698 3.52002H17.0898V53.62H67.1698V3.52002Z" fill="#4A4646"/>
<path d="M65.6601 5.05005H18.6201V52.1101H65.6601V5.05005Z" fill="#E0E0E0"/>
<g style="mix-blend-mode:multiply">
<path d="M65.6501 5.04004V5.95004H19.3401V52.1H18.6201V5.04004H65.6501Z" fill="#E0E0E0"/>
</g>
<path d="M51.4998 3.98999H33.5298V52.96H51.4998V3.98999Z" stroke="#4A4646" stroke-width="0.5" stroke-miterlimit="10"/>
<path d="M69 52.02H15V57H69V52.02Z" fill="#4A4646"/>
<path d="M33 30H0V58H33V30Z" fill="#E13030"/>
<path d="M93.57 30.5H32.5V57.5H93.57V30.5Z" fill="#A23840" stroke="#E13030" stroke-width="0.75" stroke-miterlimit="10"/>
<path d="M93.2699 30.5698C93.2699 30.5698 92.4199 42.4098 77.8499 42.4098C63.2799 42.4098 62.4299 30.5698 62.4299 30.5698C62.4299 30.5698 61.5799 42.4098 47.0099 42.4098C32.4399 42.4098 31.5899 30.5698 31.5899 30.5698H31.5399C31.5399 30.5698 30.6899 42.4098 16.1199 42.4098C1.54994 42.4098 0.689941 30.5698 0.689941 30.5698" stroke="#4A4646" stroke-width="0.25" stroke-linecap="round" stroke-linejoin="round"/>
<path d="M0.71 31.3499C1.10212 31.3499 1.42 31.0231 1.42 30.6199C1.42 30.2167 1.10212 29.8899 0.71 29.8899C0.317878 29.8899 0 30.2167 0 30.6199C0 31.0231 0.317878 31.3499 0.71 31.3499Z" fill="#FFEB37"/>
<path d="M2.6099 36.68C3.00202 36.68 3.3199 36.3531 3.3199 35.95C3.3199 35.5468 3.00202 35.22 2.6099 35.22C2.21778 35.22 1.8999 35.5468 1.8999 35.95C1.8999 36.3531 2.21778 36.68 2.6099 36.68Z" fill="#FFEB37"/>
<path d="M5.73978 40.0699C6.13191 40.0699 6.44978 39.743 6.44978 39.3399C6.44978 38.9367 6.13191 38.6099 5.73978 38.6099C5.34766 38.6099 5.02979 38.9367 5.02979 39.3399C5.02979 39.743 5.34766 40.0699 5.73978 40.0699Z" fill="#FFEB37"/>
<path d="M10.1699 41.11C9.92992 40.79 9.47992 40.74 9.16992 40.98C8.85992 41.23 8.79992 41.68 9.04992 42C9.28992 42.32 9.73992 42.37 10.0499 42.13C10.3599 41.88 10.4199 41.43 10.1699 41.11Z" fill="#FFEB37"/>
<path d="M14.6899 41.83C14.4499 41.51 13.9999 41.46 13.6899 41.7C13.3799 41.95 13.3199 42.4 13.5699 42.72C13.8099 43.04 14.2599 43.09 14.5699 42.85C14.8799 42.6 14.9399 42.15 14.6899 41.83Z" fill="#FFEB37"/>
<path d="M31.5699 31.3499C31.962 31.3499 32.2799 31.0231 32.2799 30.6199C32.2799 30.2167 31.962 29.8899 31.5699 29.8899C31.1777 29.8899 30.8599 30.2167 30.8599 30.6199C30.8599 31.0231 31.1777 31.3499 31.5699 31.3499Z" fill="#FFEB37"/>
<path d="M29.5498 36.68C29.942 36.68 30.2598 36.3531 30.2598 35.95C30.2598 35.5468 29.942 35.22 29.5498 35.22C29.1577 35.22 28.8398 35.5468 28.8398 35.95C28.8398 36.3531 29.1577 36.68 29.5498 36.68Z" fill="#FFEB37"/>
<path d="M26.42 40.0699C26.8121 40.0699 27.13 39.743 27.13 39.3399C27.13 38.9367 26.8121 38.6099 26.42 38.6099C26.0278 38.6099 25.71 38.9367 25.71 39.3399C25.71 39.743 26.0278 40.0699 26.42 40.0699Z" fill="#FFEB37"/>
<path d="M21.9899 41.11C22.2299 40.79 22.6799 40.74 22.9899 40.98C23.2999 41.23 23.3599 41.68 23.1099 42C22.8699 42.32 22.4199 42.37 22.1099 42.13C21.7999 41.88 21.7399 41.43 21.9899 41.11Z" fill="#FFEB37"/>
<path d="M17.4801 41.83C17.7201 41.51 18.1701 41.46 18.4801 41.7C18.7901 41.95 18.8501 42.4 18.6001 42.72C18.3601 43.04 17.9101 43.09 17.6001 42.85C17.2901 42.6 17.2301 42.15 17.4801 41.83Z" fill="#FFEB37"/>
<path d="M33.5098 36.68C33.9019 36.68 34.2198 36.3531 34.2198 35.95C34.2198 35.5468 33.9019 35.22 33.5098 35.22C33.1177 35.22 32.7998 35.5468 32.7998 35.95C32.7998 36.3531 33.1177 36.68 33.5098 36.68Z" fill="#FFEB37"/>
<path d="M36.6402 40.0699C37.0323 40.0699 37.3502 39.743 37.3502 39.3399C37.3502 38.9367 37.0323 38.6099 36.6402 38.6099C36.2481 38.6099 35.9302 38.9367 35.9302 39.3399C35.9302 39.743 36.2481 40.0699 36.6402 40.0699Z" fill="#FFEB37"/>
<path d="M41.0698 41.11C40.8298 40.79 40.3798 40.74 40.0698 40.98C39.7598 41.23 39.6998 41.68 39.9498 42C40.1898 42.32 40.6398 42.37 40.9498 42.13C41.2598 41.88 41.3198 41.43 41.0698 41.11Z" fill="#FFEB37"/>
<path d="M45.5898 41.83C45.3498 41.51 44.8998 41.46 44.5898 41.7C44.2798 41.95 44.2198 42.4 44.4698 42.72C44.7098 43.04 45.1598 43.09 45.4698 42.85C45.7798 42.6 45.8398 42.15 45.5898 41.83Z" fill="#FFEB37"/>
<path d="M62.4698 31.3499C62.8619 31.3499 63.1798 31.0231 63.1798 30.6199C63.1798 30.2167 62.8619 29.8899 62.4698 29.8899C62.0776 29.8899 61.7598 30.2167 61.7598 30.6199C61.7598 31.0231 62.0776 31.3499 62.4698 31.3499Z" fill="#FFEB37"/>
<path d="M60.4502 36.68C60.8424 36.68 61.1602 36.3531 61.1602 35.95C61.1602 35.5468 60.8424 35.22 60.4502 35.22C60.0581 35.22 59.7402 35.5468 59.7402 35.95C59.7402 36.3531 60.0581 36.68 60.4502 36.68Z" fill="#FFEB37"/>
<path d="M57.3199 40.0699C57.712 40.0699 58.0299 39.743 58.0299 39.3399C58.0299 38.9367 57.712 38.6099 57.3199 38.6099C56.9277 38.6099 56.6099 38.9367 56.6099 39.3399C56.6099 39.743 56.9277 40.0699 57.3199 40.0699Z" fill="#FFEB37"/>
<path d="M52.8898 41.11C53.1298 40.79 53.5798 40.74 53.8898 40.98C54.1998 41.23 54.2598 41.68 54.0098 42C53.7698 42.32 53.3198 42.37 53.0098 42.13C52.6998 41.88 52.6398 41.43 52.8898 41.11Z" fill="#FFEB37"/>
<path d="M48.3702 41.83C48.6102 41.51 49.0602 41.46 49.3702 41.7C49.6802 41.95 49.7402 42.4 49.4902 42.72C49.2502 43.04 48.8002 43.09 48.4902 42.85C48.1802 42.6 48.1202 42.15 48.3702 41.83Z" fill="#FFEB37"/>
<path d="M64.3301 36.68C64.7222 36.68 65.0401 36.3531 65.0401 35.95C65.0401 35.5468 64.7222 35.22 64.3301 35.22C63.938 35.22 63.6201 35.5468 63.6201 35.95C63.6201 36.3531 63.938 36.68 64.3301 36.68Z" fill="#FFEB37"/>
<path d="M67.46 40.0699C67.8521 40.0699 68.17 39.743 68.17 39.3399C68.17 38.9367 67.8521 38.6099 67.46 38.6099C67.0679 38.6099 66.75 38.9367 66.75 39.3399C66.75 39.743 67.0679 40.0699 67.46 40.0699Z" fill="#FFEB37"/>
<path d="M71.8901 41.11C71.6501 40.79 71.2001 40.74 70.8901 40.98C70.5801 41.23 70.5201 41.68 70.7701 42C71.0101 42.32 71.4601 42.37 71.7701 42.13C72.0801 41.88 72.1401 41.43 71.8901 41.11Z" fill="#FFEB37"/>
<path d="M76.3999 41.83C76.1599 41.51 75.7099 41.46 75.3999 41.7C75.0899 41.95 75.0299 42.4 75.2799 42.72C75.5199 43.04 75.9699 43.09 76.2799 42.85C76.5899 42.6 76.6499 42.15 76.3999 41.83Z" fill="#FFEB37"/>
<path d="M93.2901 31.3499C93.6822 31.3499 94.0001 31.0231 94.0001 30.6199C94.0001 30.2167 93.6822 29.8899 93.2901 29.8899C92.898 29.8899 92.5801 30.2167 92.5801 30.6199C92.5801 31.0231 92.898 31.3499 93.2901 31.3499Z" fill="#FFEB37"/>
<path d="M91.2701 36.68C91.6622 36.68 91.9801 36.3531 91.9801 35.95C91.9801 35.5468 91.6622 35.22 91.2701 35.22C90.8779 35.22 90.5601 35.5468 90.5601 35.95C90.5601 36.3531 90.8779 36.68 91.2701 36.68Z" fill="#FFEB37"/>
<path d="M88.1402 40.0699C88.5323 40.0699 88.8502 39.743 88.8502 39.3399C88.8502 38.9367 88.5323 38.6099 88.1402 38.6099C87.7481 38.6099 87.4302 38.9367 87.4302 39.3399C87.4302 39.743 87.7481 40.0699 88.1402 40.0699Z" fill="#FFEB37"/>
<path d="M83.7101 41.11C83.9501 40.79 84.4001 40.74 84.7101 40.98C85.0201 41.23 85.0801 41.68 84.8301 42C84.5901 42.32 84.1401 42.37 83.8301 42.13C83.5201 41.88 83.4601 41.43 83.7101 41.11Z" fill="#FFEB37"/>
<path d="M79.1901 41.83C79.4301 41.51 79.8801 41.46 80.1901 41.7C80.5001 41.95 80.5601 42.4 80.3101 42.72C80.0701 43.04 79.6201 43.09 79.3101 42.85C79.0001 42.6 78.9401 42.15 79.1901 41.83Z" fill="#FFEB37"/>
</g>
<defs>
<clipPath id="clip0_58_22123">
<rect width="94" height="70" fill="white"/>
</clipPath>
</defs>
</svg>
