<svg width="96" height="70" viewBox="0 0 96 70" fill="none" xmlns="http://www.w3.org/2000/svg">
<path d="M83.6499 0H1.6499V70H83.6499V0Z" fill="#A23840"/>
<path d="M70.3397 2H17.2197V55.15H70.3397V2Z" fill="#E13030"/>
<path d="M68.83 3.52002H18.75V53.62H68.83V3.52002Z" fill="#4A4646"/>
<path d="M67.31 5.05005H20.27V52.1101H67.31V5.05005Z" fill="#E0E0E0"/>
<g style="mix-blend-mode:multiply">
<path d="M67.3 5.04004V5.95004H20.99V52.1H20.27V5.04004H67.3Z" fill="#E0E0E0"/>
</g>
<path d="M53.1599 3.98999H35.1899V52.96H53.1599V3.98999Z" stroke="#4A4646" stroke-width="0.5" stroke-miterlimit="10"/>
<path d="M70.6499 52.02H16.6499V57H70.6499V52.02Z" fill="#4A4646"/>
<path d="M12.1299 49.6299C9.95987 43.4099 13.2599 36.5799 19.4899 34.4099C25.7199 32.2399 32.5399 35.5399 34.7099 41.7699C36.8799 47.9999 33.5799 54.8199 27.3499 56.9899C21.1199 59.1599 14.2999 55.8599 12.1299 49.6299ZM33.6799 42.1199C31.7099 36.4599 25.4999 33.4599 19.8399 35.4299C14.1799 37.3999 11.1799 43.6099 13.1499 49.2699C15.1199 54.9299 21.3299 57.9299 26.9899 55.9599C32.6499 53.9899 35.6499 47.7799 33.6799 42.1199Z" fill="#375A64"/>
<path d="M15.9302 29.5601L23.3002 45.1201L22.0002 45.7901L14.6802 29.9901L15.9302 29.5601Z" fill="#80C62C"/>
<path d="M0.669998 16.72C-1.5 10.49 1.8 3.66999 8.02 1.49999C14.24 -0.670014 21.07 2.62999 23.24 8.85999C25.41 15.08 22.11 21.91 15.88 24.08C9.66 26.25 2.83 22.95 0.659998 16.72H0.669998ZM22.22 9.20999C20.25 3.54999 14.04 0.549986 8.38 2.51999C2.72 4.48999 -0.280002 10.7 1.69 16.36C3.66 22.02 9.87 25.02 15.53 23.05C21.19 21.08 24.19 14.87 22.22 9.20999Z" fill="#375A64"/>
<path d="M37.27 32.2399L39.62 30.4199L40.9 30.7399L43.48 34.4799L42.88 34.9899L40.61 31.6299L39.45 31.5699L37.73 32.8699L37.27 32.2399Z" fill="#2C4251"/>
<path d="M23.7498 44.64L34.3198 34.83L16.8198 28.59L17.4598 27.27L34.9198 34.07L35.5698 33.41L26.4198 18.26L27.5598 17.47L36.3998 32.69L37.3298 31.98L38.0698 32.97L24.6698 45.26L23.7498 44.64Z" fill="#80C62C"/>
<path d="M11.5698 13.52L13.4798 24.27L14.5998 23.94L12.6498 13.49L11.5698 13.52Z" fill="#80C62C"/>
<path d="M12.7201 12.53L25.6001 16.58L25.4601 18.2L12.3501 13.73L12.7201 12.53Z" fill="#80C62C"/>
<path d="M14.3798 30.2299C16.1969 30.2299 17.6698 28.7569 17.6698 26.9399C17.6698 25.1229 16.1969 23.6499 14.3798 23.6499C12.5628 23.6499 11.0898 25.1229 11.0898 26.9399C11.0898 28.7569 12.5628 30.2299 14.3798 30.2299Z" fill="#2C4251"/>
<path d="M27.56 17.47L29.9 15.8L29.38 14.3L25.6 16.58L25.46 18.2L26.42 18.26L27.56 17.47Z" fill="#80C62C"/>
<path d="M28.6899 12.19C28.3699 12.43 27.0199 13.49 27.2399 14.28C27.4499 15.07 30.1299 20.09 30.6099 20.81C30.9099 21.27 31.8599 21.27 31.4399 20.06C30.8399 18.33 29.4099 11.64 28.6999 12.19H28.6899Z" fill="#2C4251"/>
<path d="M12.3899 14.17C11.6399 14.43 10.8199 14.04 10.5599 13.28C10.2999 12.52 10.6899 11.71 11.4499 11.45C12.2099 11.19 13.0199 11.58 13.2799 12.34C13.5399 13.1 13.1499 13.91 12.3899 14.17Z" fill="#2C4251"/>
<path d="M23.8499 47.0599C23.0999 47.3199 22.2799 46.9299 22.0199 46.1699C21.7599 45.4099 22.1499 44.5999 22.9099 44.3399C23.6699 44.0799 24.4799 44.4699 24.7399 45.2299C24.9999 45.9899 24.6099 46.7999 23.8499 47.0599Z" fill="#2C4251"/>
<path opacity="0.5" d="M37.27 32.2399L39.62 30.4199L40.9 30.7399L43.48 34.4799L42.88 34.9899L40.61 31.6299L39.45 31.5699L37.73 32.8699L37.27 32.2399Z" fill="#2C4251"/>
<path opacity="0.5" d="M14.3798 30.2299C16.1969 30.2299 17.6698 28.7569 17.6698 26.9399C17.6698 25.1229 16.1969 23.6499 14.3798 23.6499C12.5628 23.6499 11.0898 25.1229 11.0898 26.9399C11.0898 28.7569 12.5628 30.2299 14.3798 30.2299Z" fill="#2C4251"/>
<path opacity="0.5" d="M28.6899 12.19C28.3699 12.43 27.0199 13.49 27.2399 14.28C27.4499 15.07 30.1299 20.09 30.6099 20.81C30.9099 21.27 31.8599 21.27 31.4399 20.06C30.8399 18.33 29.4099 11.64 28.6999 12.19H28.6899Z" fill="#2C4251"/>
<path opacity="0.5" d="M12.3899 14.17C11.6399 14.43 10.8199 14.04 10.5599 13.28C10.2999 12.52 10.6899 11.71 11.4499 11.45C12.2099 11.19 13.0199 11.58 13.2799 12.34C13.5399 13.1 13.1499 13.91 12.3899 14.17Z" fill="#2C4251"/>
<path opacity="0.5" d="M23.8499 47.0599C23.0999 47.3199 22.2799 46.9299 22.0199 46.1699C21.7599 45.4099 22.1499 44.5999 22.9099 44.3399C23.6699 44.0799 24.4799 44.4699 24.7399 45.2299C24.9999 45.9899 24.6099 46.7999 23.8499 47.0599Z" fill="#2C4251"/>
<path d="M13.5601 26.7801L9.2101 28.3001L8.4401 26.0801L7.3501 26.4601L8.5801 29.9701L14.0201 28.0801L13.5601 26.7801Z" fill="#80C62C"/>
<path d="M34.6499 30H1.6499V58H34.6499V30Z" fill="#E13030"/>
<path d="M95.2199 30.5H34.1499V57.5H95.2199V30.5Z" fill="#A23840" stroke="#E13030" stroke-width="0.75" stroke-miterlimit="10"/>
</svg>
