<svg width="96" height="70" viewBox="0 0 96 70" fill="none" xmlns="http://www.w3.org/2000/svg">
<g clip-path="url(#clip0_58_22090)">
<path d="M82 0H0V70H82V0Z" fill="#A23840"/>
<path d="M68.6898 2H15.5698V55.15H68.6898V2Z" fill="#E13030"/>
<path d="M67.1698 3.52002H17.0898V53.62H67.1698V3.52002Z" fill="#4A4646"/>
<path d="M65.6601 5.05005H18.6201V52.1101H65.6601V5.05005Z" fill="#E0E0E0"/>
<g style="mix-blend-mode:multiply">
<path d="M65.6501 5.04004V5.95004H19.3401V52.1H18.6201V5.04004H65.6501Z" fill="#E0E0E0"/>
</g>
<path d="M51.4998 3.98999H33.5298V52.96H51.4998V3.98999Z" stroke="#4A4646" stroke-width="0.5" stroke-miterlimit="10"/>
<path d="M69 52.02H15V57H69V52.02Z" fill="#4A4646"/>
<path d="M33 30H0V58H33V30Z" fill="#E13030"/>
<path d="M93.57 30.5H32.5V57.5H93.57V30.5Z" fill="#A23840" stroke="#E13030" stroke-width="0.75" stroke-miterlimit="10"/>
<path d="M42.6301 25.8899H34.1201V26.5999H42.6301V25.8899Z" fill="#2C4251"/>
<path d="M46.29 30.0899H32.8L30 25.8899H49L46.29 30.0899Z" fill="#9F4C9C"/>
<path d="M48.9 26.58C48.9 26.58 44.78 26.62 39.69 26.62C34.6 26.62 30.48 26.6 30.48 26.58C30.48 26.56 34.6 26.54 39.69 26.54C44.78 26.54 48.9 26.56 48.9 26.58Z" fill="#E0E0E0"/>
<path d="M48.0002 25.9999C48.0002 25.9999 50.0002 25.9999 50.0002 22.9999C50.0002 21.3399 46.5502 20.4999 46.5502 20.4999C46.5502 20.4999 47.4602 18.6099 44.6002 17.6899C42.7102 17.0799 41.1902 17.9799 41.1902 17.9799C41.1902 17.9799 38.9402 16.3999 35.9102 17.2499C33.8202 17.8399 33.7402 19.3499 33.7402 19.3499C33.7402 19.3499 32.8702 18.8399 31.3502 19.5699C29.8302 20.2999 30.4002 21.6399 30.4002 21.6399C30.4002 21.6399 28.6702 22.0799 28.6802 23.2599C28.7002 25.3699 31.0102 25.9499 31.0102 25.9499L48.0102 25.9999H48.0002Z" fill="#80C62C"/>
<path d="M34.5101 22.8199C33.9501 22.8199 33.4101 22.7299 32.9101 22.8099C32.6601 22.8299 32.4501 22.9199 32.3501 23.1099C32.2301 23.2999 32.2801 23.5799 32.2801 23.8599C32.1401 23.6199 31.9901 23.3399 32.0901 22.9999C32.1901 22.6399 32.5701 22.4899 32.8501 22.4499C33.4501 22.3999 34.0101 22.5299 34.5001 22.8199H34.5101Z" fill="#B0CC49"/>
<path d="M41.7302 20.13C41.3502 19.73 40.9902 19.32 40.5402 19.21C40.1002 19.06 39.6302 19.34 39.1602 19.63C39.3002 19.39 39.4802 19.16 39.7302 19.01C39.9702 18.84 40.3202 18.79 40.6302 18.86C41.2402 19.06 41.6102 19.59 41.7302 20.13Z" fill="#B0CC49"/>
<path d="M44.4903 24.5099C44.2403 24.0899 43.9803 23.6999 43.6003 23.5399C43.2403 23.3399 42.7803 23.3999 42.2803 23.4499C42.4703 23.2899 42.7003 23.1799 42.9603 23.1199C43.2203 23.0599 43.5003 23.1099 43.7503 23.2099C44.2503 23.4699 44.5103 24.0099 44.4803 24.5099H44.4903Z" fill="#B0CC49"/>
<path d="M87.8899 25.8899H79.3799V26.5999H87.8899V25.8899Z" fill="#2C4251"/>
<path d="M91.5498 30.0899H78.0598L75.2598 25.8899H94.2598L91.5498 30.0899Z" fill="#9F4C9C"/>
<path d="M94.1598 26.58C94.1598 26.58 90.0397 26.62 84.9497 26.62C79.8597 26.62 75.7397 26.6 75.7397 26.58C75.7397 26.56 79.8597 26.54 84.9497 26.54C90.0397 26.54 94.1598 26.56 94.1598 26.58Z" fill="#E0E0E0"/>
<path d="M93.26 25.9999C93.26 25.9999 95.26 25.9999 95.26 22.9999C95.26 21.3399 91.81 20.4999 91.81 20.4999C91.81 20.4999 92.72 18.6099 89.86 17.6899C87.97 17.0799 86.45 17.9799 86.45 17.9799C86.45 17.9799 84.2 16.3999 81.17 17.2499C79.08 17.8399 79 19.3499 79 19.3499C79 19.3499 78.13 18.8399 76.61 19.5699C75.09 20.2999 75.66 21.6399 75.66 21.6399C75.66 21.6399 73.93 22.0799 73.94 23.2599C73.96 25.3699 76.27 25.9499 76.27 25.9499L93.27 25.9999H93.26Z" fill="#80C62C"/>
<path d="M79.7699 22.8199C79.2099 22.8199 78.6699 22.7299 78.1699 22.8099C77.9199 22.8299 77.7099 22.9199 77.6099 23.1099C77.4899 23.2999 77.5399 23.5799 77.5399 23.8599C77.3999 23.6199 77.2499 23.3399 77.3499 22.9999C77.4499 22.6399 77.8299 22.4899 78.1099 22.4499C78.7099 22.3999 79.2699 22.5299 79.7599 22.8199H79.7699Z" fill="#B0CC49"/>
<path d="M86.9899 20.13C86.6099 19.73 86.2499 19.32 85.7999 19.21C85.3599 19.06 84.8899 19.34 84.4199 19.63C84.5599 19.39 84.7399 19.16 84.9899 19.01C85.2299 18.84 85.5799 18.79 85.8899 18.86C86.4999 19.06 86.8699 19.59 86.9899 20.13Z" fill="#B0CC49"/>
<path d="M89.75 24.5099C89.5 24.0899 89.24 23.6999 88.86 23.5399C88.5 23.3399 88.04 23.3999 87.54 23.4499C87.73 23.2899 87.96 23.1799 88.22 23.1199C88.48 23.0599 88.76 23.1099 89.01 23.2099C89.51 23.4699 89.77 24.0099 89.74 24.5099H89.75Z" fill="#B0CC49"/>
</g>
<defs>
<clipPath id="clip0_58_22090">
<rect width="95.26" height="70" fill="white"/>
</clipPath>
</defs>
</svg>
