<svg width="52" height="57" viewBox="0 0 52 57" fill="none" xmlns="http://www.w3.org/2000/svg">
<path d="M47.6901 0H4.08008V54.62H47.6901V0Z" fill="#E13030"/>
<path d="M46.4298 1.56995H5.31982V53.06H46.4298V1.56995Z" fill="#4A4646"/>
<path d="M45.3401 2.92004H6.56006V52.62H45.3401V2.92004Z" fill="#EBEBEB"/>
<mask id="mask0_56_14205" style="mask-type:luminance" maskUnits="userSpaceOnUse" x="6" y="2" width="40" height="51">
<path d="M45.3401 2.92004H6.56006V52.62H45.3401V2.92004Z" fill="white"/>
</mask>
<path d="M26 2V54" stroke="#4A4646" stroke-width="0.75" stroke-miterlimit="10"/>
<path d="M24.4995 35.83L24.1496 37.83L24.0896 38.19L21.9796 50.54L21.9195 50.9L21.7296 52H9.81955L9.62955 50.9L9.56955 50.54L7.44955 38.19L7.38955 37.83L7.03955 35.83H24.4995Z" fill="#FF9E40"/>
<path opacity="0.2" d="M24.1497 37.83L24.0897 38.19H7.44965L7.38965 37.83H24.1497Z" fill="white"/>
<path d="M21.6098 33.91C21.5698 34.48 21.5598 35.04 21.5898 35.6C21.5898 35.68 21.5898 35.75 21.6098 35.83H10.6298C8.13978 29.47 3.02979 24.74 3.02979 24.74C7.05979 26.31 7.86979 27.78 8.96979 28.64L9.09978 29.21C9.09978 29.21 9.09979 28.99 8.96979 28.64L5.12978 12.39L12.2998 31.54C12.4398 30.54 12.6198 29.35 12.8598 28.04C12.8498 27.84 12.2498 14.33 10.5098 10.68C10.7298 11.03 13.5798 15.65 14.2298 22.01C15.8298 16.25 18.4698 10.21 22.7498 8C22.6598 8.07 17.4298 12.19 15.8298 29.92C16.8698 25.07 19.2298 17.83 24.4298 13.48C24.2198 13.77 19.7598 19.82 18.7898 28.77C20.1098 26.74 22.4098 23.92 25.8598 21.82C25.7498 22.01 22.0398 28.1 21.6198 33.9L21.6098 33.91Z" fill="#4C9A51"/>
<g opacity="0.1">
<path d="M21.6098 33.91C21.5698 34.48 21.5598 35.04 21.5898 35.6C21.5898 35.68 21.5898 35.75 21.6098 35.83H10.6298C8.13978 29.47 3.02979 24.74 3.02979 24.74C7.05979 26.31 7.86979 27.78 8.96979 28.64L9.09978 29.21C9.09978 29.21 9.09979 28.99 8.96979 28.64L5.12978 12.39L12.2998 31.54C12.4398 30.54 12.6198 29.35 12.8598 28.04C12.8498 27.84 12.2498 14.33 10.5098 10.68C10.7298 11.03 13.5798 15.65 14.2298 22.01C15.8298 16.25 18.4698 10.21 22.7498 8C22.6598 8.07 17.4298 12.19 15.8298 29.92C16.8698 25.07 19.2298 17.83 24.4298 13.48C24.2198 13.77 19.7598 19.82 18.7898 28.77C20.1098 26.74 22.4098 23.92 25.8598 21.82C25.7498 22.01 22.0398 28.1 21.6198 33.9L21.6098 33.91Z" fill="#4C9A51"/>
</g>
<path d="M48.0402 51.41H3.72021V56.53H48.0402V51.41Z" fill="#4A4646"/>
<path d="M50.7799 54.58H0.919922V56.53H50.7799V54.58Z" fill="#4A4646"/>
<path d="M51.71 31.1899H0V35.09H51.71V31.1899Z" fill="#4A4646"/>
<path d="M0.950195 34.1099L0.950195 55.5499H1.87019L1.87019 34.1099H0.950195Z" fill="#4A4646"/>
<path d="M8.33008 34.1199L8.33008 55.5599H9.25008L9.25008 34.1199H8.33008Z" fill="#4A4646"/>
<path d="M16.6401 34.1099V55.5499H17.5601V34.1099H16.6401Z" fill="#4A4646"/>
<path d="M24.9502 34.1099V55.5499H25.8702V34.1099H24.9502Z" fill="#4A4646"/>
<path d="M33.2598 35.0799V56.5199H34.1798V35.0799H33.2598Z" fill="#4A4646"/>
<path d="M41.5801 34.1099V55.5499H42.5001V34.1099H41.5801Z" fill="#4A4646"/>
<path d="M49.8901 34.1099V55.5499H50.8101V34.1099H49.8901Z" fill="#4A4646"/>
</svg>
