<svg width="52" height="57" viewBox="0 0 52 57" fill="none" xmlns="http://www.w3.org/2000/svg">
<path d="M47.6901 0H4.08008V54.62H47.6901V0Z" fill="#E13030"/>
<path d="M46.4298 1.57007H5.31982V53.0601H46.4298V1.57007Z" fill="#4A4646"/>
<path d="M45.3401 2.91992H6.56006V52.6199H45.3401V2.91992Z" fill="#EBEBEB"/>
<mask id="mask0_56_20277" style="mask-type:luminance" maskUnits="userSpaceOnUse" x="6" y="2" width="40" height="51">
<path d="M45.3401 2.91992H6.56006V52.6199H45.3401V2.91992Z" fill="white"/>
</mask>
<path d="M26 2V54" stroke="#4A4646" stroke-width="0.75" stroke-miterlimit="10"/>
<path d="M48.0402 51.4099H3.72021V56.5299H48.0402V51.4099Z" fill="#4A4646"/>
<path d="M50.7799 54.5798H0.919922V56.5298H50.7799V54.5798Z" fill="#4A4646"/>
<path d="M51.71 31.1899H0V35.09H51.71V31.1899Z" fill="#4A4646"/>
<path d="M0.950195 34.1101L0.950195 55.55H1.87019L1.87019 34.1101H0.950195Z" fill="#4A4646"/>
<path d="M8.33008 34.1201L8.33008 55.5601H9.25008L9.25008 34.1201H8.33008Z" fill="#4A4646"/>
<path d="M16.6401 34.11V55.55H17.5601V34.11H16.6401Z" fill="#4A4646"/>
<path d="M24.9502 34.1101V55.55H25.8702V34.1101H24.9502Z" fill="#4A4646"/>
<path d="M33.2598 35.08V56.52H34.1798V35.08H33.2598Z" fill="#4A4646"/>
<path d="M41.5801 34.11V55.55H42.5001V34.11H41.5801Z" fill="#4A4646"/>
<path d="M49.8901 34.11V55.55H50.8101V34.11H49.8901Z" fill="#4A4646"/>
<path d="M16.65 29.28C16.61 29.61 16.54 29.93 16.42 30.21C16.16 30.87 15.65 31.3601 14.72 31.5001C14.08 31.6 13.43 31.54 12.78 31.51C12 31.48 11.22 31.49 10.44 31.51C7.48005 31.6 4.59005 31.81 1.70005 31.19C1.70005 31.19 1.70005 31.2 1.70005 31.21C1.70005 31.3 1.53005 31.33 1.51005 31.23C1.51005 31.2 1.50004 31.17 1.49004 31.14C1.38004 31.11 1.26005 31.09 1.15005 31.06C1.11005 31.06 1.09005 31.03 1.07005 31.01C1.07005 31.03 1.06005 31.04 1.05005 31.06C1.04005 31.08 1.01004 31.09 0.990044 31.08C0.900044 31.05 0.900049 31.05 0.870049 30.97C0.870049 30.94 0.88005 30.92 0.91005 30.92C0.92005 30.92 0.94005 30.91 0.95005 30.9C0.95005 30.9 0.960047 30.9 0.970047 30.9C0.880047 30.56 0.530048 29.2 0.510048 29.06C0.450048 28.66 0.380048 28.24 0.510048 27.85C0.540048 27.77 0.580043 27.6901 0.630043 27.6101C0.650043 27.5801 0.700049 27.57 0.730049 27.59C1.16005 27.87 1.14005 28.42 1.22005 28.84C1.32005 29.37 1.43005 29.91 1.54005 30.44C1.54005 30.45 1.54005 30.46 1.54005 30.47C1.54005 30.47 1.54005 30.45 1.54005 30.44C1.54005 30.37 1.55004 30.29 1.56004 30.22C1.62004 29.48 1.68005 28.74 1.80005 28C1.93005 27.19 2.01005 26.18 2.66005 25.54C2.66005 25.53 2.68005 25.52 2.69005 25.51C2.69005 25.51 2.71005 25.5 2.72005 25.49C2.75005 25.48 2.78004 25.49 2.81004 25.49C2.82004 25.49 2.84005 25.51 2.84005 25.52C3.27005 26.09 2.95005 27.08 2.90005 27.72C2.85005 28.36 2.80005 29 2.76005 29.65C3.00005 29 3.36005 28.4 3.83005 27.84C3.88005 27.78 3.99005 27.7801 4.02005 27.8601C4.22005 28.4701 4.09005 29.14 3.91005 29.8C4.02005 29.61 4.15005 29.42 4.29005 29.24C4.46005 29.02 4.71005 28.71 5.05005 28.72C5.36005 28.73 5.48004 28.97 5.53004 29.21C5.59004 29.55 5.58005 29.92 5.57005 30.28C5.69005 30.03 5.83005 29.78 5.98005 29.55C6.06005 29.41 6.21004 29.06 6.46004 29.08C6.66004 29.08 6.71005 29.24 6.76005 29.37C6.81005 29.48 6.84005 29.6 6.87005 29.72C6.87005 29.73 6.87004 29.75 6.88004 29.76C6.92004 29.3 6.98004 28.85 7.10004 28.4C7.19004 28.05 7.31005 27.01 7.84005 26.89C7.89005 26.88 7.94005 26.88 7.98005 26.89C8.37005 26.94 8.36005 27.68 8.40005 27.9C8.51005 28.51 8.63004 29.12 8.74004 29.73C8.85004 29.35 9.03005 28.99 9.30005 28.65C9.36005 28.57 9.51005 28.57 9.54005 28.68C9.66005 29.07 9.71005 29.4701 9.73005 29.8601C9.91005 29.5001 10.17 29.18 10.51 29.17C10.82 29.17 10.92 29.47 10.94 29.8C11.15 29.35 11.45 28.89 11.83 28.95C12.11 28.99 12.23 29.32 12.28 29.68C12.39 29.42 12.58 29.21 12.93 29.2C13.17 29.2 13.34 29.29 13.46 29.42C13.46 29.3 13.47 29.18 13.48 29.06C13.51 28.62 13.55 28.19 13.61 27.76C13.69 27.22 13.73 26.66 14.15 26.23C14.2 26.18 14.29 26.19 14.34 26.23C14.35 26.23 14.36 26.25 14.37 26.26C14.78 26.58 14.69 27.11 14.68 27.56C14.67 28.08 14.65 28.61 14.64 29.14C14.87 28.64 15.22 28.21 15.83 27.99C15.93 27.96 16 28.0401 16.01 28.1101C16.08 28.5801 16.08 29.03 16.01 29.49C16.13 29.38 16.27 29.28 16.43 29.18C16.52 29.13 16.67 29.2 16.66 29.3L16.65 29.28Z" fill="#4C9A51"/>
<path d="M16.42 30.21C16.16 30.87 15.65 31.36 14.72 31.5C14.08 31.6 13.43 31.54 12.78 31.51C12 31.48 11.22 31.49 10.44 31.51C7.48005 31.6 4.59005 31.81 1.70005 31.19C1.70005 31.19 1.70005 31.2 1.70005 31.21C1.70005 31.3 1.53005 31.33 1.51005 31.23C1.51005 31.2 1.50004 31.17 1.49004 31.14C1.38004 31.11 1.26005 31.09 1.15005 31.06C1.11005 31.06 1.09005 31.03 1.07005 31.01C1.07005 31.03 1.06005 31.04 1.05005 31.06C1.04005 31.08 1.01004 31.09 0.990044 31.08C0.900044 31.05 0.900049 31.05 0.870049 30.97C0.870049 30.94 0.88005 30.92 0.91005 30.92C0.92005 30.92 0.94005 30.91 0.95005 30.9C0.95005 30.9 0.960047 30.9 0.970047 30.9C0.880047 30.56 0.530048 29.2 0.510048 29.06C0.450048 28.66 0.380048 28.24 0.510048 27.85C0.490048 28.37 0.560044 28.89 0.740044 29.39C0.860044 29.69 1.16004 30.18 1.53004 30.44C1.53004 30.44 1.53005 30.44 1.54005 30.44C1.57005 30.46 1.61005 30.49 1.64005 30.5C1.60005 30.41 1.58004 30.31 1.56004 30.21C1.62004 29.47 1.68005 28.73 1.80005 27.99C1.93005 27.18 2.01005 26.17 2.66005 25.53C2.66005 25.53 2.66004 25.53 2.67004 25.53C2.69004 25.51 2.70004 25.5 2.71004 25.48C2.74004 25.47 2.77005 25.48 2.80005 25.48C2.77005 25.52 2.75005 25.55 2.72005 25.59C2.73005 25.63 2.72005 25.67 2.68005 25.7C2.65005 25.72 2.63005 25.74 2.61005 25.75C1.85005 26.92 1.78005 28.3 2.22005 29.6C2.26005 29.71 2.43005 30.02 2.55005 30.32C2.57005 30.3 2.59004 30.29 2.60004 30.27C2.64004 30.22 2.73005 30.22 2.75005 30.29C2.84005 30.6 3.42005 30.5 3.68005 30.55C4.01005 30.62 4.32005 30.78 4.65005 30.87C5.48005 31.1 6.53004 31.13 6.99004 30.33C7.00004 30.31 7.02005 30.3 7.05005 30.29C6.95005 30.11 6.88005 29.9 6.84005 29.69C6.84005 29.7 6.84004 29.72 6.85004 29.73C6.89004 29.27 6.95005 28.82 7.07005 28.37C7.16005 28.02 7.28004 26.98 7.81004 26.86C7.86004 26.85 7.91005 26.85 7.95005 26.86C7.50005 27.37 7.43004 28.15 7.42004 28.77C7.42004 29.39 7.54005 30 7.75005 30.59C8.43005 30.8 9.09004 30.71 9.88004 30.69C10.34 30.68 10.7501 30.78 11.2001 30.82C11.64 30.86 12.04 30.76 12.47 30.72C12.94 30.68 13.38 30.75 13.83 30.8C13.54 30.23 13.4401 29.65 13.4501 29.05C13.4801 28.61 13.52 28.18 13.58 27.75C13.66 27.21 13.7 26.65 14.12 26.22C14.17 26.17 14.26 26.18 14.31 26.22C14.32 26.22 14.33 26.24 14.34 26.25C14.29 26.36 14.2401 26.47 14.2001 26.58C14.1201 26.8 14.04 27.02 13.97 27.24C13.64 28.42 13.67 29.65 14.12 30.83C14.38 30.84 14.65 30.83 14.92 30.78C15.43 30.67 15.94 30.48 16.38 30.21H16.42Z" fill="#4C9A51"/>
<path d="M16.3799 30.8L16.0499 32.44L15.4599 35.3901H1.8199L1.2299 32.44L0.899902 30.8H16.3799Z" fill="#FF9E40"/>
<g style="mix-blend-mode:multiply" opacity="0.5">
<path d="M16.3799 30.8L16.0499 32.44H1.2299L0.899902 30.8H16.3799Z" fill="#FF9E40"/>
</g>
<path d="M16.8299 30.48H0.439941V31.88H16.8299V30.48Z" fill="#FF9E40"/>
<path d="M8.04028 30.4399C8.32194 30.4399 8.55028 30.2116 8.55028 29.9299C8.55028 29.6483 8.32194 29.4199 8.04028 29.4199C7.75861 29.4199 7.53027 29.6483 7.53027 29.9299C7.53027 30.2116 7.75861 30.4399 8.04028 30.4399Z" fill="#DB001E"/>
<path d="M14.1199 29.4299C14.4015 29.4299 14.6299 29.2016 14.6299 28.9199C14.6299 28.6383 14.4015 28.4099 14.1199 28.4099C13.8382 28.4099 13.6099 28.6383 13.6099 28.9199C13.6099 29.2016 13.8382 29.4299 14.1199 29.4299Z" fill="#DB001E"/>
<path d="M33.88 29.28C33.84 29.61 33.77 29.93 33.65 30.21C33.39 30.87 32.88 31.3601 31.95 31.5001C31.31 31.6 30.66 31.54 30.01 31.51C29.23 31.48 28.45 31.49 27.67 31.51C24.71 31.6 21.82 31.81 18.93 31.19C18.93 31.19 18.93 31.2 18.93 31.21C18.93 31.3 18.76 31.33 18.74 31.23C18.74 31.2 18.73 31.17 18.72 31.14C18.61 31.11 18.49 31.09 18.38 31.06C18.34 31.06 18.32 31.03 18.3 31.01C18.3 31.03 18.29 31.04 18.28 31.06C18.27 31.08 18.24 31.09 18.22 31.08C18.13 31.05 18.13 31.05 18.1 30.97C18.1 30.94 18.11 30.92 18.14 30.92C18.15 30.92 18.17 30.91 18.18 30.9C18.18 30.9 18.19 30.9 18.2 30.9C18.11 30.56 17.76 29.2 17.74 29.06C17.68 28.66 17.61 28.24 17.74 27.85C17.77 27.77 17.81 27.6901 17.86 27.6101C17.88 27.5801 17.93 27.57 17.96 27.59C18.39 27.87 18.37 28.42 18.45 28.84C18.55 29.37 18.66 29.91 18.77 30.44C18.77 30.45 18.77 30.46 18.77 30.47C18.77 30.47 18.77 30.45 18.77 30.44C18.77 30.37 18.78 30.29 18.79 30.22C18.85 29.48 18.91 28.74 19.03 28C19.16 27.19 19.24 26.18 19.89 25.54C19.89 25.53 19.91 25.52 19.92 25.51C19.92 25.51 19.94 25.5 19.95 25.49C19.98 25.48 20.01 25.49 20.04 25.49C20.05 25.49 20.07 25.51 20.07 25.52C20.5 26.09 20.18 27.08 20.13 27.72C20.08 28.36 20.03 29 19.99 29.65C20.23 29 20.59 28.4 21.06 27.84C21.11 27.78 21.22 27.7801 21.25 27.8601C21.45 28.4701 21.32 29.14 21.14 29.8C21.25 29.61 21.38 29.42 21.52 29.24C21.69 29.02 21.94 28.71 22.28 28.72C22.59 28.73 22.71 28.97 22.76 29.21C22.82 29.55 22.81 29.92 22.8 30.28C22.92 30.03 23.06 29.78 23.21 29.55C23.29 29.41 23.44 29.06 23.69 29.08C23.89 29.08 23.94 29.24 23.99 29.37C24.04 29.48 24.07 29.6 24.1 29.72C24.1 29.73 24.1 29.75 24.11 29.76C24.15 29.3 24.21 28.85 24.33 28.4C24.42 28.05 24.54 27.01 25.07 26.89C25.12 26.88 25.17 26.88 25.21 26.89C25.6 26.94 25.59 27.68 25.63 27.9C25.74 28.51 25.86 29.12 25.97 29.73C26.08 29.35 26.26 28.99 26.53 28.65C26.59 28.57 26.74 28.57 26.77 28.68C26.89 29.07 26.94 29.4701 26.96 29.8601C27.14 29.5001 27.4 29.18 27.74 29.17C28.05 29.17 28.15 29.47 28.17 29.8C28.38 29.35 28.68 28.89 29.06 28.95C29.34 28.99 29.46 29.32 29.51 29.68C29.62 29.42 29.81 29.21 30.16 29.2C30.4 29.2 30.57 29.29 30.69 29.42C30.69 29.3 30.7 29.18 30.71 29.06C30.74 28.62 30.78 28.19 30.84 27.76C30.92 27.22 30.96 26.66 31.38 26.23C31.43 26.18 31.52 26.19 31.57 26.23C31.58 26.23 31.59 26.25 31.6 26.26C32.01 26.58 31.92 27.11 31.91 27.56C31.9 28.08 31.88 28.61 31.87 29.14C32.1 28.64 32.45 28.21 33.06 27.99C33.16 27.96 33.23 28.0401 33.24 28.1101C33.31 28.5801 33.31 29.03 33.24 29.49C33.36 29.38 33.5 29.28 33.66 29.18C33.75 29.13 33.9 29.2 33.89 29.3L33.88 29.28Z" fill="#4C9A51"/>
<path d="M33.65 30.21C33.39 30.87 32.88 31.36 31.95 31.5C31.31 31.6 30.66 31.54 30.01 31.51C29.23 31.48 28.45 31.49 27.67 31.51C24.71 31.6 21.82 31.81 18.93 31.19C18.93 31.19 18.93 31.2 18.93 31.21C18.93 31.3 18.76 31.33 18.74 31.23C18.74 31.2 18.73 31.17 18.72 31.14C18.61 31.11 18.49 31.09 18.38 31.06C18.34 31.06 18.32 31.03 18.3 31.01C18.3 31.03 18.29 31.04 18.28 31.06C18.27 31.08 18.24 31.09 18.22 31.08C18.13 31.05 18.13 31.05 18.1 30.97C18.1 30.94 18.11 30.92 18.14 30.92C18.15 30.92 18.17 30.91 18.18 30.9C18.18 30.9 18.19 30.9 18.2 30.9C18.11 30.56 17.76 29.2 17.74 29.06C17.68 28.66 17.61 28.24 17.74 27.85C17.72 28.37 17.79 28.89 17.97 29.39C18.09 29.69 18.39 30.18 18.76 30.44C18.76 30.44 18.76 30.44 18.77 30.44C18.8 30.46 18.84 30.49 18.87 30.5C18.83 30.41 18.81 30.31 18.79 30.21C18.85 29.47 18.91 28.73 19.03 27.99C19.16 27.18 19.24 26.17 19.89 25.53C19.89 25.53 19.89 25.53 19.9 25.53C19.92 25.51 19.93 25.5 19.94 25.48C19.97 25.47 20 25.48 20.03 25.48C20 25.52 19.98 25.55 19.95 25.59C19.96 25.63 19.95 25.67 19.91 25.7C19.88 25.72 19.86 25.74 19.84 25.75C19.08 26.92 19.01 28.3 19.45 29.6C19.49 29.71 19.66 30.02 19.78 30.32C19.8 30.3 19.82 30.29 19.83 30.27C19.87 30.22 19.96 30.22 19.98 30.29C20.07 30.6 20.65 30.5 20.91 30.55C21.24 30.62 21.55 30.78 21.88 30.87C22.71 31.1 23.76 31.13 24.22 30.33C24.23 30.31 24.25 30.3 24.28 30.29C24.18 30.11 24.11 29.9 24.07 29.69C24.07 29.7 24.07 29.72 24.08 29.73C24.12 29.27 24.18 28.82 24.3 28.37C24.39 28.02 24.51 26.98 25.04 26.86C25.09 26.85 25.14 26.85 25.18 26.86C24.73 27.37 24.66 28.15 24.65 28.77C24.65 29.39 24.77 30 24.98 30.59C25.66 30.8 26.32 30.71 27.11 30.69C27.57 30.68 27.98 30.78 28.43 30.82C28.87 30.86 29.27 30.76 29.7 30.72C30.17 30.68 30.61 30.75 31.06 30.8C30.77 30.23 30.67 29.65 30.68 29.05C30.71 28.61 30.75 28.18 30.81 27.75C30.89 27.21 30.93 26.65 31.35 26.22C31.4 26.17 31.49 26.18 31.54 26.22C31.55 26.22 31.56 26.24 31.57 26.25C31.52 26.36 31.47 26.47 31.43 26.58C31.35 26.8 31.27 27.02 31.2 27.24C30.87 28.42 30.9 29.65 31.35 30.83C31.61 30.84 31.88 30.83 32.15 30.78C32.66 30.67 33.17 30.48 33.61 30.21H33.65Z" fill="#4C9A51"/>
<path d="M33.5999 30.8L33.2699 32.44L32.6899 35.3901H19.0399L18.4499 32.44L18.1299 30.8H33.5999Z" fill="#FF9E40"/>
<g style="mix-blend-mode:multiply" opacity="0.5">
<path d="M33.5999 30.8L33.2699 32.44H18.4499L18.1299 30.8H33.5999Z" fill="#FF9E40"/>
</g>
<path d="M34.0599 30.48H17.6699V31.88H34.0599V30.48Z" fill="#FF9E40"/>
<path d="M21.2102 29.4299C21.4919 29.4299 21.7202 29.2016 21.7202 28.9199C21.7202 28.6383 21.4919 28.4099 21.2102 28.4099C20.9285 28.4099 20.7002 28.6383 20.7002 28.9199C20.7002 29.2016 20.9285 29.4299 21.2102 29.4299Z" fill="#DB001E"/>
<path d="M25.2703 30.4399C25.5519 30.4399 25.7803 30.2116 25.7803 29.9299C25.7803 29.6483 25.5519 29.4199 25.2703 29.4199C24.9886 29.4199 24.7603 29.6483 24.7603 29.9299C24.7603 30.2116 24.9886 30.4399 25.2703 30.4399Z" fill="#DB001E"/>
<path d="M31.3498 29.4299C31.6315 29.4299 31.8598 29.2016 31.8598 28.9199C31.8598 28.6383 31.6315 28.4099 31.3498 28.4099C31.0682 28.4099 30.8398 28.6383 30.8398 28.9199C30.8398 29.2016 31.0682 29.4299 31.3498 29.4299Z" fill="#DB001E"/>
<path d="M51.1002 29.28C51.0602 29.61 50.9902 29.93 50.8702 30.21C50.6102 30.87 50.1002 31.3601 49.1702 31.5001C48.5302 31.6 47.8802 31.54 47.2302 31.51C46.4502 31.48 45.6702 31.49 44.8902 31.51C41.9302 31.6 39.0402 31.81 36.1502 31.19C36.1502 31.19 36.1502 31.2 36.1502 31.21C36.1502 31.3 35.9802 31.33 35.9602 31.23C35.9602 31.2 35.9502 31.17 35.9402 31.14C35.8302 31.11 35.7102 31.09 35.6002 31.06C35.5602 31.06 35.5402 31.03 35.5202 31.01C35.5202 31.03 35.5102 31.04 35.5002 31.06C35.4902 31.08 35.4602 31.09 35.4402 31.08C35.3502 31.05 35.3502 31.05 35.3202 30.97C35.3202 30.94 35.3302 30.92 35.3602 30.92C35.3702 30.92 35.3902 30.91 35.4002 30.9C35.4002 30.9 35.4102 30.9 35.4202 30.9C35.3302 30.56 34.9802 29.2 34.9602 29.06C34.9002 28.66 34.8302 28.24 34.9602 27.85C34.9902 27.77 35.0302 27.6901 35.0802 27.6101C35.1002 27.5801 35.1502 27.57 35.1802 27.59C35.6102 27.87 35.5902 28.42 35.6702 28.84C35.7702 29.37 35.8802 29.91 35.9902 30.44C35.9902 30.45 35.9902 30.46 35.9902 30.47C35.9902 30.47 35.9902 30.45 35.9902 30.44C35.9902 30.37 36.0002 30.29 36.0102 30.22C36.0702 29.48 36.1302 28.74 36.2502 28C36.3802 27.19 36.4602 26.18 37.1102 25.54C37.1102 25.53 37.1302 25.52 37.1402 25.51C37.1402 25.51 37.1602 25.5 37.1702 25.49C37.2002 25.48 37.2302 25.49 37.2602 25.49C37.2702 25.49 37.2902 25.51 37.2902 25.52C37.7202 26.09 37.4002 27.08 37.3502 27.72C37.3002 28.36 37.2502 29 37.2102 29.65C37.4502 29 37.8102 28.4 38.2802 27.84C38.3302 27.78 38.4402 27.7801 38.4702 27.8601C38.6702 28.4701 38.5402 29.14 38.3602 29.8C38.4702 29.61 38.6002 29.42 38.7402 29.24C38.9102 29.02 39.1602 28.71 39.5002 28.72C39.8102 28.73 39.9302 28.97 39.9802 29.21C40.0402 29.55 40.0302 29.92 40.0202 30.28C40.1402 30.03 40.2802 29.78 40.4302 29.55C40.5102 29.41 40.6602 29.06 40.9102 29.08C41.1102 29.08 41.1602 29.24 41.2102 29.37C41.2602 29.48 41.2902 29.6 41.3202 29.72C41.3202 29.73 41.3202 29.75 41.3302 29.76C41.3702 29.3 41.4302 28.85 41.5502 28.4C41.6402 28.05 41.7602 27.01 42.2902 26.89C42.3402 26.88 42.3902 26.88 42.4302 26.89C42.8202 26.94 42.8102 27.68 42.8502 27.9C42.9602 28.51 43.0802 29.12 43.1902 29.73C43.3002 29.35 43.4802 28.99 43.7502 28.65C43.8102 28.57 43.9602 28.57 43.9902 28.68C44.1102 29.07 44.1602 29.4701 44.1802 29.8601C44.3602 29.5001 44.6202 29.18 44.9602 29.17C45.2702 29.17 45.3702 29.47 45.3902 29.8C45.6002 29.35 45.9002 28.89 46.2802 28.95C46.5602 28.99 46.6802 29.32 46.7302 29.68C46.8402 29.42 47.0302 29.21 47.3802 29.2C47.6202 29.2 47.7902 29.29 47.9102 29.42C47.9102 29.3 47.9202 29.18 47.9302 29.06C47.9602 28.62 48.0002 28.19 48.0602 27.76C48.1402 27.22 48.1802 26.66 48.6002 26.23C48.6502 26.18 48.7402 26.19 48.7902 26.23C48.8002 26.23 48.8102 26.25 48.8202 26.26C49.2302 26.58 49.1402 27.11 49.1302 27.56C49.1202 28.08 49.1002 28.61 49.0902 29.14C49.3202 28.64 49.6703 28.21 50.2803 27.99C50.3803 27.96 50.4502 28.0401 50.4602 28.1101C50.5302 28.5801 50.5302 29.03 50.4602 29.49C50.5802 29.38 50.7202 29.28 50.8802 29.18C50.9702 29.13 51.1203 29.2 51.1103 29.3L51.1002 29.28Z" fill="#4C9A51"/>
<path d="M50.8702 30.21C50.6102 30.87 50.1002 31.36 49.1702 31.5C48.5302 31.6 47.8802 31.54 47.2302 31.51C46.4502 31.48 45.6702 31.49 44.8902 31.51C41.9302 31.6 39.0402 31.81 36.1502 31.19C36.1502 31.19 36.1502 31.2 36.1502 31.21C36.1502 31.3 35.9802 31.33 35.9602 31.23C35.9602 31.2 35.9502 31.17 35.9402 31.14C35.8302 31.11 35.7102 31.09 35.6002 31.06C35.5602 31.06 35.5402 31.03 35.5202 31.01C35.5202 31.03 35.5102 31.04 35.5002 31.06C35.4902 31.08 35.4602 31.09 35.4402 31.08C35.3502 31.05 35.3502 31.05 35.3202 30.97C35.3202 30.94 35.3302 30.92 35.3602 30.92C35.3702 30.92 35.3902 30.91 35.4002 30.9C35.4002 30.9 35.4102 30.9 35.4202 30.9C35.3302 30.56 34.9802 29.2 34.9602 29.06C34.9002 28.66 34.8302 28.24 34.9602 27.85C34.9402 28.37 35.0102 28.89 35.1902 29.39C35.3102 29.69 35.6102 30.18 35.9802 30.44C35.9802 30.44 35.9802 30.44 35.9902 30.44C36.0202 30.46 36.0602 30.49 36.0902 30.5C36.0502 30.41 36.0302 30.31 36.0102 30.21C36.0702 29.47 36.1302 28.73 36.2502 27.99C36.3802 27.18 36.4602 26.17 37.1102 25.53C37.1102 25.53 37.1102 25.53 37.1202 25.53C37.1402 25.51 37.1502 25.5 37.1602 25.48C37.1902 25.47 37.2202 25.48 37.2502 25.48C37.2202 25.52 37.2002 25.55 37.1702 25.59C37.1802 25.63 37.1702 25.67 37.1302 25.7C37.1002 25.72 37.0802 25.74 37.0602 25.75C36.3002 26.92 36.2302 28.3 36.6702 29.6C36.7102 29.71 36.8802 30.02 37.0002 30.32C37.0202 30.3 37.0402 30.29 37.0502 30.27C37.0902 30.22 37.1802 30.22 37.2002 30.29C37.2902 30.6 37.8702 30.5 38.1302 30.55C38.4602 30.62 38.7702 30.78 39.1002 30.87C39.9302 31.1 40.9802 31.13 41.4402 30.33C41.4502 30.31 41.4702 30.3 41.5002 30.29C41.4002 30.11 41.3302 29.9 41.2902 29.69C41.2902 29.7 41.2902 29.72 41.3002 29.73C41.3402 29.27 41.4002 28.82 41.5202 28.37C41.6102 28.02 41.7302 26.98 42.2602 26.86C42.3102 26.85 42.3602 26.85 42.4002 26.86C41.9502 27.37 41.8802 28.15 41.8702 28.77C41.8702 29.39 41.9902 30 42.2002 30.59C42.8802 30.8 43.5402 30.71 44.3302 30.69C44.7902 30.68 45.2002 30.78 45.6502 30.82C46.0902 30.86 46.4902 30.76 46.9202 30.72C47.3902 30.68 47.8302 30.75 48.2802 30.8C47.9902 30.23 47.8902 29.65 47.9002 29.05C47.9302 28.61 47.9702 28.18 48.0302 27.75C48.1102 27.21 48.1502 26.65 48.5702 26.22C48.6202 26.17 48.7102 26.18 48.7602 26.22C48.7702 26.22 48.7802 26.24 48.7902 26.25C48.7402 26.36 48.6902 26.47 48.6502 26.58C48.5702 26.8 48.4902 27.02 48.4202 27.24C48.0902 28.42 48.1202 29.65 48.5702 30.83C48.8302 30.84 49.1002 30.83 49.3702 30.78C49.8802 30.67 50.3902 30.48 50.8302 30.21H50.8702Z" fill="#4C9A51"/>
<path d="M50.8201 30.8L50.5001 32.44L49.9101 35.3901H36.2601L35.6801 32.44L35.3501 30.8H50.8201Z" fill="#FF9E40"/>
<g style="mix-blend-mode:multiply" opacity="0.5">
<path d="M50.8201 30.8L50.5001 32.44H35.6801L35.3501 30.8H50.8201Z" fill="#FF9E40"/>
</g>
<path d="M51.2801 30.48H34.8901V31.88H51.2801V30.48Z" fill="#FF9E40"/>
<path d="M38.4402 29.4299C38.7218 29.4299 38.9502 29.2016 38.9502 28.9199C38.9502 28.6383 38.7218 28.4099 38.4402 28.4099C38.1585 28.4099 37.9302 28.6383 37.9302 28.9199C37.9302 29.2016 38.1585 29.4299 38.4402 29.4299Z" fill="#DB001E"/>
<path d="M42.4905 30.4399C42.7721 30.4399 43.0005 30.2116 43.0005 29.9299C43.0005 29.6483 42.7721 29.4199 42.4905 29.4199C42.2088 29.4199 41.9805 29.6483 41.9805 29.9299C41.9805 30.2116 42.2088 30.4399 42.4905 30.4399Z" fill="#DB001E"/>
<path d="M48.5701 29.4299C48.8517 29.4299 49.0801 29.2016 49.0801 28.9199C49.0801 28.6383 48.8517 28.4099 48.5701 28.4099C48.2884 28.4099 48.0601 28.6383 48.0601 28.9199C48.0601 29.2016 48.2884 29.4299 48.5701 29.4299Z" fill="#DB001E"/>
</svg>
