<svg width="75" height="57" viewBox="0 0 75 57" fill="none" xmlns="http://www.w3.org/2000/svg">
<path d="M59.9699 0H16.3599V54.62H59.9699V0Z" fill="#E13030"/>
<path d="M58.7096 1.56995H17.5996V53.06H58.7096V1.56995Z" fill="#4A4646"/>
<path d="M57.6199 2.92004H18.8398V52.62H57.6199V2.92004Z" fill="#EBEBEB"/>
<mask id="mask0_56_15376" style="mask-type:luminance" maskUnits="userSpaceOnUse" x="18" y="2" width="40" height="51">
<path d="M57.6199 2.92004H18.8398V52.62H57.6199V2.92004Z" fill="white"/>
</mask>
<path d="M60.32 51.41H16V56.53H60.32V51.41Z" fill="#4A4646"/>
<path d="M63.0597 54.58H13.1997V56.53H63.0597V54.58Z" fill="#4A4646"/>
<path d="M63.9898 31.1899H12.2798V35.09H63.9898V31.1899Z" fill="#4A4646"/>
<path d="M13.23 34.1099L13.23 55.5499H14.15L14.15 34.1099H13.23Z" fill="#4A4646"/>
<path d="M20.6099 34.1199V55.5599H21.5299V34.1199H20.6099Z" fill="#4A4646"/>
<path d="M28.9199 34.1099V55.5499H29.8399V34.1099H28.9199Z" fill="#4A4646"/>
<path d="M37.23 34.1099V55.5499H38.15V34.1099H37.23Z" fill="#4A4646"/>
<path d="M45.5396 35.0799V56.5199H46.4595V35.0799H45.5396Z" fill="#4A4646"/>
<path d="M53.8599 34.1099V55.5499H54.7799V34.1099H53.8599Z" fill="#4A4646"/>
<path d="M62.1699 34.1099V55.5499H63.0899V34.1099H62.1699Z" fill="#4A4646"/>
<path d="M38.2798 2V54" stroke="#4A4646" stroke-width="0.75" stroke-miterlimit="10"/>
<path d="M5.15022 24.34C5.72022 24.28 6.30021 24.24 6.82021 24.01C7.34021 23.78 7.80021 23.32 7.86021 22.75C7.91021 22.25 7.65021 21.76 7.68021 21.25C7.73021 20.29 8.73021 19.71 9.61021 19.35C12.9702 17.98 14.0002 18.24 17.6202 18.1C18.0702 19.63 18.5102 21.16 18.9602 22.68C19.3302 23.94 19.6902 25.19 20.0602 26.45C16.7102 26.67 15.9602 26.39 12.8502 27.66C11.9702 28.02 10.9702 28.6 10.9202 29.56C10.8902 30.06 11.1502 30.56 11.1002 31.06C11.0402 31.63 10.5802 32.09 10.0602 32.32C9.54021 32.55 8.96021 32.59 8.39021 32.65C6.86021 32.81 5.34021 33.09 3.85021 33.48C2.88021 30.68 1.79021 27.93 0.720215 25.14C2.18021 24.76 3.66021 24.49 5.16021 24.34H5.15022Z" fill="#FFEB00"/>
<path d="M4.68 22.53C5.23 22.43 5.79 22.33 6.32 22.13C6.85 21.93 7.35 21.61 7.48 21.27C7.59 20.97 7.4 20.72 7.48 20.42C7.64 19.86 8.67 19.4 9.57 19.08C12.96 17.88 13.92 17.9 17.41 17.38C17.65 18.21 17.89 19.04 18.14 19.88C18.34 20.56 18.54 21.25 18.74 21.93C15.5 22.47 14.81 22.4 11.67 23.51C10.78 23.83 9.75 24.29 9.58 24.85C9.49 25.15 9.68 25.4 9.58 25.7C9.45 26.04 8.95 26.36 8.43 26.56C7.9 26.76 7.34 26.85 6.79 26.96C5.3 27.24 3.82 27.76 2.15 28.81C1.56 27.3 0.69 25.09 0 23.6C1.44 23.2 3.24 22.81 4.7 22.53H4.68Z" fill="#3885FD"/>
<path d="M21.5598 32.33L21.7999 32.26C21.3899 30.87 20.9898 29.48 20.5798 28.09C19.5498 24.57 18.5298 21.06 17.4998 17.54L17.3598 17.05C17.2998 16.86 17.0699 16.93 17.1199 17.12L17.2398 17.54C17.7998 19.47 18.3698 21.4 18.9298 23.33C19.3898 24.92 19.8598 26.5 20.3198 28.09C20.7298 29.5 21.1498 30.92 21.5598 32.33Z" fill="#4A4444"/>
<path d="M69.2099 24.1901C68.6399 24.1501 68.0599 24.1201 67.5299 23.9001C66.9999 23.6901 66.5299 23.2401 66.4499 22.6701C66.3799 22.1701 66.6299 21.6701 66.5899 21.1701C66.5099 20.2201 65.4999 19.6601 64.5999 19.3301C61.2099 18.0601 60.1899 18.3501 56.5599 18.3101C56.1599 19.8501 55.7499 21.3901 55.3499 22.9301C55.0199 24.2001 54.6899 25.4601 54.3599 26.7301C57.7199 26.8501 58.4599 26.5501 61.5999 27.7301C62.4899 28.0701 63.5099 28.6201 63.5899 29.5701C63.6299 30.0701 63.3799 30.5701 63.4499 31.0701C63.5299 31.6401 63.9999 32.0801 64.5299 32.3001C65.0599 32.5101 65.6399 32.5401 66.2099 32.5901C67.7499 32.7001 69.2699 32.9401 70.7699 33.2901C71.6599 30.4601 72.6699 27.6901 73.6699 24.8601C72.1999 24.5201 70.7099 24.3001 69.2099 24.1801V24.1901Z" fill="#FFEB00"/>
<path d="M69.6398 22.3701C69.0898 22.2801 68.5198 22.2001 67.9898 22.0201C67.4598 21.8401 66.9498 21.5301 66.8098 21.2001C66.6898 20.9101 66.8698 20.6501 66.7798 20.3501C66.5998 19.7901 65.5598 19.3601 64.6598 19.0701C61.2398 17.9601 60.2798 18.0201 56.7698 17.5901C56.5498 18.4301 56.3298 19.2701 56.1098 20.1001C55.9298 20.7901 55.7498 21.4801 55.5698 22.1701C58.8298 22.6101 59.5098 22.5201 62.6798 23.5501C63.5798 23.8401 64.6198 24.2701 64.7998 24.8301C64.8898 25.1201 64.7098 25.3801 64.8298 25.6801C64.9698 26.0101 65.4798 26.3201 66.0098 26.5001C66.5398 26.6801 67.1098 26.7601 67.6598 26.8501C69.1598 27.0901 70.6498 27.5601 72.3498 28.5701C72.8998 27.0501 73.6998 24.8101 74.3498 23.3001C72.8998 22.9401 71.0898 22.6001 69.6298 22.3701H69.6398Z" fill="#3885FD"/>
<path d="M53.0398 32.64L52.7998 32.58C53.1698 31.18 53.5298 29.78 53.8998 28.38C54.8298 24.83 55.7498 21.29 56.6798 17.75L56.8098 17.25C56.8598 17.06 57.0998 17.12 57.0498 17.31L56.9398 17.73C56.4298 19.68 55.9198 21.62 55.4098 23.57C54.9898 25.17 54.5698 26.77 54.1498 28.37C53.7798 29.79 53.3998 31.22 53.0298 32.64H53.0398Z" fill="#4A4444"/>
</svg>
