<svg width="52" height="57" viewBox="0 0 52 57" fill="none" xmlns="http://www.w3.org/2000/svg">
<path d="M47.6901 0H4.08008V54.62H47.6901V0Z" fill="#E13030"/>
<path d="M46.4298 1.57007H5.31982V53.0601H46.4298V1.57007Z" fill="#4A4646"/>
<path d="M45.3401 2.91992H6.56006V52.6199H45.3401V2.91992Z" fill="#EBEBEB"/>
<mask id="mask0_56_17901" style="mask-type:luminance" maskUnits="userSpaceOnUse" x="6" y="2" width="40" height="51">
<path d="M45.3401 2.91992H6.56006V52.6199H45.3401V2.91992Z" fill="white"/>
</mask>
<path d="M26 2V54" stroke="#4A4646" stroke-width="0.75" stroke-miterlimit="10"/>
<path d="M48.0402 51.4099H3.72021V56.5299H48.0402V51.4099Z" fill="#4A4646"/>
<path d="M20.9999 24.28C21.1399 24.39 21.2899 24.5 21.4599 24.53C21.6299 24.56 21.8399 24.5 21.9199 24.34C21.9699 24.25 21.9699 24.14 21.9599 24.03C21.8799 23.05 21.3599 22.15 20.6699 21.45C19.9899 20.75 18.5399 20.46 19.0799 21.9C19.4199 22.79 20.2599 23.7 20.9899 24.28H20.9999Z" fill="#B0CC49"/>
<path d="M23.1699 24.15C23.2299 24.29 23.3099 24.44 23.4299 24.53C23.5499 24.63 23.7399 24.66 23.8599 24.57C23.9299 24.52 23.9799 24.43 24.0099 24.34C24.3399 23.55 24.2899 22.64 24.0399 21.81C23.7899 20.99 22.7799 20.19 22.6299 21.52C22.5299 22.35 22.8299 23.39 23.1599 24.14L23.1699 24.15Z" fill="#B0CC49"/>
<path d="M25.21 23.8901C25.21 24.0501 25.21 24.2101 25.27 24.3501C25.34 24.4901 25.49 24.6001 25.64 24.5801C25.73 24.5701 25.81 24.5101 25.88 24.4501C26.53 23.8901 26.9 23.0601 27.05 22.2101C27.2 21.3701 26.66 20.2001 25.92 21.3101C25.46 22.0101 25.25 23.0701 25.21 23.8901Z" fill="#B0CC49"/>
<path d="M24.0098 22.2401C24.0098 22.4001 24.0098 22.5601 24.0698 22.7001C24.1398 22.8401 24.2898 22.9501 24.4398 22.9301C24.5298 22.9201 24.6098 22.8601 24.6798 22.8001C25.3298 22.2401 25.6998 21.4101 25.8498 20.5601C25.9998 19.7201 25.4598 18.5501 24.7198 19.6701C24.2598 20.3701 24.0498 21.4301 24.0098 22.2501V22.2401Z" fill="#B0CC49"/>
<path d="M22.2099 22.97C22.3099 23.09 22.4199 23.21 22.5599 23.27C22.6999 23.33 22.8899 23.31 22.9899 23.19C23.0499 23.12 23.0699 23.02 23.0799 22.93C23.1899 22.08 22.8999 21.21 22.4299 20.49C21.9699 19.77 20.7799 19.27 20.9899 20.59C21.1199 21.41 21.6799 22.34 22.2099 22.97Z" fill="#B0CC49"/>
<path d="M24.7699 24.65C24.6499 24.79 24.5399 24.93 24.4999 25.1C24.4599 25.27 24.5199 25.48 24.6699 25.57C24.7599 25.62 24.8699 25.62 24.9799 25.62C25.9599 25.58 26.8799 25.08 27.6099 24.42C28.3299 23.76 28.6699 22.33 27.2199 22.82C26.3199 23.13 25.3799 23.94 24.7699 24.65Z" fill="#B0CC49"/>
<path d="M23.6997 25.0601C23.6997 25.2401 23.6997 25.4201 23.7897 25.5801C23.8697 25.7401 24.0497 25.8601 24.2197 25.8301C24.3197 25.8101 24.4097 25.7401 24.4897 25.6701C25.2097 25.0101 25.5997 24.0401 25.7297 23.0601C25.8597 22.0901 25.1997 20.7801 24.3997 22.0801C23.8997 22.8901 23.7097 24.1201 23.6997 25.0501V25.0601Z" fill="#B0CC49"/>
<path d="M23.0197 25.5301C23.1497 25.6501 23.2897 25.7701 23.4597 25.8201C23.6297 25.8701 23.8397 25.8201 23.9297 25.6701C23.9897 25.5801 23.9897 25.4701 23.9897 25.3601C23.9897 24.3801 23.5397 23.4401 22.9097 22.6801C22.2797 21.9301 20.8697 21.5301 21.2897 23.0001C21.5497 23.9201 22.3197 24.8901 22.9997 25.5301H23.0197Z" fill="#B0CC49"/>
<path d="M22.0401 25.76C22.2101 25.81 22.3901 25.86 22.5701 25.82C22.7401 25.79 22.9101 25.65 22.9301 25.47C22.9301 25.36 22.9001 25.26 22.8501 25.17C22.4101 24.29 21.5901 23.65 20.6901 23.26C19.7901 22.87 18.3501 23.14 19.3901 24.27C20.0401 24.97 21.1601 25.5 22.0501 25.76H22.0401Z" fill="#B0CC49"/>
<path d="M28.4501 24.79C28.5901 24.9 28.7401 25.01 28.9101 25.04C29.0801 25.07 29.2901 25.01 29.3701 24.85C29.4201 24.76 29.4201 24.65 29.4101 24.54C29.3301 23.56 28.8101 22.66 28.1201 21.96C27.4401 21.26 25.9901 20.97 26.5301 22.41C26.8701 23.3 27.7101 24.21 28.4401 24.79H28.4501Z" fill="#4C9A51"/>
<path d="M30.6201 24.66C30.6801 24.8 30.7601 24.95 30.8801 25.04C31.0001 25.14 31.1901 25.17 31.3101 25.08C31.3801 25.03 31.4301 24.94 31.4601 24.85C31.7901 24.06 31.7401 23.15 31.4901 22.32C31.2401 21.5 30.2301 20.7 30.0801 22.03C29.9801 22.86 30.2801 23.9 30.6101 24.65L30.6201 24.66Z" fill="#4C9A51"/>
<path d="M32.6602 24.4C32.6602 24.56 32.6602 24.72 32.7202 24.86C32.7902 25 32.9402 25.11 33.0902 25.09C33.1802 25.08 33.2602 25.02 33.3302 24.96C33.9802 24.4 34.3502 23.57 34.5002 22.72C34.6502 21.88 34.1102 20.71 33.3702 21.83C32.9102 22.53 32.7002 23.59 32.6602 24.41V24.4Z" fill="#4C9A51"/>
<path d="M31.46 22.75C31.46 22.91 31.46 23.07 31.52 23.21C31.59 23.35 31.74 23.4599 31.89 23.4399C31.98 23.4299 32.06 23.37 32.13 23.31C32.78 22.75 33.15 21.92 33.3 21.07C33.45 20.23 32.91 19.06 32.17 20.17C31.71 20.87 31.5 21.93 31.46 22.75Z" fill="#4C9A51"/>
<path d="M29.6601 23.48C29.7601 23.6 29.8701 23.72 30.0101 23.78C30.1501 23.84 30.3401 23.82 30.4401 23.7C30.5001 23.63 30.5201 23.53 30.5301 23.44C30.6401 22.59 30.3501 21.72 29.8801 21C29.4201 20.28 28.2301 19.78 28.4401 21.1C28.5701 21.92 29.1301 22.85 29.6601 23.48Z" fill="#4C9A51"/>
<path d="M32.2201 25.16C32.1001 25.3 31.9901 25.44 31.9501 25.61C31.9101 25.78 31.9701 25.99 32.1201 26.08C32.2101 26.13 32.3201 26.13 32.4301 26.13C33.4101 26.09 34.3301 25.59 35.0601 24.93C35.7801 24.27 36.1201 22.84 34.6701 23.33C33.7701 23.64 32.8301 24.45 32.2201 25.16Z" fill="#4C9A51"/>
<path d="M31.1499 25.5699C31.1499 25.7499 31.1499 25.9299 31.2399 26.0899C31.3199 26.2499 31.4999 26.3699 31.6699 26.3399C31.7699 26.3199 31.8599 26.2499 31.9399 26.1799C32.6599 25.5199 33.0499 24.5499 33.1799 23.5699C33.3099 22.5999 32.6499 21.2899 31.8499 22.5899C31.3499 23.3999 31.1599 24.6299 31.1499 25.5599V25.5699Z" fill="#4C9A51"/>
<path d="M30.4699 26.0399C30.5999 26.1599 30.7399 26.2799 30.9099 26.3299C31.0799 26.3799 31.2899 26.3299 31.3799 26.1799C31.4399 26.0899 31.4399 25.9799 31.4399 25.8699C31.4399 24.8899 30.9899 23.9499 30.3599 23.1899C29.7299 22.4399 28.3199 22.0399 28.7399 23.5099C28.9999 24.4299 29.7699 25.3999 30.4499 26.0399H30.4699Z" fill="#4C9A51"/>
<path d="M29.4903 26.27C29.6603 26.32 29.8403 26.37 30.0203 26.33C30.1903 26.3 30.3603 26.1601 30.3803 25.9801C30.3803 25.8701 30.3503 25.7701 30.3003 25.6801C29.8603 24.8001 29.0403 24.16 28.1403 23.77C27.2403 23.38 25.8003 23.6501 26.8403 24.7801C27.4903 25.4801 28.6103 26.01 29.5003 26.27H29.4903Z" fill="#4C9A51"/>
<path d="M22.1598 21.78C21.7898 21.85 21.5798 22.31 21.6998 22.67C21.8198 23.03 22.1898 23.26 22.5698 23.28C22.6898 23.28 22.8098 23.28 22.9098 23.23C23.0798 23.16 23.1998 23 23.2598 22.83C23.3698 22.54 23.3198 22.18 23.0998 21.95C22.8798 21.72 22.5098 21.65 22.2398 21.8" fill="#E13030"/>
<path d="M30.55 22.3701C30.18 22.4401 29.97 22.9001 30.09 23.2601C30.21 23.6201 30.58 23.8501 30.96 23.8701C31.08 23.8701 31.2 23.8701 31.3 23.8201C31.47 23.7501 31.59 23.5901 31.65 23.4201C31.76 23.1301 31.71 22.7701 31.49 22.5401C31.27 22.3101 30.9 22.2401 30.63 22.3901" fill="#E13030"/>
<path d="M6.4799 27.54C6.6199 27.65 6.7699 27.76 6.9399 27.79C7.1099 27.82 7.3199 27.76 7.3999 27.6C7.4499 27.51 7.4499 27.4 7.4399 27.29C7.3599 26.31 6.8399 25.41 6.1499 24.71C5.4699 24.01 4.0199 23.72 4.5599 25.16C4.8999 26.05 5.7399 26.96 6.4699 27.54H6.4799Z" fill="#B0CC49"/>
<path d="M8.64988 27.4C8.70988 27.54 8.78988 27.69 8.90988 27.78C9.02988 27.87 9.21988 27.91 9.33988 27.82C9.40988 27.77 9.45987 27.68 9.48987 27.59C9.81987 26.8 9.76988 25.89 9.51988 25.06C9.26988 24.24 8.25988 23.44 8.10988 24.77C8.00988 25.6 8.30987 26.64 8.63987 27.39L8.64988 27.4Z" fill="#B0CC49"/>
<path d="M10.6899 27.15C10.6899 27.31 10.6899 27.47 10.7499 27.61C10.8199 27.75 10.9699 27.86 11.1199 27.84C11.2099 27.83 11.2899 27.77 11.3599 27.71C12.0099 27.15 12.3799 26.32 12.5299 25.47C12.6799 24.63 12.1399 23.46 11.3999 24.58C10.9399 25.28 10.7299 26.34 10.6899 27.16V27.15Z" fill="#B0CC49"/>
<path d="M9.48975 25.5001C9.48975 25.6601 9.48975 25.8201 9.54975 25.9601C9.61975 26.1001 9.76975 26.2101 9.91975 26.1901C10.0097 26.1801 10.0898 26.1201 10.1598 26.0601C10.8098 25.5001 11.1798 24.6701 11.3298 23.8201C11.4798 22.9801 10.9398 21.8101 10.1998 22.9301C9.73975 23.6301 9.52975 24.6901 9.48975 25.5101V25.5001Z" fill="#B0CC49"/>
<path d="M7.68992 26.23C7.78992 26.35 7.89992 26.47 8.03992 26.53C8.17992 26.59 8.36992 26.57 8.46992 26.45C8.52992 26.38 8.54992 26.28 8.55992 26.19C8.66992 25.34 8.37993 24.47 7.90993 23.75C7.44993 23.03 6.25992 22.53 6.46992 23.85C6.59992 24.67 7.15992 25.6 7.68992 26.23Z" fill="#B0CC49"/>
<path d="M10.2499 27.91C10.1299 28.05 10.0199 28.19 9.97985 28.36C9.93985 28.53 9.99985 28.74 10.1499 28.83C10.2399 28.88 10.3499 28.88 10.4599 28.88C11.4399 28.84 12.3599 28.34 13.0899 27.68C13.8099 27.02 14.1499 25.59 12.6999 26.08C11.7999 26.39 10.8599 27.2 10.2499 27.91Z" fill="#B0CC49"/>
<path d="M9.17969 28.3201C9.17969 28.5001 9.17969 28.6801 9.26969 28.8401C9.34969 29.0001 9.52969 29.1201 9.69969 29.0901C9.79969 29.0701 9.88969 29.0001 9.96969 28.9301C10.6897 28.2701 11.0797 27.3001 11.2097 26.3201C11.3397 25.3501 10.6797 24.0401 9.87968 25.3401C9.37968 26.1501 9.18969 27.3801 9.17969 28.3101V28.3201Z" fill="#B0CC49"/>
<path d="M8.49969 28.7901C8.62969 28.9101 8.76969 29.0301 8.93969 29.0801C9.10969 29.1301 9.31969 29.0801 9.40969 28.9301C9.46969 28.8401 9.46969 28.7301 9.46969 28.6201C9.46969 27.6401 9.01969 26.7001 8.38969 25.9401C7.75969 25.1901 6.34969 24.7901 6.76969 26.2601C7.02969 27.1801 7.79969 28.1501 8.47969 28.7901H8.49969Z" fill="#B0CC49"/>
<path d="M7.52006 29.02C7.69006 29.07 7.87006 29.12 8.05006 29.08C8.22006 29.05 8.39006 28.9101 8.41006 28.7301C8.41006 28.6201 8.38005 28.5201 8.33005 28.4301C7.89005 27.5501 7.07005 26.91 6.17005 26.52C5.27005 26.13 3.83006 26.4001 4.87006 27.5301C5.52006 28.2301 6.64005 28.76 7.53005 29.02H7.52006Z" fill="#B0CC49"/>
<path d="M11.79 27.03C11.93 27.14 12.08 27.25 12.25 27.28C12.42 27.31 12.63 27.25 12.71 27.09C12.76 27 12.76 26.89 12.75 26.78C12.67 25.8 12.15 24.9 11.46 24.2C10.78 23.5 9.32996 23.21 9.86996 24.65C10.21 25.54 11.05 26.45 11.78 27.03H11.79Z" fill="#4C9A51"/>
<path d="M13.9599 26.8902C14.0199 27.0302 14.0999 27.1802 14.2199 27.2702C14.3399 27.3702 14.5299 27.4002 14.6499 27.3102C14.7199 27.2602 14.7699 27.1702 14.7999 27.0802C15.1299 26.2902 15.0799 25.3802 14.8299 24.5502C14.5799 23.7302 13.5699 22.9302 13.4199 24.2602C13.3199 25.0902 13.6199 26.1302 13.9499 26.8802L13.9599 26.8902Z" fill="#4C9A51"/>
<path d="M16 26.64C16 26.8 16 26.96 16.06 27.1C16.13 27.24 16.28 27.35 16.43 27.33C16.52 27.32 16.6 27.26 16.67 27.2C17.32 26.64 17.69 25.81 17.84 24.96C17.99 24.12 17.45 22.95 16.71 24.07C16.25 24.77 16.04 25.83 16 26.65V26.64Z" fill="#4C9A51"/>
<path d="M14.7998 24.9801C14.7998 25.1401 14.7998 25.3001 14.8598 25.4401C14.9298 25.5801 15.0798 25.6901 15.2298 25.6701C15.3198 25.6601 15.3998 25.6001 15.4698 25.5401C16.1198 24.9801 16.4898 24.1501 16.6398 23.3001C16.7898 22.4601 16.2498 21.2901 15.5098 22.4101C15.0498 23.1101 14.8398 24.1701 14.7998 24.9901V24.9801Z" fill="#4C9A51"/>
<path d="M13.0097 25.72C13.1097 25.84 13.2197 25.96 13.3597 26.02C13.4997 26.08 13.6897 26.06 13.7897 25.94C13.8497 25.87 13.8697 25.77 13.8797 25.68C13.9897 24.83 13.6997 23.96 13.2297 23.24C12.7697 22.52 11.5797 22.02 11.7897 23.34C11.9197 24.16 12.4797 25.09 13.0097 25.72Z" fill="#4C9A51"/>
<path d="M15.5599 27.4C15.4399 27.54 15.3299 27.68 15.2899 27.85C15.2499 28.02 15.3099 28.23 15.4599 28.32C15.5499 28.37 15.6599 28.37 15.7699 28.37C16.7499 28.33 17.6699 27.83 18.3999 27.17C19.1199 26.51 19.4599 25.08 18.0099 25.57C17.1099 25.88 16.1699 26.69 15.5599 27.4Z" fill="#4C9A51"/>
<path d="M14.5 27.8101C14.5 27.9901 14.5 28.1701 14.59 28.3301C14.67 28.4901 14.85 28.6101 15.02 28.5801C15.12 28.5601 15.21 28.4901 15.29 28.4201C16.01 27.7601 16.4 26.7901 16.53 25.8101C16.66 24.8401 16 23.5301 15.2 24.8301C14.7 25.6401 14.51 26.8701 14.5 27.8001V27.8101Z" fill="#4C9A51"/>
<path d="M13.82 28.2701C13.95 28.3901 14.09 28.5101 14.26 28.5601C14.43 28.6101 14.64 28.5601 14.73 28.4101C14.79 28.3201 14.79 28.2101 14.79 28.1001C14.79 27.1201 14.34 26.1801 13.71 25.4201C13.08 24.6701 11.67 24.2701 12.09 25.7401C12.35 26.6601 13.12 27.6301 13.8 28.2701H13.82Z" fill="#4C9A51"/>
<path d="M12.8301 28.51C13.0001 28.56 13.1801 28.61 13.3601 28.57C13.5301 28.54 13.7001 28.4 13.7201 28.22C13.7201 28.11 13.6901 28.01 13.6401 27.92C13.2001 27.04 12.3801 26.4 11.4801 26.01C10.5801 25.62 9.14011 25.89 10.1801 27.02C10.8301 27.72 11.9501 28.25 12.8401 28.51H12.8301Z" fill="#4C9A51"/>
<path d="M18.2001 27.35C18.3401 27.46 18.4901 27.57 18.6601 27.6C18.8301 27.63 19.0401 27.57 19.1201 27.41C19.1701 27.32 19.1701 27.21 19.1601 27.1C19.0801 26.12 18.5601 25.22 17.8701 24.52C17.1901 23.82 15.7401 23.53 16.2801 24.97C16.6201 25.86 17.4601 26.77 18.1901 27.35H18.2001Z" fill="#B0CC49"/>
<path d="M20.3603 27.21C20.4203 27.35 20.5003 27.5 20.6203 27.59C20.7403 27.69 20.9303 27.72 21.0503 27.63C21.1203 27.58 21.1703 27.49 21.2003 27.4C21.5303 26.61 21.4803 25.7 21.2303 24.87C20.9803 24.05 19.9703 23.25 19.8203 24.58C19.7203 25.41 20.0203 26.45 20.3503 27.2L20.3603 27.21Z" fill="#B0CC49"/>
<path d="M22.3999 26.96C22.3999 27.12 22.3999 27.28 22.4599 27.42C22.5299 27.56 22.6799 27.67 22.8299 27.65C22.9199 27.64 22.9999 27.58 23.0699 27.52C23.7199 26.96 24.0899 26.13 24.2399 25.28C24.3899 24.44 23.8499 23.27 23.1099 24.39C22.6499 25.09 22.4399 26.15 22.3999 26.97V26.96Z" fill="#B0CC49"/>
<path d="M21.2002 25.3102C21.2002 25.4702 21.2002 25.6301 21.2602 25.7701C21.3302 25.9101 21.4802 26.0202 21.6302 26.0002C21.7202 25.9902 21.8002 25.9302 21.8702 25.8702C22.5202 25.3102 22.8902 24.4801 23.0402 23.6301C23.1902 22.7901 22.6502 21.6201 21.9102 22.7401C21.4502 23.4401 21.2402 24.5001 21.2002 25.3201V25.3102Z" fill="#B0CC49"/>
<path d="M19.4101 26.0401C19.5101 26.1601 19.6201 26.2801 19.7601 26.3401C19.9001 26.4001 20.0901 26.3801 20.1901 26.2601C20.2501 26.1901 20.2701 26.0901 20.2801 26.0001C20.3901 25.1501 20.1001 24.2801 19.6301 23.5601C19.1701 22.8401 17.9801 22.3401 18.1901 23.6601C18.3201 24.4801 18.8801 25.4101 19.4101 26.0401Z" fill="#B0CC49"/>
<path d="M21.9701 27.7201C21.8501 27.8601 21.7401 28.0001 21.7001 28.1701C21.6601 28.3401 21.7201 28.5501 21.8701 28.6401C21.9601 28.6901 22.0701 28.6901 22.1801 28.6901C23.1601 28.6501 24.0801 28.1501 24.8101 27.4901C25.5301 26.8301 25.8701 25.4001 24.4201 25.8901C23.5201 26.2001 22.5801 27.0101 21.9701 27.7201Z" fill="#B0CC49"/>
<path d="M20.8999 28.1302C20.8999 28.3102 20.8999 28.4902 20.9899 28.6502C21.0699 28.8102 21.2499 28.9302 21.4199 28.9002C21.5199 28.8802 21.6099 28.8102 21.6899 28.7402C22.4099 28.0802 22.7999 27.1102 22.9299 26.1302C23.0599 25.1602 22.3999 23.8502 21.5999 25.1502C21.0999 25.9602 20.9099 27.1902 20.8999 28.1202V28.1302Z" fill="#B0CC49"/>
<path d="M20.2199 28.6002C20.3499 28.7202 20.4899 28.8402 20.6599 28.8902C20.8299 28.9402 21.0399 28.8902 21.1299 28.7402C21.1899 28.6502 21.1899 28.5402 21.1899 28.4302C21.1899 27.4502 20.7399 26.5102 20.1099 25.7502C19.4799 25.0002 18.0699 24.6002 18.4899 26.0702C18.7499 26.9902 19.5199 27.9602 20.1999 28.6002H20.2199Z" fill="#B0CC49"/>
<path d="M19.2403 28.8301C19.4103 28.8801 19.5903 28.9301 19.7703 28.8901C19.9403 28.8601 20.1103 28.7201 20.1303 28.5401C20.1303 28.4301 20.1003 28.3301 20.0503 28.2401C19.6103 27.3601 18.7903 26.7201 17.8903 26.3301C16.9903 25.9401 15.5503 26.2101 16.5903 27.3401C17.2403 28.0401 18.3603 28.5701 19.2503 28.8301H19.2403Z" fill="#B0CC49"/>
<path d="M24.9799 27.03C25.1199 27.14 25.2699 27.25 25.4399 27.28C25.6099 27.31 25.8199 27.25 25.8999 27.09C25.9499 27 25.9499 26.89 25.9399 26.78C25.8599 25.8 25.3399 24.9 24.6499 24.2C23.9699 23.5 22.5199 23.21 23.0599 24.65C23.3999 25.54 24.2399 26.45 24.9699 27.03H24.9799Z" fill="#4C9A51"/>
<path d="M27.1499 26.8902C27.2099 27.0302 27.2899 27.1802 27.4099 27.2702C27.5299 27.3702 27.7199 27.4002 27.8399 27.3102C27.9099 27.2602 27.9599 27.1702 27.9899 27.0802C28.3199 26.2902 28.2699 25.3802 28.0199 24.5502C27.7699 23.7302 26.7599 22.9302 26.6099 24.2602C26.5099 25.0902 26.8099 26.1302 27.1399 26.8802L27.1499 26.8902Z" fill="#4C9A51"/>
<path d="M29.1899 26.64C29.1899 26.8 29.1899 26.96 29.2499 27.1C29.3199 27.24 29.4699 27.35 29.6199 27.33C29.7099 27.32 29.7899 27.26 29.8599 27.2C30.5099 26.64 30.8799 25.81 31.0299 24.96C31.1799 24.12 30.6399 22.95 29.8999 24.07C29.4399 24.77 29.2299 25.83 29.1899 26.65V26.64Z" fill="#4C9A51"/>
<path d="M27.9897 24.9801C27.9897 25.1401 27.9898 25.3001 28.0498 25.4401C28.1198 25.5801 28.2697 25.6901 28.4197 25.6701C28.5097 25.6601 28.5898 25.6001 28.6598 25.5401C29.3098 24.9801 29.6798 24.1501 29.8298 23.3001C29.9798 22.4601 29.4398 21.2901 28.6998 22.4101C28.2398 23.1101 28.0297 24.1701 27.9897 24.9901V24.9801Z" fill="#4C9A51"/>
<path d="M26.1899 25.72C26.2899 25.84 26.3999 25.96 26.5399 26.02C26.6799 26.08 26.8699 26.06 26.9699 25.94C27.0299 25.87 27.0499 25.77 27.0599 25.68C27.1699 24.83 26.8799 23.96 26.4099 23.24C25.9499 22.52 24.7599 22.02 24.9699 23.34C25.0999 24.16 25.6599 25.09 26.1899 25.72Z" fill="#4C9A51"/>
<path d="M28.7499 27.4C28.6299 27.54 28.5199 27.68 28.4799 27.85C28.4399 28.02 28.4999 28.23 28.6499 28.32C28.7399 28.37 28.8499 28.37 28.9599 28.37C29.9399 28.33 30.8599 27.83 31.5899 27.17C32.3099 26.51 32.6499 25.08 31.1999 25.57C30.2999 25.88 29.3599 26.69 28.7499 27.4Z" fill="#4C9A51"/>
<path d="M27.6797 27.8101C27.6797 27.9901 27.6797 28.1701 27.7697 28.3301C27.8497 28.4901 28.0297 28.6101 28.1997 28.5801C28.2997 28.5601 28.3897 28.4901 28.4697 28.4201C29.1897 27.7601 29.5797 26.7901 29.7097 25.8101C29.8397 24.8401 29.1797 23.5301 28.3797 24.8301C27.8797 25.6401 27.6897 26.8701 27.6797 27.8001V27.8101Z" fill="#4C9A51"/>
<path d="M26.9997 28.2701C27.1297 28.3901 27.2697 28.5101 27.4397 28.5601C27.6097 28.6101 27.8197 28.5601 27.9097 28.4101C27.9697 28.3201 27.9697 28.2101 27.9697 28.1001C27.9697 27.1201 27.5197 26.1801 26.8897 25.4201C26.2597 24.6701 24.8497 24.2701 25.2697 25.7401C25.5297 26.6601 26.2997 27.6301 26.9797 28.2701H26.9997Z" fill="#4C9A51"/>
<path d="M26.0201 28.51C26.1901 28.56 26.3701 28.61 26.5501 28.57C26.7201 28.54 26.8901 28.4 26.9101 28.22C26.9101 28.11 26.8801 28.01 26.8301 27.92C26.3901 27.04 25.5701 26.4 24.6701 26.01C23.7701 25.62 22.3301 25.89 23.3701 27.02C24.0201 27.72 25.1401 28.25 26.0301 28.51H26.0201Z" fill="#4C9A51"/>
<path d="M32.37 27.6C32.51 27.71 32.66 27.82 32.83 27.85C33 27.88 33.21 27.82 33.29 27.66C33.34 27.57 33.34 27.46 33.33 27.35C33.25 26.37 32.73 25.47 32.04 24.77C31.36 24.07 29.91 23.78 30.45 25.22C30.79 26.11 31.63 27.02 32.36 27.6H32.37Z" fill="#B0CC49"/>
<path d="M34.54 27.46C34.6 27.6 34.68 27.75 34.8 27.84C34.92 27.94 35.11 27.97 35.23 27.88C35.3 27.83 35.35 27.74 35.38 27.65C35.71 26.86 35.66 25.95 35.41 25.12C35.16 24.3 34.15 23.5 34 24.83C33.9 25.66 34.2 26.7 34.53 27.45L34.54 27.46Z" fill="#B0CC49"/>
<path d="M36.5698 27.21C36.5698 27.37 36.5698 27.53 36.6298 27.67C36.6998 27.81 36.8498 27.92 36.9998 27.9C37.0898 27.89 37.1698 27.83 37.2398 27.77C37.8898 27.21 38.2598 26.38 38.4098 25.53C38.5598 24.69 38.0198 23.52 37.2798 24.64C36.8198 25.34 36.6098 26.4 36.5698 27.22V27.21Z" fill="#B0CC49"/>
<path d="M35.3701 25.5602C35.3701 25.7202 35.3701 25.8801 35.4301 26.0201C35.5001 26.1601 35.6501 26.2702 35.8001 26.2502C35.8901 26.2402 35.9701 26.1802 36.0401 26.1202C36.6901 25.5602 37.0601 24.7301 37.2101 23.8801C37.3601 23.0401 36.8201 21.8701 36.0801 22.9901C35.6201 23.6901 35.4101 24.7501 35.3701 25.5701V25.5602Z" fill="#B0CC49"/>
<path d="M33.5801 26.2901C33.6801 26.4101 33.7901 26.5301 33.9301 26.5901C34.0701 26.6501 34.2601 26.6301 34.3601 26.5101C34.4201 26.4401 34.4401 26.3401 34.4501 26.2501C34.5601 25.4001 34.2701 24.5301 33.8001 23.8101C33.3401 23.0901 32.1501 22.5901 32.3601 23.9101C32.4901 24.7301 33.0501 25.6601 33.5801 26.2901Z" fill="#B0CC49"/>
<path d="M36.14 27.9701C36.02 28.1101 35.91 28.2501 35.87 28.4201C35.83 28.5901 35.89 28.8001 36.04 28.8901C36.13 28.9401 36.24 28.9401 36.35 28.9401C37.33 28.9001 38.25 28.4001 38.98 27.7401C39.7 27.0801 40.04 25.6501 38.59 26.1401C37.69 26.4501 36.75 27.2601 36.14 27.9701Z" fill="#B0CC49"/>
<path d="M35.0698 28.3802C35.0698 28.5602 35.0698 28.7402 35.1598 28.9002C35.2398 29.0602 35.4198 29.1802 35.5898 29.1502C35.6898 29.1302 35.7798 29.0602 35.8598 28.9902C36.5798 28.3302 36.9698 27.3602 37.0998 26.3802C37.2298 25.4102 36.5698 24.1002 35.7698 25.4002C35.2698 26.2102 35.0798 27.4402 35.0698 28.3702V28.3802Z" fill="#B0CC49"/>
<path d="M34.3898 28.8502C34.5198 28.9702 34.6598 29.0902 34.8298 29.1402C34.9998 29.1902 35.2098 29.1402 35.2998 28.9902C35.3598 28.9002 35.3598 28.7902 35.3598 28.6802C35.3598 27.7002 34.9098 26.7602 34.2798 26.0002C33.6498 25.2502 32.2398 24.8502 32.6598 26.3202C32.9198 27.2402 33.6898 28.2102 34.3698 28.8502H34.3898Z" fill="#B0CC49"/>
<path d="M33.4102 29.0801C33.5802 29.1301 33.7602 29.1801 33.9402 29.1401C34.1102 29.1101 34.2802 28.9701 34.3002 28.7901C34.3002 28.6801 34.2702 28.5801 34.2202 28.4901C33.7802 27.6101 32.9602 26.9701 32.0602 26.5801C31.1602 26.1901 29.7202 26.4601 30.7602 27.5901C31.4102 28.2901 32.5302 28.8201 33.4202 29.0801H33.4102Z" fill="#B0CC49"/>
<path d="M38.1298 27.2201C38.2698 27.3301 38.4198 27.4401 38.5898 27.4701C38.7598 27.5001 38.9698 27.4402 39.0498 27.2802C39.0998 27.1902 39.0998 27.0801 39.0898 26.9701C39.0098 25.9901 38.4898 25.0902 37.7998 24.3902C37.1198 23.6902 35.6698 23.4002 36.2098 24.8402C36.5498 25.7302 37.3898 26.6401 38.1198 27.2201H38.1298Z" fill="#4C9A51"/>
<path d="M40.29 27.0801C40.35 27.2201 40.43 27.3701 40.55 27.4601C40.67 27.5601 40.86 27.5901 40.98 27.5001C41.05 27.4501 41.1 27.3601 41.13 27.2701C41.46 26.4801 41.41 25.5701 41.16 24.7401C40.91 23.9201 39.9 23.1201 39.75 24.4501C39.65 25.2801 39.95 26.3201 40.28 27.0701L40.29 27.0801Z" fill="#4C9A51"/>
<path d="M42.3296 26.8302C42.3296 26.9902 42.3296 27.1502 42.3896 27.2902C42.4596 27.4302 42.6096 27.5402 42.7596 27.5202C42.8496 27.5102 42.9296 27.4502 42.9996 27.3902C43.6496 26.8302 44.0196 26.0002 44.1696 25.1502C44.3196 24.3102 43.7796 23.1402 43.0396 24.2602C42.5796 24.9602 42.3696 26.0202 42.3296 26.8402V26.8302Z" fill="#4C9A51"/>
<path d="M41.1299 25.1701C41.1299 25.3301 41.1299 25.4901 41.1899 25.6301C41.2599 25.7701 41.4099 25.8801 41.5599 25.8601C41.6499 25.8501 41.7299 25.7901 41.7999 25.7301C42.4499 25.1701 42.8199 24.3401 42.9699 23.4901C43.1199 22.6501 42.5799 21.4801 41.8399 22.5901C41.3799 23.2901 41.1699 24.3501 41.1299 25.1701Z" fill="#4C9A51"/>
<path d="M39.3398 25.9102C39.4398 26.0302 39.5498 26.1502 39.6898 26.2102C39.8298 26.2702 40.0198 26.2502 40.1198 26.1302C40.1798 26.0602 40.1998 25.9602 40.2098 25.8702C40.3198 25.0202 40.0298 24.1502 39.5598 23.4302C39.0998 22.7102 37.9098 22.2102 38.1198 23.5302C38.2498 24.3502 38.8098 25.2802 39.3398 25.9102Z" fill="#4C9A51"/>
<path d="M41.89 27.5902C41.77 27.7302 41.66 27.8702 41.62 28.0402C41.58 28.2102 41.64 28.4202 41.79 28.5102C41.88 28.5602 41.99 28.5602 42.1 28.5602C43.08 28.5202 44 28.0202 44.73 27.3602C45.45 26.7002 45.79 25.2702 44.34 25.7602C43.44 26.0702 42.5 26.8802 41.89 27.5902Z" fill="#4C9A51"/>
<path d="M40.8296 28.0001C40.8296 28.1801 40.8296 28.36 40.9196 28.52C40.9996 28.68 41.1796 28.8 41.3496 28.77C41.4496 28.75 41.5396 28.6801 41.6196 28.6101C42.3396 27.9501 42.7296 26.9801 42.8596 26.0001C42.9896 25.0301 42.3296 23.72 41.5296 25.02C41.0296 25.83 40.8396 27.06 40.8296 27.99V28.0001Z" fill="#4C9A51"/>
<path d="M40.1496 28.46C40.2796 28.58 40.4196 28.7 40.5896 28.75C40.7596 28.8 40.9696 28.75 41.0596 28.6C41.1196 28.51 41.1196 28.4 41.1196 28.29C41.1196 27.31 40.6696 26.37 40.0396 25.61C39.4096 24.86 37.9996 24.46 38.4196 25.93C38.6796 26.85 39.4496 27.82 40.1296 28.46H40.1496Z" fill="#4C9A51"/>
<path d="M39.17 28.7002C39.34 28.7502 39.52 28.8002 39.7 28.7602C39.87 28.7302 40.04 28.5902 40.06 28.4102C40.06 28.3002 40.03 28.2002 39.98 28.1102C39.54 27.2302 38.72 26.5902 37.82 26.2002C36.92 25.8102 35.48 26.0802 36.52 27.2102C37.17 27.9102 38.29 28.4402 39.18 28.7002H39.17Z" fill="#4C9A51"/>
<path d="M40.8901 27.09C41.0301 27.2 41.1801 27.31 41.3501 27.34C41.5201 27.37 41.73 27.31 41.81 27.15C41.86 27.06 41.8601 26.95 41.8501 26.84C41.7701 25.86 41.25 24.96 40.56 24.26C39.88 23.56 38.4301 23.27 38.9701 24.71C39.3101 25.6 40.15 26.51 40.88 27.09H40.8901Z" fill="#B0CC49"/>
<path d="M43.0503 26.9502C43.1103 27.0902 43.1903 27.2402 43.3103 27.3302C43.4303 27.4302 43.6203 27.4602 43.7403 27.3702C43.8103 27.3202 43.8603 27.2303 43.8903 27.1403C44.2203 26.3503 44.1703 25.4403 43.9203 24.6103C43.6703 23.7903 42.6603 22.9902 42.5103 24.3202C42.4103 25.1502 42.7103 26.1902 43.0403 26.9402L43.0503 26.9502Z" fill="#B0CC49"/>
<path d="M45.0898 26.7C45.0898 26.86 45.0898 27.02 45.1498 27.16C45.2198 27.3 45.3698 27.41 45.5198 27.39C45.6098 27.38 45.6898 27.32 45.7598 27.26C46.4098 26.7 46.7798 25.87 46.9298 25.02C47.0798 24.18 46.5398 23.01 45.7998 24.13C45.3398 24.83 45.1298 25.89 45.0898 26.71V26.7Z" fill="#B0CC49"/>
<path d="M43.8901 25.0401C43.8901 25.2001 43.8901 25.3601 43.9501 25.5001C44.0201 25.6401 44.1701 25.7501 44.3201 25.7301C44.4101 25.7201 44.4901 25.6601 44.5601 25.6001C45.2101 25.0401 45.5801 24.2101 45.7301 23.3601C45.8801 22.5201 45.3401 21.3501 44.6001 22.4701C44.1401 23.1701 43.9301 24.2301 43.8901 25.0501V25.0401Z" fill="#B0CC49"/>
<path d="M42.1001 25.7801C42.2001 25.9001 42.3101 26.0201 42.4501 26.0801C42.5901 26.1401 42.7801 26.1201 42.8801 26.0001C42.9401 25.9301 42.9601 25.8301 42.9701 25.7401C43.0801 24.8901 42.7901 24.0201 42.3201 23.3001C41.8601 22.5801 40.6701 22.0801 40.8801 23.4001C41.0101 24.2201 41.5701 25.1501 42.1001 25.7801Z" fill="#B0CC49"/>
<path d="M44.6502 27.4601C44.5302 27.6001 44.4202 27.7401 44.3802 27.9101C44.3402 28.0801 44.4003 28.2901 44.5503 28.3801C44.6403 28.4301 44.7502 28.4301 44.8602 28.4301C45.8402 28.3901 46.7602 27.8901 47.4902 27.2301C48.2102 26.5701 48.5502 25.1401 47.1002 25.6301C46.2002 25.9401 45.2602 26.7501 44.6502 27.4601Z" fill="#B0CC49"/>
<path d="M43.5898 27.8702C43.5898 28.0502 43.5898 28.2302 43.6798 28.3902C43.7598 28.5502 43.9398 28.6702 44.1098 28.6402C44.2098 28.6202 44.2998 28.5502 44.3798 28.4802C45.0998 27.8202 45.4898 26.8502 45.6198 25.8702C45.7498 24.9002 45.0898 23.5902 44.2898 24.8902C43.7898 25.7002 43.5998 26.9302 43.5898 27.8602V27.8702Z" fill="#B0CC49"/>
<path d="M42.9099 28.3301C43.0399 28.4501 43.1798 28.5701 43.3498 28.6201C43.5198 28.6701 43.7298 28.6201 43.8198 28.4701C43.8798 28.3801 43.8798 28.2701 43.8798 28.1601C43.8798 27.1801 43.4299 26.2401 42.7999 25.4801C42.1699 24.7301 40.7598 24.3301 41.1798 25.8001C41.4398 26.7201 42.2098 27.6901 42.8898 28.3301H42.9099Z" fill="#B0CC49"/>
<path d="M41.9302 28.5701C42.1002 28.6201 42.2802 28.6701 42.4602 28.6301C42.6302 28.6001 42.8002 28.4601 42.8202 28.2801C42.8202 28.1701 42.7902 28.0701 42.7402 27.9801C42.3002 27.1001 41.4802 26.4601 40.5802 26.0701C39.6802 25.6801 38.2402 25.9501 39.2802 27.0801C39.9302 27.7801 41.0502 28.3101 41.9402 28.5701H41.9302Z" fill="#B0CC49"/>
<path d="M4.68994 27.71H48.2599L46.9099 34.51H6.11994L4.68994 27.71Z" fill="#1E3962"/>
<path d="M12.2599 24.55C11.8899 24.62 11.6799 25.08 11.7999 25.44C11.9199 25.8 12.2899 26.03 12.6699 26.05C12.7899 26.05 12.9099 26.05 13.0099 26C13.1799 25.93 13.2999 25.77 13.3599 25.6C13.4699 25.31 13.4199 24.95 13.1999 24.72C12.9799 24.49 12.6099 24.42 12.3399 24.57" fill="#E13030"/>
<path d="M39.2599 25.07C38.8899 25.14 38.6799 25.6 38.7999 25.96C38.9199 26.32 39.2899 26.55 39.6699 26.57C39.7899 26.57 39.9099 26.57 40.0099 26.52C40.1799 26.45 40.2999 26.29 40.3599 26.12C40.4699 25.83 40.4199 25.47 40.1999 25.24C39.9799 25.01 39.6099 24.94 39.3399 25.09" fill="#E13030"/>
<path d="M27.0798 24.4101C26.7098 24.4801 26.4998 24.9401 26.6198 25.3001C26.7398 25.6601 27.1098 25.8901 27.4898 25.9101C27.6098 25.9101 27.7298 25.9101 27.8298 25.8601C27.9998 25.7901 28.1198 25.6301 28.1798 25.4601C28.2898 25.1701 28.2398 24.8101 28.0198 24.5801C27.7998 24.3501 27.4298 24.2801 27.1598 24.4301" fill="#E13030"/>
<path d="M50.7799 54.5798H0.919922V56.5298H50.7799V54.5798Z" fill="#4A4646"/>
<path d="M51.71 31.1899H0V35.09H51.71V31.1899Z" fill="#4A4646"/>
<path d="M0.950195 34.1101L0.950195 55.55H1.87019L1.87019 34.1101H0.950195Z" fill="#4A4646"/>
<path d="M8.33008 34.1201L8.33008 55.5601H9.25008L9.25008 34.1201H8.33008Z" fill="#4A4646"/>
<path d="M16.6401 34.11V55.55H17.5601V34.11H16.6401Z" fill="#4A4646"/>
<path d="M24.9502 34.1101V55.55H25.8702V34.1101H24.9502Z" fill="#4A4646"/>
<path d="M33.2598 35.08V56.52H34.1798V35.08H33.2598Z" fill="#4A4646"/>
<path d="M41.5801 34.11V55.55H42.5001V34.11H41.5801Z" fill="#4A4646"/>
<path d="M49.8901 34.11V55.55H50.8101V34.11H49.8901Z" fill="#4A4646"/>
</svg>
