<svg width="60" height="65" viewBox="0 0 60 65" fill="none" xmlns="http://www.w3.org/2000/svg">
<g filter="url(#filter0_d_56_15350)">
<path d="M51.6901 0H8.08008V54.62H51.6901V0Z" fill="#E13030"/>
<path d="M50.4298 1.56995H9.31982V53.06H50.4298V1.56995Z" fill="#4A4646"/>
<path d="M49.3401 2.92004H10.5601V52.62H49.3401V2.92004Z" fill="#EBEBEB"/>
<mask id="mask0_56_15350" style="mask-type:luminance" maskUnits="userSpaceOnUse" x="10" y="2" width="40" height="51">
<path d="M49.3401 2.92004H10.5601V52.62H49.3401V2.92004Z" fill="white"/>
</mask>
<path d="M30 2V54" stroke="#4A4646" stroke-width="0.75" stroke-miterlimit="10"/>
<path d="M52.0402 51.41H7.72021V56.53H52.0402V51.41Z" fill="#4A4646"/>
<path d="M33.5401 35H12.1901C11.4601 35 10.8701 35.58 10.8701 36.3V50.14C10.8701 50.86 11.4601 51.44 12.1901 51.44H33.5401C34.2701 51.44 34.8601 50.86 34.8601 50.14V36.3C34.8601 35.58 34.2701 35 33.5401 35Z" fill="#D7D7D7"/>
<path d="M19.7202 49.7C23.3101 49.7 26.2202 46.8391 26.2202 43.31C26.2202 39.7809 23.3101 36.92 19.7202 36.92C16.1304 36.92 13.2202 39.7809 13.2202 43.31C13.2202 46.8391 16.1304 49.7 19.7202 49.7Z" fill="#191613"/>
<path d="M19.2001 43.14C19.2001 43.14 18.68 42.15 18.17 41.23C17.66 40.31 16.8601 38.27 18.3401 38.05C19.8201 37.83 21.89 38.31 22.61 39.65C23.33 40.99 21.53 42.77 20.37 43.23C19.22 43.7 19.2001 43.13 19.2001 43.13V43.14Z" fill="#605C5A"/>
<path d="M19.8603 43.67L21.9403 42.99C22.9503 42.66 25.1403 42.2 25.1003 43.68C25.0603 45.16 24.2603 47.07 22.7903 47.55C21.3203 48.03 19.8503 45.99 19.5903 44.8C19.3303 43.62 19.8603 43.67 19.8603 43.67Z" fill="#605C5A"/>
<path d="M19.27 44L18.05 45.76C17.44 46.62 15.96 48.26 15.1 47.06C14.24 45.87 13.73 43.83 14.61 42.59C15.5 41.35 17.92 42.12 18.84 42.94C19.76 43.75 19.27 44 19.27 44Z" fill="#605C5A"/>
<path d="M20.2803 43.55C20.2803 43.69 20.2403 43.83 20.1603 43.94C20.0803 44.06 19.9703 44.15 19.8403 44.2C19.7103 44.25 19.5603 44.27 19.4303 44.24C19.2903 44.21 19.1603 44.15 19.0603 44.05C18.9603 43.95 18.8903 43.83 18.8603 43.69C18.8303 43.55 18.8503 43.41 18.9003 43.28C18.9503 43.15 19.0503 43.04 19.1603 42.96C19.2703 42.88 19.4203 42.84 19.5603 42.84C19.6503 42.84 19.7503 42.86 19.8403 42.89C19.9303 42.92 20.0103 42.98 20.0703 43.04C20.1403 43.11 20.1903 43.18 20.2303 43.27C20.2703 43.36 20.2803 43.45 20.2803 43.54V43.55Z" fill="#605C5A"/>
<path d="M19.9201 43.55C19.9201 43.6 19.9101 43.66 19.8901 43.71C19.8701 43.76 19.8401 43.8 19.8001 43.84C19.7601 43.88 19.7201 43.91 19.6701 43.93C19.6201 43.95 19.5701 43.96 19.5101 43.96C19.4001 43.96 19.3001 43.92 19.2201 43.84C19.1401 43.76 19.1001 43.66 19.1001 43.55C19.1001 43.44 19.1401 43.34 19.2201 43.26C19.3001 43.18 19.4001 43.14 19.5101 43.14C19.6201 43.14 19.7201 43.18 19.8001 43.26C19.8801 43.34 19.9201 43.44 19.9201 43.55Z" fill="#3D3937"/>
<path d="M33.4704 37.4H28.3803C28.2303 37.4 28.1104 37.52 28.1104 37.66C28.1104 37.82 28.2303 37.93 28.3803 37.93H33.4704C33.6204 37.93 33.7403 37.81 33.7403 37.67C33.7403 37.51 33.6204 37.4 33.4704 37.4Z" fill="#E7E6E6"/>
<path d="M33.4704 40.15H28.3803C28.2303 40.15 28.1104 40.27 28.1104 40.41C28.1104 40.57 28.2303 40.68 28.3803 40.68H33.4704C33.6204 40.68 33.7403 40.56 33.7403 40.42C33.7403 40.26 33.6204 40.15 33.4704 40.15Z" fill="#E7E6E6"/>
<path d="M33.4704 42.9H28.3803C28.2303 42.9 28.1104 43.02 28.1104 43.16C28.1104 43.32 28.2303 43.43 28.3803 43.43H33.4704C33.6204 43.43 33.7403 43.31 33.7403 43.17C33.7403 43.01 33.6204 42.9 33.4704 42.9Z" fill="#E7E6E6"/>
<path d="M33.4704 45.63H28.3803C28.2303 45.63 28.1104 45.75 28.1104 45.89C28.1104 46.05 28.2303 46.16 28.3803 46.16H33.4704C33.6204 46.16 33.7403 46.04 33.7403 45.9C33.7403 45.74 33.6204 45.63 33.4704 45.63Z" fill="#E7E6E6"/>
<path d="M33.4704 48.38H28.3803C28.2303 48.38 28.1104 48.5 28.1104 48.64C28.1104 48.8 28.2303 48.91 28.3803 48.91H33.4704C33.6204 48.91 33.7403 48.79 33.7403 48.65C33.7403 48.49 33.6204 48.38 33.4704 48.38Z" fill="#E7E6E6"/>
<path d="M54.7799 54.58H4.91992V56.53H54.7799V54.58Z" fill="#4A4646"/>
<path d="M55.71 31.1899H4V35.09H55.71V31.1899Z" fill="#4A4646"/>
<path d="M4.9502 34.1099L4.9502 55.5499H5.87019L5.87019 34.1099H4.9502Z" fill="#4A4646"/>
<path d="M12.3301 34.1199L12.3301 55.5599H13.2501L13.2501 34.1199H12.3301Z" fill="#4A4646"/>
<path d="M20.6401 34.1099V55.5499H21.5601V34.1099H20.6401Z" fill="#4A4646"/>
<path d="M28.9502 34.1099V55.5499H29.8702V34.1099H28.9502Z" fill="#4A4646"/>
<path d="M37.2598 35.0799V56.5199H38.1798V35.0799H37.2598Z" fill="#4A4646"/>
<path d="M45.5801 34.1099V55.5499H46.5001V34.1099H45.5801Z" fill="#4A4646"/>
<path d="M53.8901 34.1099V55.5499H54.8101V34.1099H53.8901Z" fill="#4A4646"/>
</g>
<defs>
<filter id="filter0_d_56_15350" x="0" y="0" width="59.71" height="64.53" filterUnits="userSpaceOnUse" color-interpolation-filters="sRGB">
<feFlood flood-opacity="0" result="BackgroundImageFix"/>
<feColorMatrix in="SourceAlpha" type="matrix" values="0 0 0 0 0 0 0 0 0 0 0 0 0 0 0 0 0 0 127 0" result="hardAlpha"/>
<feOffset dy="4"/>
<feGaussianBlur stdDeviation="2"/>
<feComposite in2="hardAlpha" operator="out"/>
<feColorMatrix type="matrix" values="0 0 0 0 0 0 0 0 0 0 0 0 0 0 0 0 0 0 0.25 0"/>
<feBlend mode="normal" in2="BackgroundImageFix" result="effect1_dropShadow_56_15350"/>
<feBlend mode="normal" in="SourceGraphic" in2="effect1_dropShadow_56_15350" result="shape"/>
</filter>
</defs>
</svg>
