<svg width="60" height="65" viewBox="0 0 55 57" fill="none" xmlns="http://www.w3.org/2000/svg">
<path d="M50.6998 0H7.08984V54.62H50.6998V0Z" fill="#E13030"/>
<path d="M49.4401 1.57007H8.33008V53.0601H49.4401V1.57007Z" fill="#4A4646"/>
<path d="M48.3498 2.91992H9.56982V52.6199H48.3498V2.91992Z" fill="#EBEBEB"/>
<mask id="mask0_56_18001" style="mask-type:luminance" maskUnits="userSpaceOnUse" x="9" y="2" width="40" height="51">
<path d="M48.3498 2.91992H9.56982V52.6199H48.3498V2.91992Z" fill="white"/>
</mask>
<path d="M29.0098 2V54" stroke="#4A4646" stroke-width="0.75" stroke-miterlimit="10"/>
<path d="M28.8801 15.28C28.9101 20.79 24.4501 25.29 18.9401 25.32C13.4301 25.35 8.93005 20.89 8.90005 15.38C8.87005 9.86999 13.3301 5.36999 18.8401 5.33999C24.3501 5.30999 28.8501 9.77 28.8801 15.28ZM9.81006 15.38C9.84006 20.39 13.9301 24.44 18.9401 24.42C23.9501 24.4 28.0001 20.3 27.9801 15.29C27.9501 10.28 23.8601 6.23 18.8501 6.25C13.8401 6.28 9.79006 10.37 9.81006 15.38Z" fill="#375A64"/>
<path d="M20.4401 30.1199L18.8301 15.8199L20.0301 15.6499L21.5501 30.1199H20.4401Z" fill="#3787FF"/>
<path d="M29.0402 44.4099C29.0702 49.9199 24.6102 54.4199 19.1002 54.4499C13.5902 54.4799 9.09021 50.0199 9.06021 44.5099C9.03021 38.9999 13.4902 34.4999 19.0002 34.4699C24.5102 34.4399 29.0102 38.8999 29.0402 44.4099ZM9.97021 44.5099C10.0002 49.5199 14.0902 53.5699 19.1002 53.5499C24.1102 53.5199 28.1602 49.4299 28.1402 44.4199C28.1202 39.4099 24.0202 35.3599 19.0102 35.3799C14.0002 35.4099 9.95021 39.4999 9.97021 44.5099Z" fill="#375A64"/>
<path d="M4.3 22.23L1.95 23.03L1.02 22.43L0 18.77L0.600006 18.53L1.49001 21.81L2.39 22.16L4.10001 21.61L4.3 22.23Z" fill="#2C4251"/>
<path d="M18.3399 16.0801L7.32986 20.9801L19.4699 30.6501L18.6099 31.5201L6.64986 21.4201L5.95987 21.7601L9.08987 36.2201L7.97987 36.5301L5.10986 22.1101L4.17986 22.4201L3.85986 21.4301L17.7799 15.3401L18.3399 16.0801Z" fill="#3787FF"/>
<path d="M19.5499 43.9799L20.9499 34.9699L19.9799 34.9299L18.6899 43.7099L19.5499 43.9799Z" fill="#3787FF"/>
<path d="M18.3698 44.45L9.27979 37.77L9.83978 36.52L18.9898 43.61L18.3698 44.45Z" fill="#3787FF"/>
<path d="M20.96 35.3701C22.4787 35.3701 23.71 34.1389 23.71 32.6201C23.71 31.1013 22.4787 29.8701 20.96 29.8701C19.4412 29.8701 18.21 31.1013 18.21 32.6201C18.21 34.1389 19.4412 35.3701 20.96 35.3701Z" fill="#2C4251"/>
<path d="M7.97992 36.53L5.66992 37.22L5.67992 38.55L9.27992 37.77L9.83992 36.52L9.08992 36.22L7.97992 36.53Z" fill="#3787FF"/>
<path d="M5.65005 40.4001C5.97005 40.2901 7.32005 39.8201 7.36005 39.1401C7.41005 38.4601 6.65005 33.7701 6.47005 33.0601C6.35005 32.6101 5.61005 32.3601 5.61005 33.4201C5.61005 34.9501 4.93005 40.6201 5.65005 40.3901V40.4001Z" fill="#2C4251"/>
<path d="M19.08 43.25C19.74 43.25 20.28 43.78 20.29 44.45C20.3 45.12 19.76 45.65 19.09 45.66C18.42 45.67 17.89 45.13 17.88 44.46C17.87 43.79 18.41 43.26 19.08 43.25Z" fill="#2C4251"/>
<path d="M18.9199 14.1399C19.5799 14.1399 20.1199 14.6699 20.1299 15.3399C20.1399 16.0099 19.5999 16.5399 18.9299 16.5499C18.2599 16.5599 17.7299 16.0199 17.7199 15.3499C17.7099 14.6799 18.2499 14.1499 18.9199 14.1399Z" fill="#2C4251"/>
<path opacity="0.5" d="M4.3 22.23L1.95 23.03L1.02 22.43L0 18.77L0.600006 18.53L1.49001 21.81L2.39 22.16L4.10001 21.61L4.3 22.23Z" fill="#2C4251"/>
<path opacity="0.5" d="M20.96 35.3701C22.4787 35.3701 23.71 34.1389 23.71 32.6201C23.71 31.1013 22.4787 29.8701 20.96 29.8701C19.4412 29.8701 18.21 31.1013 18.21 32.6201C18.21 34.1389 19.4412 35.3701 20.96 35.3701Z" fill="#2C4251"/>
<path opacity="0.5" d="M5.65005 40.4001C5.97005 40.2901 7.32005 39.8201 7.36005 39.1401C7.41005 38.4601 6.65005 33.7701 6.47005 33.0601C6.35005 32.6101 5.61005 32.3601 5.61005 33.4201C5.61005 34.9501 4.93005 40.6201 5.65005 40.3901V40.4001Z" fill="#2C4251"/>
<path opacity="0.5" d="M19.08 43.25C19.74 43.25 20.28 43.78 20.29 44.45C20.3 45.12 19.76 45.65 19.09 45.66C18.42 45.67 17.89 45.13 17.88 44.46C17.87 43.79 18.41 43.26 19.08 43.25Z" fill="#2C4251"/>
<path opacity="0.5" d="M18.9199 14.1399C19.5799 14.1399 20.1199 14.6699 20.1299 15.3399C20.1399 16.0099 19.5999 16.5399 18.9299 16.5499C18.2599 16.5599 17.7299 16.0199 17.7199 15.3499C17.7099 14.6799 18.2499 14.1499 18.9199 14.1399Z" fill="#2C4251"/>
<path d="M21.5601 32.96L25.4101 32.94L25.4201 34.9L26.3901 34.89L26.3701 31.79L21.5601 31.81V32.96Z" fill="#3787FF"/>
<path d="M51.05 51.4099H6.72998V56.5299H51.05V51.4099Z" fill="#4A4646"/>
<path d="M53.7897 54.5798H3.92969V56.5298H53.7897V54.5798Z" fill="#4A4646"/>
<path d="M54.7198 31.1899H3.00977V35.09H54.7198V31.1899Z" fill="#4A4646"/>
<path d="M3.95996 34.1101L3.95996 55.55H4.87996L4.87996 34.1101H3.95996Z" fill="#4A4646"/>
<path d="M11.3398 34.1201L11.3398 55.5601H12.2598L12.2598 34.1201H11.3398Z" fill="#4A4646"/>
<path d="M19.6499 34.11V55.55H20.5699V34.11H19.6499Z" fill="#4A4646"/>
<path d="M27.96 34.1101V55.55H28.88V34.1101H27.96Z" fill="#4A4646"/>
<path d="M36.2695 35.08V56.52H37.1895V35.08H36.2695Z" fill="#4A4646"/>
<path d="M44.5898 34.11V55.55H45.5098V34.11H44.5898Z" fill="#4A4646"/>
<path d="M52.8999 34.11V55.55H53.8199V34.11H52.8999Z" fill="#4A4646"/>
</svg>
