<svg width="52" height="57" viewBox="0 0 52 57" fill="none" xmlns="http://www.w3.org/2000/svg">
<path d="M47.6901 0H4.08008V54.62H47.6901V0Z" fill="#E13030"/>
<path d="M46.4298 1.57007H5.31982V53.0601H46.4298V1.57007Z" fill="#4A4646"/>
<path d="M45.3401 2.91992H6.56006V52.6199H45.3401V2.91992Z" fill="#EBEBEB"/>
<mask id="mask0_56_19150" style="mask-type:luminance" maskUnits="userSpaceOnUse" x="6" y="2" width="40" height="51">
<path d="M45.3401 2.91992H6.56006V52.6199H45.3401V2.91992Z" fill="white"/>
</mask>
<g mask="url(#mask0_56_19150)">
<path d="M26.8101 2.03003C26.8101 2.03003 28.0301 27.72 41.3901 27.72V53.24H45.8701V2.03003H26.8101Z" fill="#B0CC49"/>
<path d="M25.58 2.43994C25.58 2.43994 24.36 28.1299 11 28.1299V53.6499H6.52002V2.43994H25.58Z" fill="#B0CC49"/>
</g>
<path d="M26 2V54" stroke="#4A4646" stroke-width="0.75" stroke-miterlimit="10"/>
<path d="M50.7799 54.5798H0.919922V56.5298H50.7799V54.5798Z" fill="#4A4646"/>
<path d="M51.71 31.1899H0V35.09H51.71V31.1899Z" fill="#4A4646"/>
<path d="M0.950195 34.1101L0.950195 55.55H1.87019L1.87019 34.1101H0.950195Z" fill="#4A4646"/>
<path d="M8.33008 34.1201L8.33008 55.5601H9.25008L9.25008 34.1201H8.33008Z" fill="#4A4646"/>
<path d="M16.6401 34.11V55.55H17.5601V34.11H16.6401Z" fill="#4A4646"/>
<path d="M24.9502 34.1101V55.55H25.8702V34.1101H24.9502Z" fill="#4A4646"/>
<path d="M33.2598 35.08V56.52H34.1798V35.08H33.2598Z" fill="#4A4646"/>
<path d="M41.5801 34.11V55.55H42.5001V34.11H41.5801Z" fill="#4A4646"/>
<path d="M49.8901 34.11V55.55H50.8101V34.11H49.8901Z" fill="#4A4646"/>
<path d="M48.0402 51.4099H3.72021V56.5299H48.0402V51.4099Z" fill="#4A4646"/>
</svg>
