<svg width="52" height="26" viewBox="0 0 52 26" fill="none" xmlns="http://www.w3.org/2000/svg">
<path d="M11.4802 21.4C19.6902 21.4 23.9202 21.12 23.8602 16.34C23.8002 11.56 16.8902 13.53 14.6002 12.13C12.3102 10.73 10.7702 5.38004 8.21019 5.81004C3.29019 6.63004 5.57019 20.21 6.89019 20.8C8.21019 21.39 11.4902 21.4 11.4902 21.4H11.4802Z" fill="#FF9E40"/>
<path d="M39.5002 21.2801C31.1102 21.2801 26.7902 21.0001 26.8502 16.1101C26.9102 11.2201 33.9702 13.2401 36.3202 11.8101C38.6702 10.3801 40.2402 4.91006 42.8502 5.35006C47.8802 6.19006 45.5502 20.0601 44.2002 20.6701C42.8502 21.2801 39.5002 21.2801 39.5002 21.2801Z" fill="#4C9A51"/>
<path d="M50.7799 23.39H0.919922V25.34H50.7799V23.39Z" fill="#4A4646"/>
<path d="M51.71 0H0V3.90001H51.71V0Z" fill="#4A4646"/>
<path d="M0.950195 2.91999L0.950195 24.36H1.87019L1.87019 2.91999H0.950195Z" fill="#4A4646"/>
<path d="M8.33008 2.92999L8.33008 24.37H9.25008L9.25008 2.92999H8.33008Z" fill="#4A4646"/>
<path d="M16.6401 2.91998V24.36H17.5601V2.91998H16.6401Z" fill="#4A4646"/>
<path d="M24.9502 2.91999V24.36H25.8702V2.91999H24.9502Z" fill="#4A4646"/>
<path d="M33.2598 3.88995V25.33H34.1798V3.88995H33.2598Z" fill="#4A4646"/>
<path d="M41.5801 2.91998V24.36H42.5001V2.91998H41.5801Z" fill="#4A4646"/>
<path d="M49.8901 2.91998V24.36H50.8101V2.91998H49.8901Z" fill="#4A4646"/>
</svg>
