<svg width="52" height="19" viewBox="0 0 52 19" fill="none" xmlns="http://www.w3.org/2000/svg">
<path d="M1.08008 1.21997V18.5H3.57008L6.31008 5.46997L9.02008 18.5H11.5401V1.21997H1.08008Z" fill="#2C4251"/>
<path d="M24.62 1.12001L23.19 1.22C23.19 1.74 22.92 2.12002 22.57 2.39002C21.8 3.00002 20.68 3.00002 19.91 2.39002C19.57 2.12002 19.29 1.74 19.29 1.22L17.86 1.12001C17.1 1.07001 16.4 1.53001 16.12 2.26001L13.04 10.43L15.34 11.32L17.75 5.91001V15.07H24.75V5.91001L27.16 11.32L29.46 10.43L26.38 2.26001C26.1 1.53001 25.4 1.06001 24.64 1.12001H24.62Z" fill="#DB001E"/>
<path d="M39.2598 0.77002C39.2598 0.77002 44.9498 2.98002 50.6798 0.77002V13.89H39.2598V0.77002Z" fill="white"/>
<path d="M29.8498 1.15002V3.95003C29.8498 3.95003 28.3098 5.31003 28.6698 5.87003C28.9798 6.35003 29.6698 5.94002 30.3598 5.36002C30.8698 4.93002 31.1698 4.28002 31.1698 3.60002V1.16002H29.8498V1.15002Z" fill="#2C4251"/>
<path d="M32.4001 1.15002V3.95003C32.4001 3.95003 30.8601 5.31003 31.2201 5.87003C31.5301 6.35003 32.2201 5.94002 32.9101 5.36002C33.4201 4.93002 33.7201 4.28002 33.7201 3.60002V1.16002H32.4001V1.15002Z" fill="#2C4251"/>
<path d="M36.74 1.15002H35V6.83002H36.74C36.74 6.83002 36.77 4.92002 37.68 3.99002C36.78 3.05002 36.74 1.15002 36.74 1.15002Z" fill="#D8939D"/>
<path d="M0 0.790039H52" stroke="#D1D2D3" stroke-miterlimit="10"/>
<path d="M1.51978 1.54004C1.64978 1.54004 1.75978 1.43004 1.75978 1.29004V0.290039C1.75978 0.150039 1.64978 0.0400391 1.51978 0.0400391C1.38978 0.0400391 1.27979 0.150039 1.27979 0.290039V1.29004C1.27979 1.43004 1.38978 1.54004 1.51978 1.54004Z" fill="#5F6392"/>
<path d="M11.0999 1.54004C11.2299 1.54004 11.3399 1.43004 11.3399 1.29004V0.290039C11.3399 0.150039 11.2299 0.0400391 11.0999 0.0400391C10.9699 0.0400391 10.8599 0.150039 10.8599 0.290039V1.29004C10.8599 1.43004 10.9699 1.54004 11.0999 1.54004Z" fill="#5F6392"/>
<path d="M17.9202 1.5C18.0502 1.5 18.1602 1.39 18.1602 1.25V0.25C18.1602 0.11 18.0502 0 17.9202 0C17.7902 0 17.6802 0.11 17.6802 0.25V1.25C17.6802 1.39 17.7902 1.5 17.9202 1.5Z" fill="#5F6392"/>
<path d="M24.5501 1.5C24.6801 1.5 24.7901 1.39 24.7901 1.25V0.25C24.7901 0.11 24.6801 0 24.5501 0C24.4201 0 24.3101 0.11 24.3101 0.25V1.25C24.3101 1.39 24.4201 1.5 24.5501 1.5Z" fill="#5F6392"/>
<path d="M30.47 1.5C30.6 1.5 30.71 1.39 30.71 1.25V0.25C30.71 0.11 30.6 0 30.47 0C30.34 0 30.23 0.11 30.23 0.25V1.25C30.23 1.39 30.34 1.5 30.47 1.5Z" fill="#5F6392"/>
<path d="M33.03 1.5C33.16 1.5 33.27 1.39 33.27 1.25V0.25C33.27 0.11 33.16 0 33.03 0C32.9 0 32.79 0.11 32.79 0.25V1.25C32.79 1.39 32.9 1.5 33.03 1.5Z" fill="#5F6392"/>
<path d="M35.8699 1.5C35.9999 1.5 36.1099 1.39 36.1099 1.25V0.25C36.1099 0.11 35.9999 0 35.8699 0C35.7399 0 35.6299 0.11 35.6299 0.25V1.25C35.6299 1.39 35.7399 1.5 35.8699 1.5Z" fill="#5F6392"/>
<path d="M39.6799 1.5C39.8099 1.5 39.9199 1.39 39.9199 1.25V0.25C39.9199 0.11 39.8099 0 39.6799 0C39.5499 0 39.4399 0.11 39.4399 0.25V1.25C39.4399 1.39 39.5499 1.5 39.6799 1.5Z" fill="#5F6392"/>
<path d="M50.2 1.5C50.33 1.5 50.44 1.39 50.44 1.25V0.25C50.44 0.11 50.33 0 50.2 0C50.07 0 49.96 0.11 49.96 0.25V1.25C49.96 1.39 50.07 1.5 50.2 1.5Z" fill="#5F6392"/>
</svg>
