<svg width="53" height="11" viewBox="0 0 53 11" fill="none" xmlns="http://www.w3.org/2000/svg">
<path d="M51.3801 0.590088C51.3801 0.590088 50.6801 10.3401 38.6901 10.3401C26.7001 10.3401 26.0001 0.590088 26.0001 0.590088H25.9601C25.9601 0.590088 25.2601 10.3401 13.2701 10.3401C1.28008 10.3401 0.580078 0.590088 0.580078 0.590088" stroke="#4A4646" stroke-width="0.25" stroke-linecap="round" stroke-linejoin="round"/>
<path d="M0.590004 1.24004C0.915852 1.24004 1.18 0.971416 1.18 0.640045C1.18 0.308674 0.915852 0.0400391 0.590004 0.0400391C0.264156 0.0400391 0 0.308674 0 0.640045C0 0.971416 0.264156 1.24004 0.590004 1.24004Z" fill="#FFEB37"/>
<path d="M2.15005 5.62993C2.4759 5.62993 2.74006 5.36131 2.74006 5.02994C2.74006 4.69857 2.4759 4.42993 2.15005 4.42993C1.82421 4.42993 1.56006 4.69857 1.56006 5.02994C1.56006 5.36131 1.82421 5.62993 2.15005 5.62993Z" fill="#FFEB37"/>
<path d="M4.73014 8.41998C5.05599 8.41998 5.32014 8.15135 5.32014 7.81998C5.32014 7.48861 5.05599 7.21997 4.73014 7.21997C4.40429 7.21997 4.14014 7.48861 4.14014 7.81998C4.14014 8.15135 4.40429 8.41998 4.73014 8.41998Z" fill="#FFEB37"/>
<path d="M8.37999 9.27001C8.17999 9.01001 7.80999 8.96002 7.55999 9.17002C7.29999 9.37002 7.25998 9.75002 7.45998 10.01C7.65998 10.27 8.02998 10.32 8.27998 10.11C8.53998 9.91003 8.57999 9.53001 8.37999 9.27001Z" fill="#FFEB37"/>
<path d="M12.0899 9.86011C11.8899 9.60011 11.5199 9.55011 11.2699 9.76011C11.0099 9.96011 10.9699 10.3401 11.1699 10.6001C11.3699 10.8601 11.7399 10.9101 11.9899 10.7001C12.2499 10.5001 12.2899 10.1201 12.0899 9.86011Z" fill="#FFEB37"/>
<path d="M25.9899 1.24004C26.3158 1.24004 26.5799 0.971416 26.5799 0.640045C26.5799 0.308674 26.3158 0.0400391 25.9899 0.0400391C25.6641 0.0400391 25.3999 0.308674 25.3999 0.640045C25.3999 0.971416 25.6641 1.24004 25.9899 1.24004Z" fill="#FFEB37"/>
<path d="M24.32 5.62993C24.6458 5.62993 24.91 5.36131 24.91 5.02994C24.91 4.69857 24.6458 4.42993 24.32 4.42993C23.9941 4.42993 23.73 4.69857 23.73 5.02994C23.73 5.36131 23.9941 5.62993 24.32 5.62993Z" fill="#FFEB37"/>
<path d="M21.7502 8.41998C22.076 8.41998 22.3402 8.15135 22.3402 7.81998C22.3402 7.48861 22.076 7.21997 21.7502 7.21997C21.4243 7.21997 21.1602 7.48861 21.1602 7.81998C21.1602 8.15135 21.4243 8.41998 21.7502 8.41998Z" fill="#FFEB37"/>
<path d="M18.1001 9.27001C18.3001 9.01001 18.6701 8.96002 18.9201 9.17002C19.1801 9.37002 19.2201 9.75002 19.0201 10.01C18.8201 10.27 18.4501 10.32 18.2001 10.11C17.9401 9.91003 17.9001 9.53001 18.1001 9.27001Z" fill="#FFEB37"/>
<path d="M14.3902 9.86011C14.5902 9.60011 14.9602 9.55011 15.2102 9.76011C15.4702 9.96011 15.5102 10.3401 15.3102 10.6001C15.1102 10.8601 14.7402 10.9101 14.4902 10.7001C14.2302 10.5001 14.1902 10.1201 14.3902 9.86011Z" fill="#FFEB37"/>
<path d="M27.5802 5.62993C27.9061 5.62993 28.1702 5.36131 28.1702 5.02994C28.1702 4.69857 27.9061 4.42993 27.5802 4.42993C27.2544 4.42993 26.9902 4.69857 26.9902 5.02994C26.9902 5.36131 27.2544 5.62993 27.5802 5.62993Z" fill="#FFEB37"/>
<path d="M30.1598 8.41998C30.4857 8.41998 30.7498 8.15135 30.7498 7.81998C30.7498 7.48861 30.4857 7.21997 30.1598 7.21997C29.834 7.21997 29.5698 7.48861 29.5698 7.81998C29.5698 8.15135 29.834 8.41998 30.1598 8.41998Z" fill="#FFEB37"/>
<path d="M33.8102 9.27001C33.6102 9.01001 33.2402 8.96002 32.9902 9.17002C32.7302 9.37002 32.6902 9.75002 32.8902 10.01C33.0902 10.27 33.4602 10.32 33.7102 10.11C33.9702 9.91003 34.0102 9.53001 33.8102 9.27001Z" fill="#FFEB37"/>
<path d="M37.5201 9.86011C37.3201 9.60011 36.9501 9.55011 36.7001 9.76011C36.4401 9.96011 36.4001 10.3401 36.6001 10.6001C36.8001 10.8601 37.1701 10.9101 37.4201 10.7001C37.6801 10.5001 37.7201 10.1201 37.5201 9.86011Z" fill="#FFEB37"/>
<path d="M51.4201 1.24004C51.7459 1.24004 52.0101 0.971416 52.0101 0.640045C52.0101 0.308674 51.7459 0.0400391 51.4201 0.0400391C51.0942 0.0400391 50.8301 0.308674 50.8301 0.640045C50.8301 0.971416 51.0942 1.24004 51.4201 1.24004Z" fill="#FFEB37"/>
<path d="M49.7502 5.62993C50.076 5.62993 50.3401 5.36131 50.3401 5.02994C50.3401 4.69857 50.076 4.42993 49.7502 4.42993C49.4243 4.42993 49.1602 4.69857 49.1602 5.02994C49.1602 5.36131 49.4243 5.62993 49.7502 5.62993Z" fill="#FFEB37"/>
<path d="M47.1798 8.41998C47.5057 8.41998 47.7698 8.15135 47.7698 7.81998C47.7698 7.48861 47.5057 7.21997 47.1798 7.21997C46.854 7.21997 46.5898 7.48861 46.5898 7.81998C46.5898 8.15135 46.854 8.41998 47.1798 8.41998Z" fill="#FFEB37"/>
<path d="M43.5298 9.27001C43.7298 9.01001 44.0998 8.96002 44.3498 9.17002C44.6098 9.37002 44.6498 9.75002 44.4498 10.01C44.2498 10.27 43.8798 10.32 43.6298 10.11C43.3698 9.91003 43.3298 9.53001 43.5298 9.27001Z" fill="#FFEB37"/>
<path d="M39.8101 9.86011C40.0101 9.60011 40.3801 9.55011 40.6301 9.76011C40.8901 9.96011 40.9301 10.3401 40.7301 10.6001C40.5301 10.8601 40.1601 10.9101 39.9101 10.7001C39.6501 10.5001 39.6101 10.1201 39.8101 9.86011Z" fill="#FFEB37"/>
</svg>
