<svg width="52" height="49" viewBox="0 0 52 49" fill="none" xmlns="http://www.w3.org/2000/svg">
<path d="M24.4995 27.83L24.1496 29.83L24.0896 30.19L21.9796 42.54L21.9195 42.9L21.7296 44H9.81955L9.62955 42.9L9.56955 42.54L7.44955 30.19L7.38955 29.83L7.03955 27.83H24.4995Z" fill="#FF9E40"/>
<path opacity="0.2" d="M24.1497 29.83L24.0897 30.19H7.44965L7.38965 29.83H24.1497Z" fill="white"/>
<path d="M21.6098 25.91C21.5698 26.48 21.5598 27.04 21.5898 27.6C21.5898 27.68 21.5898 27.75 21.6098 27.83H10.6298C8.13978 21.47 3.02979 16.74 3.02979 16.74C7.05979 18.31 7.86979 19.78 8.96979 20.64L9.09978 21.21C9.09978 21.21 9.09979 20.99 8.96979 20.64L5.12978 4.39L12.2998 23.54C12.4398 22.54 12.6198 21.35 12.8598 20.04C12.8498 19.84 12.2498 6.32999 10.5098 2.67999C10.7298 3.02999 13.5798 7.64999 14.2298 14.01C15.8298 8.24999 18.4698 2.21 22.7498 0C22.6598 0.07 17.4298 4.19 15.8298 21.92C16.8698 17.07 19.2298 9.83 24.4298 5.48C24.2198 5.77 19.7598 11.82 18.7898 20.77C20.1098 18.74 22.4098 15.92 25.8598 13.82C25.7498 14.01 22.0398 20.1 21.6198 25.9L21.6098 25.91Z" fill="#4C9A51"/>
<g opacity="0.1">
<path d="M21.6098 25.91C21.5698 26.48 21.5598 27.04 21.5898 27.6C21.5898 27.68 21.5898 27.75 21.6098 27.83H10.6298C8.13978 21.47 3.02979 16.74 3.02979 16.74C7.05979 18.31 7.86979 19.78 8.96979 20.64L9.09978 21.21C9.09978 21.21 9.09979 20.99 8.96979 20.64L5.12978 4.39L12.2998 23.54C12.4398 22.54 12.6198 21.35 12.8598 20.04C12.8498 19.84 12.2498 6.32999 10.5098 2.67999C10.7298 3.02999 13.5798 7.64999 14.2298 14.01C15.8298 8.24999 18.4698 2.21 22.7498 0C22.6598 0.07 17.4298 4.19 15.8298 21.92C16.8698 17.07 19.2298 9.83 24.4298 5.48C24.2198 5.77 19.7598 11.82 18.7898 20.77C20.1098 18.74 22.4098 15.92 25.8598 13.82C25.7498 14.01 22.0398 20.1 21.6198 25.9L21.6098 25.91Z" fill="#4C9A51"/>
</g>
<path d="M50.7799 46.58H0.919922V48.53H50.7799V46.58Z" fill="#4A4646"/>
<path d="M51.71 23.1899H0V27.09H51.71V23.1899Z" fill="#4A4646"/>
<path d="M0.950195 26.1099L0.950195 47.5499H1.87019L1.87019 26.1099H0.950195Z" fill="#4A4646"/>
<path d="M8.33008 26.1199L8.33008 47.5599H9.25008L9.25008 26.1199H8.33008Z" fill="#4A4646"/>
<path d="M16.6401 26.1099V47.5499H17.5601V26.1099H16.6401Z" fill="#4A4646"/>
<path d="M24.9502 26.1099V47.5499H25.8702V26.1099H24.9502Z" fill="#4A4646"/>
<path d="M33.2598 27.0799V48.5199H34.1798V27.0799H33.2598Z" fill="#4A4646"/>
<path d="M41.5801 26.1099V47.5499H42.5001V26.1099H41.5801Z" fill="#4A4646"/>
<path d="M49.8901 26.1099V47.5499H50.8101V26.1099H49.8901Z" fill="#4A4646"/>
</svg>
