<svg width="52" height="43" viewBox="0 0 52 43" fill="none" xmlns="http://www.w3.org/2000/svg">
<g id="plants3">
<g id="Group">
<path id="Vector" d="M37.2803 24.3301L39.0903 37.5901C39.1203 37.8001 39.5103 37.8101 39.5403 37.5901L41.4703 24.3201" stroke="#1A1A1A" stroke-width="0.18" stroke-linecap="round" stroke-linejoin="round"/>
<g id="Group_2">
<g id="Group_3">
<path id="Vector_2" d="M44.09 19.8401L44.08 19.8801L43.85 21.1901L43.81 21.4601L43.75 21.7701L42.68 28.0001H35.9L34.8 21.7801L34.75 21.4601L34.7 21.1901L34.47 19.9001V19.8901L34.46 19.8401H44.09Z" fill="#3787FF"/>
<path id="Vector_3" d="M44.0902 21.4602C44.0802 21.9702 41.8402 22.2402 39.5302 22.2602H39.4702C39.4002 22.2602 39.3302 22.2602 39.2602 22.2602C39.1802 22.2602 39.1002 22.2602 39.0202 22.2602C36.7102 22.2402 34.4802 21.9802 34.4702 21.4602C34.4802 20.9502 36.6602 20.6902 38.9302 20.6602C39.0102 20.6602 39.0902 20.6602 39.1602 20.6602C39.1902 20.6602 39.2202 20.6602 39.2502 20.6602C39.3302 20.6602 39.4102 20.6602 39.4802 20.6602C39.5602 20.6602 39.6402 20.6602 39.7202 20.6602C39.8302 20.6602 39.9402 20.6602 40.0602 20.6602C42.1702 20.7102 44.0702 20.9802 44.0802 21.4502L44.0902 21.4602Z" fill="#1E3962"/>
<path id="Vector_4" d="M44.0202 19.9101C44.0202 20.2601 42.9702 20.5001 41.5702 20.6201C41.5402 20.6201 41.5102 20.6201 41.4902 20.6201C41.4602 20.6201 41.4402 20.6201 41.4102 20.6201C41.3202 20.6201 41.2202 20.6301 41.1202 20.6401C41.0902 20.6401 41.0502 20.6401 41.0202 20.6401C40.8902 20.6401 40.7502 20.6501 40.6202 20.6601C40.5702 20.6601 40.5202 20.6601 40.4702 20.6601C40.4102 20.6601 40.3502 20.6601 40.3002 20.6601C40.2502 20.6601 40.2002 20.6601 40.1502 20.6601C40.0902 20.6601 40.0202 20.6601 39.9602 20.6601C39.9202 20.6601 39.8902 20.6601 39.8502 20.6601C39.8302 20.6601 39.8102 20.6601 39.7802 20.6601C39.7102 20.6601 39.6402 20.6601 39.5602 20.6601C39.5402 20.6601 39.5202 20.6601 39.5002 20.6601H39.3702C39.3102 20.6601 39.2502 20.6601 39.1902 20.6601C39.1402 20.6601 39.0802 20.6601 39.0302 20.6601C39.0102 20.6601 38.9902 20.6601 38.9702 20.6601H38.9602C38.9602 20.6601 38.9002 20.6601 38.8702 20.6601C38.7402 20.6601 38.6002 20.6601 38.4702 20.6601C38.4202 20.6601 38.3802 20.6601 38.3302 20.6601C38.0602 20.6601 37.7902 20.6401 37.5202 20.6301C35.8002 20.5301 34.4202 20.2801 34.4102 19.8801C34.4102 19.5601 35.2802 19.3401 36.4902 19.2101C36.8402 19.1701 37.2102 19.1401 37.6102 19.1201C37.6702 19.1201 37.7302 19.1201 37.7902 19.1201C38.0302 19.1101 38.2702 19.1001 38.5202 19.1001C38.6002 19.1001 38.6802 19.1001 38.7602 19.1001C38.8002 19.1001 38.8401 19.1001 38.8801 19.1001C38.9102 19.1001 38.9402 19.1001 38.9702 19.1001C39.0202 19.1001 39.0702 19.1001 39.1202 19.1001H39.4502C39.5102 19.1001 39.5802 19.1001 39.6402 19.1001C39.6602 19.1001 39.6702 19.1001 39.6902 19.1001C39.7202 19.1001 39.7402 19.1001 39.7702 19.1001C39.8402 19.1001 39.9002 19.1001 39.9702 19.1001C39.9902 19.1001 40.0102 19.1001 40.0302 19.1001C40.0802 19.1001 40.1302 19.1001 40.1702 19.1001C40.3302 19.1001 40.5002 19.1101 40.6602 19.1201C40.6702 19.1201 40.6802 19.1201 40.6902 19.1201C40.7302 19.1201 40.7602 19.1201 40.8002 19.1201C40.8402 19.1201 40.8702 19.1201 40.9102 19.1201C41.1502 19.1301 41.3902 19.1501 41.6102 19.1701C41.6102 19.1701 41.6702 19.1701 41.7002 19.1701C41.7202 19.1701 41.7402 19.1701 41.7502 19.1701C41.8102 19.1701 41.8702 19.1801 41.9302 19.1901C42.0402 19.2001 42.1402 19.2101 42.2402 19.2301C43.3001 19.3601 44.0402 19.5701 44.0502 19.8701L44.0202 19.9101Z" fill="#0D1A2D"/>
</g>
<g id="Group_4">
<path id="Vector_5" d="M37.2402 20.2499C37.2402 20.2499 37.2402 20.1999 37.2402 20.1699C37.2402 20.1999 37.2402 20.2199 37.2402 20.2499ZM37.0302 20.5499C36.9802 19.9999 36.8402 19.4499 36.7702 18.8999C36.7202 18.6099 36.6402 18.3099 36.4502 18.0599C36.4202 18.0199 36.3802 17.9699 36.3402 17.9399C36.0102 17.2699 35.3202 16.8199 34.8102 16.2499C34.2402 15.5999 33.7702 14.8699 33.4902 14.0899C33.4902 14.0899 33.4902 14.0899 33.4902 14.0999C33.1902 13.2099 33.1202 12.2699 32.9602 11.3599C32.9602 11.2899 32.9402 11.1999 33.0102 11.1399C33.0702 11.0999 33.1502 11.1099 33.1902 11.1599C33.4602 11.5099 33.6602 11.8999 33.9702 12.2299C34.5102 12.7399 34.9002 13.3499 35.4102 13.8899C35.8602 14.4299 36.3902 14.9299 36.7002 15.5399C36.7302 15.5999 36.7602 15.6599 36.8002 15.7199C37.2702 16.6599 37.3102 17.7099 37.3902 18.7099C37.3902 18.7099 37.3902 18.7499 37.3902 18.7799C37.3902 18.8099 37.3902 18.8499 37.3902 18.8799V18.8999C37.3902 18.8999 37.3902 18.8999 37.3902 18.9099C37.3902 18.9099 37.3902 18.9299 37.3902 18.9399C37.3902 19.3599 37.3702 19.7899 37.3902 20.2099C37.3902 20.3999 37.4002 20.5899 37.4002 20.7799C37.2802 20.7799 37.1602 20.7799 37.0402 20.7799C37.0402 20.7199 37.0402 20.6499 37.0302 20.5899V20.5499Z" fill="#80C62C"/>
<path id="Vector_6" d="M34.63 4.56002C34.63 4.56002 34.61 4.52002 34.6 4.50002C34.6 4.52002 34.62 4.54002 34.63 4.56002ZM37.82 20.54C37.89 19.29 37.86 18.04 37.82 16.79C37.72 15.2 37.24 14.85 36.16 13.66C35.56 12.77 35.04 11.83 34.71 10.84C34.14 9.12002 33.88 7.32001 34.08 5.54002C34.11 5.33002 34.22 3.93002 34.51 4.06002C34.58 4.09002 34.6 4.16001 34.64 4.21001C34.85 4.59001 34.96 5.01001 35.1 5.41001C35.33 6.14001 35.64 6.84001 35.89 7.57001C36.25 8.66001 36.61 9.75001 36.98 10.83C37.42 12.28 37.78 13.75 38.23 15.2C38.26 15.94 38.35 16.67 38.4 17.41C38.4 17.45 38.4 17.5 38.4 17.54C38.42 17.92 38.4 18.3 38.4 18.69C38.4 18.73 38.4 18.77 38.4 18.81C38.4 18.81 38.4 18.86 38.4 18.89C38.4 18.89 38.4 18.9 38.4 18.91C38.4 18.91 38.4 18.91 38.4 18.92C38.4 18.96 38.4 19 38.4 19.04C38.4 19.59 38.42 20.14 38.36 20.7C38.17 20.7 37.98 20.7 37.79 20.7C37.79 20.65 37.79 20.59 37.79 20.54H37.82Z" fill="#80C62C"/>
<path id="Vector_7" d="M40.7603 8.70004C40.7603 8.70004 40.7603 8.61004 40.7603 8.57004C40.7603 8.62004 40.7603 8.66004 40.7603 8.71004V8.70004ZM39.5203 16.56C39.5203 16.5 39.5203 16.45 39.5303 16.39C39.5303 16.45 39.5303 16.51 39.5203 16.57V16.56ZM39.0403 20.68C39.1103 18.8 39.3003 16.93 39.2303 15.06C39.2303 15.06 39.2303 15.06 39.2303 15.05C39.2103 14.45 39.0603 13.85 38.9203 13.26C38.9203 13 38.8903 12.75 38.8703 12.49C38.8103 11.6 38.5303 10.73 38.3803 9.85004C37.9803 7.85004 37.6503 5.81003 38.0603 3.80003C38.1603 2.95003 38.3803 2.11003 38.6803 1.30003C38.7503 1.18003 38.8603 0.580036 39.0603 0.770036C39.1803 1.10004 39.1603 1.46004 39.2803 1.79004C39.5903 2.73004 40.0303 3.65004 40.3103 4.60004C40.5903 5.54004 40.7303 6.50004 40.8303 7.45004C40.9103 8.22004 41.0003 9.00005 40.9603 9.78005C40.8003 11.52 39.8903 13.16 39.8403 14.92C39.7803 16.07 39.6503 17.21 39.5803 18.36C39.5103 19.13 39.6203 19.91 39.4903 20.68C39.3403 20.68 39.1903 20.68 39.0403 20.68Z" fill="#80C62C"/>
<path id="Vector_8" d="M42.4103 7.01009L42.4303 6.94008C42.4303 6.94008 42.4203 6.9801 42.4103 7.0001V7.01009ZM40.5203 20.7001C40.3903 20.7001 40.2603 20.6901 40.1303 20.6901C39.9603 17.8301 40.4903 14.9701 41.3303 12.2001C41.7603 10.4701 41.8203 8.69009 42.2403 6.95009C42.2403 6.93009 42.2403 6.92009 42.2503 6.90009C42.2503 6.88009 42.2603 6.86009 42.2703 6.84009C42.2903 6.77009 42.3003 6.7001 42.3203 6.6401C42.5303 5.8401 42.9103 5.08009 43.3403 4.35009C43.3703 4.29009 43.4103 4.24009 43.4403 4.18009C43.6903 3.77009 43.9503 3.36009 44.2203 2.95009C44.2403 2.92009 44.2503 2.90009 44.2803 2.88009C44.3603 2.82009 44.4703 2.88009 44.4703 2.96009C44.5403 4.00009 44.6003 5.04008 44.6203 6.08008C44.6503 6.89008 44.4903 7.69009 44.3203 8.48009C44.1203 9.36009 43.8403 10.2401 43.4003 11.0601C43.0903 11.6301 42.6803 12.1501 42.3503 12.7101C41.8103 13.6701 41.3503 14.6701 41.0603 15.7001C40.8303 16.6001 40.7803 17.5301 40.7103 18.4501C40.6703 19.1901 40.5803 19.9301 40.6303 20.6701C40.6003 20.6701 40.5703 20.6701 40.5403 20.6701L40.5203 20.7001Z" fill="#80C62C"/>
<path id="Vector_9" d="M41.2003 20.73C41.1403 20.73 41.0803 20.73 41.0303 20.73C41.0703 19.64 41.1803 18.54 41.3403 17.46C41.5103 16.68 41.7703 15.91 41.8703 15.11C42.1103 14.09 42.6703 13.15 43.0703 12.17C43.4403 11.27 44.1003 10.5 44.7303 9.71997C44.9603 9.43997 45.1403 9.13997 45.3903 8.87997C45.8403 8.46997 46.2603 8.03997 46.6703 7.59997C46.8103 7.47997 46.9203 7.30997 47.0903 7.21997C47.3403 7.18997 47.2203 7.62998 47.2203 7.74998C47.1303 8.37998 46.9003 8.98997 46.6603 9.59997C46.3103 10.51 45.9103 11.41 45.3103 12.23C44.8103 12.95 44.3103 13.68 43.6703 14.33C43.2303 14.84 42.8703 15.39 42.4803 15.92C41.9603 16.65 41.7903 17.48 41.6803 18.31C41.5303 19.12 41.4403 19.94 41.4403 20.76C41.3603 20.76 41.2803 20.76 41.2003 20.75V20.73Z" fill="#80C62C"/>
</g>
<path id="Vector_10" d="M44 19.8401C44 19.8401 44.02 19.89 44.02 19.91C44.02 20.26 42.97 20.5001 41.57 20.6201C41.54 20.6201 41.51 20.6201 41.49 20.6201C41.46 20.6201 41.44 20.6201 41.41 20.6201C41.32 20.6201 41.22 20.6301 41.12 20.6401C41.09 20.6401 41.05 20.6401 41.02 20.6401C40.89 20.6401 40.75 20.65 40.62 20.66C40.57 20.66 40.52 20.66 40.47 20.66C40.41 20.66 40.35 20.66 40.3 20.66C40.25 20.66 40.2 20.66 40.15 20.66C40.09 20.66 40.02 20.66 39.96 20.66C39.92 20.66 39.89 20.66 39.85 20.66C39.83 20.66 39.81 20.66 39.78 20.66C39.71 20.66 39.64 20.66 39.56 20.66C39.54 20.66 39.52 20.66 39.5 20.66H39.37C39.31 20.66 39.25 20.66 39.19 20.66C39.14 20.66 39.08 20.66 39.03 20.66C39.01 20.66 38.99 20.66 38.97 20.66H38.96C38.96 20.66 38.9 20.66 38.87 20.66C38.74 20.66 38.6 20.66 38.47 20.66C38.42 20.66 38.38 20.66 38.33 20.66C38.06 20.66 37.79 20.6401 37.52 20.6301C36.03 20.5501 34.79 20.3401 34.48 20.0301V21.4301H44.1V19.8101H44V19.8401Z" fill="#1E3962"/>
</g>
<g id="Group_5">
<path id="Vector_11" d="M43.5297 23.7C43.5197 24.15 41.5897 24.3899 39.5797 24.4099H39.5197C39.4597 24.4099 39.3997 24.4099 39.3397 24.4099C39.2697 24.4099 39.1997 24.4099 39.1397 24.4099C37.1397 24.3899 35.2097 24.16 35.1997 23.7" stroke="#1A1A1A" stroke-width="0.18" stroke-linecap="round" stroke-linejoin="round"/>
<path id="Vector_12" d="M39.1499 24.41C39.1499 24.6 35.9999 33.78 34.6899 37.61C34.6099 37.83 34.2299 37.77 34.2399 37.55L35.2099 23.71" stroke="#1A1A1A" stroke-width="0.18" stroke-linecap="round" stroke-linejoin="round"/>
<path id="Vector_13" d="M39.6099 24.41C39.6099 24.6 42.7599 33.78 44.0699 37.61C44.1499 37.83 44.5299 37.77 44.5199 37.55L43.5499 23.71" stroke="#1A1A1A" stroke-width="0.18" stroke-linecap="round" stroke-linejoin="round"/>
</g>
</g>
<g id="Group_6">
<path id="Vector_14" d="M9.81006 24.49L11.6201 37.75C11.6501 37.96 12.0401 37.97 12.0701 37.75L14.0001 24.48" stroke="#1A1A1A" stroke-width="0.18" stroke-linecap="round" stroke-linejoin="round"/>
<g id="Group_7">
<g id="Group_8">
<path id="Vector_15" d="M16.62 20V20.01L16.61 20.05L16.39 21.36L16.34 21.62L16.29 21.94L15.22 28.16H8.43L7.34 21.94L7.28 21.62L7.23 21.36L7.01 20.06L7 20H16.62Z" fill="#FF9E40"/>
<path id="Vector_16" d="M16.62 21.6201C16.61 22.1301 14.37 22.4001 12.06 22.4201H12C11.93 22.4201 11.86 22.4201 11.79 22.4201C11.71 22.4201 11.63 22.4201 11.55 22.4201C9.24 22.4001 7.01 22.1401 7 21.6201C7.01 21.1101 9.19 20.8501 11.46 20.8201C11.54 20.8201 11.62 20.8201 11.69 20.8201C11.72 20.8201 11.75 20.8201 11.78 20.8201C11.86 20.8201 11.94 20.8201 12.01 20.8201C12.09 20.8201 12.17 20.8201 12.25 20.8201C12.36 20.8201 12.47 20.8201 12.59 20.8201C14.7 20.8701 16.6 21.1401 16.61 21.6101L16.62 21.6201Z" fill="#D16811"/>
<path id="Vector_17" d="M16.5499 20.07C16.5499 20.42 15.4999 20.66 14.0999 20.78C14.0699 20.78 14.0399 20.78 14.0199 20.78C13.9899 20.78 13.9699 20.78 13.9399 20.78C13.8499 20.78 13.7499 20.79 13.6499 20.8C13.6199 20.8 13.5799 20.8 13.5499 20.8C13.4199 20.8 13.2799 20.81 13.1499 20.82C13.0999 20.82 13.0499 20.82 12.9999 20.82C12.9399 20.82 12.8799 20.82 12.8299 20.82C12.7799 20.82 12.7299 20.82 12.6799 20.82C12.6199 20.82 12.5499 20.82 12.4899 20.82C12.4499 20.82 12.4199 20.82 12.3799 20.82C12.3599 20.82 12.3399 20.82 12.3099 20.82C12.2399 20.82 12.1699 20.82 12.0899 20.82C12.0699 20.82 12.0499 20.82 12.0299 20.82H11.8999C11.8399 20.82 11.7799 20.82 11.7199 20.82C11.6699 20.82 11.6099 20.82 11.5599 20.82C11.5399 20.82 11.5199 20.82 11.4999 20.82H11.4899C11.4899 20.82 11.4299 20.82 11.3999 20.82C11.2699 20.82 11.1299 20.82 10.9999 20.82C10.9499 20.82 10.9099 20.82 10.8599 20.82C10.5899 20.82 10.3199 20.8 10.0499 20.79C8.32994 20.69 6.94994 20.44 6.93994 20.04C6.93994 19.72 7.80994 19.5 9.01994 19.37C9.36994 19.33 9.73994 19.3 10.1399 19.28C10.1999 19.28 10.2599 19.28 10.3199 19.28C10.5599 19.27 10.7999 19.26 11.0499 19.26C11.1299 19.26 11.2099 19.26 11.2899 19.26C11.3299 19.26 11.3699 19.26 11.4099 19.26C11.4399 19.26 11.4699 19.26 11.4999 19.26C11.5499 19.26 11.5999 19.26 11.6499 19.26H11.9799C12.0399 19.26 12.1099 19.26 12.1699 19.26C12.1899 19.26 12.1999 19.26 12.2199 19.26C12.2499 19.26 12.2699 19.26 12.2999 19.26C12.3699 19.26 12.4299 19.26 12.4999 19.26C12.5199 19.26 12.5399 19.26 12.5599 19.26C12.6099 19.26 12.6599 19.26 12.6999 19.26C12.8599 19.26 13.0299 19.27 13.1899 19.28C13.1999 19.28 13.2099 19.28 13.2199 19.28C13.2599 19.28 13.2899 19.28 13.3299 19.28C13.3699 19.28 13.3999 19.28 13.4399 19.28C13.6799 19.29 13.9199 19.31 14.1399 19.33C14.1399 19.33 14.1999 19.33 14.2299 19.33C14.2499 19.33 14.2699 19.33 14.2799 19.33C14.3399 19.33 14.3999 19.34 14.4599 19.35C14.5699 19.36 14.6699 19.37 14.7699 19.39C15.8299 19.52 16.5699 19.73 16.5799 20.03L16.5499 20.07Z" fill="#723C0F"/>
</g>
<g id="Group_9">
<path id="Vector_18" d="M9.76995 20.4198C9.76995 20.4198 9.76995 20.3698 9.76995 20.3398C9.76995 20.3698 9.76995 20.3898 9.76995 20.4198ZM9.55995 20.7198C9.50995 20.1698 9.36995 19.6198 9.29995 19.0698C9.24995 18.7798 9.16995 18.4798 8.97995 18.2298C8.94995 18.1898 8.90995 18.1398 8.86995 18.1098C8.53995 17.4398 7.84995 16.9898 7.33995 16.4198C6.76995 15.7698 6.29995 15.0398 6.01995 14.2598C6.01995 14.2598 6.01995 14.2598 6.01995 14.2698C5.71995 13.3798 5.64995 12.4398 5.48995 11.5298C5.48995 11.4598 5.46995 11.3698 5.53995 11.3098C5.59995 11.2698 5.67995 11.2798 5.71995 11.3298C5.98995 11.6798 6.18995 12.0698 6.49995 12.3998C7.03995 12.9098 7.42995 13.5198 7.93995 14.0598C8.38995 14.5998 8.91995 15.0998 9.22995 15.7098C9.25995 15.7698 9.28995 15.8298 9.32995 15.8898C9.79995 16.8298 9.83995 17.8798 9.91995 18.8798C9.91995 18.8798 9.91995 18.9198 9.91995 18.9498C9.91995 18.9798 9.91995 19.0198 9.91995 19.0498V19.0698C9.91995 19.0698 9.91995 19.0698 9.91995 19.0798C9.91995 19.0798 9.91995 19.0998 9.91995 19.1098C9.91995 19.5298 9.89995 19.9598 9.91995 20.3798C9.91995 20.5698 9.92995 20.7598 9.92995 20.9498C9.80995 20.9498 9.68995 20.9498 9.56995 20.9498C9.56995 20.8898 9.56995 20.8198 9.55995 20.7598V20.7198Z" fill="#80C62C"/>
<path id="Vector_19" d="M7.15982 4.71993C7.15982 4.71993 7.13981 4.67993 7.12981 4.65993C7.12981 4.67993 7.14982 4.69993 7.15982 4.71993ZM10.3498 20.6999C10.4198 19.4499 10.3898 18.1999 10.3498 16.9499C10.2498 15.3599 9.76982 15.0099 8.68982 13.8199C8.08982 12.9299 7.56981 11.9899 7.23981 10.9999C6.66981 9.27995 6.40982 7.47994 6.60982 5.69994C6.63982 5.48994 6.74982 4.08993 7.03982 4.21993C7.10982 4.24993 7.12981 4.31994 7.16981 4.36994C7.37981 4.74994 7.48981 5.16994 7.62981 5.56994C7.85981 6.29994 8.16981 6.99994 8.41981 7.72994C8.77981 8.81994 9.13982 9.90994 9.50982 10.9899C9.94982 12.4399 10.3098 13.9099 10.7598 15.3599C10.7898 16.0999 10.8798 16.8299 10.9298 17.5699C10.9298 17.6099 10.9298 17.6599 10.9298 17.6999C10.9498 18.0799 10.9298 18.4599 10.9298 18.8499C10.9298 18.8899 10.9298 18.9299 10.9298 18.9699C10.9298 18.9699 10.9298 19.0199 10.9298 19.0499C10.9298 19.0499 10.9298 19.0599 10.9298 19.0699C10.9298 19.0699 10.9298 19.0699 10.9298 19.0799C10.9298 19.1199 10.9298 19.1599 10.9298 19.1999C10.9298 19.7499 10.9498 20.2999 10.8898 20.8599C10.6998 20.8599 10.5098 20.8599 10.3198 20.8599C10.3198 20.8099 10.3198 20.7499 10.3198 20.6999H10.3498Z" fill="#80C62C"/>
<path id="Vector_20" d="M13.2901 8.86997C13.2901 8.86997 13.2901 8.77996 13.2901 8.73996C13.2901 8.78996 13.2901 8.82996 13.2901 8.87996V8.86997ZM12.0501 16.73C12.0501 16.67 12.0501 16.62 12.0601 16.56C12.0601 16.62 12.0601 16.68 12.0501 16.74V16.73ZM11.5701 20.85C11.6401 18.97 11.8301 17.1 11.7601 15.23C11.7601 15.23 11.7601 15.23 11.7601 15.22C11.7401 14.62 11.5901 14.02 11.4501 13.43C11.4501 13.17 11.4201 12.92 11.4001 12.66C11.3401 11.77 11.0601 10.9 10.9101 10.02C10.5101 8.01996 10.1801 5.97996 10.5901 3.96996C10.6901 3.11996 10.9101 2.27996 11.2101 1.46996C11.2801 1.34996 11.3901 0.749958 11.5901 0.939958C11.7101 1.26996 11.6901 1.62996 11.8101 1.95996C12.1201 2.89996 12.5601 3.81996 12.8401 4.76996C13.1201 5.70996 13.2601 6.66997 13.3601 7.61997C13.4401 8.38997 13.5301 9.16997 13.4901 9.94997C13.3301 11.69 12.4201 13.33 12.3701 15.09C12.3101 16.24 12.1801 17.38 12.1101 18.53C12.0401 19.3 12.1501 20.08 12.0201 20.85C11.8701 20.85 11.7201 20.85 11.5701 20.85Z" fill="#80C62C"/>
<path id="Vector_21" d="M14.9401 7.17L14.9601 7.1C14.9601 7.1 14.9501 7.13999 14.9401 7.15999V7.17ZM13.0501 20.86C12.9201 20.86 12.7901 20.85 12.6601 20.85C12.4901 17.99 13.0201 15.13 13.8601 12.36C14.2901 10.63 14.3501 8.85001 14.7701 7.11001C14.7701 7.09001 14.7701 7.08 14.7801 7.06C14.7801 7.04 14.7901 7.02001 14.8001 7.00001C14.8201 6.93001 14.8301 6.85999 14.8501 6.79999C15.0601 5.99999 15.4401 5.24 15.8701 4.51C15.9001 4.45 15.9401 4.4 15.9701 4.34C16.2201 3.93 16.4801 3.52001 16.7501 3.11001C16.7701 3.08001 16.7801 3.06 16.8101 3.04C16.8901 2.98 17.0001 3.04 17.0001 3.12C17.0701 4.16 17.1301 5.2 17.1501 6.24C17.1801 7.05 17.0201 7.85001 16.8501 8.64001C16.6501 9.52001 16.3701 10.4 15.9301 11.22C15.6201 11.79 15.2101 12.31 14.8801 12.87C14.3401 13.83 13.8801 14.83 13.5901 15.86C13.3601 16.76 13.3101 17.69 13.2401 18.61C13.2001 19.35 13.1101 20.09 13.1601 20.83C13.1301 20.83 13.1001 20.83 13.0701 20.83L13.0501 20.86Z" fill="#80C62C"/>
<path id="Vector_22" d="M13.7301 20.8999C13.6701 20.8999 13.6101 20.8999 13.5601 20.8999C13.6001 19.8099 13.7101 18.7099 13.8701 17.6299C14.0401 16.8499 14.3001 16.0799 14.4001 15.2799C14.6401 14.2599 15.2001 13.3199 15.6001 12.3399C15.9701 11.4399 16.6301 10.6699 17.2601 9.88989C17.4901 9.60989 17.6701 9.30988 17.9201 9.04988C18.3701 8.63988 18.7901 8.20988 19.2001 7.76988C19.3401 7.64988 19.4501 7.47989 19.6201 7.38989C19.8701 7.35989 19.7501 7.79989 19.7501 7.91989C19.6601 8.54989 19.4301 9.15988 19.1901 9.76988C18.8401 10.6799 18.4401 11.5799 17.8401 12.3999C17.3401 13.1199 16.8401 13.8499 16.2001 14.4999C15.7601 15.0099 15.4001 15.5599 15.0101 16.0899C14.4901 16.8199 14.3201 17.6499 14.2101 18.4799C14.0601 19.2899 13.9701 20.1099 13.9701 20.9299C13.8901 20.9299 13.8101 20.9299 13.7301 20.9199V20.8999Z" fill="#80C62C"/>
</g>
<path id="Vector_23" d="M16.5298 20C16.5298 20 16.5498 20.05 16.5498 20.07C16.5498 20.42 15.4998 20.66 14.0998 20.78C14.0698 20.78 14.0398 20.78 14.0198 20.78C13.9898 20.78 13.9698 20.78 13.9398 20.78C13.8498 20.78 13.7498 20.79 13.6498 20.8C13.6198 20.8 13.5798 20.8 13.5498 20.8C13.4198 20.8 13.2798 20.81 13.1498 20.82C13.0998 20.82 13.0498 20.82 12.9998 20.82C12.9398 20.82 12.8798 20.82 12.8298 20.82C12.7798 20.82 12.7298 20.82 12.6798 20.82C12.6198 20.82 12.5498 20.82 12.4898 20.82C12.4498 20.82 12.4198 20.82 12.3798 20.82C12.3598 20.82 12.3398 20.82 12.3098 20.82C12.2398 20.82 12.1698 20.82 12.0898 20.82C12.0698 20.82 12.0498 20.82 12.0298 20.82H11.8998C11.8398 20.82 11.7798 20.82 11.7198 20.82C11.6698 20.82 11.6098 20.82 11.5598 20.82C11.5398 20.82 11.5198 20.82 11.4998 20.82H11.4898C11.4898 20.82 11.4298 20.82 11.3998 20.82C11.2698 20.82 11.1298 20.82 10.9998 20.82C10.9498 20.82 10.9098 20.82 10.8598 20.82C10.5898 20.82 10.3198 20.8 10.0498 20.79C8.55977 20.71 7.31977 20.5 7.00977 20.19V21.59H16.6298V19.97H16.5298V20Z" fill="#D16811"/>
</g>
<g id="Group_10">
<path id="Vector_24" d="M16.0697 23.8699C16.0597 24.3199 14.1298 24.5599 12.1198 24.5799H12.0597C11.9997 24.5799 11.9397 24.5799 11.8797 24.5799C11.8097 24.5799 11.7397 24.5799 11.6797 24.5799C9.67975 24.5599 7.74975 24.3299 7.73975 23.8699" stroke="#1A1A1A" stroke-width="0.18" stroke-linecap="round" stroke-linejoin="round"/>
<path id="Vector_25" d="M11.6797 24.5799C11.6797 24.7699 8.52972 33.9499 7.21972 37.7799C7.13972 37.9999 6.75973 37.9399 6.76973 37.7199L7.73972 23.8799" stroke="#1A1A1A" stroke-width="0.18" stroke-linecap="round" stroke-linejoin="round"/>
<path id="Vector_26" d="M12.1396 24.5799C12.1396 24.7699 15.2896 33.9499 16.5996 37.7799C16.6796 37.9999 17.0597 37.9399 17.0497 37.7199L16.0797 23.8799" stroke="#1A1A1A" stroke-width="0.18" stroke-linecap="round" stroke-linejoin="round"/>
</g>
</g>
<g id="Group_11">
<path id="Vector_27" d="M50.7799 40.5798H0.919922V42.5298H50.7799V40.5798Z" fill="#4A4646"/>
<path id="Vector_28" d="M51.71 17.1899H0V21.09H51.71V17.1899Z" fill="#4A4646"/>
<path id="Vector_29" d="M0.950195 20.1101L0.950195 41.55H1.87019L1.87019 20.1101H0.950195Z" fill="#4A4646"/>
<path id="Vector_30" d="M8.33008 20.1201L8.33008 41.5601H9.25008L9.25008 20.1201H8.33008Z" fill="#4A4646"/>
<path id="Vector_31" d="M16.6401 20.11V41.55H17.5601V20.11H16.6401Z" fill="#4A4646"/>
<path id="Vector_32" d="M24.9502 20.1101V41.55H25.8702V20.1101H24.9502Z" fill="#4A4646"/>
<path id="Vector_33" d="M33.2598 21.08V42.52H34.1798V21.08H33.2598Z" fill="#4A4646"/>
<path id="Vector_34" d="M41.5801 20.11V41.55H42.5001V20.11H41.5801Z" fill="#4A4646"/>
<path id="Vector_35" d="M49.8901 20.11V41.55H50.8101V20.11H49.8901Z" fill="#4A4646"/>
</g>
</g>
</svg>
