<svg width="52" height="57" viewBox="0 0 52 57" fill="none" xmlns="http://www.w3.org/2000/svg">
<path d="M47.6901 0H4.08008V54.62H47.6901V0Z" fill="#E13030"/>
<path d="M46.4298 1.57007H5.31982V53.0601H46.4298V1.57007Z" fill="#4A4646"/>
<path d="M45.3401 2.91992H6.56006V52.6199H45.3401V2.91992Z" fill="#EBEBEB"/>
<mask id="mask0_56_20867" style="mask-type:luminance" maskUnits="userSpaceOnUse" x="6" y="2" width="40" height="51">
<path d="M45.3401 2.91992H6.56006V52.6199H45.3401V2.91992Z" fill="white"/>
</mask>
<path d="M26 2V54" stroke="#4A4646" stroke-width="0.75" stroke-miterlimit="10"/>
<path d="M48.0402 51.4099H3.72021V56.5299H48.0402V51.4099Z" fill="#4A4646"/>
<path d="M50.7799 54.5798H0.919922V56.5298H50.7799V54.5798Z" fill="#4A4646"/>
<path d="M51.71 31.1899H0V35.09H51.71V31.1899Z" fill="#4A4646"/>
<path d="M0.950195 34.1101L0.950195 55.55H1.87019L1.87019 34.1101H0.950195Z" fill="#4A4646"/>
<path d="M8.33008 34.1201L8.33008 55.5601H9.25008L9.25008 34.1201H8.33008Z" fill="#4A4646"/>
<path d="M16.6401 34.11V55.55H17.5601V34.11H16.6401Z" fill="#4A4646"/>
<path d="M24.9502 34.1101V55.55H25.8702V34.1101H24.9502Z" fill="#4A4646"/>
<path d="M33.2598 35.08V56.52H34.1798V35.08H33.2598Z" fill="#4A4646"/>
<path d="M41.5801 34.11V55.55H42.5001V34.11H41.5801Z" fill="#4A4646"/>
<path d="M49.8901 34.11V55.55H50.8101V34.11H49.8901Z" fill="#4A4646"/>
<path fill-rule="evenodd" clip-rule="evenodd" d="M15.7201 5.07994L19.0901 5.97995L16.2901 9.36995L13.4901 12.75L12.9201 8.46994L12.3501 4.18994L15.7201 5.07994Z" fill="#FFEB37"/>
<path fill-rule="evenodd" clip-rule="evenodd" d="M22.5601 6.35002L26.0401 6.69002L23.8901 10.48L21.7401 14.28L20.4101 10.15L19.0801 6.02002L22.5601 6.35002Z" fill="#5694FF"/>
<path fill-rule="evenodd" clip-rule="evenodd" d="M29.2998 6.37003L32.7698 6.03003L31.4798 10.16L30.1798 14.29L27.9998 10.5L25.8198 6.71002L29.2998 6.37003Z" fill="#FFEB37"/>
<path fill-rule="evenodd" clip-rule="evenodd" d="M36.0301 5.30983L39.4401 4.56982L38.6701 8.81982L37.9101 13.0698L35.2701 9.55983L32.6201 6.03983L36.0301 5.30983Z" fill="#5694FF"/>
<path fill-rule="evenodd" clip-rule="evenodd" d="M42.4102 3.35982L45.6302 2.05981L45.6602 6.37981L45.7002 10.6898L42.4502 7.66982L39.2002 4.65981L42.4102 3.35982Z" fill="#FFEB37"/>
<path fill-rule="evenodd" clip-rule="evenodd" d="M9.35998 3.00992L12.99 4.35992L9.64998 7.38992L6.30997 10.4099L6.01998 6.03992L5.72998 1.65991L9.35998 3.00992Z" fill="#5694FF"/>
</svg>
