<svg width="52" height="57" viewBox="0 0 52 57" fill="none" xmlns="http://www.w3.org/2000/svg">
<path d="M47.6901 0H4.08008V54.62H47.6901V0Z" fill="#E13030"/>
<path d="M46.4298 1.56995H5.31982V53.06H46.4298V1.56995Z" fill="#4A4646"/>
<path d="M45.3401 2.92004H6.56006V52.62H45.3401V2.92004Z" fill="#EBEBEB"/>
<mask id="mask0_56_16550" style="mask-type:luminance" maskUnits="userSpaceOnUse" x="6" y="2" width="40" height="51">
<path d="M45.3401 2.92004H6.56006V52.62H45.3401V2.92004Z" fill="white"/>
</mask>
<path d="M26 2V54" stroke="#4A4646" stroke-width="0.75" stroke-miterlimit="10"/>
<path d="M8.20022 46.2599C8.32022 46.3499 8.44022 46.4399 8.58022 46.4699C8.72022 46.4999 8.89021 46.4499 8.96021 46.3199C9.00021 46.2399 9.00021 46.1499 8.99021 46.0599C8.93021 45.2499 8.49021 44.5099 7.92021 43.9299C7.35021 43.3499 6.16022 43.1199 6.61022 44.2999C6.89022 45.0399 7.59022 45.7799 8.19022 46.2699L8.20022 46.2599Z" fill="#89B731"/>
<path d="M9.99026 46.15C10.0403 46.27 10.1003 46.39 10.2003 46.47C10.3003 46.55 10.4503 46.58 10.5603 46.5C10.6203 46.46 10.6603 46.38 10.6903 46.31C10.9703 45.66 10.9303 44.9 10.7203 44.22C10.5103 43.54 9.68027 42.88 9.55027 43.98C9.47027 44.66 9.71026 45.53 9.99026 46.14V46.15Z" fill="#89B731"/>
<path d="M11.6802 45.94C11.6802 46.07 11.6802 46.2 11.7302 46.32C11.7802 46.44 11.9102 46.53 12.0402 46.51C12.1202 46.5 12.1802 46.45 12.2402 46.4C12.7802 45.94 13.0902 45.25 13.2102 44.55C13.3302 43.85 12.8902 42.89 12.2802 43.81C11.9002 44.39 11.7302 45.26 11.7002 45.94H11.6802Z" fill="#89B731"/>
<path d="M10.6802 44.57C10.6802 44.7 10.6802 44.83 10.7302 44.95C10.7802 45.07 10.9102 45.16 11.0402 45.14C11.1202 45.13 11.1802 45.08 11.2402 45.03C11.7802 44.57 12.0902 43.88 12.2102 43.18C12.3302 42.48 11.8902 41.52 11.2802 42.44C10.9002 43.02 10.7302 43.89 10.7002 44.57H10.6802Z" fill="#89B731"/>
<path d="M9.20027 45.1799C9.28027 45.2799 9.37026 45.3799 9.49026 45.4299C9.61026 45.4799 9.76027 45.4699 9.84027 45.3699C9.89027 45.3099 9.90027 45.2299 9.91027 45.1599C10.0003 44.4599 9.76027 43.7399 9.37027 43.1399C8.99027 42.5399 8.01027 42.1299 8.18027 43.2199C8.29027 43.8999 8.75027 44.6699 9.19027 45.1899L9.20027 45.1799Z" fill="#89B731"/>
<path d="M11.31 46.5699C11.21 46.6799 11.12 46.8 11.09 46.95C11.06 47.09 11.1 47.27 11.23 47.34C11.31 47.38 11.4 47.3799 11.49 47.3799C12.3 47.3399 13.06 46.93 13.66 46.39C14.26 45.84 14.54 44.6599 13.34 45.0699C12.59 45.3199 11.82 45.9999 11.32 46.5799L11.31 46.5699Z" fill="#89B731"/>
<path d="M10.4302 46.91C10.4302 47.06 10.4302 47.21 10.5002 47.34C10.5702 47.47 10.7102 47.57 10.8602 47.55C10.9502 47.53 11.0202 47.48 11.0802 47.42C11.6802 46.87 12.0002 46.07 12.1102 45.27C12.2202 44.47 11.6702 43.38 11.0102 44.46C10.6002 45.13 10.4402 46.14 10.4302 46.92V46.91Z" fill="#89B731"/>
<path d="M9.86999 47.2899C9.97999 47.3899 10.09 47.4899 10.24 47.5299C10.38 47.5699 10.56 47.5299 10.63 47.4099C10.68 47.3399 10.68 47.2399 10.68 47.1599C10.68 46.3499 10.31 45.5699 9.78999 44.9499C9.26999 44.3299 8.09999 43.9999 8.44999 45.2099C8.66999 45.9699 9.29999 46.7699 9.86999 47.2999V47.2899Z" fill="#89B731"/>
<path d="M9.05996 47.49C9.19996 47.53 9.34996 47.57 9.48996 47.54C9.62996 47.51 9.76997 47.4 9.78997 47.25C9.78997 47.16 9.75997 47.08 9.71997 47C9.35997 46.27 8.67997 45.74 7.92997 45.42C7.18997 45.09 5.98996 45.32 6.84996 46.25C7.37996 46.83 8.30997 47.26 9.04997 47.49H9.05996Z" fill="#89B731"/>
<path d="M6.84033 46.78L13.4203 46.86L11.7803 52.69H8.72033L6.84033 46.78Z" fill="#FFEB37"/>
<path d="M15.2002 46.2599C15.3202 46.3499 15.4402 46.4399 15.5802 46.4699C15.7202 46.4999 15.8902 46.4499 15.9602 46.3199C16.0002 46.2399 16.0002 46.1499 15.9902 46.0599C15.9302 45.2499 15.4902 44.5099 14.9202 43.9299C14.3502 43.3499 13.1602 43.1199 13.6102 44.2999C13.8902 45.0399 14.5902 45.7799 15.1902 46.2699L15.2002 46.2599Z" fill="#89B731"/>
<path d="M16.9903 46.15C17.0403 46.27 17.1003 46.39 17.2003 46.47C17.3003 46.55 17.4503 46.58 17.5603 46.5C17.6203 46.46 17.6603 46.38 17.6903 46.31C17.9703 45.66 17.9303 44.9 17.7203 44.22C17.5103 43.54 16.6803 42.88 16.5503 43.98C16.4703 44.66 16.7103 45.53 16.9903 46.14V46.15Z" fill="#89B731"/>
<path d="M18.6802 45.94C18.6802 46.07 18.6802 46.2 18.7302 46.32C18.7802 46.44 18.9102 46.53 19.0402 46.51C19.1202 46.5 19.1802 46.45 19.2402 46.4C19.7802 45.94 20.0902 45.25 20.2102 44.55C20.3302 43.85 19.8902 42.89 19.2802 43.81C18.9002 44.39 18.7302 45.26 18.7002 45.94H18.6802Z" fill="#89B731"/>
<path d="M17.6802 44.57C17.6802 44.7 17.6802 44.83 17.7302 44.95C17.7802 45.07 17.9102 45.16 18.0402 45.14C18.1202 45.13 18.1802 45.08 18.2402 45.03C18.7802 44.57 19.0902 43.88 19.2102 43.18C19.3302 42.48 18.8902 41.52 18.2802 42.44C17.9002 43.02 17.7302 43.89 17.7002 44.57H17.6802Z" fill="#89B731"/>
<path d="M16.2003 45.1799C16.2803 45.2799 16.3703 45.3799 16.4903 45.4299C16.6103 45.4799 16.7603 45.4699 16.8403 45.3699C16.8903 45.3099 16.9003 45.2299 16.9103 45.1599C17.0003 44.4599 16.7603 43.7399 16.3703 43.1399C15.9903 42.5399 15.0103 42.1299 15.1803 43.2199C15.2903 43.8999 15.7503 44.6699 16.1903 45.1899L16.2003 45.1799Z" fill="#89B731"/>
<path d="M18.31 46.5699C18.21 46.6799 18.12 46.8 18.09 46.95C18.06 47.09 18.1 47.27 18.23 47.34C18.31 47.38 18.4 47.3799 18.49 47.3799C19.3 47.3399 20.06 46.93 20.66 46.39C21.26 45.84 21.54 44.6599 20.34 45.0699C19.59 45.3199 18.82 45.9999 18.32 46.5799L18.31 46.5699Z" fill="#89B731"/>
<path d="M17.4302 46.91C17.4302 47.06 17.4302 47.21 17.5002 47.34C17.5702 47.47 17.7102 47.57 17.8602 47.55C17.9502 47.53 18.0202 47.48 18.0802 47.42C18.6802 46.87 19.0002 46.07 19.1102 45.27C19.2202 44.47 18.6702 43.38 18.0102 44.46C17.6002 45.13 17.4402 46.14 17.4302 46.92V46.91Z" fill="#89B731"/>
<path d="M16.87 47.2899C16.98 47.3899 17.09 47.4899 17.24 47.5299C17.38 47.5699 17.56 47.5299 17.63 47.4099C17.68 47.3399 17.68 47.2399 17.68 47.1599C17.68 46.3499 17.31 45.5699 16.79 44.9499C16.27 44.3299 15.1 43.9999 15.45 45.2099C15.67 45.9699 16.3 46.7699 16.87 47.2999V47.2899Z" fill="#89B731"/>
<path d="M16.06 47.49C16.2 47.53 16.35 47.57 16.49 47.54C16.63 47.51 16.77 47.4 16.79 47.25C16.79 47.16 16.76 47.08 16.72 47C16.36 46.27 15.68 45.74 14.93 45.42C14.19 45.09 12.99 45.32 13.85 46.25C14.38 46.83 15.31 47.26 16.05 47.49H16.06Z" fill="#89B731"/>
<path d="M13.8403 46.78L20.4203 46.86L18.7803 52.69H15.7203L13.8403 46.78Z" fill="#FF9E40"/>
<path d="M23.2002 46.2599C23.3202 46.3499 23.4402 46.4399 23.5802 46.4699C23.7202 46.4999 23.8902 46.4499 23.9602 46.3199C24.0002 46.2399 24.0002 46.1499 23.9902 46.0599C23.9302 45.2499 23.4902 44.5099 22.9202 43.9299C22.3502 43.3499 21.1602 43.1199 21.6102 44.2999C21.8902 45.0399 22.5902 45.7799 23.1902 46.2699L23.2002 46.2599Z" fill="#89B731"/>
<path d="M24.9903 46.15C25.0403 46.27 25.1003 46.39 25.2003 46.47C25.3003 46.55 25.4503 46.58 25.5603 46.5C25.6203 46.46 25.6603 46.38 25.6903 46.31C25.9703 45.66 25.9303 44.9 25.7203 44.22C25.5103 43.54 24.6803 42.88 24.5503 43.98C24.4703 44.66 24.7103 45.53 24.9903 46.14V46.15Z" fill="#89B731"/>
<path d="M26.6802 45.94C26.6802 46.07 26.6802 46.2 26.7302 46.32C26.7802 46.44 26.9102 46.53 27.0402 46.51C27.1202 46.5 27.1802 46.45 27.2402 46.4C27.7802 45.94 28.0902 45.25 28.2102 44.55C28.3302 43.85 27.8902 42.89 27.2802 43.81C26.9002 44.39 26.7302 45.26 26.7002 45.94H26.6802Z" fill="#89B731"/>
<path d="M25.6802 44.57C25.6802 44.7 25.6802 44.83 25.7302 44.95C25.7802 45.07 25.9102 45.16 26.0402 45.14C26.1202 45.13 26.1802 45.08 26.2402 45.03C26.7802 44.57 27.0902 43.88 27.2102 43.18C27.3302 42.48 26.8902 41.52 26.2802 42.44C25.9002 43.02 25.7302 43.89 25.7002 44.57H25.6802Z" fill="#89B731"/>
<path d="M24.2003 45.1799C24.2803 45.2799 24.3703 45.3799 24.4903 45.4299C24.6103 45.4799 24.7603 45.4699 24.8403 45.3699C24.8903 45.3099 24.9003 45.2299 24.9103 45.1599C25.0003 44.4599 24.7603 43.7399 24.3703 43.1399C23.9903 42.5399 23.0103 42.1299 23.1803 43.2199C23.2903 43.8999 23.7503 44.6699 24.1903 45.1899L24.2003 45.1799Z" fill="#89B731"/>
<path d="M26.31 46.5699C26.21 46.6799 26.12 46.8 26.09 46.95C26.06 47.09 26.1 47.27 26.23 47.34C26.31 47.38 26.4 47.3799 26.49 47.3799C27.3 47.3399 28.06 46.93 28.66 46.39C29.26 45.84 29.54 44.6599 28.34 45.0699C27.59 45.3199 26.82 45.9999 26.32 46.5799L26.31 46.5699Z" fill="#89B731"/>
<path d="M25.4302 46.91C25.4302 47.06 25.4302 47.21 25.5002 47.34C25.5702 47.47 25.7102 47.57 25.8602 47.55C25.9502 47.53 26.0202 47.48 26.0802 47.42C26.6802 46.87 27.0002 46.07 27.1102 45.27C27.2202 44.47 26.6702 43.38 26.0102 44.46C25.6002 45.13 25.4402 46.14 25.4302 46.92V46.91Z" fill="#89B731"/>
<path d="M24.87 47.2899C24.98 47.3899 25.09 47.4899 25.24 47.5299C25.38 47.5699 25.56 47.5299 25.63 47.4099C25.68 47.3399 25.68 47.2399 25.68 47.1599C25.68 46.3499 25.31 45.5699 24.79 44.9499C24.27 44.3299 23.1 43.9999 23.45 45.2099C23.67 45.9699 24.3 46.7699 24.87 47.2999V47.2899Z" fill="#89B731"/>
<path d="M24.06 47.49C24.2 47.53 24.35 47.57 24.49 47.54C24.63 47.51 24.77 47.4 24.79 47.25C24.79 47.16 24.76 47.08 24.72 47C24.36 46.27 23.68 45.74 22.93 45.42C22.19 45.09 20.99 45.32 21.85 46.25C22.38 46.83 23.31 47.26 24.05 47.49H24.06Z" fill="#89B731"/>
<path d="M21.8403 46.78L28.4203 46.86L26.7803 52.69H23.7203L21.8403 46.78Z" fill="#FFEB37"/>
<path d="M39.2002 46.2599C39.3202 46.3499 39.4402 46.4399 39.5802 46.4699C39.7202 46.4999 39.8902 46.4499 39.9602 46.3199C40.0002 46.2399 40.0002 46.1499 39.9902 46.0599C39.9302 45.2499 39.4902 44.5099 38.9202 43.9299C38.3502 43.3499 37.1602 43.1199 37.6102 44.2999C37.8902 45.0399 38.5902 45.7799 39.1902 46.2699L39.2002 46.2599Z" fill="#89B731"/>
<path d="M40.9903 46.15C41.0403 46.27 41.1003 46.39 41.2003 46.47C41.3003 46.55 41.4503 46.58 41.5603 46.5C41.6203 46.46 41.6603 46.38 41.6903 46.31C41.9703 45.66 41.9303 44.9 41.7203 44.22C41.5103 43.54 40.6803 42.88 40.5503 43.98C40.4703 44.66 40.7103 45.53 40.9903 46.14V46.15Z" fill="#89B731"/>
<path d="M42.6802 45.94C42.6802 46.07 42.6802 46.2 42.7302 46.32C42.7802 46.44 42.9102 46.53 43.0402 46.51C43.1202 46.5 43.1802 46.45 43.2402 46.4C43.7802 45.94 44.0902 45.25 44.2102 44.55C44.3302 43.85 43.8902 42.89 43.2802 43.81C42.9002 44.39 42.7302 45.26 42.7002 45.94H42.6802Z" fill="#89B731"/>
<path d="M41.6802 44.57C41.6802 44.7 41.6802 44.83 41.7302 44.95C41.7802 45.07 41.9102 45.16 42.0402 45.14C42.1202 45.13 42.1802 45.08 42.2402 45.03C42.7802 44.57 43.0902 43.88 43.2102 43.18C43.3302 42.48 42.8902 41.52 42.2802 42.44C41.9002 43.02 41.7302 43.89 41.7002 44.57H41.6802Z" fill="#89B731"/>
<path d="M40.2003 45.1799C40.2803 45.2799 40.3703 45.3799 40.4903 45.4299C40.6103 45.4799 40.7603 45.4699 40.8403 45.3699C40.8903 45.3099 40.9003 45.2299 40.9103 45.1599C41.0003 44.4599 40.7603 43.7399 40.3703 43.1399C39.9903 42.5399 39.0103 42.1299 39.1803 43.2199C39.2903 43.8999 39.7503 44.6699 40.1903 45.1899L40.2003 45.1799Z" fill="#89B731"/>
<path d="M42.31 46.5699C42.21 46.6799 42.12 46.8 42.09 46.95C42.06 47.09 42.1 47.27 42.23 47.34C42.31 47.38 42.4 47.3799 42.49 47.3799C43.3 47.3399 44.06 46.93 44.66 46.39C45.26 45.84 45.54 44.6599 44.34 45.0699C43.59 45.3199 42.82 45.9999 42.32 46.5799L42.31 46.5699Z" fill="#89B731"/>
<path d="M41.4302 46.91C41.4302 47.06 41.4302 47.21 41.5002 47.34C41.5702 47.47 41.7102 47.57 41.8602 47.55C41.9502 47.53 42.0202 47.48 42.0802 47.42C42.6802 46.87 43.0002 46.07 43.1102 45.27C43.2202 44.47 42.6702 43.38 42.0102 44.46C41.6002 45.13 41.4402 46.14 41.4302 46.92V46.91Z" fill="#89B731"/>
<path d="M40.87 47.2899C40.98 47.3899 41.09 47.4899 41.24 47.5299C41.38 47.5699 41.56 47.5299 41.63 47.4099C41.68 47.3399 41.68 47.2399 41.68 47.1599C41.68 46.3499 41.31 45.5699 40.79 44.9499C40.27 44.3299 39.1 43.9999 39.45 45.2099C39.67 45.9699 40.3 46.7699 40.87 47.2999V47.2899Z" fill="#89B731"/>
<path d="M40.06 47.49C40.2 47.53 40.35 47.57 40.49 47.54C40.63 47.51 40.77 47.4 40.79 47.25C40.79 47.16 40.76 47.08 40.72 47C40.36 46.27 39.68 45.74 38.93 45.42C38.19 45.09 36.99 45.32 37.85 46.25C38.38 46.83 39.31 47.26 40.05 47.49H40.06Z" fill="#89B731"/>
<path d="M37.8403 46.78L44.4203 46.86L42.7803 52.69H39.7203L37.8403 46.78Z" fill="#FFEB37"/>
<path d="M31.2002 46.2599C31.3202 46.3499 31.4402 46.4399 31.5802 46.4699C31.7202 46.4999 31.8902 46.4499 31.9602 46.3199C32.0002 46.2399 32.0002 46.1499 31.9902 46.0599C31.9302 45.2499 31.4902 44.5099 30.9202 43.9299C30.3502 43.3499 29.1602 43.1199 29.6102 44.2999C29.8902 45.0399 30.5902 45.7799 31.1902 46.2699L31.2002 46.2599Z" fill="#89B731"/>
<path d="M32.9903 46.15C33.0403 46.27 33.1003 46.39 33.2003 46.47C33.3003 46.55 33.4503 46.58 33.5603 46.5C33.6203 46.46 33.6603 46.38 33.6903 46.31C33.9703 45.66 33.9303 44.9 33.7203 44.22C33.5103 43.54 32.6803 42.88 32.5503 43.98C32.4703 44.66 32.7103 45.53 32.9903 46.14V46.15Z" fill="#89B731"/>
<path d="M34.6802 45.94C34.6802 46.07 34.6802 46.2 34.7302 46.32C34.7802 46.44 34.9102 46.53 35.0402 46.51C35.1202 46.5 35.1802 46.45 35.2402 46.4C35.7802 45.94 36.0902 45.25 36.2102 44.55C36.3302 43.85 35.8902 42.89 35.2802 43.81C34.9002 44.39 34.7302 45.26 34.7002 45.94H34.6802Z" fill="#89B731"/>
<path d="M33.6802 44.57C33.6802 44.7 33.6802 44.83 33.7302 44.95C33.7802 45.07 33.9102 45.16 34.0402 45.14C34.1202 45.13 34.1802 45.08 34.2402 45.03C34.7802 44.57 35.0902 43.88 35.2102 43.18C35.3302 42.48 34.8902 41.52 34.2802 42.44C33.9002 43.02 33.7302 43.89 33.7002 44.57H33.6802Z" fill="#89B731"/>
<path d="M32.2003 45.1799C32.2803 45.2799 32.3703 45.3799 32.4903 45.4299C32.6103 45.4799 32.7603 45.4699 32.8403 45.3699C32.8903 45.3099 32.9003 45.2299 32.9103 45.1599C33.0003 44.4599 32.7603 43.7399 32.3703 43.1399C31.9903 42.5399 31.0103 42.1299 31.1803 43.2199C31.2903 43.8999 31.7503 44.6699 32.1903 45.1899L32.2003 45.1799Z" fill="#89B731"/>
<path d="M34.31 46.5699C34.21 46.6799 34.12 46.8 34.09 46.95C34.06 47.09 34.1 47.27 34.23 47.34C34.31 47.38 34.4 47.3799 34.49 47.3799C35.3 47.3399 36.06 46.93 36.66 46.39C37.26 45.84 37.54 44.6599 36.34 45.0699C35.59 45.3199 34.82 45.9999 34.32 46.5799L34.31 46.5699Z" fill="#89B731"/>
<path d="M33.4302 46.91C33.4302 47.06 33.4302 47.21 33.5002 47.34C33.5702 47.47 33.7102 47.57 33.8602 47.55C33.9502 47.53 34.0202 47.48 34.0802 47.42C34.6802 46.87 35.0002 46.07 35.1102 45.27C35.2202 44.47 34.6702 43.38 34.0102 44.46C33.6002 45.13 33.4402 46.14 33.4302 46.92V46.91Z" fill="#89B731"/>
<path d="M32.87 47.2899C32.98 47.3899 33.09 47.4899 33.24 47.5299C33.38 47.5699 33.56 47.5299 33.63 47.4099C33.68 47.3399 33.68 47.2399 33.68 47.1599C33.68 46.3499 33.31 45.5699 32.79 44.9499C32.27 44.3299 31.1 43.9999 31.45 45.2099C31.67 45.9699 32.3 46.7699 32.87 47.2999V47.2899Z" fill="#89B731"/>
<path d="M32.06 47.49C32.2 47.53 32.35 47.57 32.49 47.54C32.63 47.51 32.77 47.4 32.79 47.25C32.79 47.16 32.76 47.08 32.72 47C32.36 46.27 31.68 45.74 30.93 45.42C30.19 45.09 28.99 45.32 29.85 46.25C30.38 46.83 31.31 47.26 32.05 47.49H32.06Z" fill="#89B731"/>
<path d="M29.8403 46.78L36.4203 46.86L34.7803 52.69H31.7203L29.8403 46.78Z" fill="#FF9E40"/>
<path d="M48.0402 51.41H3.72021V56.53H48.0402V51.41Z" fill="#4A4646"/>
<path d="M50.7799 54.58H0.919922V56.53H50.7799V54.58Z" fill="#4A4646"/>
<path d="M51.71 31.1899H0V35.09H51.71V31.1899Z" fill="#4A4646"/>
<path d="M0.950195 34.1099L0.950195 55.5499H1.87019L1.87019 34.1099H0.950195Z" fill="#4A4646"/>
<path d="M8.33008 34.1199L8.33008 55.5599H9.25008L9.25008 34.1199H8.33008Z" fill="#4A4646"/>
<path d="M16.6401 34.1099V55.5499H17.5601V34.1099H16.6401Z" fill="#4A4646"/>
<path d="M24.9502 34.1099V55.5499H25.8702V34.1099H24.9502Z" fill="#4A4646"/>
<path d="M33.2598 35.0799V56.5199H34.1798V35.0799H33.2598Z" fill="#4A4646"/>
<path d="M41.5801 34.1099V55.5499H42.5001V34.1099H41.5801Z" fill="#4A4646"/>
<path d="M49.8901 34.1099V55.5499H50.8101V34.1099H49.8901Z" fill="#4A4646"/>
</svg>
