<svg width="53" height="57" viewBox="0 0 53 57" fill="none" xmlns="http://www.w3.org/2000/svg">
<path d="M47.84 0H4.22998V54.62H47.84V0Z" fill="#E13030"/>
<path d="M46.5797 1.57007H5.46973V53.0601H46.5797V1.57007Z" fill="#4A4646"/>
<path d="M45.49 2.91992H6.70996V52.6199H45.49V2.91992Z" fill="#EBEBEB"/>
<mask id="mask0_56_21997" style="mask-type:luminance" maskUnits="userSpaceOnUse" x="6" y="2" width="40" height="51">
<path d="M45.49 2.91992H6.70996V52.6199H45.49V2.91992Z" fill="white"/>
</mask>
<path d="M26.1499 2V54" stroke="#4A4646" stroke-width="0.75" stroke-miterlimit="10"/>
<path d="M48.1901 51.4099H3.87012V56.5299H48.1901V51.4099Z" fill="#4A4646"/>
<path d="M50.9298 54.5798H1.06982V56.5298H50.9298V54.5798Z" fill="#4A4646"/>
<path d="M51.8599 31.1899H0.149902V35.09H51.8599V31.1899Z" fill="#4A4646"/>
<path d="M1.1001 34.1101L1.1001 55.55H2.0201L2.0201 34.1101H1.1001Z" fill="#4A4646"/>
<path d="M8.47998 34.1201L8.47998 55.5601H9.39998L9.39998 34.1201H8.47998Z" fill="#4A4646"/>
<path d="M16.79 34.11V55.55H17.71V34.11H16.79Z" fill="#4A4646"/>
<path d="M25.1001 34.1101V55.55H26.0201V34.1101H25.1001Z" fill="#4A4646"/>
<path d="M33.4097 35.08V56.52H34.3297V35.08H33.4097Z" fill="#4A4646"/>
<path d="M41.73 34.11V55.55H42.65V34.11H41.73Z" fill="#4A4646"/>
<path d="M50.04 34.11V55.55H50.96V34.11H50.04Z" fill="#4A4646"/>
<path d="M51.3801 31.5901C51.3801 31.5901 50.6801 41.3401 38.6901 41.3401C26.7001 41.3401 26.0001 31.5901 26.0001 31.5901H25.9601C25.9601 31.5901 25.2601 41.3401 13.2701 41.3401C1.28008 41.3401 0.580078 31.5901 0.580078 31.5901" stroke="#4A4646" stroke-width="0.25" stroke-linecap="round" stroke-linejoin="round"/>
<path d="M0.590004 32.24C0.915852 32.24 1.18 31.9714 1.18 31.64C1.18 31.3087 0.915852 31.04 0.590004 31.04C0.264156 31.04 0 31.3087 0 31.64C0 31.9714 0.264156 32.24 0.590004 32.24Z" fill="#FFEB37"/>
<path d="M2.15005 36.6299C2.4759 36.6299 2.74006 36.3613 2.74006 36.0299C2.74006 35.6986 2.4759 35.4299 2.15005 35.4299C1.82421 35.4299 1.56006 35.6986 1.56006 36.0299C1.56006 36.3613 1.82421 36.6299 2.15005 36.6299Z" fill="#FFEB37"/>
<path d="M4.73014 39.42C5.05599 39.42 5.32014 39.1513 5.32014 38.82C5.32014 38.4886 5.05599 38.22 4.73014 38.22C4.40429 38.22 4.14014 38.4886 4.14014 38.82C4.14014 39.1513 4.40429 39.42 4.73014 39.42Z" fill="#FFEB37"/>
<path d="M8.37999 40.27C8.17999 40.01 7.80999 39.96 7.55999 40.17C7.29999 40.37 7.25998 40.75 7.45998 41.01C7.65998 41.27 8.02998 41.32 8.27998 41.11C8.53998 40.91 8.57999 40.53 8.37999 40.27Z" fill="#FFEB37"/>
<path d="M12.0899 40.8601C11.8899 40.6001 11.5199 40.5501 11.2699 40.7601C11.0099 40.9601 10.9699 41.3401 11.1699 41.6001C11.3699 41.8601 11.7399 41.9101 11.9899 41.7001C12.2499 41.5001 12.2899 41.1201 12.0899 40.8601Z" fill="#FFEB37"/>
<path d="M25.9899 32.24C26.3158 32.24 26.5799 31.9714 26.5799 31.64C26.5799 31.3087 26.3158 31.04 25.9899 31.04C25.6641 31.04 25.3999 31.3087 25.3999 31.64C25.3999 31.9714 25.6641 32.24 25.9899 32.24Z" fill="#FFEB37"/>
<path d="M24.32 36.6299C24.6458 36.6299 24.91 36.3613 24.91 36.0299C24.91 35.6986 24.6458 35.4299 24.32 35.4299C23.9941 35.4299 23.73 35.6986 23.73 36.0299C23.73 36.3613 23.9941 36.6299 24.32 36.6299Z" fill="#FFEB37"/>
<path d="M21.7502 39.42C22.076 39.42 22.3402 39.1513 22.3402 38.82C22.3402 38.4886 22.076 38.22 21.7502 38.22C21.4243 38.22 21.1602 38.4886 21.1602 38.82C21.1602 39.1513 21.4243 39.42 21.7502 39.42Z" fill="#FFEB37"/>
<path d="M18.1001 40.27C18.3001 40.01 18.6701 39.96 18.9201 40.17C19.1801 40.37 19.2201 40.75 19.0201 41.01C18.8201 41.27 18.4501 41.32 18.2001 41.11C17.9401 40.91 17.9001 40.53 18.1001 40.27Z" fill="#FFEB37"/>
<path d="M14.3902 40.8601C14.5902 40.6001 14.9602 40.5501 15.2102 40.7601C15.4702 40.9601 15.5102 41.3401 15.3102 41.6001C15.1102 41.8601 14.7402 41.9101 14.4902 41.7001C14.2302 41.5001 14.1902 41.1201 14.3902 40.8601Z" fill="#FFEB37"/>
<path d="M27.5802 36.6299C27.9061 36.6299 28.1702 36.3613 28.1702 36.0299C28.1702 35.6986 27.9061 35.4299 27.5802 35.4299C27.2544 35.4299 26.9902 35.6986 26.9902 36.0299C26.9902 36.3613 27.2544 36.6299 27.5802 36.6299Z" fill="#FFEB37"/>
<path d="M30.1598 39.42C30.4857 39.42 30.7498 39.1513 30.7498 38.82C30.7498 38.4886 30.4857 38.22 30.1598 38.22C29.834 38.22 29.5698 38.4886 29.5698 38.82C29.5698 39.1513 29.834 39.42 30.1598 39.42Z" fill="#FFEB37"/>
<path d="M33.8102 40.27C33.6102 40.01 33.2402 39.96 32.9902 40.17C32.7302 40.37 32.6902 40.75 32.8902 41.01C33.0902 41.27 33.4602 41.32 33.7102 41.11C33.9702 40.91 34.0102 40.53 33.8102 40.27Z" fill="#FFEB37"/>
<path d="M37.5201 40.8601C37.3201 40.6001 36.9501 40.5501 36.7001 40.7601C36.4401 40.9601 36.4001 41.3401 36.6001 41.6001C36.8001 41.8601 37.1701 41.9101 37.4201 41.7001C37.6801 41.5001 37.7201 41.1201 37.5201 40.8601Z" fill="#FFEB37"/>
<path d="M51.4201 32.24C51.7459 32.24 52.0101 31.9714 52.0101 31.64C52.0101 31.3087 51.7459 31.04 51.4201 31.04C51.0942 31.04 50.8301 31.3087 50.8301 31.64C50.8301 31.9714 51.0942 32.24 51.4201 32.24Z" fill="#FFEB37"/>
<path d="M49.7502 36.6299C50.076 36.6299 50.3401 36.3613 50.3401 36.0299C50.3401 35.6986 50.076 35.4299 49.7502 35.4299C49.4243 35.4299 49.1602 35.6986 49.1602 36.0299C49.1602 36.3613 49.4243 36.6299 49.7502 36.6299Z" fill="#FFEB37"/>
<path d="M47.1798 39.42C47.5057 39.42 47.7698 39.1513 47.7698 38.82C47.7698 38.4886 47.5057 38.22 47.1798 38.22C46.854 38.22 46.5898 38.4886 46.5898 38.82C46.5898 39.1513 46.854 39.42 47.1798 39.42Z" fill="#FFEB37"/>
<path d="M43.5298 40.27C43.7298 40.01 44.0998 39.96 44.3498 40.17C44.6098 40.37 44.6498 40.75 44.4498 41.01C44.2498 41.27 43.8798 41.32 43.6298 41.11C43.3698 40.91 43.3298 40.53 43.5298 40.27Z" fill="#FFEB37"/>
<path d="M39.8101 40.8601C40.0101 40.6001 40.3801 40.5501 40.6301 40.7601C40.8901 40.9601 40.9301 41.3401 40.7301 41.6001C40.5301 41.8601 40.1601 41.9101 39.9101 41.7001C39.6501 41.5001 39.6101 41.1201 39.8101 40.8601Z" fill="#FFEB37"/>
</svg>
