<svg width="65" height="52" viewBox="0 0 53 57" fill="none" xmlns="http://www.w3.org/2000/svg">
<path d="M48.15 0.459961H4.54004V55.08H48.15V0.459961Z" fill="#E13030"/>
<path d="M46.8898 2.02991H5.77979V53.5199H46.8898V2.02991Z" fill="#4A4646"/>
<path d="M45.8 3.38H7.02002V53.08H45.8V3.38Z" fill="#EBEBEB"/>
<mask id="mask0_56_13613" style="mask-type:luminance" maskUnits="userSpaceOnUse" x="7" y="3" width="39" height="51">
<path d="M45.8 3.38H7.02002V53.08H45.8V3.38Z" fill="white"/>
</mask>
<g mask="url(#mask0_56_13613)">
</g>
<path d="M26.46 2.45996V54.46" stroke="#4A4646" stroke-width="0.75" stroke-miterlimit="10"/>
<path d="M10.6699 45.9101C10.7899 46.0001 10.9099 46.0901 11.0499 46.1201C11.1899 46.1501 11.3599 46.1001 11.4299 45.9701C11.4699 45.8901 11.4699 45.8001 11.4599 45.7101C11.3999 44.9001 10.9599 44.1601 10.3899 43.5801C9.81994 43.0001 8.62994 42.7701 9.07994 43.9501C9.35994 44.6901 10.0599 45.4301 10.6599 45.9201L10.6699 45.9101Z" fill="#4C9A51"/>
<path d="M12.46 45.8C12.51 45.92 12.57 46.04 12.67 46.12C12.77 46.2 12.92 46.23 13.03 46.15C13.09 46.11 13.13 46.03 13.16 45.96C13.44 45.31 13.4 44.55 13.19 43.87C12.98 43.19 12.15 42.53 12.02 43.63C11.94 44.31 12.18 45.18 12.46 45.79V45.8Z" fill="#4C9A51"/>
<path d="M14.1499 45.59C14.1499 45.72 14.1499 45.85 14.1999 45.97C14.2499 46.09 14.3799 46.18 14.5099 46.16C14.5899 46.15 14.6499 46.1 14.7099 46.05C15.2499 45.59 15.5599 44.9 15.6799 44.2C15.7999 43.5 15.3599 42.54 14.7499 43.46C14.3699 44.04 14.1999 44.91 14.1699 45.59H14.1499Z" fill="#4C9A51"/>
<path d="M13.1602 44.22C13.1602 44.35 13.1602 44.48 13.2102 44.6C13.2602 44.72 13.3901 44.81 13.5201 44.79C13.6001 44.78 13.6602 44.73 13.7202 44.68C14.2602 44.22 14.5702 43.53 14.6902 42.83C14.8102 42.13 14.3702 41.17 13.7602 42.09C13.3802 42.67 13.2102 43.54 13.1802 44.22H13.1602Z" fill="#4C9A51"/>
<path d="M11.67 44.83C11.75 44.93 11.84 45.03 11.96 45.08C12.08 45.13 12.23 45.12 12.31 45.02C12.36 44.96 12.37 44.88 12.38 44.81C12.47 44.11 12.23 43.39 11.84 42.79C11.46 42.19 10.48 41.78 10.65 42.87C10.76 43.55 11.22 44.32 11.66 44.84L11.67 44.83Z" fill="#4C9A51"/>
<path d="M13.79 46.21C13.69 46.32 13.6 46.44 13.57 46.59C13.54 46.73 13.58 46.91 13.71 46.98C13.79 47.02 13.88 47.02 13.97 47.02C14.78 46.98 15.54 46.57 16.14 46.03C16.74 45.48 17.02 44.3 15.82 44.71C15.07 44.96 14.3 45.64 13.8 46.22L13.79 46.21Z" fill="#4C9A51"/>
<path d="M12.9102 46.55C12.9102 46.7 12.9102 46.85 12.9802 46.98C13.0502 47.11 13.1901 47.21 13.3401 47.19C13.4301 47.17 13.5002 47.12 13.5602 47.06C14.1602 46.51 14.4801 45.71 14.5901 44.91C14.7001 44.11 14.1502 43.02 13.4902 44.1C13.0802 44.77 12.9202 45.78 12.9102 46.56V46.55Z" fill="#4C9A51"/>
<path d="M12.3397 46.94C12.4497 47.04 12.5597 47.1399 12.7097 47.1799C12.8497 47.2199 13.0297 47.18 13.0997 47.06C13.1497 46.99 13.1497 46.89 13.1497 46.81C13.1497 46 12.7797 45.22 12.2597 44.6C11.7397 43.98 10.5697 43.65 10.9197 44.86C11.1397 45.62 11.7697 46.42 12.3397 46.95V46.94Z" fill="#4C9A51"/>
<path d="M11.5297 47.1299C11.6697 47.1699 11.8197 47.2099 11.9597 47.1799C12.0997 47.1499 12.2397 47.0399 12.2597 46.8899C12.2597 46.7999 12.2297 46.7199 12.1897 46.6399C11.8297 45.9099 11.1497 45.3799 10.3997 45.0599C9.65969 44.7299 8.45969 44.9599 9.31969 45.8899C9.84969 46.4699 10.7797 46.8999 11.5197 47.1299H11.5297Z" fill="#4C9A51"/>
<path d="M9.31006 46.42L15.9001 46.51L14.2501 52.33H11.1901L9.31006 46.42Z" fill="#1E3962"/>
<path d="M43.6699 26.9101C43.7899 27.0001 43.9099 27.0901 44.0499 27.1201C44.1899 27.1501 44.3599 27.1001 44.4299 26.9701C44.4699 26.8901 44.4699 26.8001 44.4599 26.7101C44.3999 25.9001 43.9599 25.1601 43.3899 24.5801C42.8199 24.0001 41.6299 23.7701 42.0799 24.9501C42.3599 25.6901 43.0599 26.4301 43.6599 26.9201L43.6699 26.9101Z" fill="#89B731"/>
<path d="M45.46 26.8C45.51 26.92 45.57 27.04 45.67 27.12C45.77 27.2 45.92 27.23 46.03 27.15C46.09 27.11 46.13 27.03 46.16 26.96C46.44 26.31 46.4 25.55 46.19 24.87C45.98 24.19 45.15 23.53 45.02 24.63C44.94 25.31 45.18 26.18 45.46 26.79V26.8Z" fill="#89B731"/>
<path d="M47.1499 26.59C47.1499 26.72 47.1499 26.85 47.1999 26.97C47.2499 27.09 47.3799 27.18 47.5099 27.16C47.5899 27.15 47.6499 27.1 47.7099 27.05C48.2499 26.59 48.5599 25.9 48.6799 25.2C48.7999 24.5 48.3599 23.54 47.7499 24.46C47.3699 25.04 47.1999 25.91 47.1699 26.59H47.1499Z" fill="#89B731"/>
<path d="M46.1602 25.22C46.1602 25.35 46.1602 25.48 46.2102 25.6C46.2602 25.72 46.3901 25.81 46.5201 25.79C46.6001 25.78 46.6602 25.73 46.7202 25.68C47.2602 25.22 47.5702 24.53 47.6902 23.83C47.8102 23.13 47.3702 22.17 46.7602 23.09C46.3802 23.67 46.2102 24.54 46.1802 25.22H46.1602Z" fill="#89B731"/>
<path d="M44.67 25.83C44.75 25.93 44.84 26.03 44.96 26.08C45.08 26.13 45.23 26.12 45.31 26.02C45.36 25.96 45.37 25.88 45.38 25.81C45.47 25.11 45.23 24.39 44.84 23.79C44.46 23.19 43.48 22.78 43.65 23.87C43.76 24.55 44.22 25.32 44.66 25.84L44.67 25.83Z" fill="#89B731"/>
<path d="M46.79 27.21C46.69 27.32 46.6 27.44 46.57 27.59C46.54 27.73 46.58 27.91 46.71 27.98C46.79 28.02 46.88 28.02 46.97 28.02C47.78 27.98 48.54 27.57 49.14 27.03C49.74 26.48 50.02 25.3 48.82 25.71C48.07 25.96 47.3 26.64 46.8 27.22L46.79 27.21Z" fill="#89B731"/>
<path d="M45.9102 27.55C45.9102 27.7 45.9102 27.85 45.9802 27.98C46.0502 28.11 46.1901 28.21 46.3401 28.19C46.4301 28.17 46.5002 28.12 46.5602 28.06C47.1602 27.51 47.4801 26.71 47.5901 25.91C47.7001 25.11 47.1502 24.02 46.4902 25.1C46.0802 25.77 45.9202 26.78 45.9102 27.56V27.55Z" fill="#89B731"/>
<path d="M45.3397 27.94C45.4497 28.04 45.5597 28.1399 45.7097 28.1799C45.8497 28.2199 46.0297 28.18 46.0997 28.06C46.1497 27.99 46.1497 27.89 46.1497 27.81C46.1497 27 45.7797 26.22 45.2597 25.6C44.7397 24.98 43.5697 24.65 43.9197 25.86C44.1397 26.62 44.7697 27.42 45.3397 27.95V27.94Z" fill="#89B731"/>
<path d="M44.5297 28.1299C44.6697 28.1699 44.8197 28.2099 44.9597 28.1799C45.0997 28.1499 45.2397 28.0399 45.2597 27.8899C45.2597 27.7999 45.2297 27.7199 45.1897 27.6399C44.8297 26.9099 44.1497 26.3799 43.3997 26.0599C42.6597 25.7299 41.4597 25.9599 42.3197 26.8899C42.8497 27.4699 43.7797 27.8999 44.5197 28.1299H44.5297Z" fill="#89B731"/>
<path d="M42.3101 27.42L48.9001 27.51L47.2501 33.33H44.1901L42.3101 27.42Z" fill="#1E3962"/>
<path d="M48.5002 51.87H4.18018V56.99H48.5002V51.87Z" fill="#4A4646"/>
<path d="M51.2399 55.0399H1.37988V56.9899H51.2399V55.0399Z" fill="#4A4646"/>
<path d="M52.17 31.6499H0.459961V35.5499H52.17V31.6499Z" fill="#4A4646"/>
<path d="M1.41016 34.5699L1.41016 56.0099H2.33015L2.33015 34.5699H1.41016Z" fill="#4A4646"/>
<path d="M8.79004 34.5799L8.79004 56.0199H9.71004L9.71004 34.5799H8.79004Z" fill="#4A4646"/>
<path d="M17.1001 34.5699V56.0099H18.0201V34.5699H17.1001Z" fill="#4A4646"/>
<path d="M25.4102 34.5699V56.0099H26.3302V34.5699H25.4102Z" fill="#4A4646"/>
<path d="M33.7197 35.5399V56.9799H34.6397V35.5399H33.7197Z" fill="#4A4646"/>
<path d="M42.04 34.5699V56.0099H42.96V34.5699H42.04Z" fill="#4A4646"/>
<path d="M50.3501 34.5699V56.0099H51.2701V34.5699H50.3501Z" fill="#4A4646"/>
</svg>
