<svg width="52" height="57" viewBox="0 0 52 57" fill="none" xmlns="http://www.w3.org/2000/svg">
<path d="M47.6901 0H4.08008V54.62H47.6901V0Z" fill="#E13030"/>
<path d="M46.4298 1.57007H5.31982V53.0601H46.4298V1.57007Z" fill="#4A4646"/>
<path d="M45.3401 2.91992H6.56006V52.6199H45.3401V2.91992Z" fill="#EBEBEB"/>
<mask id="mask0_56_17207" style="mask-type:luminance" maskUnits="userSpaceOnUse" x="6" y="2" width="40" height="51">
<path d="M45.3401 2.91992H6.56006V52.6199H45.3401V2.91992Z" fill="white"/>
</mask>
<path d="M26 2V54" stroke="#4A4646" stroke-width="0.75" stroke-miterlimit="10"/>
<path d="M37.2803 38.3301L39.0903 51.5901C39.1203 51.8001 39.5103 51.8101 39.5403 51.5901L41.4703 38.3201" stroke="#1A1A1A" stroke-width="0.18" stroke-linecap="round" stroke-linejoin="round"/>
<path d="M44.09 33.8401L44.08 33.8801L43.85 35.1901L43.81 35.4601L43.75 35.7701L42.68 42.0001H35.9L34.8 35.7801L34.75 35.4601L34.7 35.1901L34.47 33.9001V33.8901L34.46 33.8401H44.09Z" fill="#3787FF"/>
<path d="M44.0902 35.4602C44.0802 35.9702 41.8402 36.2402 39.5302 36.2602H39.4702C39.4002 36.2602 39.3302 36.2602 39.2602 36.2602C39.1802 36.2602 39.1002 36.2602 39.0202 36.2602C36.7102 36.2402 34.4802 35.9802 34.4702 35.4602C34.4802 34.9502 36.6602 34.6902 38.9302 34.6602C39.0102 34.6602 39.0902 34.6602 39.1602 34.6602C39.1902 34.6602 39.2202 34.6602 39.2502 34.6602C39.3302 34.6602 39.4102 34.6602 39.4802 34.6602C39.5602 34.6602 39.6402 34.6602 39.7202 34.6602C39.8302 34.6602 39.9402 34.6602 40.0602 34.6602C42.1702 34.7102 44.0702 34.9802 44.0802 35.4502L44.0902 35.4602Z" fill="#1E3962"/>
<path d="M44.0202 33.9101C44.0202 34.2601 42.9702 34.5001 41.5702 34.6201C41.5402 34.6201 41.5102 34.6201 41.4902 34.6201C41.4602 34.6201 41.4402 34.6201 41.4102 34.6201C41.3202 34.6201 41.2202 34.6301 41.1202 34.6401C41.0902 34.6401 41.0502 34.6401 41.0202 34.6401C40.8902 34.6401 40.7502 34.6501 40.6202 34.6601C40.5702 34.6601 40.5202 34.6601 40.4702 34.6601C40.4102 34.6601 40.3502 34.6601 40.3002 34.6601C40.2502 34.6601 40.2002 34.6601 40.1502 34.6601C40.0902 34.6601 40.0202 34.6601 39.9602 34.6601C39.9202 34.6601 39.8902 34.6601 39.8502 34.6601C39.8302 34.6601 39.8102 34.6601 39.7802 34.6601C39.7102 34.6601 39.6402 34.6601 39.5602 34.6601C39.5402 34.6601 39.5202 34.6601 39.5002 34.6601H39.3702C39.3102 34.6601 39.2502 34.6601 39.1902 34.6601C39.1402 34.6601 39.0802 34.6601 39.0302 34.6601C39.0102 34.6601 38.9902 34.6601 38.9702 34.6601H38.9602C38.9602 34.6601 38.9002 34.6601 38.8702 34.6601C38.7402 34.6601 38.6002 34.6601 38.4702 34.6601C38.4202 34.6601 38.3802 34.6601 38.3302 34.6601C38.0602 34.6601 37.7902 34.6401 37.5202 34.6301C35.8002 34.5301 34.4202 34.2801 34.4102 33.8801C34.4102 33.5601 35.2802 33.3401 36.4902 33.2101C36.8402 33.1701 37.2102 33.1401 37.6102 33.1201C37.6702 33.1201 37.7302 33.1201 37.7902 33.1201C38.0302 33.1101 38.2702 33.1001 38.5202 33.1001C38.6002 33.1001 38.6802 33.1001 38.7602 33.1001C38.8002 33.1001 38.8401 33.1001 38.8801 33.1001C38.9102 33.1001 38.9402 33.1001 38.9702 33.1001C39.0202 33.1001 39.0702 33.1001 39.1202 33.1001H39.4502C39.5102 33.1001 39.5802 33.1001 39.6402 33.1001C39.6602 33.1001 39.6702 33.1001 39.6902 33.1001C39.7202 33.1001 39.7402 33.1001 39.7702 33.1001C39.8402 33.1001 39.9002 33.1001 39.9702 33.1001C39.9902 33.1001 40.0102 33.1001 40.0302 33.1001C40.0802 33.1001 40.1302 33.1001 40.1702 33.1001C40.3302 33.1001 40.5002 33.1101 40.6602 33.1201C40.6702 33.1201 40.6802 33.1201 40.6902 33.1201C40.7302 33.1201 40.7602 33.1201 40.8002 33.1201C40.8402 33.1201 40.8702 33.1201 40.9102 33.1201C41.1502 33.1301 41.3902 33.1501 41.6102 33.1701C41.6102 33.1701 41.6702 33.1701 41.7002 33.1701C41.7202 33.1701 41.7402 33.1701 41.7502 33.1701C41.8102 33.1701 41.8702 33.1801 41.9302 33.1901C42.0402 33.2001 42.1402 33.2101 42.2402 33.2301C43.3001 33.3601 44.0402 33.5701 44.0502 33.8701L44.0202 33.9101Z" fill="#0D1A2D"/>
<path d="M37.2402 34.2499C37.2402 34.2499 37.2402 34.1999 37.2402 34.1699C37.2402 34.1999 37.2402 34.2199 37.2402 34.2499ZM37.0302 34.5499C36.9802 33.9999 36.8402 33.4499 36.7702 32.8999C36.7202 32.6099 36.6402 32.3099 36.4502 32.0599C36.4202 32.0199 36.3802 31.9699 36.3402 31.9399C36.0102 31.2699 35.3202 30.8199 34.8102 30.2499C34.2402 29.5999 33.7702 28.8699 33.4902 28.0899C33.4902 28.0899 33.4902 28.0899 33.4902 28.0999C33.1902 27.2099 33.1202 26.2699 32.9602 25.3599C32.9602 25.2899 32.9402 25.1999 33.0102 25.1399C33.0702 25.0999 33.1502 25.1099 33.1902 25.1599C33.4602 25.5099 33.6602 25.8999 33.9702 26.2299C34.5102 26.7399 34.9002 27.3499 35.4102 27.8899C35.8602 28.4299 36.3902 28.9299 36.7002 29.5399C36.7302 29.5999 36.7602 29.6599 36.8002 29.7199C37.2702 30.6599 37.3102 31.7099 37.3902 32.7099C37.3902 32.7099 37.3902 32.7499 37.3902 32.7799C37.3902 32.8099 37.3902 32.8499 37.3902 32.8799V32.8999C37.3902 32.8999 37.3902 32.8999 37.3902 32.9099C37.3902 32.9099 37.3902 32.9299 37.3902 32.9399C37.3902 33.3599 37.3702 33.7899 37.3902 34.2099C37.3902 34.3999 37.4002 34.5899 37.4002 34.7799C37.2802 34.7799 37.1602 34.7799 37.0402 34.7799C37.0402 34.7199 37.0402 34.6499 37.0302 34.5899V34.5499Z" fill="#80C62C"/>
<path d="M34.63 18.56C34.63 18.56 34.61 18.52 34.6 18.5C34.6 18.52 34.62 18.54 34.63 18.56ZM37.82 34.54C37.89 33.29 37.86 32.04 37.82 30.79C37.72 29.2 37.24 28.85 36.16 27.66C35.56 26.77 35.04 25.83 34.71 24.84C34.14 23.12 33.88 21.32 34.08 19.54C34.11 19.33 34.22 17.93 34.51 18.06C34.58 18.09 34.6 18.16 34.64 18.21C34.85 18.59 34.96 19.01 35.1 19.41C35.33 20.14 35.64 20.84 35.89 21.57C36.25 22.66 36.61 23.75 36.98 24.83C37.42 26.28 37.78 27.75 38.23 29.2C38.26 29.94 38.35 30.67 38.4 31.41C38.4 31.45 38.4 31.5 38.4 31.54C38.42 31.92 38.4 32.3 38.4 32.69C38.4 32.73 38.4 32.77 38.4 32.81C38.4 32.81 38.4 32.86 38.4 32.89C38.4 32.89 38.4 32.9 38.4 32.91C38.4 32.91 38.4 32.91 38.4 32.92C38.4 32.96 38.4 33 38.4 33.04C38.4 33.59 38.42 34.14 38.36 34.7C38.17 34.7 37.98 34.7 37.79 34.7C37.79 34.65 37.79 34.59 37.79 34.54H37.82Z" fill="#80C62C"/>
<path d="M40.7603 22.7C40.7603 22.7 40.7603 22.61 40.7603 22.57C40.7603 22.62 40.7603 22.66 40.7603 22.71V22.7ZM39.5203 30.56C39.5203 30.5 39.5203 30.45 39.5303 30.39C39.5303 30.45 39.5303 30.51 39.5203 30.57V30.56ZM39.0403 34.68C39.1103 32.8 39.3003 30.93 39.2303 29.06C39.2303 29.06 39.2303 29.06 39.2303 29.05C39.2103 28.45 39.0603 27.85 38.9203 27.26C38.9203 27 38.8903 26.75 38.8703 26.49C38.8103 25.6 38.5303 24.73 38.3803 23.85C37.9803 21.85 37.6503 19.81 38.0603 17.8C38.1603 16.95 38.3803 16.11 38.6803 15.3C38.7503 15.18 38.8603 14.58 39.0603 14.77C39.1803 15.1 39.1603 15.46 39.2803 15.79C39.5903 16.73 40.0303 17.65 40.3103 18.6C40.5903 19.54 40.7303 20.5 40.8303 21.45C40.9103 22.22 41.0003 23 40.9603 23.78C40.8003 25.52 39.8903 27.16 39.8403 28.92C39.7803 30.07 39.6503 31.21 39.5803 32.36C39.5103 33.13 39.6203 33.91 39.4903 34.68C39.3403 34.68 39.1903 34.68 39.0403 34.68Z" fill="#80C62C"/>
<path d="M42.4103 21.0101L42.4303 20.9401C42.4303 20.9401 42.4203 20.9801 42.4103 21.0001V21.0101ZM40.5203 34.7001C40.3903 34.7001 40.2603 34.6901 40.1303 34.6901C39.9603 31.8301 40.4903 28.9701 41.3303 26.2001C41.7603 24.4701 41.8203 22.6901 42.2403 20.9501C42.2403 20.9301 42.2403 20.9201 42.2503 20.9001C42.2503 20.8801 42.2603 20.8601 42.2703 20.8401C42.2903 20.7701 42.3003 20.7001 42.3203 20.6401C42.5303 19.8401 42.9103 19.0801 43.3403 18.3501C43.3703 18.2901 43.4103 18.2401 43.4403 18.1801C43.6903 17.7701 43.9503 17.3601 44.2203 16.9501C44.2403 16.9201 44.2503 16.9001 44.2803 16.8801C44.3603 16.8201 44.4703 16.8801 44.4703 16.9601C44.5403 18.0001 44.6003 19.0401 44.6203 20.0801C44.6503 20.8901 44.4903 21.6901 44.3203 22.4801C44.1203 23.3601 43.8403 24.2401 43.4003 25.0601C43.0903 25.6301 42.6803 26.1501 42.3503 26.7101C41.8103 27.6701 41.3503 28.6701 41.0603 29.7001C40.8303 30.6001 40.7803 31.5301 40.7103 32.4501C40.6703 33.1901 40.5803 33.9301 40.6303 34.6701C40.6003 34.6701 40.5703 34.6701 40.5403 34.6701L40.5203 34.7001Z" fill="#80C62C"/>
<path d="M41.2003 34.73C41.1403 34.73 41.0803 34.73 41.0303 34.73C41.0703 33.64 41.1803 32.54 41.3403 31.46C41.5103 30.68 41.7703 29.91 41.8703 29.11C42.1103 28.09 42.6703 27.15 43.0703 26.17C43.4403 25.27 44.1003 24.5 44.7303 23.72C44.9603 23.44 45.1403 23.14 45.3903 22.88C45.8403 22.47 46.2603 22.04 46.6703 21.6C46.8103 21.48 46.9203 21.31 47.0903 21.22C47.3403 21.19 47.2203 21.63 47.2203 21.75C47.1303 22.38 46.9003 22.99 46.6603 23.6C46.3103 24.51 45.9103 25.41 45.3103 26.23C44.8103 26.95 44.3103 27.68 43.6703 28.33C43.2303 28.84 42.8703 29.39 42.4803 29.92C41.9603 30.65 41.7903 31.48 41.6803 32.31C41.5303 33.12 41.4403 33.94 41.4403 34.76C41.3603 34.76 41.2803 34.76 41.2003 34.75V34.73Z" fill="#80C62C"/>
<path d="M44 33.8401C44 33.8401 44.02 33.89 44.02 33.91C44.02 34.26 42.97 34.5001 41.57 34.6201C41.54 34.6201 41.51 34.6201 41.49 34.6201C41.46 34.6201 41.44 34.6201 41.41 34.6201C41.32 34.6201 41.22 34.6301 41.12 34.6401C41.09 34.6401 41.05 34.6401 41.02 34.6401C40.89 34.6401 40.75 34.65 40.62 34.66C40.57 34.66 40.52 34.66 40.47 34.66C40.41 34.66 40.35 34.66 40.3 34.66C40.25 34.66 40.2 34.66 40.15 34.66C40.09 34.66 40.02 34.66 39.96 34.66C39.92 34.66 39.89 34.66 39.85 34.66C39.83 34.66 39.81 34.66 39.78 34.66C39.71 34.66 39.64 34.66 39.56 34.66C39.54 34.66 39.52 34.66 39.5 34.66H39.37C39.31 34.66 39.25 34.66 39.19 34.66C39.14 34.66 39.08 34.66 39.03 34.66C39.01 34.66 38.99 34.66 38.97 34.66H38.96C38.96 34.66 38.9 34.66 38.87 34.66C38.74 34.66 38.6 34.66 38.47 34.66C38.42 34.66 38.38 34.66 38.33 34.66C38.06 34.66 37.79 34.6401 37.52 34.6301C36.03 34.5501 34.79 34.3401 34.48 34.0301V35.4301H44.1V33.8101H44V33.8401Z" fill="#1E3962"/>
<path d="M43.5297 37.7C43.5197 38.15 41.5897 38.3899 39.5797 38.4099H39.5197C39.4597 38.4099 39.3997 38.4099 39.3397 38.4099C39.2697 38.4099 39.1997 38.4099 39.1397 38.4099C37.1397 38.3899 35.2097 38.16 35.1997 37.7" stroke="#1A1A1A" stroke-width="0.18" stroke-linecap="round" stroke-linejoin="round"/>
<path d="M39.1499 38.41C39.1499 38.6 35.9999 47.78 34.6899 51.61C34.6099 51.83 34.2299 51.77 34.2399 51.55L35.2099 37.71" stroke="#1A1A1A" stroke-width="0.18" stroke-linecap="round" stroke-linejoin="round"/>
<path d="M39.6099 38.41C39.6099 38.6 42.7599 47.78 44.0699 51.61C44.1499 51.83 44.5299 51.77 44.5199 51.55L43.5499 37.71" stroke="#1A1A1A" stroke-width="0.18" stroke-linecap="round" stroke-linejoin="round"/>
<path d="M9.81006 38.49L11.6201 51.75C11.6501 51.96 12.0401 51.97 12.0701 51.75L14.0001 38.48" stroke="#1A1A1A" stroke-width="0.18" stroke-linecap="round" stroke-linejoin="round"/>
<path d="M16.62 34V34.01L16.61 34.05L16.39 35.36L16.34 35.62L16.29 35.94L15.22 42.16H8.43L7.34 35.94L7.28 35.62L7.23 35.36L7.01 34.06L7 34H16.62Z" fill="#FF9E40"/>
<path d="M16.62 35.6201C16.61 36.1301 14.37 36.4001 12.06 36.4201H12C11.93 36.4201 11.86 36.4201 11.79 36.4201C11.71 36.4201 11.63 36.4201 11.55 36.4201C9.24 36.4001 7.01 36.1401 7 35.6201C7.01 35.1101 9.19 34.8501 11.46 34.8201C11.54 34.8201 11.62 34.8201 11.69 34.8201C11.72 34.8201 11.75 34.8201 11.78 34.8201C11.86 34.8201 11.94 34.8201 12.01 34.8201C12.09 34.8201 12.17 34.8201 12.25 34.8201C12.36 34.8201 12.47 34.8201 12.59 34.8201C14.7 34.8701 16.6 35.1401 16.61 35.6101L16.62 35.6201Z" fill="#D16811"/>
<path d="M16.5499 34.07C16.5499 34.42 15.4999 34.66 14.0999 34.78C14.0699 34.78 14.0399 34.78 14.0199 34.78C13.9899 34.78 13.9699 34.78 13.9399 34.78C13.8499 34.78 13.7499 34.79 13.6499 34.8C13.6199 34.8 13.5799 34.8 13.5499 34.8C13.4199 34.8 13.2799 34.81 13.1499 34.82C13.0999 34.82 13.0499 34.82 12.9999 34.82C12.9399 34.82 12.8799 34.82 12.8299 34.82C12.7799 34.82 12.7299 34.82 12.6799 34.82C12.6199 34.82 12.5499 34.82 12.4899 34.82C12.4499 34.82 12.4199 34.82 12.3799 34.82C12.3599 34.82 12.3399 34.82 12.3099 34.82C12.2399 34.82 12.1699 34.82 12.0899 34.82C12.0699 34.82 12.0499 34.82 12.0299 34.82H11.8999C11.8399 34.82 11.7799 34.82 11.7199 34.82C11.6699 34.82 11.6099 34.82 11.5599 34.82C11.5399 34.82 11.5199 34.82 11.4999 34.82H11.4899C11.4899 34.82 11.4299 34.82 11.3999 34.82C11.2699 34.82 11.1299 34.82 10.9999 34.82C10.9499 34.82 10.9099 34.82 10.8599 34.82C10.5899 34.82 10.3199 34.8 10.0499 34.79C8.32994 34.69 6.94994 34.44 6.93994 34.04C6.93994 33.72 7.80994 33.5 9.01994 33.37C9.36994 33.33 9.73994 33.3 10.1399 33.28C10.1999 33.28 10.2599 33.28 10.3199 33.28C10.5599 33.27 10.7999 33.26 11.0499 33.26C11.1299 33.26 11.2099 33.26 11.2899 33.26C11.3299 33.26 11.3699 33.26 11.4099 33.26C11.4399 33.26 11.4699 33.26 11.4999 33.26C11.5499 33.26 11.5999 33.26 11.6499 33.26H11.9799C12.0399 33.26 12.1099 33.26 12.1699 33.26C12.1899 33.26 12.1999 33.26 12.2199 33.26C12.2499 33.26 12.2699 33.26 12.2999 33.26C12.3699 33.26 12.4299 33.26 12.4999 33.26C12.5199 33.26 12.5399 33.26 12.5599 33.26C12.6099 33.26 12.6599 33.26 12.6999 33.26C12.8599 33.26 13.0299 33.27 13.1899 33.28C13.1999 33.28 13.2099 33.28 13.2199 33.28C13.2599 33.28 13.2899 33.28 13.3299 33.28C13.3699 33.28 13.3999 33.28 13.4399 33.28C13.6799 33.29 13.9199 33.31 14.1399 33.33C14.1399 33.33 14.1999 33.33 14.2299 33.33C14.2499 33.33 14.2699 33.33 14.2799 33.33C14.3399 33.33 14.3999 33.34 14.4599 33.35C14.5699 33.36 14.6699 33.37 14.7699 33.39C15.8299 33.52 16.5699 33.73 16.5799 34.03L16.5499 34.07Z" fill="#723C0F"/>
<path d="M9.76995 34.4198C9.76995 34.4198 9.76995 34.3698 9.76995 34.3398C9.76995 34.3698 9.76995 34.3898 9.76995 34.4198ZM9.55995 34.7198C9.50995 34.1698 9.36995 33.6198 9.29995 33.0698C9.24995 32.7798 9.16995 32.4798 8.97995 32.2298C8.94995 32.1898 8.90995 32.1398 8.86995 32.1098C8.53995 31.4398 7.84995 30.9898 7.33995 30.4198C6.76995 29.7698 6.29995 29.0398 6.01995 28.2598C6.01995 28.2598 6.01995 28.2598 6.01995 28.2698C5.71995 27.3798 5.64995 26.4398 5.48995 25.5298C5.48995 25.4598 5.46995 25.3698 5.53995 25.3098C5.59995 25.2698 5.67995 25.2798 5.71995 25.3298C5.98995 25.6798 6.18995 26.0698 6.49995 26.3998C7.03995 26.9098 7.42995 27.5198 7.93995 28.0598C8.38995 28.5998 8.91995 29.0998 9.22995 29.7098C9.25995 29.7698 9.28995 29.8298 9.32995 29.8898C9.79995 30.8298 9.83995 31.8798 9.91995 32.8798C9.91995 32.8798 9.91995 32.9198 9.91995 32.9498C9.91995 32.9798 9.91995 33.0198 9.91995 33.0498V33.0698C9.91995 33.0698 9.91995 33.0698 9.91995 33.0798C9.91995 33.0798 9.91995 33.0998 9.91995 33.1098C9.91995 33.5298 9.89995 33.9598 9.91995 34.3798C9.91995 34.5698 9.92995 34.7598 9.92995 34.9498C9.80995 34.9498 9.68995 34.9498 9.56995 34.9498C9.56995 34.8898 9.56995 34.8198 9.55995 34.7598V34.7198Z" fill="#80C62C"/>
<path d="M7.15982 18.7199C7.15982 18.7199 7.13981 18.6799 7.12981 18.6599C7.12981 18.6799 7.14982 18.6999 7.15982 18.7199ZM10.3498 34.6999C10.4198 33.4499 10.3898 32.1999 10.3498 30.9499C10.2498 29.3599 9.76982 29.0099 8.68982 27.8199C8.08982 26.9299 7.56981 25.9899 7.23981 24.9999C6.66981 23.2799 6.40982 21.4799 6.60982 19.6999C6.63982 19.4899 6.74982 18.0899 7.03982 18.2199C7.10982 18.2499 7.12981 18.3199 7.16981 18.3699C7.37981 18.7499 7.48981 19.1699 7.62981 19.5699C7.85981 20.2999 8.16981 20.9999 8.41981 21.7299C8.77981 22.8199 9.13982 23.9099 9.50982 24.9899C9.94982 26.4399 10.3098 27.9099 10.7598 29.3599C10.7898 30.0999 10.8798 30.8299 10.9298 31.5699C10.9298 31.6099 10.9298 31.6599 10.9298 31.6999C10.9498 32.0799 10.9298 32.4599 10.9298 32.8499C10.9298 32.8899 10.9298 32.9299 10.9298 32.9699C10.9298 32.9699 10.9298 33.0199 10.9298 33.0499C10.9298 33.0499 10.9298 33.0599 10.9298 33.0699C10.9298 33.0699 10.9298 33.0699 10.9298 33.0799C10.9298 33.1199 10.9298 33.1599 10.9298 33.1999C10.9298 33.7499 10.9498 34.2999 10.8898 34.8599C10.6998 34.8599 10.5098 34.8599 10.3198 34.8599C10.3198 34.8099 10.3198 34.7499 10.3198 34.6999H10.3498Z" fill="#80C62C"/>
<path d="M13.2901 22.87C13.2901 22.87 13.2901 22.78 13.2901 22.74C13.2901 22.79 13.2901 22.83 13.2901 22.88V22.87ZM12.0501 30.73C12.0501 30.67 12.0501 30.62 12.0601 30.56C12.0601 30.62 12.0601 30.68 12.0501 30.74V30.73ZM11.5701 34.85C11.6401 32.97 11.8301 31.1 11.7601 29.23C11.7601 29.23 11.7601 29.23 11.7601 29.22C11.7401 28.62 11.5901 28.02 11.4501 27.43C11.4501 27.17 11.4201 26.92 11.4001 26.66C11.3401 25.77 11.0601 24.9 10.9101 24.02C10.5101 22.02 10.1801 19.98 10.5901 17.97C10.6901 17.12 10.9101 16.28 11.2101 15.47C11.2801 15.35 11.3901 14.75 11.5901 14.94C11.7101 15.27 11.6901 15.63 11.8101 15.96C12.1201 16.9 12.5601 17.82 12.8401 18.77C13.1201 19.71 13.2601 20.67 13.3601 21.62C13.4401 22.39 13.5301 23.17 13.4901 23.95C13.3301 25.69 12.4201 27.33 12.3701 29.09C12.3101 30.24 12.1801 31.38 12.1101 32.53C12.0401 33.3 12.1501 34.08 12.0201 34.85C11.8701 34.85 11.7201 34.85 11.5701 34.85Z" fill="#80C62C"/>
<path d="M14.9401 21.17L14.9601 21.1C14.9601 21.1 14.9501 21.14 14.9401 21.16V21.17ZM13.0501 34.86C12.9201 34.86 12.7901 34.85 12.6601 34.85C12.4901 31.99 13.0201 29.13 13.8601 26.36C14.2901 24.63 14.3501 22.85 14.7701 21.11C14.7701 21.09 14.7701 21.08 14.7801 21.06C14.7801 21.04 14.7901 21.02 14.8001 21C14.8201 20.93 14.8301 20.86 14.8501 20.8C15.0601 20 15.4401 19.24 15.8701 18.51C15.9001 18.45 15.9401 18.4 15.9701 18.34C16.2201 17.93 16.4801 17.52 16.7501 17.11C16.7701 17.08 16.7801 17.06 16.8101 17.04C16.8901 16.98 17.0001 17.04 17.0001 17.12C17.0701 18.16 17.1301 19.2 17.1501 20.24C17.1801 21.05 17.0201 21.85 16.8501 22.64C16.6501 23.52 16.3701 24.4 15.9301 25.22C15.6201 25.79 15.2101 26.31 14.8801 26.87C14.3401 27.83 13.8801 28.83 13.5901 29.86C13.3601 30.76 13.3101 31.69 13.2401 32.61C13.2001 33.35 13.1101 34.09 13.1601 34.83C13.1301 34.83 13.1001 34.83 13.0701 34.83L13.0501 34.86Z" fill="#80C62C"/>
<path d="M13.7301 34.8999C13.6701 34.8999 13.6101 34.8999 13.5601 34.8999C13.6001 33.8099 13.7101 32.7099 13.8701 31.6299C14.0401 30.8499 14.3001 30.0799 14.4001 29.2799C14.6401 28.2599 15.2001 27.3199 15.6001 26.3399C15.9701 25.4399 16.6301 24.6699 17.2601 23.8899C17.4901 23.6099 17.6701 23.3099 17.9201 23.0499C18.3701 22.6399 18.7901 22.2099 19.2001 21.7699C19.3401 21.6499 19.4501 21.4799 19.6201 21.3899C19.8701 21.3599 19.7501 21.7999 19.7501 21.9199C19.6601 22.5499 19.4301 23.1599 19.1901 23.7699C18.8401 24.6799 18.4401 25.5799 17.8401 26.3999C17.3401 27.1199 16.8401 27.8499 16.2001 28.4999C15.7601 29.0099 15.4001 29.5599 15.0101 30.0899C14.4901 30.8199 14.3201 31.6499 14.2101 32.4799C14.0601 33.2899 13.9701 34.1099 13.9701 34.9299C13.8901 34.9299 13.8101 34.9299 13.7301 34.9199V34.8999Z" fill="#80C62C"/>
<path d="M16.5298 34C16.5298 34 16.5498 34.05 16.5498 34.07C16.5498 34.42 15.4998 34.66 14.0998 34.78C14.0698 34.78 14.0398 34.78 14.0198 34.78C13.9898 34.78 13.9698 34.78 13.9398 34.78C13.8498 34.78 13.7498 34.79 13.6498 34.8C13.6198 34.8 13.5798 34.8 13.5498 34.8C13.4198 34.8 13.2798 34.81 13.1498 34.82C13.0998 34.82 13.0498 34.82 12.9998 34.82C12.9398 34.82 12.8798 34.82 12.8298 34.82C12.7798 34.82 12.7298 34.82 12.6798 34.82C12.6198 34.82 12.5498 34.82 12.4898 34.82C12.4498 34.82 12.4198 34.82 12.3798 34.82C12.3598 34.82 12.3398 34.82 12.3098 34.82C12.2398 34.82 12.1698 34.82 12.0898 34.82C12.0698 34.82 12.0498 34.82 12.0298 34.82H11.8998C11.8398 34.82 11.7798 34.82 11.7198 34.82C11.6698 34.82 11.6098 34.82 11.5598 34.82C11.5398 34.82 11.5198 34.82 11.4998 34.82H11.4898C11.4898 34.82 11.4298 34.82 11.3998 34.82C11.2698 34.82 11.1298 34.82 10.9998 34.82C10.9498 34.82 10.9098 34.82 10.8598 34.82C10.5898 34.82 10.3198 34.8 10.0498 34.79C8.55977 34.71 7.31977 34.5 7.00977 34.19V35.59H16.6298V33.97H16.5298V34Z" fill="#D16811"/>
<path d="M16.0697 37.8699C16.0597 38.3199 14.1298 38.5599 12.1198 38.5799H12.0597C11.9997 38.5799 11.9397 38.5799 11.8797 38.5799C11.8097 38.5799 11.7397 38.5799 11.6797 38.5799C9.67975 38.5599 7.74975 38.3299 7.73975 37.8699" stroke="#1A1A1A" stroke-width="0.18" stroke-linecap="round" stroke-linejoin="round"/>
<path d="M11.6797 38.5799C11.6797 38.7699 8.52972 47.9499 7.21972 51.7799C7.13972 51.9999 6.75973 51.9399 6.76973 51.7199L7.73972 37.8799" stroke="#1A1A1A" stroke-width="0.18" stroke-linecap="round" stroke-linejoin="round"/>
<path d="M12.1396 38.5799C12.1396 38.7699 15.2896 47.9499 16.5996 51.7799C16.6796 51.9999 17.0597 51.9399 17.0497 51.7199L16.0797 37.8799" stroke="#1A1A1A" stroke-width="0.18" stroke-linecap="round" stroke-linejoin="round"/>
<path d="M48.0402 51.4099H3.72021V56.5299H48.0402V51.4099Z" fill="#4A4646"/>
<path d="M50.7799 54.5798H0.919922V56.5298H50.7799V54.5798Z" fill="#4A4646"/>
<path d="M51.71 31.1899H0V35.09H51.71V31.1899Z" fill="#4A4646"/>
<path d="M0.950195 34.1101L0.950195 55.55H1.87019L1.87019 34.1101H0.950195Z" fill="#4A4646"/>
<path d="M8.33008 34.1201L8.33008 55.5601H9.25008L9.25008 34.1201H8.33008Z" fill="#4A4646"/>
<path d="M16.6401 34.11V55.55H17.5601V34.11H16.6401Z" fill="#4A4646"/>
<path d="M24.9502 34.1101V55.55H25.8702V34.1101H24.9502Z" fill="#4A4646"/>
<path d="M33.2598 35.08V56.52H34.1798V35.08H33.2598Z" fill="#4A4646"/>
<path d="M41.5801 34.11V55.55H42.5001V34.11H41.5801Z" fill="#4A4646"/>
<path d="M49.8901 34.11V55.55H50.8101V34.11H49.8901Z" fill="#4A4646"/>
</svg>
