<svg width="47" height="52" viewBox="0 0 52 57" fill="none" xmlns="http://www.w3.org/2000/svg">
<path d="M47.88 0H4.27002V54.62H47.88V0Z" fill="#E13030"/>
<path d="M46.6198 1.56995H5.50977V53.06H46.6198V1.56995Z" fill="#4A4646"/>
<path d="M45.53 2.92004H6.75V52.62H45.53V2.92004Z" fill="#EBEBEB"/>
<mask id="mask0_56_12455" style="mask-type:luminance" maskUnits="userSpaceOnUse" x="6" y="2" width="40" height="51">
<path d="M45.53 2.92004H6.75V52.62H45.53V2.92004Z" fill="white"/>
</mask>
<g mask="url(#mask0_56_12455)">
</g>
<path d="M26.1899 2V54" stroke="#4A4646" stroke-width="0.75" stroke-miterlimit="10"/>
<path d="M48.2302 51.41H3.91016V56.53H48.2302V51.41Z" fill="#4A4646"/>
<path d="M50.9699 54.58H1.10986V56.53H50.9699V54.58Z" fill="#4A4646"/>
<path d="M51.8999 31.1899H0.189941V35.09H51.8999V31.1899Z" fill="#4A4646"/>
<path d="M1.14014 34.1099L1.14014 55.5499H2.06013L2.06013 34.1099H1.14014Z" fill="#4A4646"/>
<path d="M8.52002 34.1199L8.52002 55.5599H9.44002L9.44002 34.1199H8.52002Z" fill="#4A4646"/>
<path d="M16.8301 34.1099V55.5499H17.7501V34.1099H16.8301Z" fill="#4A4646"/>
<path d="M25.1401 34.1099V55.5499H26.0601V34.1099H25.1401Z" fill="#4A4646"/>
<path d="M33.4497 35.0799V56.5199H34.3697V35.0799H33.4497Z" fill="#4A4646"/>
<path d="M41.77 34.1099V55.5499H42.69V34.1099H41.77Z" fill="#4A4646"/>
<path d="M50.0801 34.1099V55.5499H51.0001V34.1099H50.0801Z" fill="#4A4646"/>
<path d="M1.08008 32.33V49.61H3.57008L6.31008 36.58L9.02008 49.61H11.5401V32.33H1.08008Z" fill="#2C4251"/>
<path d="M24.62 32.23L23.19 32.33C23.19 32.85 22.92 33.23 22.57 33.5C21.8 34.11 20.68 34.11 19.91 33.5C19.57 33.23 19.29 32.85 19.29 32.33L17.86 32.23C17.1 32.18 16.4 32.64 16.12 33.37L13.04 41.54L15.34 42.43L17.75 37.02V46.18H24.75V37.02L27.16 42.43L29.46 41.54L26.38 33.37C26.1 32.64 25.4 32.17 24.64 32.23H24.62Z" fill="#DB001E"/>
<path d="M39.2598 31.88C39.2598 31.88 44.9498 34.09 50.6798 31.88V45H39.2598V31.88Z" fill="white"/>
<path d="M29.8498 32.26V35.06C29.8498 35.06 28.3098 36.42 28.6698 36.98C28.9798 37.46 29.6698 37.05 30.3598 36.47C30.8698 36.04 31.1698 35.39 31.1698 34.71V32.27H29.8498V32.26Z" fill="#2C4251"/>
<path d="M32.4001 32.26V35.06C32.4001 35.06 30.8601 36.42 31.2201 36.98C31.5301 37.46 32.2201 37.05 32.9101 36.47C33.4201 36.04 33.7201 35.39 33.7201 34.71V32.27H32.4001V32.26Z" fill="#2C4251"/>
<path d="M36.74 32.26H35V37.94H36.74C36.74 37.94 36.77 36.03 37.68 35.1C36.78 34.16 36.74 32.26 36.74 32.26Z" fill="#D8939D"/>
<path d="M0 31.9H52" stroke="#D1D2D3" stroke-miterlimit="10"/>
<path d="M1.51978 32.65C1.64978 32.65 1.75978 32.54 1.75978 32.4V31.4C1.75978 31.26 1.64978 31.15 1.51978 31.15C1.38978 31.15 1.27979 31.26 1.27979 31.4V32.4C1.27979 32.54 1.38978 32.65 1.51978 32.65Z" fill="#5F6392"/>
<path d="M11.0999 32.65C11.2299 32.65 11.3399 32.54 11.3399 32.4V31.4C11.3399 31.26 11.2299 31.15 11.0999 31.15C10.9699 31.15 10.8599 31.26 10.8599 31.4V32.4C10.8599 32.54 10.9699 32.65 11.0999 32.65Z" fill="#5F6392"/>
<path d="M17.9202 32.61C18.0502 32.61 18.1602 32.5 18.1602 32.36V31.36C18.1602 31.22 18.0502 31.11 17.9202 31.11C17.7902 31.11 17.6802 31.22 17.6802 31.36V32.36C17.6802 32.5 17.7902 32.61 17.9202 32.61Z" fill="#5F6392"/>
<path d="M24.5501 32.61C24.6801 32.61 24.7901 32.5 24.7901 32.36V31.36C24.7901 31.22 24.6801 31.11 24.5501 31.11C24.4201 31.11 24.3101 31.22 24.3101 31.36V32.36C24.3101 32.5 24.4201 32.61 24.5501 32.61Z" fill="#5F6392"/>
<path d="M30.47 32.61C30.6 32.61 30.71 32.5 30.71 32.36V31.36C30.71 31.22 30.6 31.11 30.47 31.11C30.34 31.11 30.23 31.22 30.23 31.36V32.36C30.23 32.5 30.34 32.61 30.47 32.61Z" fill="#5F6392"/>
<path d="M33.03 32.61C33.16 32.61 33.27 32.5 33.27 32.36V31.36C33.27 31.22 33.16 31.11 33.03 31.11C32.9 31.11 32.79 31.22 32.79 31.36V32.36C32.79 32.5 32.9 32.61 33.03 32.61Z" fill="#5F6392"/>
<path d="M35.8699 32.61C35.9999 32.61 36.1099 32.5 36.1099 32.36V31.36C36.1099 31.22 35.9999 31.11 35.8699 31.11C35.7399 31.11 35.6299 31.22 35.6299 31.36V32.36C35.6299 32.5 35.7399 32.61 35.8699 32.61Z" fill="#5F6392"/>
<path d="M39.6799 32.61C39.8099 32.61 39.9199 32.5 39.9199 32.36V31.36C39.9199 31.22 39.8099 31.11 39.6799 31.11C39.5499 31.11 39.4399 31.22 39.4399 31.36V32.36C39.4399 32.5 39.5499 32.61 39.6799 32.61Z" fill="#5F6392"/>
<path d="M50.2 32.61C50.33 32.61 50.44 32.5 50.44 32.36V31.36C50.44 31.22 50.33 31.11 50.2 31.11C50.07 31.11 49.96 31.22 49.96 31.36V32.36C49.96 32.5 50.07 32.61 50.2 32.61Z" fill="#5F6392"/>
</svg>
