<svg width="50" height="57" viewBox="0 0 52 57" fill="none" xmlns="http://www.w3.org/2000/svg">
<path d="M49.4899 0H5.87988V54.62H49.4899V0Z" fill="#E13030"/>
<path d="M48.2301 1.57001H7.12012V53.06H48.2301V1.57001Z" fill="#4A4646"/>
<path d="M47.1404 2.91998H8.36035V52.62H47.1404V2.91998Z" fill="#EBEBEB"/>
<mask id="mask0_54_9146" style="mask-type:luminance" maskUnits="userSpaceOnUse" x="8" y="2" width="40" height="51">
<path d="M47.1404 2.91998H8.36035V52.62H47.1404V2.91998Z" fill="white"/>
</mask>
<path d="M48.3003 15.5H7.30029" stroke="#4A4646" stroke-width="0.75" stroke-miterlimit="10"/>
<path d="M51.8003 45H3.80029V56.53H51.8003V45Z" fill="#4A4646"/>
<path d="M19.3903 39.59H7.57031V40.58H19.3903V39.59Z" fill="#2C4251"/>
<path d="M17.5701 45.43H9.73009L8.1001 39.59H19.1501L17.5701 45.43Z" fill="#2C4251"/>
<path d="M19.0901 40.56C19.0901 40.56 16.7001 40.62 13.7401 40.62C10.7801 40.62 8.39014 40.59 8.39014 40.56C8.39014 40.53 10.7801 40.5 13.7401 40.5C16.7001 40.5 19.0901 40.53 19.0901 40.56Z" fill="#E0E0E0"/>
<path d="M19.3701 39.68C19.3701 39.68 26.1001 38.75 26.8601 35.54C27.3901 33.3 24.8201 32.11 24.8201 32.11C24.8201 32.11 26.0801 29.48 22.1201 28.21C19.5001 27.37 17.3801 28.62 17.3801 28.62C17.3801 28.62 14.2501 26.43 10.0501 27.61C7.15012 28.43 7.03012 30.52 7.03012 30.52C7.03012 30.52 5.82012 29.81 3.71012 30.83C1.60012 31.85 2.39012 33.71 2.39012 33.71C2.39012 33.71 -0.0198762 34.32 0.000123796 35.96C0.0301238 38.9 7.44012 39.69 7.44012 39.69H19.3701V39.68Z" fill="#80C62C"/>
<path d="M8.11 35.32C7.34 35.26 6.59 35.13 5.88 35.23C5.53 35.26 5.2 35.4 5.07 35.69C4.91 35.98 4.99 36.38 5.02 36.76C4.86 36.42 4.67 36.03 4.81 35.59C4.95 35.13 5.45 34.93 5.83 34.87C6.64 34.8 7.42 34.97 8.11 35.32Z" fill="#B0CC49"/>
<path d="M18.1303 31.6C17.8903 31.3 17.6503 31.02 17.3803 30.78C17.1103 30.54 16.8203 30.33 16.4903 30.26C16.1703 30.16 15.8303 30.2 15.5103 30.35C15.1803 30.48 14.8803 30.7 14.5703 30.92C14.6803 30.76 14.8003 30.61 14.9203 30.46C15.0703 30.34 15.2103 30.19 15.3903 30.1C15.7303 29.88 16.1803 29.82 16.5903 29.91C17.4003 30.17 17.9103 30.88 18.1303 31.6Z" fill="#B0CC49"/>
<path d="M21.9702 37.67C21.6702 37.07 21.3202 36.5 20.7702 36.25C20.5102 36.11 20.2002 36.06 19.8902 36.07C19.5702 36.07 19.2502 36.14 18.9102 36.19C19.0502 36.1 19.2002 36.02 19.3602 35.94C19.5202 35.89 19.6902 35.82 19.8602 35.8C20.2102 35.73 20.5902 35.8 20.9302 35.93C21.6002 36.28 21.9702 37 21.9702 37.67Z" fill="#B0CC49"/>
</svg>
