<svg width="48" height="57" viewBox="0 0 48 57" fill="none" xmlns="http://www.w3.org/2000/svg">
<path d="M45.6901 0H2.08008V54.62H45.6901V0Z" fill="#E13030"/>
<path d="M44.4298 1.56999H3.31982V53.06H44.4298V1.56999Z" fill="#4A4646"/>
<path d="M43.3401 2.92H4.56006V52.62H43.3401V2.92Z" fill="#EBEBEB"/>
<mask id="mask0_54_5785" style="mask-type:luminance" maskUnits="userSpaceOnUse" x="4" y="2" width="40" height="51">
<path d="M43.3401 2.92H4.56006V52.62H43.3401V2.92Z" fill="white"/>
</mask>
<path d="M44.5 15.5H3.5" stroke="#4A4646" stroke-width="0.75" stroke-miterlimit="10"/>
<path d="M24.5 54.5V2" stroke="#4A4646" stroke-width="0.75" stroke-miterlimit="10"/>
<path d="M48 45H0V56.53H48V45Z" fill="#4A4646"/>
<path d="M39.1598 38.44C39.0998 37.6 38.8798 35.56 38.1598 34.92C37.6798 34.48 36.8198 34.41 35.5498 34.7C35.4998 34.71 35.4498 34.72 35.3998 34.74L35.3698 34.4V34.29L35.3498 34.17V34.08L35.3298 33.97L35.3098 33.77L35.2698 33.3H27.0098L26.9598 33.72L26.9298 33.98V34.02L26.8998 34.17L26.8798 34.29V34.4L26.4598 37.59C26.2798 37.48 26.0998 37.36 25.9398 37.21C25.8398 37.12 25.7498 37.03 25.6598 36.93C25.5598 36.83 25.4898 36.75 25.4098 36.64C25.2598 36.42 25.0998 36.15 24.9398 35.87C24.7698 35.59 24.5898 35.29 24.3698 35.01C24.1398 34.73 23.8698 34.46 23.5598 34.25C23.2398 34.03 22.8898 33.88 22.5298 33.8C22.1698 33.71 21.8098 33.68 21.4698 33.69C21.3498 33.98 21.3398 34.26 21.4398 34.53C21.7298 34.56 22.0098 34.62 22.2498 34.71C22.4998 34.8 22.7298 34.93 22.9198 35.1C23.3098 35.43 23.5598 35.91 23.8098 36.47C23.9398 36.75 24.0598 37.05 24.2398 37.38C24.2898 37.46 24.3298 37.54 24.3898 37.62L24.4298 37.68L24.4698 37.74C24.4698 37.74 24.5198 37.82 24.5498 37.85C24.6598 38 24.7698 38.14 24.8998 38.28C25.1498 38.55 25.4298 38.8 25.7298 39.02C25.8798 39.13 26.0398 39.23 26.2098 39.32C26.2098 39.32 26.2198 39.32 26.2298 39.33L25.6998 43.45L25.6598 43.76L25.6198 44.05L25.5798 44.3V44.36L25.5498 44.52L25.3998 45.53H36.3098L36.2098 44.52V44.36L36.1898 44.3L36.1698 44.05V44.03L36.1398 43.72L36.0798 42.96C36.1298 42.96 36.1898 42.96 36.2498 42.96C37.1198 42.98 38.1598 42.84 38.6798 42.16C39.2998 41.35 39.2198 39.3 39.1498 38.45L39.1598 38.44ZM37.8598 41.52C37.5898 41.88 36.7798 41.96 35.9998 41.9L35.4898 35.77C36.3798 35.54 37.2198 35.46 37.4698 35.68C37.6598 35.85 38.0098 36.88 38.1298 38.51C38.2498 40.09 38.0798 41.23 37.8598 41.52Z" fill="#5694FF"/>
<path opacity="0.2" d="M35.3596 34.28H26.8896L26.8997 34.16L26.9196 34.01L26.9296 33.97H35.3397L35.3496 34.07V34.16L35.3596 34.28Z" fill="#F2F2F2"/>
<path opacity="0.2" d="M36.2096 44.34H25.5796L25.5896 44.28L25.6296 44.03H36.1796L36.1996 44.28L36.2096 44.34Z" fill="#F2F2F2"/>
<path d="M22.0298 34.11C22.0298 34.72 21.6998 35.22 21.2898 35.22C20.8798 35.22 20.5498 34.72 20.5498 34.11C20.5498 33.5 20.8798 33 21.2898 33C21.6998 33 22.0298 33.5 22.0298 34.11Z" fill="#73A9A5"/>
<path d="M22.7296 33.83C22.7296 33.83 22.2096 33.27 21.3696 33V35.21C21.3696 35.21 22.0896 35.06 22.3196 34.94C22.5396 34.81 22.8396 35 22.8396 35L22.7296 33.83Z" fill="#73A9A5"/>
<path d="M12.7698 30.41C11.6298 30.21 9.02977 29.3 8.46977 25.22C8.40977 24.79 8.85977 24.45 9.24977 24.64C10.7698 25.4 13.7198 27.23 13.4098 29.9C13.3698 30.22 13.0798 30.46 12.7598 30.4L12.7698 30.41Z" fill="#89B731"/>
<path opacity="0.4" d="M12.7698 30.41C11.6298 30.21 9.02977 29.3 8.46977 25.22C8.40977 24.79 8.85977 24.45 9.24977 24.64C10.7698 25.4 13.7198 27.23 13.4098 29.9C13.3698 30.22 13.0798 30.46 12.7598 30.4L12.7698 30.41Z" fill="#89B731"/>
<path d="M12.22 25.9C11.22 25.58 8.98996 24.46 8.95996 20.73C8.95996 20.33 9.39997 20.08 9.72997 20.3C11.01 21.16 13.45 23.16 12.86 25.52C12.79 25.81 12.5 25.98 12.22 25.89V25.9Z" fill="#89B731"/>
<path opacity="0.4" d="M12.22 25.9C11.22 25.58 8.98996 24.46 8.95996 20.73C8.95996 20.33 9.39997 20.08 9.72997 20.3C11.01 21.16 13.45 23.16 12.86 25.52C12.79 25.81 12.5 25.98 12.22 25.89V25.9Z" fill="#89B731"/>
<path d="M12.7499 24.07C13.6999 23.41 15.6899 21.49 14.5099 17.56C14.3799 17.14 13.8299 17.02 13.5599 17.36C12.4899 18.69 10.5699 21.59 11.9499 23.89C12.1199 24.17 12.4799 24.26 12.7499 24.08V24.07Z" fill="#89B731"/>
<path opacity="0.4" d="M12.7499 24.07C13.6999 23.41 15.6899 21.49 14.5099 17.56C14.3799 17.14 13.8299 17.02 13.5599 17.36C12.4899 18.69 10.5699 21.59 11.9499 23.89C12.1199 24.17 12.4799 24.26 12.7499 24.08V24.07Z" fill="#89B731"/>
<path d="M11.2096 21.05C10.4496 20.52 8.86961 18.99 9.80961 15.85C9.90961 15.51 10.3496 15.42 10.5696 15.69C11.4196 16.75 12.9496 19.07 11.8496 20.9C11.7196 21.12 11.4296 21.2 11.2096 21.05Z" fill="#89B731"/>
<path opacity="0.4" d="M11.2096 21.05C10.4496 20.52 8.86961 18.99 9.80961 15.85C9.90961 15.51 10.3496 15.42 10.5696 15.69C11.4196 16.75 12.9496 19.07 11.8496 20.9C11.7196 21.12 11.4296 21.2 11.2096 21.05Z" fill="#89B731"/>
<path d="M13.3798 29.79C14.4198 29.27 16.6498 27.66 16.0398 23.59C15.9698 23.16 15.4498 22.96 15.1298 23.26C13.8898 24.42 11.5798 27.02 12.6198 29.49C12.7498 29.79 13.0898 29.93 13.3798 29.79Z" fill="#89B731"/>
<path opacity="0.4" d="M13.3798 29.79C14.4198 29.27 16.6498 27.66 16.0398 23.59C15.9698 23.16 15.4498 22.96 15.1298 23.26C13.8898 24.42 11.5798 27.02 12.6198 29.49C12.7498 29.79 13.0898 29.93 13.3798 29.79Z" fill="#89B731"/>
<path d="M12.2798 34.4C12.2798 34.4 12.2398 34.4 12.2198 34.4C12.0998 34.37 12.0198 34.24 12.0598 34.11C14.2098 26.24 10.1398 16.8 10.0998 16.71C10.0498 16.59 10.0998 16.45 10.2198 16.4C10.3398 16.35 10.4798 16.4 10.5298 16.52C10.5698 16.62 14.7098 26.21 12.5098 34.24C12.4798 34.34 12.3898 34.41 12.2798 34.41V34.4Z" fill="#89B731"/>
<g opacity="0.4">
<path d="M12.2798 34.4C12.2798 34.4 12.2398 34.4 12.2198 34.4C12.0998 34.37 12.0198 34.24 12.0598 34.11C14.2098 26.24 10.1398 16.8 10.0998 16.71C10.0498 16.59 10.0998 16.45 10.2198 16.4C10.3398 16.35 10.4798 16.4 10.5298 16.52C10.5698 16.62 14.7098 26.21 12.5098 34.24C12.4798 34.34 12.3898 34.41 12.2798 34.41V34.4Z" fill="#89B731"/>
</g>
<path d="M19.91 33.8L17.25 45H7.65L5 33.8H19.91Z" fill="#A4C9FF"/>
</svg>
