<svg width="48" height="57" viewBox="0 0 48 57" fill="none" xmlns="http://www.w3.org/2000/svg">
<path d="M45.6901 0H2.08008V54.62H45.6901V0Z" fill="#E13030"/>
<path d="M44.4298 1.57001H3.31982V53.06H44.4298V1.57001Z" fill="#4A4646"/>
<path d="M43.3401 2.91998H4.56006V52.62H43.3401V2.91998Z" fill="#EBEBEB"/>
<mask id="mask0_54_7471" style="mask-type:luminance" maskUnits="userSpaceOnUse" x="4" y="2" width="40" height="51">
<path d="M43.3401 2.91998H4.56006V52.62H43.3401V2.91998Z" fill="white"/>
</mask>
<g mask="url(#mask0_54_7471)">
</g>
<path d="M44.5 15.5H3.5" stroke="#4A4646" stroke-width="0.75" stroke-miterlimit="10"/>
<path d="M24.5 54.5V2" stroke="#4A4646" stroke-width="0.75" stroke-miterlimit="10"/>
<path d="M48 45H0V56.53H48V45Z" fill="#4A4646"/>
<path d="M8.98975 30.92L11.6397 45H16.3097L18.6998 31.17L8.98975 30.92Z" fill="#A4C9FF"/>
<path d="M9.67969 32.96H18.2597" stroke="#FFF7F2" stroke-width="1.12" stroke-linecap="round" stroke-linejoin="round"/>
<path d="M19.2497 29.71C19.0297 29.56 18.7597 29.53 18.5097 29.63C17.8997 29.87 17.2697 29.31 17.4497 28.67C17.5197 28.42 17.4697 28.15 17.2997 27.95C16.8797 27.44 17.2297 26.68 17.8897 26.65C18.1497 26.65 18.3897 26.5 18.5297 26.28C18.8797 25.73 19.7197 25.82 19.9497 26.44C20.0397 26.69 20.2397 26.87 20.4997 26.94C21.1397 27.1 21.3097 27.93 20.7897 28.33C20.5797 28.49 20.4697 28.74 20.4897 29C20.5297 29.66 19.7997 30.07 19.2497 29.71Z" fill="#ED939E"/>
<path d="M19.1198 28.68C19.5837 28.68 19.9598 28.3039 19.9598 27.84C19.9598 27.3761 19.5837 27 19.1198 27C18.6559 27 18.2798 27.3761 18.2798 27.84C18.2798 28.3039 18.6559 28.68 19.1198 28.68Z" fill="#FFEB00"/>
<path d="M8.70987 28.96C8.98987 29.18 9.29987 29.4 9.64987 29.47C9.99987 29.54 10.4199 29.41 10.5799 29.09C10.6799 28.9 10.6699 28.68 10.6599 28.46C10.4999 26.48 9.42987 24.66 8.03987 23.25C6.64987 21.83 3.72987 21.26 4.82987 24.15C5.50987 25.95 7.22987 27.78 8.70987 28.96Z" fill="#87B532"/>
<path d="M13.1 28.69C13.23 28.98 13.38 29.27 13.62 29.46C13.87 29.65 14.24 29.72 14.5 29.54C14.65 29.43 14.74 29.26 14.81 29.08C15.49 27.48 15.39 25.64 14.88 23.98C14.37 22.32 12.33 20.71 12.02 23.4C11.83 25.07 12.42 27.18 13.1 28.69Z" fill="#87B532"/>
<path d="M17.2297 28.18C17.2097 28.49 17.2097 28.82 17.3497 29.11C17.4797 29.4 17.7897 29.62 18.0997 29.58C18.2797 29.55 18.4397 29.43 18.5797 29.31C19.9097 28.19 20.6497 26.5 20.9497 24.79C21.2497 23.08 20.1597 20.73 18.6597 22.98C17.7297 24.39 17.3097 26.53 17.2297 28.18Z" fill="#87B532"/>
<path d="M14.8 24.84C14.78 25.15 14.78 25.48 14.92 25.77C15.05 26.06 15.36 26.28 15.67 26.24C15.85 26.21 16.01 26.09 16.15 25.97C17.48 24.85 18.22 23.16 18.52 21.45C18.82 19.74 17.73 17.39 16.23 19.64C15.3 21.05 14.88 23.19 14.8 24.84Z" fill="#87B532"/>
<path d="M11.1698 26.32C11.3698 26.56 11.5898 26.8 11.8798 26.92C12.1698 27.04 12.5498 27.01 12.7498 26.76C12.8698 26.61 12.8998 26.42 12.9298 26.24C13.1498 24.52 12.5598 22.77 11.6198 21.31C10.6798 19.85 8.27976 18.84 8.70976 21.51C8.96976 23.17 10.1198 25.04 11.1798 26.31L11.1698 26.32Z" fill="#87B532"/>
<path d="M16.3397 29.71C16.1097 29.98 15.8697 30.28 15.7897 30.63C15.7097 30.98 15.8197 31.4 16.1397 31.57C16.3297 31.67 16.5497 31.68 16.7597 31.67C18.7497 31.58 20.6097 30.58 22.0797 29.25C23.5497 27.92 24.2297 25.03 21.2897 26.02C19.4597 26.64 17.5697 28.28 16.3397 29.71Z" fill="#87B532"/>
<path d="M14.1897 30.54C14.1897 30.9 14.1897 31.27 14.3597 31.59C14.5197 31.91 14.8797 32.16 15.2297 32.09C15.4397 32.05 15.6097 31.91 15.7697 31.77C17.2397 30.43 18.0197 28.47 18.2897 26.51C18.5597 24.55 17.2197 21.9 15.5997 24.54C14.5997 26.18 14.1997 28.65 14.1797 30.54H14.1897Z" fill="#87B532"/>
<path d="M12.8099 31.48C13.0699 31.73 13.3599 31.97 13.7099 32.07C14.0599 32.17 14.4799 32.07 14.6699 31.77C14.7799 31.59 14.7999 31.37 14.7999 31.15C14.7999 29.17 13.8899 27.27 12.6199 25.74C11.3499 24.22 8.48994 23.41 9.34994 26.38C9.87994 28.23 11.4399 30.19 12.8199 31.48H12.8099Z" fill="#87B532"/>
<path d="M10.8197 31.96C11.1697 32.06 11.5297 32.15 11.8797 32.08C12.2297 32.01 12.5697 31.74 12.6097 31.38C12.6297 31.17 12.5397 30.96 12.4497 30.77C11.5697 28.99 9.88973 27.7 8.06973 26.9C6.24973 26.1 3.32973 26.65 5.42973 28.93C6.73973 30.35 9.00973 31.4 10.8197 31.95V31.96Z" fill="#87B532"/>
<path d="M13.78 27.48C13.61 27.51 13.47 27.63 13.4 27.78C13.23 28.18 12.67 28.2 12.46 27.82C12.38 27.67 12.22 27.57 12.05 27.55C11.62 27.51 11.42 26.99 11.72 26.68C11.84 26.55 11.89 26.38 11.85 26.21C11.76 25.79 12.19 25.44 12.58 25.62C12.74 25.69 12.92 25.68 13.07 25.6C13.44 25.38 13.91 25.68 13.85 26.11C13.83 26.28 13.89 26.45 14.02 26.56C14.34 26.85 14.2 27.38 13.77 27.46L13.78 27.48Z" fill="#0087FF"/>
<path d="M12.8498 27.22C13.1536 27.22 13.3998 26.9738 13.3998 26.67C13.3998 26.3662 13.1536 26.12 12.8498 26.12C12.546 26.12 12.2998 26.3662 12.2998 26.67C12.2998 26.9738 12.546 27.22 12.8498 27.22Z" fill="#FFEB00"/>
<path d="M9.64991 25.9C9.38991 25.95 9.17991 26.12 9.06991 26.36C8.80991 26.96 7.9599 27.01 7.6399 26.43C7.5099 26.2 7.27991 26.05 7.01991 26.02C6.35991 25.96 6.05991 25.17 6.50991 24.69C6.68991 24.5 6.7599 24.23 6.7099 23.98C6.5699 23.34 7.22991 22.81 7.82991 23.09C8.06991 23.2 8.34991 23.19 8.56991 23.05C9.13991 22.72 9.84991 23.18 9.76991 23.83C9.73991 24.09 9.8399 24.35 10.0299 24.52C10.5299 24.96 10.2999 25.77 9.64991 25.9Z" fill="#0087FF"/>
<path d="M8.22989 25.51C8.69933 25.51 9.07989 25.1294 9.07989 24.66C9.07989 24.1905 8.69933 23.81 8.22989 23.81C7.76045 23.81 7.37988 24.1905 7.37988 24.66C7.37988 25.1294 7.76045 25.51 8.22989 25.51Z" fill="#FFEB00"/>
<path d="M19.46 29.54C19.28 29.42 19.05 29.39 18.85 29.47C18.34 29.67 17.82 29.2 17.97 28.67C18.03 28.46 17.98 28.24 17.84 28.07C17.49 27.65 17.78 27.01 18.33 26.99C18.55 26.99 18.75 26.87 18.87 26.68C19.17 26.22 19.86 26.29 20.05 26.81C20.12 27.01 20.3 27.17 20.51 27.22C21.04 27.36 21.18 28.04 20.75 28.38C20.58 28.51 20.48 28.72 20.5 28.94C20.53 29.49 19.92 29.83 19.47 29.53L19.46 29.54Z" fill="#ED939E"/>
<path d="M19.3499 28.68C19.7365 28.68 20.0499 28.3666 20.0499 27.98C20.0499 27.5934 19.7365 27.28 19.3499 27.28C18.9633 27.28 18.6499 27.5934 18.6499 27.98C18.6499 28.3666 18.9633 28.68 19.3499 28.68Z" fill="#FFEB00"/>
<path d="M16.43 27.84C16.35 27.79 16.25 27.78 16.17 27.81C15.95 27.9 15.73 27.69 15.79 27.47C15.82 27.38 15.79 27.28 15.74 27.21C15.59 27.03 15.71 26.75 15.95 26.75C16.04 26.75 16.13 26.7 16.18 26.62C16.31 26.42 16.61 26.45 16.69 26.68C16.72 26.77 16.8 26.83 16.89 26.86C17.12 26.92 17.18 27.21 16.99 27.36C16.92 27.42 16.88 27.51 16.88 27.6C16.89 27.84 16.63 27.98 16.44 27.85L16.43 27.84Z" fill="#ED939E"/>
<path d="M16.3898 27.47C16.5555 27.47 16.6898 27.3357 16.6898 27.17C16.6898 27.0043 16.5555 26.87 16.3898 26.87C16.2242 26.87 16.0898 27.0043 16.0898 27.17C16.0898 27.3357 16.2242 27.47 16.3898 27.47Z" fill="#FFEB00"/>
<path d="M15.72 22.75C15.64 22.7 15.54 22.69 15.46 22.72C15.24 22.81 15.02 22.6 15.08 22.38C15.11 22.29 15.08 22.19 15.03 22.12C14.88 21.94 15 21.66 15.24 21.66C15.33 21.66 15.42 21.61 15.47 21.53C15.6 21.33 15.9 21.36 15.98 21.59C16.01 21.68 16.09 21.74 16.18 21.77C16.41 21.83 16.47 22.12 16.28 22.27C16.21 22.33 16.17 22.42 16.17 22.51C16.18 22.75 15.92 22.89 15.73 22.76L15.72 22.75Z" fill="#ED939E"/>
<path d="M15.6696 22.38C15.8353 22.38 15.9696 22.2457 15.9696 22.08C15.9696 21.9143 15.8353 21.78 15.6696 21.78C15.5039 21.78 15.3696 21.9143 15.3696 22.08C15.3696 22.2457 15.5039 22.38 15.6696 22.38Z" fill="#FFEB00"/>
<path d="M11.0599 26.47C10.9799 26.42 10.8799 26.41 10.7999 26.44C10.5799 26.53 10.3599 26.32 10.4199 26.1C10.4499 26.01 10.4199 25.91 10.3699 25.84C10.2199 25.66 10.3399 25.38 10.5799 25.38C10.6699 25.38 10.7599 25.33 10.8099 25.25C10.9399 25.05 11.2399 25.08 11.3199 25.31C11.3499 25.4 11.4299 25.46 11.5199 25.49C11.7499 25.55 11.8099 25.84 11.6199 25.99C11.5499 26.05 11.5099 26.14 11.5099 26.23C11.5199 26.47 11.2599 26.61 11.0699 26.48L11.0599 26.47Z" fill="#ED939E"/>
<path d="M11.01 26.1C11.1756 26.1 11.31 25.9657 11.31 25.8C11.31 25.6343 11.1756 25.5 11.01 25.5C10.8443 25.5 10.71 25.6343 10.71 25.8C10.71 25.9657 10.8443 26.1 11.01 26.1Z" fill="#FFEB00"/>
<path d="M12.3896 24.86C12.2096 24.74 11.9796 24.71 11.7796 24.79C11.2696 24.99 10.7496 24.52 10.8996 23.99C10.9596 23.78 10.9096 23.56 10.7696 23.39C10.4196 22.97 10.7096 22.33 11.2596 22.31C11.4796 22.31 11.6796 22.19 11.7996 22C12.0996 21.54 12.7896 21.61 12.9796 22.13C13.0496 22.33 13.2296 22.49 13.4396 22.54C13.9696 22.68 14.1096 23.36 13.6796 23.7C13.5096 23.83 13.4096 24.04 13.4296 24.26C13.4596 24.81 12.8496 25.15 12.3996 24.85L12.3896 24.86Z" fill="#ED939E"/>
<path d="M12.2801 24.01C12.6667 24.01 12.9801 23.6966 12.9801 23.31C12.9801 22.9234 12.6667 22.61 12.2801 22.61C11.8935 22.61 11.5801 22.9234 11.5801 23.31C11.5801 23.6966 11.8935 24.01 12.2801 24.01Z" fill="#FFEB00"/>
<path d="M9.79004 29.98C9.61004 29.86 9.38004 29.83 9.18004 29.91C8.67004 30.11 8.15004 29.64 8.30004 29.11C8.36004 28.9 8.31004 28.68 8.17004 28.51C7.82004 28.09 8.11004 27.45 8.66004 27.43C8.88004 27.43 9.08004 27.31 9.20004 27.12C9.50004 26.66 10.19 26.73 10.38 27.25C10.45 27.45 10.63 27.61 10.84 27.66C11.37 27.8 11.51 28.48 11.08 28.82C10.91 28.95 10.81 29.16 10.83 29.38C10.86 29.93 10.25 30.27 9.80004 29.97L9.79004 29.98Z" fill="white"/>
<path d="M9.67998 29.12C10.0666 29.12 10.38 28.8066 10.38 28.42C10.38 28.0334 10.0666 27.72 9.67998 27.72C9.29338 27.72 8.97998 28.0334 8.97998 28.42C8.97998 28.8066 9.29338 29.12 9.67998 29.12Z" fill="#FFEB00"/>
<path d="M15.29 30.52L15.15 30.42C14.99 30.31 14.78 30.29 14.6 30.36L14.44 30.42C13.98 30.6 13.52 30.18 13.65 29.71L13.7 29.54C13.75 29.35 13.71 29.15 13.59 29L13.48 28.87C13.17 28.49 13.43 27.92 13.92 27.9H14.09C14.29 27.89 14.47 27.78 14.57 27.62L14.66 27.47C14.92 27.06 15.55 27.12 15.72 27.59L15.78 27.75C15.85 27.93 16 28.07 16.19 28.12L16.36 28.16C16.84 28.28 16.97 28.9 16.58 29.2L16.44 29.31C16.29 29.43 16.2 29.62 16.21 29.81V29.98C16.25 30.47 15.7 30.78 15.29 30.51V30.52Z" fill="white"/>
<path d="M15.0696 29.58C15.4562 29.58 15.7696 29.2666 15.7696 28.88C15.7696 28.4934 15.4562 28.18 15.0696 28.18C14.683 28.18 14.3696 28.4934 14.3696 28.88C14.3696 29.2666 14.683 29.58 15.0696 29.58Z" fill="#FFEB00"/>
<path d="M15.0597 25.78L14.9797 25.73C14.8897 25.67 14.7697 25.66 14.6697 25.7L14.5797 25.74C14.3197 25.84 14.0597 25.6 14.1397 25.34L14.1697 25.25C14.1997 25.15 14.1697 25.03 14.1097 24.95L14.0497 24.88C13.8797 24.67 14.0197 24.35 14.2897 24.34H14.3897C14.4997 24.34 14.5997 24.28 14.6597 24.18L14.7097 24.1C14.8597 23.87 15.2097 23.91 15.2997 24.16L15.3297 24.25C15.3697 24.35 15.4497 24.43 15.5597 24.46L15.6497 24.48C15.9197 24.55 15.9897 24.89 15.7697 25.06L15.6897 25.12C15.5997 25.19 15.5597 25.29 15.5597 25.4V25.5C15.5797 25.77 15.2797 25.95 15.0497 25.79L15.0597 25.78Z" fill="white"/>
<path d="M14.93 25.26C15.1454 25.26 15.32 25.0854 15.32 24.87C15.32 24.6546 15.1454 24.48 14.93 24.48C14.7146 24.48 14.54 24.6546 14.54 24.87C14.54 25.0854 14.7146 25.26 14.93 25.26Z" fill="#FFEB00"/>
<path d="M9.9699 23.37L9.8899 23.32C9.7999 23.26 9.6799 23.25 9.5799 23.29L9.4899 23.33C9.2299 23.43 8.96991 23.19 9.04991 22.93L9.0799 22.84C9.1099 22.74 9.07991 22.62 9.01991 22.54L8.9599 22.47C8.7899 22.26 8.92991 21.94 9.19991 21.93H9.29991C9.40991 21.93 9.5099 21.87 9.5699 21.77L9.6199 21.69C9.7699 21.46 10.1199 21.5 10.2099 21.75L10.2399 21.84C10.2799 21.94 10.3599 22.02 10.4699 22.05L10.5599 22.07C10.8299 22.14 10.8999 22.48 10.6799 22.65L10.5999 22.71C10.5099 22.78 10.4699 22.88 10.4699 22.99V23.09C10.4899 23.36 10.1899 23.54 9.9599 23.38L9.9699 23.37Z" fill="white"/>
<path d="M9.84996 22.85C10.0654 22.85 10.24 22.6754 10.24 22.46C10.24 22.2446 10.0654 22.07 9.84996 22.07C9.63457 22.07 9.45996 22.2446 9.45996 22.46C9.45996 22.6754 9.63457 22.85 9.84996 22.85Z" fill="#FFEB00"/>
<path d="M6.99969 28.1L6.91969 28.05C6.82969 27.99 6.70969 27.98 6.60969 28.02L6.51969 28.06C6.25969 28.16 5.99969 27.92 6.07969 27.66L6.10969 27.57C6.13969 27.47 6.10969 27.35 6.04969 27.27L5.98969 27.2C5.81969 26.99 5.95969 26.67 6.22969 26.66H6.32969C6.43969 26.66 6.53969 26.6 6.59969 26.5L6.64969 26.42C6.79969 26.19 7.14969 26.23 7.23969 26.48L7.26969 26.57C7.30969 26.67 7.38969 26.75 7.49969 26.78L7.58969 26.8C7.85969 26.87 7.92969 27.21 7.70969 27.38L7.62969 27.44C7.53969 27.51 7.49969 27.61 7.49969 27.72V27.82C7.51969 28.09 7.21969 28.27 6.98969 28.11L6.99969 28.1Z" fill="white"/>
<path d="M6.87975 27.57C7.09514 27.57 7.26975 27.3954 7.26975 27.18C7.26975 26.9646 7.09514 26.79 6.87975 26.79C6.66435 26.79 6.48975 26.9646 6.48975 27.18C6.48975 27.3954 6.66435 27.57 6.87975 27.57Z" fill="#FFEB00"/>
<path d="M22.36 28.18L22.28 28.13C22.19 28.07 22.07 28.06 21.97 28.1L21.88 28.14C21.62 28.24 21.36 28 21.44 27.74L21.47 27.65C21.5 27.55 21.47 27.43 21.41 27.35L21.35 27.28C21.18 27.07 21.32 26.75 21.59 26.74H21.69C21.8 26.74 21.9 26.68 21.96 26.58L22.01 26.5C22.16 26.27 22.51 26.31 22.6 26.56L22.63 26.65C22.67 26.75 22.75 26.83 22.86 26.86L22.95 26.88C23.22 26.95 23.29 27.29 23.07 27.46L22.99 27.52C22.9 27.59 22.86 27.69 22.86 27.8V27.9C22.88 28.17 22.58 28.35 22.35 28.19L22.36 28.18Z" fill="white"/>
<path d="M22.2298 27.66C22.4452 27.66 22.6198 27.4854 22.6198 27.27C22.6198 27.0546 22.4452 26.88 22.2298 26.88C22.0145 26.88 21.8398 27.0546 21.8398 27.27C21.8398 27.4854 22.0145 27.66 22.2298 27.66Z" fill="#FFEB00"/>
<path d="M18.0298 25.53C17.8498 25.41 17.6198 25.38 17.4198 25.46C16.9098 25.66 16.3898 25.19 16.5398 24.66C16.5998 24.45 16.5498 24.23 16.4098 24.06C16.0598 23.64 16.3498 23 16.8998 22.98C17.1198 22.98 17.3198 22.86 17.4398 22.67C17.7398 22.21 18.4298 22.28 18.6198 22.8C18.6898 23 18.8698 23.16 19.0798 23.21C19.6098 23.35 19.7498 24.03 19.3198 24.37C19.1498 24.5 19.0498 24.71 19.0698 24.93C19.0998 25.48 18.4898 25.82 18.0398 25.52L18.0298 25.53Z" fill="white"/>
<path d="M17.9197 24.67C18.3063 24.67 18.6197 24.3566 18.6197 23.97C18.6197 23.5834 18.3063 23.27 17.9197 23.27C17.5331 23.27 17.2197 23.5834 17.2197 23.97C17.2197 24.3566 17.5331 24.67 17.9197 24.67Z" fill="#FFEB00"/>
</svg>
