<svg width="205" height="74" viewBox="0 0 205 74" fill="none" xmlns="http://www.w3.org/2000/svg">
<path d="M9.50996 41.9507C9.50996 41.9507 9.33679 41.9507 9.2502 41.9507L8.55746 42.2682C8.21109 42.4414 7.86473 42.6723 7.54723 42.9609H7.46065C7.46065 42.9609 7.28748 42.9609 7.20088 42.9609L6.50814 43.2784C3.997 44.4907 1.97656 48.9068 1.97656 53.1498V73.845H6.33497L8.41315 72.8348V52.1395C8.41315 47.8966 10.4336 43.4516 12.9447 42.2682L13.6086 41.9507H9.53883H9.50996Z" fill="#333536"/>
<path d="M26.77 3.09985V25.9021C26.77 28.5864 25.9618 31.3573 24.7207 33.3201H31.0996C31.0996 33.3201 33.2355 30.8378 33.2355 24.8919V3.09985H26.7989H26.77Z" fill="#333536"/>
<path d="M195.449 41.9507C195.449 41.9507 195.622 41.9507 195.709 41.9507L196.402 42.2682C196.748 42.4414 197.094 42.6723 197.412 42.9609H197.499C197.499 42.9609 197.672 42.9609 197.758 42.9609L198.451 43.2784C200.962 44.4907 202.983 48.9068 202.983 53.1498V73.845H198.624L196.546 72.8348V52.1395C196.546 47.8966 194.526 43.4516 192.014 42.2682L191.351 41.9507H195.42H195.449Z" fill="#333536"/>
<path d="M26.8281 42.4407V62.0968H31.1865L33.2647 61.0866V42.4407H26.8281Z" fill="#333536"/>
<path d="M178.189 3.09985V25.9021C178.189 28.5864 178.997 31.3573 180.238 33.3201H173.86C173.86 33.3201 171.724 30.8378 171.724 24.8919V3.09985H178.16H178.189Z" fill="#333536"/>
<path d="M187.801 0.415527H16.8701V4.11007H187.801V0.415527Z" fill="#333536"/>
<path d="M187.801 6.96631H16.8701V10.6609H187.801V6.96631Z" fill="#333536"/>
<path d="M187.801 13.5479H16.8701V17.2424H187.801V13.5479Z" fill="#333536"/>
<path d="M187.801 20.1013H16.8701V23.7959H187.801V20.1013Z" fill="#333536"/>
<path d="M187.801 26.6521H16.8701V30.3466H187.801V26.6521Z" fill="#333536"/>
<path d="M189.705 33.983L187.8 33.0593H16.8699L14.9648 33.983H189.676H189.705Z" fill="#333536"/>
<path d="M192.101 35.0518H12.7137L10.751 36.0042H194.064L192.101 35.0518Z" fill="#333536"/>
<path d="M196.864 37.2451H8.09554L6.13281 38.1976H198.826L196.864 37.2451Z" fill="#333536"/>
<path d="M202.146 39.6995H2.81353L0.735352 40.7097V43.7692H204.224V40.7097L202.146 39.6995Z" fill="#333536"/>
<path d="M178.16 42.4402V62.0963H173.773L171.723 61.0861H171.694V42.4402H178.16Z" fill="#333536"/>
</svg>
