<svg width="44" height="42" viewBox="0 0 44 42" fill="none" xmlns="http://www.w3.org/2000/svg">
<g clip-path="url(#clip0_54_81)">
<path d="M31.51 28.1699H12.27V30.3999H31.51V28.1699Z" fill="#4A4646"/>
<path d="M15.2299 41.3602H27.9899L30.6399 28.1702H12.6699L15.2299 41.3602Z" fill="#4A4646"/>
<path d="M12.76 30.34C12.76 30.42 16.65 30.47 21.47 30.47C26.29 30.47 30.18 30.4 30.18 30.34C30.18 30.28 26.29 30.21 21.47 30.21C16.65 30.21 12.76 30.28 12.76 30.34Z" fill="#E0E0E0"/>
<path d="M12.3 28.3701C12.3 28.3701 1.34 26.2701 0.120002 19.0101C-0.739998 13.9401 3.44 11.2501 3.44 11.2501C3.44 11.2501 1.39 5.31006 7.84 2.43006C12.11 0.520063 15.55 3.35006 15.55 3.35006C15.55 3.35006 20.64 -1.60994 27.48 1.06006C32.19 2.90006 32.39 7.64006 32.39 7.64006C32.39 7.64006 34.36 6.03006 37.79 8.34006C41.22 10.6501 39.94 14.8501 39.94 14.8501C39.94 14.8501 43.86 16.2301 43.83 19.9301C43.78 26.5601 31.72 28.3701 31.72 28.3701H12.3Z" fill="#43B554"/>
<path d="M8.74012 20.7999L3.87012 17.45L9.01012 20.3799L8.74012 20.7999Z" fill="#333536"/>
<path d="M7.44019 15.3901L6.69019 19.1601L6.95019 15.3201L7.44019 15.3901Z" fill="#333536"/>
<path d="M35.21 19.0701L39.81 15.3601L35.4 19.2901L35.21 19.0701Z" fill="#333536"/>
<path d="M16.13 3.56L14.7 0L16.58 3.35L16.13 3.56Z" fill="#333536"/>
<path d="M30.6299 18.5199C31.1999 18.2199 31.8199 18.0499 32.4699 17.9899C33.1099 17.9299 33.7899 17.9899 34.4399 18.2699C35.0799 18.5499 35.6499 19.1399 35.8199 19.8199C36.0399 20.4999 35.8899 21.1699 35.6699 21.7599C35.5399 21.1299 35.4799 20.5299 35.2099 20.0599C34.9599 19.5899 34.5899 19.2399 34.0999 19.0299C33.6199 18.7999 33.0499 18.6999 32.4599 18.6299C31.8699 18.5599 31.2699 18.5399 30.6299 18.4999V18.5199Z" fill="#33913E"/>
<path d="M14.3201 10.0899C14.3701 9.35988 14.5801 8.64988 14.9201 7.98988C15.2601 7.32988 15.7301 6.68988 16.5101 6.27988C16.7101 6.19988 16.9301 6.13988 17.1501 6.07988C17.3801 6.07988 17.6101 6.06988 17.8301 6.07988C18.0401 6.14988 18.2401 6.21988 18.4401 6.29988C18.6201 6.39988 18.7801 6.52988 18.9301 6.64988C19.2501 6.88988 19.4401 7.22988 19.6701 7.51988C19.8401 7.84988 20.0001 8.17988 20.1201 8.51988C19.8201 8.29988 19.5601 8.06988 19.3001 7.83988C19.0101 7.65988 18.7601 7.41988 18.4801 7.28988C17.9301 6.95988 17.4101 6.90988 16.9401 7.15988C16.4501 7.38988 15.9901 7.87988 15.5701 8.38988C15.1501 8.90988 14.7601 9.48988 14.3201 10.0699V10.0899Z" fill="#33913E"/>
<path d="M8.08006 23.8301C7.98006 23.1801 8.04006 22.5201 8.23006 21.8901C8.41006 21.2501 8.73006 20.6301 9.27006 20.1201C9.81006 19.6201 10.6301 19.3601 11.3401 19.5001C12.0601 19.6001 12.6201 20.0201 13.0701 20.4901C12.4201 20.3801 11.8401 20.2201 11.3001 20.2801C10.7701 20.3201 10.3301 20.5101 9.95006 20.8601C9.56006 21.2001 9.25006 21.6801 8.95006 22.1901C8.66006 22.7001 8.39006 23.2501 8.08006 23.8301Z" fill="#33913E"/>
</g>
<defs>
<clipPath id="clip0_54_81">
<rect width="43.82" height="41.36" fill="white"/>
</clipPath>
</defs>
</svg>
