<svg width="319" height="78" viewBox="0 0 319 78" fill="none" xmlns="http://www.w3.org/2000/svg">
<g clip-path="url(#clip0_54_108)">
<path d="M231 0H0V77H231V0Z" fill="#E13030"/>
<path opacity="0.2" d="M231 61H3V76.76H231V61Z" fill="white"/>
<path d="M231 75H14V78H231V75Z" fill="#4A4646"/>
<path d="M312 0H230V77H312V0Z" fill="#A23840"/>
<path d="M66.8598 75.75L162.07 75.75V13L66.8598 13L66.8598 75.75Z" fill="#D1CFCF"/>
<path d="M75.9498 75.23L162.07 75.23V21.37L75.9498 21.37V75.23Z" fill="#EBEBEB"/>
<path d="M90.3298 13H110.02L162.07 65.05V75.75H153.08L90.3298 13Z" fill="white"/>
<path d="M79.7298 13L142.48 75.75H136.05L73.2998 13H79.7298Z" fill="white"/>
<path d="M69.1299 15.27V73.48H159.8V15.27H69.1299ZM66.8599 13H162.07V75.75H66.8599V13Z" fill="#4A4646"/>
<path d="M115.31 13H113.61V75.75H115.31V13Z" fill="#4A4646"/>
<path d="M11.8999 75.75H58.8899L58.8899 13L11.8999 13L11.8999 75.75Z" fill="#D1CFCF"/>
<path d="M10.7499 75.23H58.8899L58.8899 21.37L10.7499 21.37L10.7499 75.23Z" fill="#EBEBEB"/>
<path d="M10.76 13H23.96L58.89 65.05V75.75H52.86L10.76 13Z" fill="white"/>
<path d="M11.16 19.8799L48.58 73.7399H44.74L10.76 23.3199L11.16 19.8799Z" fill="white"/>
<path d="M11.9 15.27V73.48H57.74V15.27H11.9ZM10.75 13H58.89V75.75H10.76V13H10.75Z" fill="#4A4646"/>
<path d="M171.26 75.75H218.25V13L171.26 13V75.75Z" fill="#D1CFCF"/>
<path d="M170.1 75.23H218.24V21.37L170.1 21.37V75.23Z" fill="#EBEBEB"/>
<path d="M170.11 13H183.32L218.24 65.05V75.75H212.21L170.11 13Z" fill="white"/>
<path d="M170.51 19.8799L207.93 73.7399H204.09L170.11 23.3199L170.51 19.8799Z" fill="white"/>
<path d="M171.26 15.27V73.48H217.1V15.27H171.26ZM170.11 13H218.25V75.75H170.11V13Z" fill="#4A4646"/>
<path d="M318.5 13H264V76.91H318.5V13Z" fill="#EBEBEB"/>
<path d="M283.5 13V77" stroke="#BCBCBC" stroke-width="0.5" stroke-miterlimit="10"/>
<path d="M300.5 13V77" stroke="#BCBCBC" stroke-width="0.5" stroke-miterlimit="10"/>
<path d="M318.5 38.7001L259.41 38.5901" stroke="#BCBCBC" stroke-width="0.5" stroke-miterlimit="10"/>
<path d="M318.5 49.9399H259.41" stroke="#BCBCBC" stroke-width="0.5" stroke-miterlimit="10"/>
<path d="M264 13H247V77H264V13Z" fill="#BCBCBC"/>
<path opacity="0.2" d="M80.61 1.62012H66V5.62012H80.61V1.62012Z" fill="white"/>
<path opacity="0.2" d="M91.5199 6.62012H76.9099V10.6201H91.5199V6.62012Z" fill="white"/>
<path opacity="0.2" d="M226.52 6.62012H211.91V10.6201H226.52V6.62012Z" fill="white"/>
</g>
<defs>
<clipPath id="clip0_54_108">
<rect width="318.5" height="78" fill="white"/>
</clipPath>
</defs>
</svg>
