<svg width="29" height="223" viewBox="0 0 29 223" fill="none" xmlns="http://www.w3.org/2000/svg">
<path d="M22.4314 222.78H6.41211L9.4428 181.101H19.4007L22.4314 222.78Z" fill="#4A4646"/>
<path d="M17.0628 42.5269H11.8096V222.78H17.0628V42.5269Z" fill="#4A4646"/>
<path d="M22.6911 42.5278H6.15218L0.0908203 12.5674H28.7813L22.6911 42.5278Z" fill="#4A4646"/>
<path d="M19.6311 36.9852H9.24022L5.40137 18.1084H23.4411L19.6311 36.9852Z" fill="white"/>
<path d="M22.6911 4.94531H6.15218L0.0908203 12.5653H28.7813L22.6911 4.94531Z" fill="#4A4646"/>
<path d="M23.9318 42.5274H4.9395C4.07359 42.5274 3.38086 41.8347 3.38086 40.9688C3.38086 40.1029 4.07359 39.4102 4.9395 39.4102H23.9318C24.7977 39.4102 25.4904 40.1029 25.4904 40.9688C25.4904 41.8347 24.7977 42.5274 23.9318 42.5274Z" fill="#4A4646"/>
<path d="M19.6316 182.659H9.26958C8.40367 182.659 7.71094 181.967 7.71094 181.101C7.71094 180.235 8.40367 179.542 9.26958 179.542H19.6316C20.4975 179.542 21.1903 180.235 21.1903 181.101C21.1903 181.967 20.4975 182.659 19.6316 182.659Z" fill="#4A4646"/>
<path d="M14.4363 9.4493C16.9231 9.4493 18.939 7.43336 18.939 4.94657C18.939 2.45978 16.9231 0.443848 14.4363 0.443848C11.9495 0.443848 9.93359 2.45978 9.93359 4.94657C9.93359 7.43336 11.9495 9.4493 14.4363 9.4493Z" fill="#4A4646"/>
</svg>
