<svg width="323" height="70" viewBox="0 0 323 70" fill="none" xmlns="http://www.w3.org/2000/svg">
<path d="M58 0H0V70H58V0Z" fill="#E13030"/>
<path d="M50.6701 5.75H7.06006V60.37H50.6701V5.75Z" fill="#E13030"/>
<path d="M49.41 7.32007H8.30005V58.8101H49.41V7.32007Z" fill="#4A4646"/>
<path d="M48.32 8.66992H9.54004V58.3699H48.32V8.66992Z" fill="#EBEBEB"/>
<mask id="mask0_54_146" style="mask-type:luminance" maskUnits="userSpaceOnUse" x="9" y="8" width="40" height="51">
<path d="M48.32 8.66992H9.54004V58.3699H48.32V8.66992Z" fill="white"/>
</mask>
<g mask="url(#mask0_54_146)">
</g>
<path d="M49.48 21.25H8.47998" stroke="#4A4646" stroke-width="0.75" stroke-miterlimit="10"/>
<path d="M52.98 50.75H4.97998V62.28H52.98V50.75Z" fill="#4A4646"/>
<path d="M114.88 0H56.8799V70H114.88V0Z" fill="#E13030"/>
<path d="M172.52 0H114.52V70H172.52V0Z" fill="#E13030"/>
<path d="M166.9 5.75H123.29V60.37H166.9V5.75Z" fill="#E13030"/>
<path d="M165.65 7.32007H124.54V58.8101H165.65V7.32007Z" fill="#4A4646"/>
<path d="M164.56 8.66992H125.78V58.3699H164.56V8.66992Z" fill="#EBEBEB"/>
<mask id="mask1_54_146" style="mask-type:luminance" maskUnits="userSpaceOnUse" x="125" y="8" width="40" height="51">
<path d="M164.56 8.66992H125.78V58.3699H164.56V8.66992Z" fill="white"/>
</mask>
<g mask="url(#mask1_54_146)">
</g>
<path d="M165.72 21.25H124.72" stroke="#4A4646" stroke-width="0.75" stroke-miterlimit="10"/>
<path d="M169.22 50.75H121.22V62.28H169.22V50.75Z" fill="#4A4646"/>
<path d="M115.52 0H57.52V70H115.52V0Z" fill="#E13030"/>
<path d="M109.9 5.75H66.29V60.37H109.9V5.75Z" fill="#E13030"/>
<path d="M108.65 7.32007H67.54V58.8101H108.65V7.32007Z" fill="#4A4646"/>
<path d="M107.56 8.66992H68.78V58.3699H107.56V8.66992Z" fill="#EBEBEB"/>
<mask id="mask2_54_146" style="mask-type:luminance" maskUnits="userSpaceOnUse" x="68" y="8" width="40" height="51">
<path d="M107.56 8.66992H68.78V58.3699H107.56V8.66992Z" fill="white"/>
</mask>
<path d="M108.72 21.25H67.72" stroke="#4A4646" stroke-width="0.75" stroke-miterlimit="10"/>
<path d="M112.22 50.75H64.22V62.28H112.22V50.75Z" fill="#4A4646"/>
<path d="M229.52 0H171.52V70H229.52V0Z" fill="#E13030"/>
<path d="M223.9 5.75H180.29V60.37H223.9V5.75Z" fill="#E13030"/>
<path d="M222.65 7.32007H181.54V58.8101H222.65V7.32007Z" fill="#4A4646"/>
<path d="M221.56 8.66992H182.78V58.3699H221.56V8.66992Z" fill="#EBEBEB"/>
<mask id="mask3_54_146" style="mask-type:luminance" maskUnits="userSpaceOnUse" x="182" y="8" width="40" height="51">
<path d="M221.56 8.66992H182.78V58.3699H221.56V8.66992Z" fill="white"/>
</mask>
<g mask="url(#mask3_54_146)">


</g>
<path d="M222.72 21.25H181.72" stroke="#4A4646" stroke-width="0.75" stroke-miterlimit="10"/>
<path d="M226.22 50.75H178.22V62.28H226.22V50.75Z" fill="#4A4646"/>
</svg>
