<svg width="86" height="63" viewBox="0 0 86 63" fill="none" xmlns="http://www.w3.org/2000/svg">
<path d="M21.7512 62.0927C21.7512 62.0927 -2.75413 62.0927 0.680647 39.2904C3.0186 23.7906 14.3909 26.2729 14.3909 26.2729C14.3909 26.2729 3.88453 16.3438 15.2279 7.13629C31.2473 -5.85234 33.9893 17.152 33.9893 17.152C33.9893 17.152 35.9809 -1.40734 47.2666 0.1513C61.9293 2.14289 59.4759 18.4509 59.4759 18.4509C59.4759 18.4509 71.2234 6.73221 75.1489 19.7497C79.0743 32.7672 71.2234 34.0661 71.2234 34.0661C71.2234 34.0661 83.4327 26.3595 84.9336 40.5893C87.9354 69.0777 62.8818 62.0927 62.8818 62.0927H21.7223H21.7512Z" fill="#43B554"/>
</svg>
