<svg width="212" height="263" viewBox="0 0 212 263" fill="none" xmlns="http://www.w3.org/2000/svg">
<path d="M83.8711 262.697H134.96L127.426 111.451H91.3756L83.8711 262.697Z" fill="#4A4646"/>
<path d="M83.8711 262.697H134.96L127.426 111.451H91.3756L83.8711 262.697Z" fill="#4A4646"/>
<path d="M105.836 190.769L115.332 181.273L56.8829 125.595L50.1865 132.292L105.836 190.769Z" fill="#4A4646"/>
<path d="M162.841 125.594C189.702 125.594 211.476 105.822 211.476 81.4328C211.476 57.0432 189.702 37.2715 162.841 37.2715C135.981 37.2715 114.206 57.0432 114.206 81.4328C114.206 105.822 135.981 125.594 162.841 125.594Z" fill="#43B554"/>
<path d="M120.355 68.5897C141.11 68.5897 157.935 53.3022 157.935 34.444C157.935 15.5859 141.11 0.29834 120.355 0.29834C99.5997 0.29834 82.7744 15.5859 82.7744 34.444C82.7744 53.3022 99.5997 68.5897 120.355 68.5897Z" fill="#43B554"/>
<path d="M103.094 108.854C123.849 108.854 140.675 93.5668 140.675 74.7087C140.675 55.8505 123.849 40.563 103.094 40.563C82.339 40.563 65.5137 55.8505 65.5137 74.7087C65.5137 93.5668 82.339 108.854 103.094 108.854Z" fill="#43B554"/>
<path d="M71.806 77.0462C92.5611 77.0462 109.386 61.7587 109.386 42.9006C109.386 24.0424 92.5611 8.75488 71.806 8.75488C51.0509 8.75488 34.2256 24.0424 34.2256 42.9006C34.2256 61.7587 51.0509 77.0462 71.806 77.0462Z" fill="#43B554"/>
<path d="M55.9594 124.065C76.7145 124.065 93.5398 108.777 93.5398 89.9191C93.5398 71.061 76.7145 55.7734 55.9594 55.7734C35.2043 55.7734 18.3789 71.061 18.3789 89.9191C18.3789 108.777 35.2043 124.065 55.9594 124.065Z" fill="#43B554"/>
<path d="M70.4496 149.695C91.2047 149.695 108.03 134.407 108.03 115.549C108.03 96.6911 91.2047 81.4036 70.4496 81.4036C49.6945 81.4036 32.8691 96.6911 32.8691 115.549C32.8691 134.407 49.6945 149.695 70.4496 149.695Z" fill="#43B554"/>
<path d="M109.416 143.259C137.998 143.259 161.168 122.221 161.168 96.2693C161.168 70.3174 137.998 49.2793 109.416 49.2793C80.8335 49.2793 57.6631 70.3174 57.6631 96.2693C57.6631 122.221 80.8335 143.259 109.416 143.259Z" fill="#43B554"/>
<path d="M136.403 160.23C164.985 160.23 188.155 139.192 188.155 113.24C188.155 87.2881 164.985 66.25 136.403 66.25C107.821 66.25 84.6504 87.2881 84.6504 113.24C84.6504 139.192 107.821 160.23 136.403 160.23Z" fill="#43B554"/>
<path d="M26.5188 84.0027C40.7381 84.0027 52.2652 73.5354 52.2652 60.6232C52.2652 47.711 40.7381 37.2437 26.5188 37.2437C12.2995 37.2437 0.772461 47.711 0.772461 60.6232C0.772461 73.5354 12.2995 84.0027 26.5188 84.0027Z" fill="#43B554"/>
<path d="M41.5569 68.5613C55.7762 68.5613 67.3033 58.094 67.3033 45.1818C67.3033 32.2696 55.7762 21.8022 41.5569 21.8022C27.3376 21.8022 15.8105 32.2696 15.8105 45.1818C15.8105 58.094 27.3376 68.5613 41.5569 68.5613Z" fill="#43B554"/>
<path d="M167.286 51.8489C181.506 51.8489 193.033 41.3816 193.033 28.4694C193.033 15.5572 181.506 5.08984 167.286 5.08984C153.067 5.08984 141.54 15.5572 141.54 28.4694C141.54 41.3816 153.067 51.8489 167.286 51.8489Z" fill="#43B554"/>
<g opacity="0.3">
<path d="M162.841 125.594C189.702 125.594 211.476 105.822 211.476 81.4328C211.476 57.0432 189.702 37.2715 162.841 37.2715C135.981 37.2715 114.206 57.0432 114.206 81.4328C114.206 105.822 135.981 125.594 162.841 125.594Z" fill="#43B554"/>
<path d="M120.355 68.5897C141.11 68.5897 157.935 53.3022 157.935 34.444C157.935 15.5859 141.11 0.29834 120.355 0.29834C99.5997 0.29834 82.7744 15.5859 82.7744 34.444C82.7744 53.3022 99.5997 68.5897 120.355 68.5897Z" fill="#43B554"/>
<path d="M103.094 108.854C123.849 108.854 140.675 93.5668 140.675 74.7087C140.675 55.8505 123.849 40.563 103.094 40.563C82.339 40.563 65.5137 55.8505 65.5137 74.7087C65.5137 93.5668 82.339 108.854 103.094 108.854Z" fill="#43B554"/>
<path d="M71.806 77.0462C92.5611 77.0462 109.386 61.7587 109.386 42.9006C109.386 24.0424 92.5611 8.75488 71.806 8.75488C51.0509 8.75488 34.2256 24.0424 34.2256 42.9006C34.2256 61.7587 51.0509 77.0462 71.806 77.0462Z" fill="#43B554"/>
<path d="M55.9594 124.065C76.7145 124.065 93.5398 108.777 93.5398 89.9191C93.5398 71.061 76.7145 55.7734 55.9594 55.7734C35.2043 55.7734 18.3789 71.061 18.3789 89.9191C18.3789 108.777 35.2043 124.065 55.9594 124.065Z" fill="#43B554"/>
<path d="M70.4496 149.695C91.2047 149.695 108.03 134.407 108.03 115.549C108.03 96.6911 91.2047 81.4036 70.4496 81.4036C49.6945 81.4036 32.8691 96.6911 32.8691 115.549C32.8691 134.407 49.6945 149.695 70.4496 149.695Z" fill="#43B554"/>
<path d="M109.416 143.259C137.998 143.259 161.168 122.221 161.168 96.2693C161.168 70.3174 137.998 49.2793 109.416 49.2793C80.8335 49.2793 57.6631 70.3174 57.6631 96.2693C57.6631 122.221 80.8335 143.259 109.416 143.259Z" fill="#43B554"/>
<path d="M136.403 160.23C164.985 160.23 188.155 139.192 188.155 113.24C188.155 87.2881 164.985 66.25 136.403 66.25C107.821 66.25 84.6504 87.2881 84.6504 113.24C84.6504 139.192 107.821 160.23 136.403 160.23Z" fill="#43B554"/>
<path d="M26.5188 84.0027C40.7381 84.0027 52.2652 73.5354 52.2652 60.6232C52.2652 47.711 40.7381 37.2437 26.5188 37.2437C12.2995 37.2437 0.772461 47.711 0.772461 60.6232C0.772461 73.5354 12.2995 84.0027 26.5188 84.0027Z" fill="#43B554"/>
<path d="M41.5569 68.5613C55.7762 68.5613 67.3033 58.094 67.3033 45.1818C67.3033 32.2696 55.7762 21.8022 41.5569 21.8022C27.3376 21.8022 15.8105 32.2696 15.8105 45.1818C15.8105 58.094 27.3376 68.5613 41.5569 68.5613Z" fill="#43B554"/>
<path d="M167.286 51.8489C181.506 51.8489 193.033 41.3816 193.033 28.4694C193.033 15.5572 181.506 5.08984 167.286 5.08984C153.067 5.08984 141.54 15.5572 141.54 28.4694C141.54 41.3816 153.067 51.8489 167.286 51.8489Z" fill="#43B554"/>
</g>
</svg>
