<svg width="113" height="56" viewBox="0 0 113 56" fill="none" xmlns="http://www.w3.org/2000/svg">
<path d="M29.2049 55.2398C29.2049 55.2398 -3.15124 55.2398 1.40921 35.1507C4.49762 21.4694 19.5067 23.663 19.5067 23.663C19.5067 23.663 5.62329 14.9173 20.6035 6.80662C41.7317 -4.65224 45.3685 15.6389 45.3685 15.6389C45.3685 15.6389 47.9951 -0.697936 62.8887 0.658655C82.2562 2.41934 78.9947 16.7934 78.9947 16.7934C78.9947 16.7934 94.5233 6.46026 99.6898 17.948C104.856 29.4357 94.5233 30.5614 94.5233 30.5614C94.5233 30.5614 110.629 23.7496 112.621 36.3053C116.604 61.4166 83.5262 55.2398 83.5262 55.2398H29.2049Z" fill="#29D350"/>
<path d="M76.6572 28.4259L95.0433 16.8228L77.4654 29.6093L76.6572 28.4259Z" fill="#333536"/>
<path d="M83.8143 8.59546L84.9111 23.4314L82.3711 8.76866L83.8143 8.59546Z" fill="#333536"/>
<path d="M27.386 49.005L14.9746 39.7109L28.1942 47.8216L27.386 49.005Z" fill="#333536"/>
<path d="M24.2109 34.0245L22.1904 44.4443L22.7677 33.8513L24.2109 34.0245Z" fill="#333536"/>
</svg>
