<svg width="37" height="25" viewBox="0 0 37 25" fill="none" xmlns="http://www.w3.org/2000/svg">
<g id="cat">
<g id="kit">
<g id="cat_2">
<path id="Vector" d="M27.9011 6.32C20.1211 4.49 13.4711 -0.500002 7.73106 0.759998C4.54106 1.46 2.60106 3.24 1.48106 5.7C0.431056 7.99 0.0810547 10.88 0.0810547 14.03H29.9011L27.8911 6.31L27.9011 6.32Z" fill="#B748B7"/>
<path id="Vector_2" d="M27.9011 7.32998C20.1211 5.73998 13.4711 1.39999 7.73106 2.49999C4.54106 3.10999 2.60106 4.65999 1.48106 6.78999C0.431056 8.77999 0.0810547 14.11 0.0810547 14.11H30.7911L27.8911 7.31998L27.9011 7.32998Z" fill="#823284"/>
<path id="Vector_3" d="M17.9808 14C17.9808 12.75 16.7508 11.8 15.2808 12.12L12.3508 12.34C13.5908 7.24 9.68084 2.42 6.47084 2.79C2.96084 3.19 0.11084 7.18 0.11084 11.7C0.11084 12.52 0.210836 13.29 0.380836 14.01C6.50084 14.45 12.4108 14.51 17.9808 13.99V14Z" fill="#B748B7"/>
<path id="Vector_4" d="M9.59097 24.25C0.610972 24.95 -1.40903 14.44 0.850966 8.46999L1.55097 8.65999C0.930971 10.12 1.50097 16.36 5.59097 18.25C9.68097 20.15 11.871 19.3 12.231 21.25C12.591 23.2 10.911 24.15 9.59097 24.25Z" fill="#B748B7"/>
<path id="Vector_5" d="M27.4011 13.57C24.8511 11.97 24.7711 8.27998 24.6811 6.32998C24.5811 4.24998 25.3111 5.02999 26.0411 5.04999C27.5511 5.08999 30.0711 5.32999 31.6711 6.40999C33.3811 7.55999 34.0411 10.51 34.2811 12.12C34.3811 12.77 34.5811 13.25 33.3611 13.58C31.8511 13.99 29.1011 14.63 27.4011 13.57Z" fill="#B748B7"/>
<path id="Vector_6" d="M29.5108 1.46999C29.5108 1.46999 27.1208 2.40999 26.5908 5.25999L30.4208 5.96999C30.6308 4.43999 29.5108 1.46999 29.5108 1.46999Z" fill="#B748B7"/>
<path id="Vector_7" d="M28.8711 2.73C28.4511 3.17 27.8211 3.97999 27.6011 5.17999L29.8911 5.32999C29.9911 4.63999 29.6811 3.52 29.4711 2.87C29.3911 2.61 29.0611 2.53 28.8711 2.73Z" fill="#823284"/>
<path id="Vector_8" d="M36.591 7.08999C36.591 7.08999 35.961 10.75 33.591 12.25L32.251 7.73999C33.551 6.99999 36.591 7.08999 36.591 7.08999Z" fill="#B748B7"/>
<path id="Vector_9" d="M35.7111 8.15999C35.4711 8.70999 34.9711 9.6 33.9811 10.23L33.0811 8.06999C33.6511 7.74999 34.7311 7.66999 35.3711 7.64999C35.6411 7.64999 35.8111 7.90999 35.7111 8.14999V8.15999Z" fill="#823284"/>
<path id="Vector_10" d="M27.1508 11.77C28.0808 12.81 29.5108 10.97 29.5108 10.97C29.5108 10.97 28.3708 12.25 29.5908 13.26C30.8108 14.27 33.1108 12.98 30.0508 10.47C27.3608 8.25998 24.8008 9.17 27.1508 11.78V11.77Z" fill="#D48BD6"/>
<path id="Vector_11" d="M29.381 11.1C28.861 10.76 29.031 10.02 29.331 9.90999C29.631 9.78999 30.451 10.49 30.381 10.73C30.311 10.97 29.711 11.33 29.381 11.11V11.1Z" fill="#403732"/>
<path id="Vector_12" d="M28.6311 8.06C28.8611 8.25 28.9412 8.54999 28.8412 8.76999C28.8612 8.74999 28.8812 8.74999 28.8912 8.72999C29.0512 8.50999 28.9712 8.16999 28.7112 7.95999C28.4512 7.74999 28.1212 7.74999 27.9612 7.95999C27.9512 7.97999 27.9412 7.99999 27.9312 8.01999C28.1012 7.85999 28.3911 7.86 28.6311 8.06Z" fill="#403732"/>
<path id="Vector_13" d="M31.9808 11.12C32.2108 11.31 32.2908 11.61 32.1908 11.83C32.2108 11.81 32.2308 11.81 32.2408 11.79C32.4008 11.57 32.3208 11.23 32.0608 11.02C31.8008 10.81 31.4708 10.81 31.3108 11.02C31.3008 11.04 31.2908 11.06 31.2808 11.08C31.4508 10.92 31.7408 10.92 31.9808 11.12Z" fill="#403732"/>
<path id="Vector_14" d="M18.3809 14.14L27.0209 14.06C25.7109 11.5 21.7809 12.2 18.3809 14.14Z" fill="#B748B7"/>
</g>
</g>
</g>
</svg>
