<svg width="35" height="31" viewBox="0 0 35 31" fill="none" xmlns="http://www.w3.org/2000/svg">
<g id="plant1">
<g id="Group">
<g id="Group_2">
<path id="Vector" d="M34.1598 23.44C34.0998 22.6 33.8798 20.56 33.1598 19.92C32.6798 19.48 31.8198 19.41 30.5498 19.7C30.4998 19.71 30.4498 19.72 30.3998 19.74L30.3698 19.4V19.29L30.3498 19.17V19.08L30.3298 18.97L30.3098 18.77L30.2698 18.3H22.0098L21.9598 18.72L21.9298 18.98V19.02L21.8998 19.17L21.8798 19.29V19.4L21.4598 22.59C21.2798 22.48 21.0998 22.36 20.9398 22.21C20.8398 22.12 20.7498 22.03 20.6598 21.93C20.5598 21.83 20.4898 21.75 20.4098 21.64C20.2598 21.42 20.0998 21.15 19.9398 20.87C19.7698 20.59 19.5898 20.29 19.3698 20.01C19.1398 19.73 18.8698 19.46 18.5598 19.25C18.2398 19.03 17.8898 18.88 17.5298 18.8C17.1698 18.71 16.8098 18.68 16.4698 18.69C16.3498 18.98 16.3398 19.26 16.4398 19.53C16.7298 19.56 17.0098 19.62 17.2498 19.71C17.4998 19.8 17.7298 19.93 17.9198 20.1C18.3098 20.43 18.5598 20.91 18.8098 21.47C18.9398 21.75 19.0598 22.05 19.2398 22.38C19.2898 22.46 19.3298 22.54 19.3898 22.62L19.4298 22.68L19.4698 22.74C19.4698 22.74 19.5198 22.82 19.5498 22.85C19.6598 23 19.7698 23.14 19.8998 23.28C20.1498 23.55 20.4298 23.8 20.7298 24.02C20.8798 24.13 21.0398 24.23 21.2098 24.32C21.2098 24.32 21.2198 24.32 21.2298 24.33L20.6998 28.45L20.6598 28.76L20.6198 29.05L20.5798 29.3V29.36L20.5498 29.52L20.3998 30.53H31.3098L31.2098 29.52V29.36L31.1898 29.3L31.1698 29.05V29.03L31.1398 28.72L31.0798 27.96C31.1298 27.96 31.1898 27.96 31.2498 27.96C32.1198 27.98 33.1598 27.84 33.6798 27.16C34.2998 26.35 34.2198 24.3 34.1498 23.45L34.1598 23.44ZM32.8598 26.52C32.5898 26.88 31.7798 26.96 30.9998 26.9L30.4898 20.77C31.3798 20.54 32.2198 20.46 32.4698 20.68C32.6598 20.85 33.0098 21.88 33.1298 23.51C33.2498 25.09 33.0798 26.23 32.8598 26.52Z" fill="#5694FF"/>
<path id="Vector_2" opacity="0.2" d="M30.3596 19.28H21.8896L21.8997 19.16L21.9196 19.01L21.9296 18.97H30.3397L30.3496 19.07V19.16L30.3596 19.28Z" fill="#F2F2F2"/>
<path id="Vector_3" opacity="0.2" d="M31.2096 29.34H20.5796L20.5896 29.28L20.6296 29.03H31.1796L31.1996 29.28L31.2096 29.34Z" fill="#F2F2F2"/>
<path id="Vector_4" d="M17.0298 19.11C17.0298 19.72 16.6998 20.22 16.2898 20.22C15.8798 20.22 15.5498 19.72 15.5498 19.11C15.5498 18.5 15.8798 18 16.2898 18C16.6998 18 17.0298 18.5 17.0298 19.11Z" fill="#73A9A5"/>
<path id="Vector_5" d="M17.7296 18.83C17.7296 18.83 17.2096 18.27 16.3696 18V20.21C16.3696 20.21 17.0896 20.06 17.3196 19.94C17.5396 19.81 17.8396 20 17.8396 20L17.7296 18.83Z" fill="#73A9A5"/>
</g>
<g id="Group_3">
<g id="Group_4">
<g id="Group_5">
<path id="Vector_6" d="M7.76977 15.41C6.62978 15.21 4.02977 14.3 3.46977 10.22C3.40977 9.78999 3.85977 9.45 4.24977 9.64C5.76977 10.4 8.71977 12.23 8.40977 14.9C8.36977 15.22 8.07977 15.46 7.75977 15.4L7.76977 15.41Z" fill="#89B731"/>
<path id="Vector_7" opacity="0.4" d="M7.76977 15.41C6.62978 15.21 4.02977 14.3 3.46977 10.22C3.40977 9.78999 3.85977 9.45 4.24977 9.64C5.76977 10.4 8.71977 12.23 8.40977 14.9C8.36977 15.22 8.07977 15.46 7.75977 15.4L7.76977 15.41Z" fill="#89B731"/>
</g>
<g id="Group_6">
<path id="Vector_8" d="M7.21996 10.9C6.21996 10.58 3.98996 9.45999 3.95996 5.72999C3.95996 5.32999 4.39997 5.07999 4.72997 5.29999C6.00997 6.15999 8.44996 8.15999 7.85996 10.52C7.78996 10.81 7.49996 10.98 7.21996 10.89V10.9Z" fill="#89B731"/>
<path id="Vector_9" opacity="0.4" d="M7.21996 10.9C6.21996 10.58 3.98996 9.45999 3.95996 5.72999C3.95996 5.32999 4.39997 5.07999 4.72997 5.29999C6.00997 6.15999 8.44996 8.15999 7.85996 10.52C7.78996 10.81 7.49996 10.98 7.21996 10.89V10.9Z" fill="#89B731"/>
</g>
<g id="Group_7">
<path id="Vector_10" d="M7.74988 9.07C8.69988 8.41 10.6899 6.49 9.50988 2.56C9.37988 2.14 8.82988 2.02 8.55988 2.36C7.48988 3.69 5.56988 6.59 6.94988 8.89C7.11988 9.17 7.47988 9.25999 7.74988 9.07999V9.07Z" fill="#89B731"/>
<path id="Vector_11" opacity="0.4" d="M7.74988 9.07C8.69988 8.41 10.6899 6.49 9.50988 2.56C9.37988 2.14 8.82988 2.02 8.55988 2.36C7.48988 3.69 5.56988 6.59 6.94988 8.89C7.11988 9.17 7.47988 9.25999 7.74988 9.07999V9.07Z" fill="#89B731"/>
</g>
<g id="Group_8">
<path id="Vector_12" d="M6.20961 6.04999C5.44961 5.51999 3.86961 3.99 4.80961 0.849996C4.90961 0.509996 5.34961 0.419993 5.56961 0.689993C6.41961 1.74999 7.94961 4.07 6.84961 5.9C6.71961 6.12 6.42961 6.19999 6.20961 6.04999Z" fill="#89B731"/>
<path id="Vector_13" opacity="0.4" d="M6.20961 6.04999C5.44961 5.51999 3.86961 3.99 4.80961 0.849996C4.90961 0.509996 5.34961 0.419993 5.56961 0.689993C6.41961 1.74999 7.94961 4.07 6.84961 5.9C6.71961 6.12 6.42961 6.19999 6.20961 6.04999Z" fill="#89B731"/>
</g>
<g id="Group_9">
<path id="Vector_14" d="M8.37981 14.79C9.41981 14.27 11.6498 12.66 11.0398 8.58999C10.9698 8.15999 10.4498 7.95999 10.1298 8.25999C8.88981 9.41999 6.57982 12.02 7.61982 14.49C7.74982 14.79 8.08981 14.93 8.37981 14.79Z" fill="#89B731"/>
<path id="Vector_15" opacity="0.4" d="M8.37981 14.79C9.41981 14.27 11.6498 12.66 11.0398 8.58999C10.9698 8.15999 10.4498 7.95999 10.1298 8.25999C8.88981 9.41999 6.57982 12.02 7.61982 14.49C7.74982 14.79 8.08981 14.93 8.37981 14.79Z" fill="#89B731"/>
</g>
<path id="Vector_16" d="M7.27981 19.4C7.27981 19.4 7.23982 19.4 7.21982 19.4C7.09982 19.37 7.01981 19.24 7.05981 19.11C9.20981 11.24 5.13981 1.8 5.09981 1.71C5.04981 1.59 5.09982 1.45 5.21982 1.4C5.33982 1.35 5.47981 1.4 5.52981 1.52C5.56981 1.62 9.70982 11.21 7.50982 19.24C7.47982 19.34 7.38981 19.41 7.27981 19.41V19.4Z" fill="#89B731"/>
<g id="Group_10" opacity="0.4">
<path id="Vector_17" d="M7.27981 19.4C7.27981 19.4 7.23982 19.4 7.21982 19.4C7.09982 19.37 7.01981 19.24 7.05981 19.11C9.20981 11.24 5.13981 1.8 5.09981 1.71C5.04981 1.59 5.09982 1.45 5.21982 1.4C5.33982 1.35 5.47981 1.4 5.52981 1.52C5.56981 1.62 9.70982 11.21 7.50982 19.24C7.47982 19.34 7.38981 19.41 7.27981 19.41V19.4Z" fill="#89B731"/>
</g>
</g>
<path id="Vector_18" d="M14.91 18.8L12.25 30H2.65L0 18.8H14.91Z" fill="#A4C9FF"/>
</g>
</g>
</g>
</svg>
