<svg width="19" height="27" viewBox="0 0 19 27" fill="none" xmlns="http://www.w3.org/2000/svg">
<g id="vase">
<g id="Group">
<g id="Group_2">
<path id="Vector" d="M4.40234 12.92L7.05235 27H11.7223L14.1124 13.17L4.40234 12.92Z" fill="#A4C9FF"/>
<path id="Vector_2" d="M5.09229 14.96H13.6723" stroke="#FFF7F2" stroke-width="1.12" stroke-linecap="round" stroke-linejoin="round"/>
<path id="Vector_3" d="M14.6623 11.71C14.4423 11.56 14.1723 11.53 13.9223 11.63C13.3123 11.87 12.6823 11.31 12.8623 10.67C12.9323 10.42 12.8823 10.15 12.7123 9.95C12.2923 9.44 12.6423 8.68 13.3023 8.65C13.5623 8.65 13.8023 8.50001 13.9423 8.28001C14.2923 7.73001 15.1323 7.81999 15.3623 8.43999C15.4523 8.68999 15.6523 8.86999 15.9123 8.93999C16.5523 9.09999 16.7223 9.92999 16.2023 10.33C15.9923 10.49 15.8823 10.74 15.9023 11C15.9423 11.66 15.2123 12.07 14.6623 11.71Z" fill="#ED939E"/>
<path id="Vector_4" d="M14.5324 10.68C14.9963 10.68 15.3724 10.3039 15.3724 9.84C15.3724 9.37608 14.9963 9 14.5324 9C14.0685 9 13.6924 9.37608 13.6924 9.84C13.6924 10.3039 14.0685 10.68 14.5324 10.68Z" fill="#FFEB00"/>
<g id="Group_3">
<path id="Vector_5" d="M4.12246 10.96C4.40246 11.18 4.71247 11.4 5.06247 11.47C5.41247 11.54 5.83247 11.41 5.99247 11.09C6.09247 10.9 6.08247 10.68 6.07247 10.46C5.91247 8.47999 4.84246 6.66 3.45246 5.25C2.06246 3.83 -0.857535 3.25999 0.242465 6.14999C0.922465 7.94999 2.64246 9.77999 4.12246 10.96Z" fill="#87B532"/>
<path id="Vector_6" d="M8.51255 10.69C8.64255 10.98 8.79255 11.27 9.03255 11.46C9.28255 11.65 9.65255 11.72 9.91255 11.54C10.0626 11.43 10.1525 11.26 10.2225 11.08C10.9025 9.47998 10.8025 7.63999 10.2925 5.97999C9.78255 4.31999 7.74256 2.70999 7.43256 5.39999C7.24256 7.06999 7.83255 9.17998 8.51255 10.69Z" fill="#87B532"/>
<path id="Vector_7" d="M12.6423 10.18C12.6223 10.49 12.6223 10.82 12.7623 11.11C12.8923 11.4 13.2023 11.62 13.5123 11.58C13.6923 11.55 13.8523 11.43 13.9923 11.31C15.3223 10.19 16.0623 8.49999 16.3623 6.78999C16.6623 5.07999 15.5723 2.72999 14.0723 4.97999C13.1423 6.38999 12.7223 8.52999 12.6423 10.18Z" fill="#87B532"/>
<path id="Vector_8" d="M10.2126 6.83999C10.1926 7.14999 10.1926 7.47998 10.3326 7.76998C10.4626 8.05998 10.7726 8.27998 11.0826 8.23998C11.2626 8.20998 11.4226 8.08998 11.5626 7.96998C12.8926 6.84998 13.6326 5.15999 13.9326 3.44999C14.2326 1.73999 13.1426 -0.610007 11.6426 1.63999C10.7126 3.04999 10.2926 5.18999 10.2126 6.83999Z" fill="#87B532"/>
<path id="Vector_9" d="M6.58236 8.31999C6.78236 8.55999 7.00235 8.8 7.29235 8.92C7.58235 9.04 7.96236 9.00999 8.16236 8.75999C8.28236 8.60999 8.31236 8.41999 8.34236 8.23999C8.56236 6.51999 7.97236 4.76999 7.03236 3.30999C6.09236 1.84999 3.69236 0.839992 4.12236 3.50999C4.38236 5.16999 5.53236 7.03999 6.59236 8.30999L6.58236 8.31999Z" fill="#87B532"/>
<path id="Vector_10" d="M11.7523 11.71C11.5223 11.98 11.2823 12.28 11.2023 12.63C11.1223 12.98 11.2323 13.4 11.5523 13.57C11.7423 13.67 11.9623 13.68 12.1723 13.67C14.1623 13.58 16.0223 12.58 17.4923 11.25C18.9623 9.92 19.6423 7.02999 16.7023 8.01999C14.8723 8.63999 12.9823 10.28 11.7523 11.71Z" fill="#87B532"/>
<path id="Vector_11" d="M9.60229 12.54C9.60229 12.9 9.60229 13.27 9.77229 13.59C9.93229 13.91 10.2923 14.16 10.6423 14.09C10.8523 14.05 11.0223 13.91 11.1823 13.77C12.6523 12.43 13.4323 10.47 13.7023 8.51001C13.9723 6.55001 12.6323 3.90001 11.0123 6.54001C10.0123 8.18001 9.61229 10.65 9.59229 12.54H9.60229Z" fill="#87B532"/>
<path id="Vector_12" d="M8.22254 13.48C8.48254 13.73 8.77254 13.97 9.12254 14.07C9.47254 14.17 9.89254 14.07 10.0825 13.77C10.1925 13.59 10.2125 13.37 10.2125 13.15C10.2125 11.17 9.30255 9.26999 8.03255 7.73999C6.76255 6.21999 3.90254 5.40999 4.76254 8.37999C5.29254 10.23 6.85254 12.19 8.23254 13.48H8.22254Z" fill="#87B532"/>
<path id="Vector_13" d="M6.23233 13.96C6.58233 14.06 6.94233 14.15 7.29233 14.08C7.64233 14.01 7.98233 13.74 8.02233 13.38C8.04233 13.17 7.95233 12.96 7.86233 12.77C6.98233 10.99 5.30233 9.70001 3.48233 8.90001C1.66233 8.10001 -1.25767 8.65001 0.84233 10.93C2.15233 12.35 4.42233 13.4 6.23233 13.95V13.96Z" fill="#87B532"/>
</g>
<path id="Vector_14" d="M9.19261 9.48C9.02261 9.51 8.88261 9.63 8.81261 9.78C8.64261 10.18 8.08261 10.2 7.87261 9.82C7.79261 9.67 7.63261 9.56999 7.46261 9.54999C7.03261 9.50999 6.83261 8.99 7.13261 8.68C7.25261 8.55 7.30261 8.37999 7.26261 8.20999C7.17261 7.78999 7.60261 7.44 7.99261 7.62C8.15261 7.69 8.33261 7.67999 8.48261 7.59999C8.85261 7.37999 9.32261 7.68 9.26261 8.11C9.24261 8.28 9.30261 8.45 9.43261 8.56C9.75261 8.85 9.61261 9.37999 9.18261 9.45999L9.19261 9.48Z" fill="#0087FF"/>
<path id="Vector_15" d="M8.2624 9.21999C8.56615 9.21999 8.8124 8.97375 8.8124 8.67C8.8124 8.36624 8.56615 8.12 8.2624 8.12C7.95864 8.12 7.7124 8.36624 7.7124 8.67C7.7124 8.97375 7.95864 9.21999 8.2624 9.21999Z" fill="#FFEB00"/>
<path id="Vector_16" d="M5.0625 7.90001C4.8025 7.95001 4.5925 8.12001 4.4825 8.36001C4.2225 8.96001 3.3725 9.01 3.0525 8.43C2.9225 8.2 2.69251 8.05 2.43251 8.02C1.77251 7.96 1.47251 7.17 1.92251 6.69C2.10251 6.5 2.1725 6.23001 2.1225 5.98001C1.9825 5.34001 2.64251 4.81001 3.24251 5.09001C3.48251 5.20001 3.7625 5.19 3.9825 5.05C4.5525 4.72 5.26251 5.18 5.18251 5.83C5.15251 6.09 5.2525 6.35 5.4425 6.52C5.9425 6.96 5.7125 7.77001 5.0625 7.90001Z" fill="#0087FF"/>
<path id="Vector_17" d="M3.64249 7.50999C4.11193 7.50999 4.49249 7.12943 4.49249 6.65999C4.49249 6.19055 4.11193 5.81 3.64249 5.81C3.17304 5.81 2.79248 6.19055 2.79248 6.65999C2.79248 7.12943 3.17304 7.50999 3.64249 7.50999Z" fill="#FFEB00"/>
<path id="Vector_18" d="M14.8726 11.54C14.6926 11.42 14.4626 11.39 14.2626 11.47C13.7526 11.67 13.2326 11.2 13.3826 10.67C13.4426 10.46 13.3926 10.24 13.2526 10.07C12.9026 9.64997 13.1926 9.00997 13.7426 8.98997C13.9626 8.98997 14.1626 8.86997 14.2826 8.67997C14.5826 8.21997 15.2726 8.28998 15.4626 8.80998C15.5326 9.00998 15.7126 9.16996 15.9226 9.21996C16.4526 9.35996 16.5926 10.04 16.1626 10.38C15.9926 10.51 15.8926 10.72 15.9126 10.94C15.9426 11.49 15.3326 11.83 14.8826 11.53L14.8726 11.54Z" fill="#ED939E"/>
<path id="Vector_19" d="M14.7625 10.68C15.1491 10.68 15.4625 10.3666 15.4625 9.98C15.4625 9.5934 15.1491 9.28 14.7625 9.28C14.3759 9.28 14.0625 9.5934 14.0625 9.98C14.0625 10.3666 14.3759 10.68 14.7625 10.68Z" fill="#FFEB00"/>
<path id="Vector_20" d="M11.8426 9.84001C11.7626 9.79001 11.6626 9.78001 11.5826 9.81001C11.3626 9.90001 11.1426 9.69 11.2026 9.47C11.2326 9.38 11.2026 9.28001 11.1526 9.21001C11.0026 9.03001 11.1226 8.75002 11.3626 8.75002C11.4526 8.75002 11.5426 8.70001 11.5926 8.62001C11.7226 8.42001 12.0226 8.45001 12.1026 8.68001C12.1326 8.77001 12.2126 8.83002 12.3026 8.86002C12.5326 8.92002 12.5926 9.21002 12.4026 9.36002C12.3326 9.42002 12.2926 9.51001 12.2926 9.60001C12.3026 9.84001 12.0426 9.98001 11.8526 9.85001L11.8426 9.84001Z" fill="#ED939E"/>
<path id="Vector_21" d="M11.8024 9.46999C11.9681 9.46999 12.1024 9.33568 12.1024 9.17C12.1024 9.00431 11.9681 8.87 11.8024 8.87C11.6368 8.87 11.5024 9.00431 11.5024 9.17C11.5024 9.33568 11.6368 9.46999 11.8024 9.46999Z" fill="#FFEB00"/>
<path id="Vector_22" d="M11.1326 4.74999C11.0526 4.69999 10.9526 4.68997 10.8726 4.71997C10.6526 4.80997 10.4326 4.59998 10.4926 4.37998C10.5226 4.28998 10.4926 4.18998 10.4426 4.11998C10.2926 3.93998 10.4126 3.65998 10.6526 3.65998C10.7426 3.65998 10.8326 3.60999 10.8826 3.52999C11.0126 3.32999 11.3126 3.35998 11.3926 3.58998C11.4226 3.67998 11.5026 3.73998 11.5926 3.76998C11.8226 3.82998 11.8826 4.11998 11.6926 4.26998C11.6226 4.32998 11.5826 4.41998 11.5826 4.50998C11.5926 4.74998 11.3326 4.88998 11.1426 4.75998L11.1326 4.74999Z" fill="#ED939E"/>
<path id="Vector_23" d="M11.0822 4.37999C11.2479 4.37999 11.3822 4.24567 11.3822 4.07999C11.3822 3.9143 11.2479 3.78 11.0822 3.78C10.9165 3.78 10.7822 3.9143 10.7822 4.07999C10.7822 4.24567 10.9165 4.37999 11.0822 4.37999Z" fill="#FFEB00"/>
<path id="Vector_24" d="M6.47246 8.47C6.39246 8.42 6.29247 8.41 6.21247 8.44C5.99247 8.53 5.77246 8.32001 5.83246 8.10001C5.86246 8.01001 5.83247 7.91001 5.78247 7.84001C5.63247 7.66001 5.75247 7.38001 5.99247 7.38001C6.08247 7.38001 6.17246 7.33002 6.22246 7.25002C6.35246 7.05002 6.65246 7.08001 6.73246 7.31001C6.76246 7.40001 6.84247 7.46001 6.93247 7.49001C7.16247 7.55001 7.22247 7.84001 7.03247 7.99001C6.96247 8.05001 6.92247 8.14001 6.92247 8.23001C6.93247 8.47001 6.67246 8.61001 6.48246 8.48001L6.47246 8.47Z" fill="#ED939E"/>
<path id="Vector_25" d="M6.42256 8.09999C6.58825 8.09999 6.72256 7.96567 6.72256 7.79999C6.72256 7.6343 6.58825 7.5 6.42256 7.5C6.25688 7.5 6.12256 7.6343 6.12256 7.79999C6.12256 7.96567 6.25688 8.09999 6.42256 8.09999Z" fill="#FFEB00"/>
<path id="Vector_26" d="M7.80224 6.85999C7.62224 6.73999 7.39224 6.70998 7.19224 6.78998C6.68224 6.98998 6.16224 6.51998 6.31224 5.98998C6.37224 5.77998 6.32225 5.55998 6.18225 5.38998C5.83225 4.96998 6.12224 4.32998 6.67224 4.30998C6.89224 4.30998 7.09224 4.18998 7.21224 3.99998C7.51224 3.53998 8.20224 3.60997 8.39224 4.12997C8.46224 4.32997 8.64224 4.48998 8.85224 4.53998C9.38224 4.67998 9.52224 5.35998 9.09224 5.69998C8.92224 5.82998 8.82224 6.03998 8.84224 6.25998C8.87224 6.80998 8.26224 7.14998 7.81224 6.84998L7.80224 6.85999Z" fill="#ED939E"/>
<path id="Vector_27" d="M7.69267 6.00998C8.07927 6.00998 8.39268 5.69658 8.39268 5.30998C8.39268 4.92338 8.07927 4.60999 7.69267 4.60999C7.30607 4.60999 6.99268 4.92338 6.99268 5.30998C6.99268 5.69658 7.30607 6.00998 7.69267 6.00998Z" fill="#FFEB00"/>
<path id="Vector_28" d="M5.20264 11.98C5.02264 11.86 4.79264 11.83 4.59264 11.91C4.08264 12.11 3.56264 11.64 3.71264 11.11C3.77264 10.9 3.72263 10.68 3.58263 10.51C3.23263 10.09 3.52264 9.44997 4.07264 9.42997C4.29264 9.42997 4.49264 9.30997 4.61264 9.11997C4.91264 8.65997 5.60263 8.72998 5.79263 9.24998C5.86263 9.44998 6.04264 9.60997 6.25264 9.65997C6.78264 9.79997 6.92264 10.48 6.49264 10.82C6.32264 10.95 6.22264 11.16 6.24264 11.38C6.27264 11.93 5.66264 12.27 5.21264 11.97L5.20264 11.98Z" fill="white"/>
<path id="Vector_29" d="M5.09258 11.12C5.47917 11.12 5.79257 10.8066 5.79257 10.42C5.79257 10.0334 5.47917 9.71997 5.09258 9.71997C4.70598 9.71997 4.39258 10.0334 4.39258 10.42C4.39258 10.8066 4.70598 11.12 5.09258 11.12Z" fill="#FFEB00"/>
<path id="Vector_30" d="M10.7026 12.52L10.5626 12.42C10.4026 12.31 10.1926 12.29 10.0126 12.36L9.85258 12.42C9.39258 12.6 8.93258 12.18 9.06258 11.71L9.11259 11.54C9.16259 11.35 9.12259 11.15 9.00259 11L8.89259 10.87C8.58259 10.49 8.84258 9.91998 9.33258 9.89998H9.50259C9.70259 9.88998 9.88258 9.77998 9.98258 9.61998L10.0726 9.46997C10.3326 9.05997 10.9626 9.11998 11.1326 9.58998L11.1926 9.74999C11.2626 9.92999 11.4126 10.07 11.6026 10.12L11.7726 10.16C12.2526 10.28 12.3826 10.9 11.9926 11.2L11.8526 11.31C11.7026 11.43 11.6126 11.62 11.6226 11.81V11.98C11.6626 12.47 11.1126 12.78 10.7026 12.51V12.52Z" fill="white"/>
<path id="Vector_31" d="M10.4822 11.58C10.8688 11.58 11.1822 11.2666 11.1822 10.88C11.1822 10.4934 10.8688 10.18 10.4822 10.18C10.0956 10.18 9.78223 10.4934 9.78223 10.88C9.78223 11.2666 10.0956 11.58 10.4822 11.58Z" fill="#FFEB00"/>
<path id="Vector_32" d="M10.4723 7.78001L10.3923 7.73001C10.3023 7.67001 10.1823 7.66001 10.0823 7.70001L9.99234 7.74C9.73234 7.84 9.47234 7.60001 9.55234 7.34001L9.58234 7.25001C9.61234 7.15001 9.58234 7.03001 9.52234 6.95001L9.46234 6.88C9.29234 6.67 9.43234 6.35001 9.70234 6.34001H9.80234C9.91234 6.34001 10.0123 6.28001 10.0723 6.18001L10.1223 6.1C10.2723 5.87 10.6223 5.91 10.7123 6.16L10.7423 6.25001C10.7823 6.35001 10.8623 6.43001 10.9723 6.46001L11.0623 6.48001C11.3323 6.55001 11.4023 6.89001 11.1823 7.06001L11.1023 7.12001C11.0123 7.19001 10.9723 7.29001 10.9723 7.40001V7.50001C10.9923 7.77001 10.6923 7.95001 10.4623 7.79001L10.4723 7.78001Z" fill="white"/>
<path id="Vector_33" d="M10.3426 7.25998C10.558 7.25998 10.7326 7.08537 10.7326 6.86998C10.7326 6.65459 10.558 6.47998 10.3426 6.47998C10.1272 6.47998 9.95264 6.65459 9.95264 6.86998C9.95264 7.08537 10.1272 7.25998 10.3426 7.25998Z" fill="#FFEB00"/>
<path id="Vector_34" d="M5.3825 5.37L5.3025 5.32C5.2125 5.26 5.0925 5.25 4.9925 5.29L4.9025 5.32999C4.6425 5.42999 4.3825 5.19 4.4625 4.93L4.4925 4.84C4.5225 4.74 4.4925 4.62 4.4325 4.54L4.3725 4.46999C4.2025 4.25999 4.3425 3.94 4.6125 3.93H4.7125C4.8225 3.93 4.9225 3.87 4.9825 3.77L5.0325 3.68999C5.1825 3.45999 5.5325 3.50001 5.6225 3.75001L5.6525 3.84C5.6925 3.94 5.7725 4.02 5.8825 4.05L5.9725 4.07C6.2425 4.14 6.3125 4.48 6.0925 4.65L6.0125 4.71C5.9225 4.78 5.8825 4.88 5.8825 4.99V5.09C5.9025 5.36 5.6025 5.54 5.3725 5.38L5.3825 5.37Z" fill="white"/>
<path id="Vector_35" d="M5.26256 4.85001C5.47795 4.85001 5.65256 4.6754 5.65256 4.46001C5.65256 4.24462 5.47795 4.07001 5.26256 4.07001C5.04717 4.07001 4.87256 4.24462 4.87256 4.46001C4.87256 4.6754 5.04717 4.85001 5.26256 4.85001Z" fill="#FFEB00"/>
<path id="Vector_36" d="M2.41229 10.1L2.33228 10.05C2.24228 9.99 2.12229 9.98 2.02229 10.02L1.93229 10.06C1.67229 10.16 1.41229 9.92 1.49229 9.66L1.52229 9.57001C1.55229 9.47001 1.52229 9.35 1.46229 9.27L1.40228 9.20001C1.23228 8.99001 1.37229 8.67 1.64229 8.66H1.74229C1.85229 8.66 1.95228 8.60001 2.01228 8.50001L2.06229 8.42001C2.21229 8.19001 2.56228 8.23001 2.65228 8.48001L2.68229 8.57001C2.72229 8.67001 2.80229 8.75001 2.91229 8.78001L3.00229 8.8C3.27229 8.87 3.34229 9.21 3.12229 9.38L3.04228 9.44C2.95228 9.51 2.91229 9.61 2.91229 9.72V9.82001C2.93229 10.09 2.63228 10.27 2.40228 10.11L2.41229 10.1Z" fill="white"/>
<path id="Vector_37" d="M2.29234 9.56998C2.50773 9.56998 2.68235 9.39537 2.68235 9.17998C2.68235 8.96459 2.50773 8.78998 2.29234 8.78998C2.07695 8.78998 1.90234 8.96459 1.90234 9.17998C1.90234 9.39537 2.07695 9.56998 2.29234 9.56998Z" fill="#FFEB00"/>
<path id="Vector_38" d="M17.7726 10.18L17.6926 10.13C17.6026 10.07 17.4826 10.06 17.3826 10.1L17.2926 10.14C17.0326 10.24 16.7726 9.99999 16.8526 9.73999L16.8826 9.64999C16.9126 9.54999 16.8826 9.42999 16.8226 9.34999L16.7626 9.28C16.5926 9.07 16.7326 8.74999 17.0026 8.73999H17.1026C17.2126 8.73999 17.3126 8.67999 17.3726 8.57999L17.4226 8.5C17.5726 8.27 17.9226 8.31 18.0126 8.56L18.0426 8.64999C18.0826 8.74999 18.1626 8.83 18.2726 8.86L18.3626 8.87999C18.6326 8.94999 18.7026 9.28999 18.4826 9.45999L18.4026 9.51999C18.3126 9.58999 18.2726 9.68999 18.2726 9.79999V9.89999C18.2926 10.17 17.9926 10.35 17.7626 10.19L17.7726 10.18Z" fill="white"/>
<path id="Vector_39" d="M17.6424 9.66C17.8578 9.66 18.0324 9.4854 18.0324 9.27C18.0324 9.05461 17.8578 8.88 17.6424 8.88C17.427 8.88 17.2524 9.05461 17.2524 9.27C17.2524 9.4854 17.427 9.66 17.6424 9.66Z" fill="#FFEB00"/>
<path id="Vector_40" d="M13.4424 7.53C13.2624 7.41 13.0324 7.37999 12.8324 7.45999C12.3224 7.65999 11.8024 7.18999 11.9524 6.65999C12.0124 6.44999 11.9624 6.23 11.8224 6.06C11.4724 5.64 11.7624 5 12.3124 4.98C12.5324 4.98 12.7324 4.86 12.8524 4.67C13.1524 4.21 13.8424 4.27999 14.0324 4.79999C14.1024 4.99999 14.2824 5.15999 14.4924 5.20999C15.0224 5.34999 15.1624 6.03 14.7324 6.37C14.5624 6.5 14.4624 6.70999 14.4824 6.92999C14.5124 7.47999 13.9024 7.81999 13.4524 7.51999L13.4424 7.53Z" fill="white"/>
<path id="Vector_41" d="M13.3323 6.67C13.7189 6.67 14.0323 6.35659 14.0323 5.96999C14.0323 5.58339 13.7189 5.26999 13.3323 5.26999C12.9457 5.26999 12.6323 5.58339 12.6323 5.96999C12.6323 6.35659 12.9457 6.67 13.3323 6.67Z" fill="#FFEB00"/>
</g>
</g>
</g>
</svg>
