<svg width="94" height="70" viewBox="0 0 94 70" fill="none" xmlns="http://www.w3.org/2000/svg">
<g id="BigBalcony6" clip-path="url(#clip0_58_22203)">
<g id="Group">
<g id="_30_bloc_r">
<path id="Vector" d="M82 0H0V70H82V0Z" fill="#A23840"/>
<g id="Group_2">
<path id="Vector_2" d="M68.6898 2H15.5698V55.15H68.6898V2Z" fill="#E13030"/>
<path id="Vector_3" d="M67.1698 3.52002H17.0898V53.62H67.1698V3.52002Z" fill="#4A4646"/>
<g id="Group_3">
<path id="Vector_4" d="M65.6601 5.05005H18.6201V52.1101H65.6601V5.05005Z" fill="#E0E0E0"/>
<g id="Vector_5" style="mix-blend-mode:multiply">
<path d="M65.6501 5.04004V5.95004H19.3401V52.1H18.6201V5.04004H65.6501Z" fill="#E0E0E0"/>
</g>
</g>
<path id="Vector_6" d="M51.4998 3.98999H33.5298V52.96H51.4998V3.98999Z" stroke="#4A4646" stroke-width="0.5" stroke-miterlimit="10"/>
<path id="Vector_7" d="M69 52.02H15V57H69V52.02Z" fill="#4A4646"/>
</g>
<g id="Group_4">
<path id="Vector_8" d="M33 30H0V58H33V30Z" fill="#E13030"/>
<path id="Vector_9" d="M93.57 30.5H32.5V57.5H93.57V30.5Z" fill="#A23840" stroke="#E13030" stroke-width="0.75" stroke-miterlimit="10"/>
</g>
<g id="Group_5">
<path id="Vector_10" d="M28.4 5.08C41.39 6.47 54.87 5.5 68.53 2.21L67.7 2.07C47.01 6.92 30.16 5.35 16 2V3C18.2 3.52 19.45 3.76 21.68 4.15C23.91 4.54 26.14 4.84 28.4 5.08Z" fill="#FF9E40"/>
<path id="Vector_11" d="M39.27 5.25996L45.48 5.20996L42.44 14.03L39.27 5.25996Z" fill="#FF9E40"/>
<path id="Vector_12" d="M16.3101 2.42993L22.4101 3.62993L17.6601 11.6599L16.3101 2.42993Z" fill="#FF9E40"/>
<path id="Vector_13" d="M62.46 3.51995L67.21 2.19995L66.71 9.58995L62.46 3.51995Z" fill="#FF9E40"/>
<path id="Vector_14" d="M53.2002 4.61991L56.9402 4.15991L57.6002 9.44991L55.5302 7.98991L53.8702 9.91991L53.2002 4.61991Z" fill="#B0CC49"/>
<path id="Vector_15" d="M27.78 4.44995L31.53 4.79995L31.04 10.11L29.33 8.23995L27.29 9.75995L27.78 4.44995Z" fill="#B0CC49"/>
</g>
</g>
</g>
</g>
<defs>
<clipPath id="clip0_58_22203">
<rect width="93.95" height="70" fill="white"/>
</clipPath>
</defs>
</svg>
