<svg width="94" height="70" viewBox="0 0 94 70" fill="none" xmlns="http://www.w3.org/2000/svg">
<g clip-path="url(#clip0_58_22037)">
<path d="M82 0H0V70H82V0Z" fill="#A23840"/>
<path d="M68.6898 6H15.5698V59.15H68.6898V6Z" fill="#E13030"/>
<path d="M67.1698 7.52002H17.0898V57.62H67.1698V7.52002Z" fill="#4A4646"/>
<path d="M65.6601 9.05005H18.6201V56.1101H65.6601V9.05005Z" fill="#E0E0E0"/>
<g style="mix-blend-mode:multiply">
<path d="M65.6501 9.04004V9.95004H19.3401V56.1H18.6201V9.04004H65.6501Z" fill="#E0E0E0"/>
</g>
<path d="M51.4998 7.98999H33.5298V56.96H51.4998V7.98999Z" stroke="#4A4646" stroke-width="0.5" stroke-miterlimit="10"/>
<path d="M69 56.02H15V61H69V56.02Z" fill="#4A4646"/>
<path d="M33 34H0V62H33V34Z" fill="#E13030"/>
<path d="M93.57 34.5H32.5V61.5H93.57V34.5Z" fill="#A23840" stroke="#E13030" stroke-width="0.75" stroke-miterlimit="10"/>
<path d="M47.16 38.1C62 39.95 77.4 38.66 93 34.29L92.05 34.1C68.42 40.55 49.17 38.46 33 34V35.33C35.51 36.03 36.94 36.34 39.48 36.85C42.02 37.36 44.58 37.77 47.15 38.09L47.16 38.1Z" fill="#3787FF"/>
<path d="M59.5801 38.33L66.6701 38.27L63.2001 50L59.5801 38.33Z" fill="#3787FF"/>
<path d="M33.3599 34.5701L40.3199 36.1701L34.8899 46.8501L33.3599 34.5701Z" fill="#3787FF"/>
<path d="M86.0698 36.03L91.4898 34.26L90.9298 44.09L86.0698 36.03Z" fill="#3787FF"/>
<path d="M75.5 37.4901L79.76 36.8701L80.52 43.9001L78.15 41.9701L76.25 44.5301L75.5 37.4901Z" fill="#C6D0DE"/>
<path d="M46.4599 37.26L50.7399 37.72L50.1799 44.78L48.2299 42.3L45.8999 44.32L46.4599 37.26Z" fill="#C6D0DE"/>
</g>
<defs>
<clipPath id="clip0_58_22037">
<rect width="93.95" height="70" fill="white"/>
</clipPath>
</defs>
</svg>
