<svg width="97" height="70" viewBox="0 0 97 70" fill="none" xmlns="http://www.w3.org/2000/svg">
<g clip-path="url(#clip0_58_22059)">
<path d="M82 0H0V70H82V0Z" fill="#A23840"/>
<path d="M68.6898 2H15.5698V55.15H68.6898V2Z" fill="#E13030"/>
<path d="M67.1698 3.52002H17.0898V53.62H67.1698V3.52002Z" fill="#4A4646"/>
<path d="M65.6601 5.05005H18.6201V52.1101H65.6601V5.05005Z" fill="#E0E0E0"/>
<g style="mix-blend-mode:multiply">
<path d="M65.6501 5.04004V5.95004H19.3401V52.1H18.6201V5.04004H65.6501Z" fill="#E0E0E0"/>
</g>
<path d="M51.4998 3.98999H33.5298V52.96H51.4998V3.98999Z" stroke="#4A4646" stroke-width="0.5" stroke-miterlimit="10"/>
<path d="M69 52.02H15V57H69V52.02Z" fill="#4A4646"/>
<path d="M33 30H0V58H33V30Z" fill="#E13030"/>
<path d="M93.57 30.5H32.5V57.5H93.57V30.5Z" fill="#A23840" stroke="#E13030" stroke-width="0.75" stroke-miterlimit="10"/>
<path d="M62.4403 26.8C62.3603 27.45 62.2403 28.07 62.0303 28.63C61.5603 29.93 60.6703 30.89 59.0103 31.17C57.8703 31.36 56.7103 31.24 55.5703 31.19C54.1803 31.13 52.7903 31.15 51.4103 31.19C46.1403 31.37 41.0103 31.78 35.8803 30.55C35.8803 30.56 35.8803 30.58 35.8803 30.59C35.8803 30.77 35.5803 30.83 35.5503 30.64C35.5403 30.58 35.5303 30.52 35.5203 30.46C35.3203 30.41 35.1103 30.36 34.9103 30.3C34.8403 30.28 34.8003 30.25 34.7703 30.2C34.7603 30.23 34.7503 30.26 34.7303 30.29C34.7103 30.33 34.6603 30.34 34.6303 30.34C34.4603 30.29 34.4703 30.29 34.4203 30.12C34.4103 30.07 34.4403 30.03 34.4903 30.01C34.5103 30.01 34.5403 29.99 34.5603 29.98C34.5703 29.98 34.5803 29.98 34.5903 29.98C34.4303 29.3 33.8103 26.62 33.7703 26.35C33.6703 25.56 33.5403 24.7299 33.7803 23.97C33.8303 23.81 33.9003 23.65 33.9903 23.49C34.0203 23.44 34.1203 23.4 34.1703 23.44C34.9303 23.99 34.8903 25.08 35.0303 25.91C35.2103 26.96 35.4003 28.02 35.5903 29.07C35.5903 29.09 35.5903 29.12 35.6003 29.14C35.6003 29.12 35.6003 29.1 35.6003 29.09C35.6003 28.95 35.6203 28.8 35.6303 28.65C35.7303 27.19 35.8403 25.73 36.0503 24.28C36.2803 22.68 36.4203 20.69 37.5803 19.43C37.5903 19.41 37.6103 19.39 37.6303 19.37C37.6403 19.35 37.6603 19.34 37.6803 19.34C37.7303 19.32 37.7903 19.32 37.8303 19.34C37.8503 19.36 37.8803 19.38 37.8903 19.4C38.6603 20.53 38.0903 22.48 38.0003 23.74C37.9103 25.01 37.8303 26.28 37.7403 27.55C38.1703 26.28 38.8003 25.08 39.6303 23.97C39.7203 23.85 39.9203 23.85 39.9603 24.02C40.3103 25.23 40.0803 26.56 39.7603 27.84C39.9603 27.47 40.1803 27.09 40.4303 26.74C40.7303 26.31 41.1703 25.7 41.7903 25.72C42.3403 25.74 42.5603 26.22 42.6403 26.68C42.7503 27.35 42.7303 28.08 42.7003 28.8C42.9203 28.31 43.1603 27.82 43.4203 27.35C43.5703 27.08 43.8203 26.39 44.2803 26.41C44.6303 26.43 44.7203 26.72 44.8203 26.99C44.9003 27.21 44.9603 27.44 45.0203 27.67C45.0203 27.7 45.0303 27.72 45.0403 27.75C45.1103 26.85 45.2203 25.95 45.4303 25.06C45.5803 24.37 45.8103 22.31 46.7503 22.08C46.8403 22.06 46.9303 22.05 47.0103 22.07C47.7003 22.18 47.6903 23.63 47.7603 24.06C47.9603 25.26 48.1703 26.47 48.3703 27.67C48.5603 26.92 48.8903 26.21 49.3603 25.54C49.4703 25.38 49.7303 25.39 49.7903 25.59C50.0103 26.37 50.1003 27.14 50.1203 27.92C50.4403 27.21 50.9003 26.58 51.5003 26.56C52.0503 26.55 52.2203 27.15 52.2703 27.8C52.6303 26.9 53.1803 26.01 53.8603 26.12C54.3603 26.21 54.5703 26.85 54.6703 27.56C54.8703 27.04 55.2003 26.62 55.8203 26.61C56.2503 26.61 56.5503 26.78 56.7603 27.05C56.7603 26.81 56.7803 26.58 56.8003 26.34V26.31C56.8503 25.46 56.9303 24.61 57.0403 23.77C57.1803 22.7 57.2603 21.59 57.9903 20.74C58.0803 20.64 58.2403 20.66 58.3303 20.74C58.3503 20.76 58.3703 20.77 58.3903 20.79C59.1103 21.43 58.9503 22.47 58.9403 23.35C58.9203 24.39 58.8903 25.4299 58.8703 26.4599C59.2803 25.4799 59.9003 24.62 60.9803 24.19C61.1603 24.12 61.2903 24.29 61.3003 24.43C61.4203 25.35 61.4203 26.25 61.2903 27.15C61.5103 26.93 61.7503 26.73 62.0303 26.54C62.1903 26.44 62.4603 26.57 62.4403 26.77V26.8Z" fill="#4C9A51"/>
<path d="M62.0303 28.64C61.5603 29.94 60.6703 30.9 59.0103 31.18C57.8703 31.37 56.7103 31.25 55.5703 31.2C54.1803 31.14 52.7903 31.16 51.4103 31.2C46.1403 31.38 41.0103 31.79 35.8803 30.56C35.8803 30.57 35.8803 30.59 35.8803 30.6C35.8803 30.78 35.5803 30.84 35.5503 30.65C35.5403 30.59 35.5303 30.53 35.5203 30.47C35.3203 30.42 35.1103 30.37 34.9103 30.31C34.8403 30.29 34.8003 30.26 34.7703 30.21C34.7603 30.24 34.7503 30.27 34.7303 30.3C34.7103 30.34 34.6603 30.35 34.6303 30.35C34.4603 30.3 34.4703 30.3 34.4203 30.13C34.4103 30.08 34.4403 30.04 34.4903 30.02C34.5103 30.02 34.5403 30 34.5603 29.99C34.5703 29.99 34.5803 29.99 34.5903 29.99C34.4303 29.31 33.8103 26.63 33.7703 26.36C33.6703 25.57 33.5403 24.74 33.7803 23.98C33.7503 25.01 33.8603 26.03 34.1903 27.02C34.4003 27.62 34.9403 28.57 35.6003 29.09C35.6003 29.09 35.6103 29.09 35.6203 29.1C35.6803 29.15 35.7403 29.19 35.8003 29.23C35.7403 29.05 35.6903 28.86 35.6503 28.67C35.7503 27.21 35.8603 25.75 36.0703 24.3C36.3003 22.7 36.4403 20.71 37.6003 19.45C37.6003 19.45 37.6103 19.45 37.6203 19.45C37.6503 19.42 37.6703 19.38 37.7003 19.35C37.7503 19.33 37.8103 19.33 37.8503 19.35C37.8003 19.42 37.7603 19.49 37.7103 19.57C37.7303 19.64 37.7103 19.73 37.6403 19.79C37.5903 19.83 37.5503 19.86 37.5103 19.9C36.1703 22.2 36.0403 24.94 36.8103 27.5C36.8703 27.71 37.1803 28.32 37.4003 28.93C37.4303 28.89 37.4603 28.87 37.4903 28.83C37.5603 28.73 37.7303 28.73 37.7603 28.87C37.9103 29.49 38.9403 29.28 39.4103 29.39C40.0003 29.53 40.5503 29.84 41.1303 30.02C42.6003 30.48 44.4803 30.54 45.2803 28.96C45.3003 28.92 45.3403 28.89 45.3803 28.88C45.2003 28.52 45.0803 28.11 45.0103 27.7C45.0103 27.73 45.0203 27.75 45.0303 27.78C45.1003 26.88 45.2103 25.98 45.4203 25.09C45.5703 24.4 45.8003 22.34 46.7403 22.11C46.8303 22.09 46.9203 22.08 47.0003 22.1C46.2003 23.11 46.0703 24.65 46.0603 25.88C46.0603 27.11 46.2703 28.3 46.6503 29.47C47.8603 29.89 49.0303 29.7 50.4403 29.66C51.2503 29.63 51.9903 29.83 52.7903 29.91C53.5703 29.98 54.2803 29.78 55.0403 29.71C55.8703 29.62 56.6603 29.77 57.4503 29.86C56.9403 28.74 56.7503 27.59 56.7803 26.41V26.38C56.8303 25.53 56.9103 24.68 57.0203 23.84C57.1603 22.77 57.2403 21.66 57.9703 20.81C58.0603 20.71 58.2203 20.73 58.3103 20.81C58.3303 20.83 58.3503 20.84 58.3703 20.86C58.2803 21.08 58.1903 21.29 58.1103 21.51C57.9703 21.94 57.8303 22.37 57.7103 22.82C57.1203 25.15 57.1703 27.57 57.9803 29.9C58.4503 29.93 58.9203 29.91 59.4003 29.79C60.3103 29.56 61.2103 29.19 62.0003 28.67L62.0303 28.64Z" fill="#4C9A51"/>
<path d="M63.0903 27.7898L62.4503 31.0298L61.2903 36.8498H34.3503L33.1903 31.0298L32.5503 27.7898H63.0903Z" fill="#C6D0DE"/>
<g style="mix-blend-mode:multiply" opacity="0.5">
<path d="M63.0903 27.7898L62.4503 31.0298H33.1903L32.5503 27.7898H63.0903Z" fill="#C6D0DE"/>
</g>
<path d="M64.0001 27.1599H31.6401V29.9199H64.0001V27.1599Z" fill="#C6D0DE"/>
<path d="M95.4403 26.8C95.3603 27.45 95.2403 28.07 95.0303 28.63C94.5603 29.93 93.6703 30.89 92.0103 31.17C90.8703 31.36 89.7103 31.24 88.5703 31.19C87.1803 31.13 85.7903 31.15 84.4103 31.19C79.1403 31.37 74.0103 31.78 68.8803 30.55C68.8803 30.56 68.8803 30.58 68.8803 30.59C68.8803 30.77 68.5803 30.83 68.5503 30.64C68.5403 30.58 68.5303 30.52 68.5203 30.46C68.3203 30.41 68.1103 30.36 67.9103 30.3C67.8403 30.28 67.8003 30.25 67.7703 30.2C67.7603 30.23 67.7503 30.26 67.7303 30.29C67.7103 30.33 67.6603 30.34 67.6303 30.34C67.4603 30.29 67.4703 30.29 67.4203 30.12C67.4103 30.07 67.4403 30.03 67.4903 30.01C67.5103 30.01 67.5403 29.99 67.5603 29.98C67.5703 29.98 67.5803 29.98 67.5903 29.98C67.4303 29.3 66.8103 26.62 66.7703 26.35C66.6703 25.56 66.5403 24.7299 66.7803 23.97C66.8303 23.81 66.9003 23.65 66.9903 23.49C67.0203 23.44 67.1203 23.4 67.1703 23.44C67.9303 23.99 67.8903 25.08 68.0303 25.91C68.2103 26.96 68.4003 28.02 68.5903 29.07C68.5903 29.09 68.5903 29.12 68.6003 29.14C68.6003 29.12 68.6003 29.1 68.6003 29.09C68.6003 28.95 68.6203 28.8 68.6303 28.65C68.7303 27.19 68.8403 25.73 69.0503 24.28C69.2803 22.68 69.4203 20.69 70.5803 19.43C70.5903 19.41 70.6103 19.39 70.6303 19.37C70.6403 19.35 70.6603 19.34 70.6803 19.34C70.7303 19.32 70.7903 19.32 70.8303 19.34C70.8503 19.36 70.8803 19.38 70.8903 19.4C71.6603 20.53 71.0903 22.48 71.0003 23.74C70.9103 25.01 70.8303 26.28 70.7403 27.55C71.1703 26.28 71.8003 25.08 72.6303 23.97C72.7203 23.85 72.9203 23.85 72.9603 24.02C73.3103 25.23 73.0803 26.56 72.7603 27.84C72.9603 27.47 73.1803 27.09 73.4303 26.74C73.7303 26.31 74.1703 25.7 74.7903 25.72C75.3403 25.74 75.5603 26.22 75.6403 26.68C75.7503 27.35 75.7303 28.08 75.7003 28.8C75.9203 28.31 76.1603 27.82 76.4203 27.35C76.5703 27.08 76.8203 26.39 77.2803 26.41C77.6303 26.43 77.7203 26.72 77.8203 26.99C77.9003 27.21 77.9603 27.44 78.0203 27.67C78.0203 27.7 78.0303 27.72 78.0403 27.75C78.1103 26.85 78.2203 25.95 78.4303 25.06C78.5803 24.37 78.8103 22.31 79.7503 22.08C79.8403 22.06 79.9303 22.05 80.0103 22.07C80.7003 22.18 80.6903 23.63 80.7603 24.06C80.9603 25.26 81.1703 26.47 81.3703 27.67C81.5603 26.92 81.8903 26.21 82.3603 25.54C82.4703 25.38 82.7303 25.39 82.7903 25.59C83.0103 26.37 83.1003 27.14 83.1203 27.92C83.4403 27.21 83.9003 26.58 84.5003 26.56C85.0503 26.55 85.2203 27.15 85.2703 27.8C85.6303 26.9 86.1803 26.01 86.8603 26.12C87.3603 26.21 87.5703 26.85 87.6703 27.56C87.8703 27.04 88.2003 26.62 88.8203 26.61C89.2503 26.61 89.5503 26.78 89.7603 27.05C89.7603 26.81 89.7803 26.58 89.8003 26.34V26.31C89.8503 25.46 89.9303 24.61 90.0403 23.77C90.1803 22.7 90.2603 21.59 90.9903 20.74C91.0803 20.64 91.2403 20.66 91.3303 20.74C91.3503 20.76 91.3703 20.77 91.3903 20.79C92.1103 21.43 91.9503 22.47 91.9403 23.35C91.9203 24.39 91.8903 25.4299 91.8703 26.4599C92.2803 25.4799 92.9003 24.62 93.9803 24.19C94.1603 24.12 94.2903 24.29 94.3003 24.43C94.4203 25.35 94.4203 26.25 94.2903 27.15C94.5103 26.93 94.7503 26.73 95.0303 26.54C95.1903 26.44 95.4603 26.57 95.4403 26.77V26.8Z" fill="#4C9A51"/>
<path d="M95.0303 28.64C94.5603 29.94 93.6703 30.9 92.0103 31.18C90.8703 31.37 89.7103 31.25 88.5703 31.2C87.1803 31.14 85.7903 31.16 84.4103 31.2C79.1403 31.38 74.0103 31.79 68.8803 30.56C68.8803 30.57 68.8803 30.59 68.8803 30.6C68.8803 30.78 68.5803 30.84 68.5503 30.65C68.5403 30.59 68.5303 30.53 68.5203 30.47C68.3203 30.42 68.1103 30.37 67.9103 30.31C67.8403 30.29 67.8003 30.26 67.7703 30.21C67.7603 30.24 67.7503 30.27 67.7303 30.3C67.7103 30.34 67.6603 30.35 67.6303 30.35C67.4603 30.3 67.4703 30.3 67.4203 30.13C67.4103 30.08 67.4403 30.04 67.4903 30.02C67.5103 30.02 67.5403 30 67.5603 29.99C67.5703 29.99 67.5803 29.99 67.5903 29.99C67.4303 29.31 66.8103 26.63 66.7703 26.36C66.6703 25.57 66.5403 24.74 66.7803 23.98C66.7503 25.01 66.8603 26.03 67.1903 27.02C67.4003 27.62 67.9403 28.57 68.6003 29.09C68.6003 29.09 68.6103 29.09 68.6203 29.1C68.6803 29.15 68.7403 29.19 68.8003 29.23C68.7403 29.05 68.6903 28.86 68.6503 28.67C68.7503 27.21 68.8603 25.75 69.0703 24.3C69.3003 22.7 69.4403 20.71 70.6003 19.45C70.6003 19.45 70.6103 19.45 70.6203 19.45C70.6503 19.42 70.6703 19.38 70.7003 19.35C70.7503 19.33 70.8103 19.33 70.8503 19.35C70.8003 19.42 70.7603 19.49 70.7103 19.57C70.7303 19.64 70.7103 19.73 70.6403 19.79C70.5903 19.83 70.5503 19.86 70.5103 19.9C69.1703 22.2 69.0403 24.94 69.8103 27.5C69.8703 27.71 70.1803 28.32 70.4003 28.93C70.4303 28.89 70.4603 28.87 70.4903 28.83C70.5603 28.73 70.7303 28.73 70.7603 28.87C70.9103 29.49 71.9403 29.28 72.4103 29.39C73.0003 29.53 73.5503 29.84 74.1303 30.02C75.6003 30.48 77.4803 30.54 78.2803 28.96C78.3003 28.92 78.3403 28.89 78.3803 28.88C78.2003 28.52 78.0803 28.11 78.0103 27.7C78.0103 27.73 78.0203 27.75 78.0303 27.78C78.1003 26.88 78.2103 25.98 78.4203 25.09C78.5703 24.4 78.8003 22.34 79.7403 22.11C79.8303 22.09 79.9203 22.08 80.0003 22.1C79.2003 23.11 79.0703 24.65 79.0603 25.88C79.0603 27.11 79.2703 28.3 79.6503 29.47C80.8603 29.89 82.0303 29.7 83.4403 29.66C84.2503 29.63 84.9903 29.83 85.7903 29.91C86.5703 29.98 87.2803 29.78 88.0403 29.71C88.8703 29.62 89.6603 29.77 90.4503 29.86C89.9403 28.74 89.7503 27.59 89.7803 26.41V26.38C89.8303 25.53 89.9103 24.68 90.0203 23.84C90.1603 22.77 90.2403 21.66 90.9703 20.81C91.0603 20.71 91.2203 20.73 91.3103 20.81C91.3303 20.83 91.3503 20.84 91.3703 20.86C91.2803 21.08 91.1903 21.29 91.1103 21.51C90.9703 21.94 90.8303 22.37 90.7103 22.82C90.1203 25.15 90.1703 27.57 90.9803 29.9C91.4503 29.93 91.9203 29.91 92.4003 29.79C93.3103 29.56 94.2103 29.19 95.0003 28.67L95.0303 28.64Z" fill="#4C9A51"/>
<path d="M96.0903 27.7898L95.4503 31.0298L94.2903 36.8498H67.3503L66.1903 31.0298L65.5503 27.7898H96.0903Z" fill="#C6D0DE"/>
<g style="mix-blend-mode:multiply" opacity="0.5">
<path d="M96.0903 27.7898L95.4503 31.0298H66.1903L65.5503 27.7898H96.0903Z" fill="#C6D0DE"/>
</g>
<path d="M97.0001 27.1599H64.6401V29.9199H97.0001V27.1599Z" fill="#C6D0DE"/>
</g>
<defs>
<clipPath id="clip0_58_22059">
<rect width="97" height="70" fill="white"/>
</clipPath>
</defs>
</svg>
