<svg width="48" height="57" viewBox="0 0 48 57" fill="none" xmlns="http://www.w3.org/2000/svg">
<path d="M45.6901 0H2.08008V54.62H45.6901V0Z" fill="#E13030"/>
<path d="M44.4298 1.56999H3.31982V53.06H44.4298V1.56999Z" fill="#4A4646"/>
<path d="M43.3401 2.92H4.56006V52.62H43.3401V2.92Z" fill="#EBEBEB"/>
<mask id="mask0_54_4658" style="mask-type:luminance" maskUnits="userSpaceOnUse" x="4" y="2" width="40" height="51">
<path d="M43.3401 2.92H4.56006V52.62H43.3401V2.92Z" fill="white"/>
</mask>
<path d="M44.5 15.5H3.5" stroke="#4A4646" stroke-width="0.75" stroke-miterlimit="10"/>
<path d="M48 45H0V56.53H48V45Z" fill="#4A4646"/>
<path d="M30.9001 37.32C23.1201 35.49 16.4701 30.5 10.7301 31.76C7.54008 32.46 5.60008 34.24 4.48008 36.7C3.43008 38.99 3.08008 41.88 3.08008 45.03H32.9001L30.8901 37.31L30.9001 37.32Z" fill="#B748B7"/>
<path d="M30.9001 38.33C23.1201 36.74 16.4701 32.4 10.7301 33.5C7.54008 34.11 5.60008 35.66 4.48008 37.79C3.43008 39.78 3.08008 45.11 3.08008 45.11H33.7901L30.8901 38.32L30.9001 38.33Z" fill="#823284"/>
<path d="M20.9799 45C20.9799 43.75 19.7499 42.8 18.2799 43.12L15.3499 43.34C16.5899 38.24 12.6799 33.42 9.46986 33.79C5.95986 34.19 3.10986 38.18 3.10986 42.7C3.10986 43.52 3.20986 44.29 3.37986 45.01C9.49986 45.45 15.4099 45.51 20.9799 44.99V45Z" fill="#B748B7"/>
<path d="M12.59 55.25C3.61 55.95 1.58999 45.44 3.84999 39.47L4.54999 39.66C3.92999 41.12 4.5 47.36 8.59 49.25C12.68 51.15 14.87 50.3 15.23 52.25C15.59 54.2 13.91 55.15 12.59 55.25Z" fill="#B748B7"/>
<path d="M30.4001 44.57C27.8501 42.97 27.7701 39.28 27.6801 37.33C27.5801 35.25 28.3101 36.03 29.0401 36.05C30.5501 36.09 33.0701 36.33 34.6701 37.41C36.3801 38.56 37.0401 41.51 37.2801 43.12C37.3801 43.77 37.5801 44.25 36.3601 44.58C34.8501 44.99 32.1001 45.63 30.4001 44.57Z" fill="#B748B7"/>
<path d="M32.5098 32.47C32.5098 32.47 30.1198 33.41 29.5898 36.26L33.4198 36.97C33.6298 35.44 32.5098 32.47 32.5098 32.47Z" fill="#B748B7"/>
<path d="M31.8701 33.73C31.4501 34.17 30.8201 34.98 30.6001 36.18L32.8901 36.33C32.9901 35.64 32.6801 34.52 32.4701 33.87C32.3901 33.61 32.0601 33.53 31.8701 33.73Z" fill="#823284"/>
<path d="M39.59 38.09C39.59 38.09 38.96 41.75 36.59 43.25L35.25 38.74C36.55 38 39.59 38.09 39.59 38.09Z" fill="#B748B7"/>
<path d="M38.7101 39.16C38.4701 39.71 37.9701 40.6 36.9801 41.23L36.0801 39.07C36.6501 38.75 37.7301 38.67 38.3701 38.65C38.6401 38.65 38.8101 38.91 38.7101 39.15V39.16Z" fill="#823284"/>
<path d="M30.1498 42.77C31.0798 43.81 32.5098 41.97 32.5098 41.97C32.5098 41.97 31.3698 43.25 32.5898 44.26C33.8098 45.27 36.1098 43.98 33.0498 41.47C30.3598 39.26 27.7998 40.17 30.1498 42.78V42.77Z" fill="#D48BD6"/>
<path d="M32.38 42.1C31.86 41.76 32.03 41.02 32.33 40.91C32.63 40.79 33.45 41.49 33.38 41.73C33.31 41.97 32.71 42.33 32.38 42.11V42.1Z" fill="#403732"/>
<path d="M31.6302 39.06C31.8602 39.25 31.9402 39.55 31.8402 39.77C31.8602 39.75 31.8802 39.75 31.8902 39.73C32.0502 39.51 31.9702 39.17 31.7102 38.96C31.4502 38.75 31.1202 38.75 30.9602 38.96C30.9502 38.98 30.9402 39 30.9302 39.02C31.1002 38.86 31.3902 38.86 31.6302 39.06Z" fill="#403732"/>
<path d="M34.9798 42.12C35.2098 42.31 35.2898 42.61 35.1898 42.83C35.2098 42.81 35.2298 42.81 35.2398 42.79C35.3998 42.57 35.3198 42.23 35.0598 42.02C34.7998 41.81 34.4698 41.81 34.3098 42.02C34.2998 42.04 34.2898 42.06 34.2798 42.08C34.4498 41.92 34.7398 41.92 34.9798 42.12Z" fill="#403732"/>
<path d="M21.3799 45.14L30.0199 45.06C28.7099 42.5 24.7799 43.2 21.3799 45.14Z" fill="#B748B7"/>
</svg>
