<svg width="56" height="65" viewBox="0 0 56 65" fill="none" xmlns="http://www.w3.org/2000/svg">
<g filter="url(#filter0_d_54_8059)">
<path d="M49.6901 0H6.08008V54.62H49.6901V0Z" fill="#E13030"/>
<path d="M48.4298 1.57001H7.31982V53.06H48.4298V1.57001Z" fill="#4A4646"/>
<path d="M47.3401 2.91998H8.56006V52.62H47.3401V2.91998Z" fill="#EBEBEB"/>
<mask id="mask0_54_8059" style="mask-type:luminance" maskUnits="userSpaceOnUse" x="8" y="2" width="40" height="51">
<path d="M47.3401 2.91998H8.56006V52.62H47.3401V2.91998Z" fill="white"/>
</mask>
<g mask="url(#mask0_54_8059)">
<path d="M24.9702 2C24.9702 2 23.8302 26.58 11.3802 26.58C20.5902 42 11.3802 51 11.3802 51H7.2002V2.00999H24.9702V2Z" fill="#A10EAD"/>
<path d="M31.4102 1.63C31.4102 1.63 32.5502 26.21 45.0002 26.21C33.5902 39 45.0002 50.63 45.0002 50.63H49.1802V1.64001H31.4102V1.63Z" fill="#A10EAD"/>
</g>
<path d="M48.5 15.5H7.5" stroke="#4A4646" stroke-width="0.75" stroke-miterlimit="10"/>
<path d="M28.5 54.5V2" stroke="#4A4646" stroke-width="0.75" stroke-miterlimit="10"/>
<path d="M52 45H4V56.53H52V45Z" fill="#4A4646"/>
</g>
<defs>
<filter id="filter0_d_54_8059" x="0" y="0" width="56" height="64.53" filterUnits="userSpaceOnUse" color-interpolation-filters="sRGB">
<feFlood flood-opacity="0" result="BackgroundImageFix"/>
<feColorMatrix in="SourceAlpha" type="matrix" values="0 0 0 0 0 0 0 0 0 0 0 0 0 0 0 0 0 0 127 0" result="hardAlpha"/>
<feOffset dy="4"/>
<feGaussianBlur stdDeviation="2"/>
<feComposite in2="hardAlpha" operator="out"/>
<feColorMatrix type="matrix" values="0 0 0 0 0 0 0 0 0 0 0 0 0 0 0 0 0 0 0.25 0"/>
<feBlend mode="normal" in2="BackgroundImageFix" result="effect1_dropShadow_54_8059"/>
<feBlend mode="normal" in="SourceGraphic" in2="effect1_dropShadow_54_8059" result="shape"/>
</filter>
</defs>
</svg>
