<svg width="27" height="19" viewBox="0 0 27 19" fill="none" xmlns="http://www.w3.org/2000/svg">
<g id="plant2">
<g id="Group">
<path id="Vector" d="M19.3903 12.59H7.57031V13.58H19.3903V12.59Z" fill="#2C4251"/>
<g id="Group_2">
<path id="Vector_2" d="M17.5701 18.43H9.73009L8.1001 12.59H19.1501L17.5701 18.43Z" fill="#2C4251"/>
<path id="Vector_3" d="M19.0901 13.56C19.0901 13.56 16.7001 13.62 13.7401 13.62C10.7801 13.62 8.39014 13.59 8.39014 13.56C8.39014 13.53 10.7801 13.5 13.7401 13.5C16.7001 13.5 19.0901 13.53 19.0901 13.56Z" fill="#E0E0E0"/>
<path id="Vector_4" d="M19.3701 12.68C19.3701 12.68 26.1001 11.75 26.8601 8.53999C27.3901 6.29999 24.8201 5.11 24.8201 5.11C24.8201 5.11 26.0801 2.47999 22.1201 1.20999C19.5001 0.36999 17.3801 1.61999 17.3801 1.61999C17.3801 1.61999 14.2501 -0.570001 10.0501 0.609999C7.15012 1.43 7.03012 3.51999 7.03012 3.51999C7.03012 3.51999 5.82012 2.80998 3.71012 3.82998C1.60012 4.84998 2.39012 6.70999 2.39012 6.70999C2.39012 6.70999 -0.0198762 7.31999 0.000123796 8.95999C0.0301238 11.9 7.44012 12.69 7.44012 12.69H19.3701V12.68Z" fill="#80C62C"/>
</g>
<path id="Vector_5" d="M8.11 8.31999C7.34 8.25999 6.59 8.13 5.88 8.23C5.53 8.26 5.2 8.39999 5.07 8.68999C4.91 8.97999 4.99 9.38 5.02 9.76C4.86 9.42 4.67 9.03 4.81 8.59C4.95 8.13 5.45 7.93 5.83 7.87C6.64 7.8 7.42 7.96999 8.11 8.31999Z" fill="#B0CC49"/>
<path id="Vector_6" d="M18.1303 4.59999C17.8903 4.29999 17.6503 4.01999 17.3803 3.77999C17.1103 3.53999 16.8203 3.32999 16.4903 3.25999C16.1703 3.15999 15.8303 3.19999 15.5103 3.34999C15.1803 3.47999 14.8803 3.69999 14.5703 3.91999C14.6803 3.75999 14.8003 3.60999 14.9203 3.45999C15.0703 3.33999 15.2103 3.18999 15.3903 3.09999C15.7303 2.87999 16.1803 2.81998 16.5903 2.90998C17.4003 3.16998 17.9103 3.87999 18.1303 4.59999Z" fill="#B0CC49"/>
<path id="Vector_7" d="M21.9702 10.67C21.6702 10.07 21.3202 9.50001 20.7702 9.25001C20.5102 9.11001 20.2002 9.06 19.8902 9.07C19.5702 9.07 19.2502 9.13999 18.9102 9.18999C19.0502 9.09999 19.2002 9.01999 19.3602 8.93999C19.5202 8.88999 19.6902 8.81999 19.8602 8.79999C20.2102 8.72999 20.5902 8.8 20.9302 8.93C21.6002 9.28 21.9702 10 21.9702 10.67Z" fill="#B0CC49"/>
</g>
</g>
</svg>
