<svg width="211" height="333" viewBox="0 0 211 333" fill="none" xmlns="http://www.w3.org/2000/svg">
<path d="M119.599 332.531L116.106 281.962L144.104 249.548L142.372 248.162L125.862 262.277L123.467 248.162L120.84 248.826L121.302 266.433L114.577 272.985L112.037 221.29L125.718 204.319L124.217 203.02L110.016 214.363L109.092 187.347H105.398L102.945 220.569L99.3655 253.589L80.8639 233.557L79.132 234.683L85.8861 245.305L74.1387 245.132V247.094L86.954 249.057L99.5675 268.829L96.71 332.531H119.599Z" fill="#4A4646"/>
<path d="M0.102959 149.563C-0.12795 143.271 0.333868 136.777 2.98932 131.033C5.64478 125.318 10.8114 120.44 17.046 119.545C20.6539 119.026 24.6948 120.036 26.9173 122.922C19.8746 114.176 13.438 104.594 10.6671 93.6833C7.89615 82.8017 9.2816 70.3615 16.5264 61.789C23.4825 53.534 35.1434 49.9549 45.8518 51.5424C56.5602 53.101 52.5193 58.2099 59.5621 66.4072C49.1712 51.0517 46.6311 40.4299 49.7196 23.7756C52.808 7.1501 113.393 -12.6215 142.603 13.9331C154.61 24.8724 167.743 41.2669 159.661 67.1287C164.048 61.0962 178.538 61.9622 185.234 65.3103C218.023 81.7049 222.382 151.641 179.577 161.715C186.476 158.626 195.192 162.783 198.54 169.566C203.072 178.773 198.743 189.395 192.45 196.726C187.139 202.903 180.125 207.348 172.852 210.985C132.125 231.421 82.5664 228.476 41.4934 210.696C26.2245 204.087 15.6028 193.176 7.46324 178.542C7.43438 178.485 7.40552 178.427 7.37665 178.369C2.52756 169.624 0.478215 159.521 0.131851 149.534L0.102959 149.563Z" fill="#43B554"/>
<path d="M120.782 240.08C122.744 237.771 128.719 237.021 128.719 241.321C130.133 228.073 147.452 233.499 139.86 246.055C144.883 237.771 159.286 253.329 148.087 258.062C159.545 261.497 149.414 275.236 142.025 269.983C147.307 273.245 144.19 280.027 138.562 278.988C123.581 276.131 107.677 251.914 120.782 240.109V240.08Z" fill="#43B554"/>
<path d="M69.664 251.02C72.0597 250.01 73.2143 247.354 73.2143 247.354C73.2143 247.354 70.5011 246.315 68.1342 247.325C65.7386 248.335 64.584 250.991 64.584 250.991C64.584 250.991 67.2972 252.03 69.664 251.02Z" fill="#43B554"/>
<path d="M66.7776 242.62C69.4331 244.987 73.4163 244.842 73.4163 244.842C73.4163 244.842 73.0988 240.859 70.4434 238.492C67.7879 236.125 63.8047 236.27 63.8047 236.27C63.8047 236.27 64.1222 240.253 66.7776 242.62Z" fill="#43B554"/>
</svg>
