<svg width="445" height="281" viewBox="0 0 445 281" fill="none" xmlns="http://www.w3.org/2000/svg">
<path d="M339.442 69.9643C244.838 47.724 164.065 -12.9112 94.3564 2.46886C55.6296 10.9888 32.0616 32.676 18.3413 62.551C5.61672 90.4344 1.41211 125.51 1.41211 163.794H363.895L339.442 69.9643Z" fill="#B748B7"/>
<path d="M339.442 82.238C244.838 62.9852 164.065 10.2059 94.3564 23.5943C55.6296 31.0077 32.0616 49.8179 18.3413 75.8202C5.61672 100.052 1.41211 164.781 1.41211 164.781H374.628L339.442 82.3484V82.238Z" fill="#823284"/>
<path d="M218.836 163.46C218.836 148.301 203.898 136.683 185.973 140.667L150.455 143.322C144.48 92.7559 118.035 22.8265 79.087 27.2524C36.3769 32.1209 1.74414 80.5845 1.74414 135.577C1.74414 145.535 2.85055 154.94 4.95286 163.681C79.3084 168.992 151.119 169.767 218.836 163.46Z" fill="#B748B7"/>
<path d="M120.248 280.403C11.1491 288.923 -16.8447 168.648 10.596 96.063L19.1158 98.3865C11.5917 116.201 0.527014 206.822 50.3187 229.836C100.11 252.851 137.841 229.836 148.906 251.413C159.196 271.329 136.292 279.075 120.248 280.403Z" fill="#B748B7"/>
<path d="M333.356 158.142C290.203 131.144 301.489 54.6862 301.489 54.6862C301.489 54.6862 355.928 51.367 385.25 71.173C414.572 90.8684 418.444 153.938 418.444 153.938C418.444 153.938 362.678 176.62 333.245 158.142H333.356Z" fill="#B748B7"/>
<path d="M358.916 10.9844C358.916 10.9844 334.242 28.3562 327.824 62.8784L369.981 65.6446C372.526 47.0557 358.916 10.9844 358.916 10.9844Z" fill="#B748B7"/>
<path d="M356.372 21.8184C356.372 21.8184 340.106 33.3259 335.791 56.2301L363.674 58.0005C365.445 45.7186 356.372 21.8184 356.372 21.8184Z" fill="#823284"/>
<path d="M445 79.3578C445 79.3578 437.918 109.565 409.15 127.822L392.221 87.2138C407.933 78.2513 445 79.3578 445 79.3578Z" fill="#B748B7"/>
<path d="M436.48 86.1176C436.48 86.1176 431.943 105.702 413.355 117.431L402.4 91.2073C412.58 85.4536 436.48 86.1176 436.48 86.1176Z" fill="#823284"/>
<path d="M344.754 129.375C352.61 137.674 362.79 124.618 362.79 124.618C362.79 124.618 355.266 137.232 365.445 145.42C375.514 153.608 392.222 141.657 366.773 121.077C344.422 103.041 324.837 108.463 344.643 129.265L344.754 129.375Z" fill="#D48BD6"/>
<path d="M357.367 128.045C351.06 123.84 353.163 114.988 356.814 113.55C360.465 112.112 370.424 120.631 369.538 123.508C368.653 126.385 361.461 130.811 357.367 128.045Z" fill="#403732"/>
<path d="M348.294 91.0924C351.171 93.416 352.056 97.0673 350.839 99.7229C351.06 99.5016 351.282 99.3911 351.503 99.1698C353.384 96.5142 352.388 92.3095 349.29 89.7646C346.192 87.2197 342.098 87.2197 340.217 89.7646C340.106 89.9859 339.995 90.318 339.885 90.5393C341.987 88.5476 345.528 88.658 348.405 90.9816L348.294 91.0924Z" fill="#403732"/>
<path d="M389.013 128.27C391.89 130.594 392.775 134.245 391.558 136.901C391.779 136.68 392 136.569 392.222 136.348C394.103 133.692 393.107 129.487 390.009 126.942C386.911 124.397 382.817 124.397 380.936 126.942C380.825 127.164 380.714 127.496 380.604 127.717C382.706 125.725 386.247 125.836 389.123 128.16L389.013 128.27Z" fill="#403732"/>
<path d="M223.703 165.006L328.708 164.01C312.775 132.807 265.086 141.437 223.703 165.006Z" fill="#B748B7"/>
</svg>
