<svg width="444" height="84" viewBox="0 0 444 84" fill="none" xmlns="http://www.w3.org/2000/svg">
<g clip-path="url(#clip0_54_7)">
<path d="M379.75 84H18.11C11.51 84 5.25 80.71 1.81 75.08C-3.65 66.12 -0.129997 53.58 61.74 53.15C158.33 52.48 -16.07 59.19 40.95 34.37C77.79 18.33 116.2 22.62 154.91 25.77C162.44 26.38 158.43 25.62 164.37 20.95C183.15 6.19001 220.71 -1.18999 254.25 0.160009C369.58 4.77001 302.54 29.67 302.54 29.67C302.54 29.67 391.75 -0.509991 364.92 27.66C338.09 55.83 398.46 2.84001 434.68 35.04C467.62 64.32 396.8 80.85 383.72 83.59C382.41 83.86 381.09 84 379.75 84Z" fill="#F1F9FF"/>
</g>
<defs>
<clipPath id="clip0_54_7">
<rect width="443.33" height="84" fill="white"/>
</clipPath>
</defs>
</svg>
