<svg width="206" height="53" viewBox="0 0 206 53" fill="none" xmlns="http://www.w3.org/2000/svg">
<g clip-path="url(#clip0_54_13)">
<path d="M175.64 53H8.37C5.32 53 2.42 50.92 0.830004 47.37C-1.7 41.72 -0.0699978 33.8 28.55 33.53C73.22 33.11 -7.44 37.34 18.93 21.68C35.97 11.56 53.74 14.27 71.63 16.25C75.11 16.64 73.26 16.16 76.01 13.21C84.71 3.91 102.08 -0.750002 117.59 0.0999981C170.93 3.01 139.93 18.72 139.93 18.72C139.93 18.72 181.19 -0.320002 168.78 17.45C156.37 35.23 184.29 1.79 201.04 22.11C216.28 40.59 183.52 51.01 177.47 52.75C176.87 52.92 176.25 53.01 175.64 53.01V53Z" fill="#B6DCF5"/>
</g>
<defs>
<clipPath id="clip0_54_13">
<rect width="205.04" height="53" fill="white"/>
</clipPath>
</defs>
</svg>
