<svg width="132" height="41" viewBox="0 0 132 41" fill="none" xmlns="http://www.w3.org/2000/svg">
<g clip-path="url(#clip0_54_19)">
<path d="M20.7601 41H110.38C112.54 41 121.81 40.61 125.73 38.68C128.89 37.12 138.46 30.18 124.6 29.08C93.1301 26.58 117.24 30.57 111.03 21.68C104.82 12.79 93.9201 12.89 91.1101 16.66C89.4801 18.85 89.5001 18.88 91.09 16.64C96.01 9.70999 83.9301 -0.800007 69.5601 0.0499931C43.44 1.59999 45.9701 20.01 45.9701 20.01C45.9701 20.01 29.7301 6.22999 25.6001 19.23C21.1401 33.3 14.6501 9.63999 2.82006 22.08C-7.93995 33.39 15.1901 39.78 19.4601 40.84C19.8901 40.95 20.3201 41 20.7501 41H20.7601Z" fill="#F1F9FF"/>
</g>
<defs>
<clipPath id="clip0_54_19">
<rect width="131.9" height="41" fill="white"/>
</clipPath>
</defs>
</svg>
