<svg width="200" height="66" viewBox="0 0 200 66" fill="none" xmlns="http://www.w3.org/2000/svg">
<g clip-path="url(#clip0_54_16)">
<path d="M31.4599 65.13H167.29C170.56 65.13 184.61 64.52 190.55 61.45C195.34 58.97 209.85 47.95 188.84 46.2C141.15 42.22 177.68 48.57 168.28 34.45C159.25 20.89 142.35 20.48 138.09 26.47C135.62 29.95 135.65 29.99 138.05 26.44C145.51 15.42 127.2 -1.27001 105.43 0.079989C65.8399 2.52999 69.6799 31.79 69.6799 31.79C69.6799 31.79 45.0599 9.89999 38.8099 30.56C32.0499 52.91 22.2099 15.33 4.28988 35.09C-12.0101 53.06 23.0299 63.2 29.5099 64.89C30.1599 65.06 30.8099 65.14 31.4699 65.14L31.4599 65.13Z" fill="#F1F9FF"/>
</g>
<defs>
<clipPath id="clip0_54_16">
<rect width="199.89" height="65.13" fill="white"/>
</clipPath>
</defs>
</svg>
