<svg width="191" height="53" viewBox="0 0 191 53" fill="none" xmlns="http://www.w3.org/2000/svg">
<g clip-path="url(#clip0_54_10)">
<path d="M163.15 53H7.7799C4.9399 53 2.2499 50.92 0.779895 47.37C-1.5701 41.72 -0.0601044 33.8 26.5299 33.53C68.0299 33.11 -6.9001 37.34 17.5999 21.68C33.4299 11.56 49.9299 14.27 66.5599 16.25C69.7899 16.64 68.0699 16.16 70.6299 13.21C78.6799 3.91 94.8199 -0.750002 109.23 0.0999981C158.78 3.01 129.98 18.72 129.98 18.72C129.98 18.72 168.31 -0.320002 156.78 17.45C145.25 35.22 171.19 1.79 186.75 22.11C200.9 40.59 170.48 51.01 164.86 52.75C164.3 52.92 163.73 53.01 163.16 53.01L163.15 53Z" fill="#B6DCF5"/>
</g>
<defs>
<clipPath id="clip0_54_10">
<rect width="190.46" height="53" fill="white"/>
</clipPath>
</defs>
</svg>
