<svg width="297" height="292" viewBox="0 0 297 292" fill="none" xmlns="http://www.w3.org/2000/svg">
<g clip-path="url(#clip0_54_3392)">
<path d="M0 81.3201H172.15" stroke="#4D4D4D" stroke-width="2" stroke-miterlimit="10"/>
<path d="M161.08 145.18V148.5C161.08 148.5 163.48 149.05 163.29 151.27C163.1 153.49 160.52 154.22 159.23 152.75" stroke="#4D4D4D" stroke-width="1.84" stroke-miterlimit="10"/>
<path d="M160.9 80.76V135.18" stroke="#4D4D4D" stroke-width="1.11" stroke-miterlimit="10"/>
<path d="M160.9 144.63C163.816 144.63 166.18 142.266 166.18 139.35C166.18 136.434 163.816 134.07 160.9 134.07C157.984 134.07 155.62 136.434 155.62 139.35C155.62 142.266 157.984 144.63 160.9 144.63Z" stroke="#E13030" stroke-width="2.22" stroke-miterlimit="10"/>
<path d="M96.62 67.4299L44.25 47.4299" stroke="#4D4D4D" stroke-width="1.11" stroke-miterlimit="10"/>
<path d="M16.1001 68.5399L42.2001 47.4399" stroke="#4D4D4D" stroke-width="1.11" stroke-miterlimit="10"/>
<path d="M49.7 282.89V82.1499" stroke="#4D4D4D" stroke-width="2" stroke-miterlimit="10"/>
<path d="M34.71 282.89V82.1499" stroke="#4D4D4D" stroke-width="2" stroke-miterlimit="10"/>
<path d="M14.99 68.27H155.76" stroke="#4D4D4D" stroke-width="2" stroke-miterlimit="10"/>
<path d="M155 68L170.76 81.04" stroke="#4D4D4D" stroke-width="2" stroke-miterlimit="10"/>
<path d="M16.3799 68.27L1.38989 81.04" stroke="#4D4D4D" stroke-width="2" stroke-miterlimit="10"/>
<path d="M43.04 46.6101L37 68.0001" stroke="#4D4D4D" stroke-width="2" stroke-miterlimit="10"/>
<path d="M44.1499 47.1599L49.6999 67.7099" stroke="#4D4D4D" stroke-width="2" stroke-miterlimit="10"/>
<path d="M154.1 68.8201V81.0401" stroke="#4D4D4D" stroke-width="2.78" stroke-miterlimit="10"/>
<path d="M140.77 68.54V80.76" stroke="#4D4D4D" stroke-width="2.78" stroke-miterlimit="10"/>
<path d="M126.89 68.54V80.76" stroke="#4D4D4D" stroke-width="2.78" stroke-miterlimit="10"/>
<path d="M114.12 69.6499V81.8699" stroke="#4D4D4D" stroke-width="2.78" stroke-miterlimit="10"/>
<path d="M100.23 69.1001V81.3201" stroke="#4D4D4D" stroke-width="2.78" stroke-miterlimit="10"/>
<path d="M85.79 69.1001V81.3201" stroke="#4D4D4D" stroke-width="2.78" stroke-miterlimit="10"/>
<path d="M71.9099 68.54V80.76" stroke="#4D4D4D" stroke-width="2.78" stroke-miterlimit="10"/>
<path d="M59.1399 69.1001V81.3201" stroke="#4D4D4D" stroke-width="2.78" stroke-miterlimit="10"/>
<path d="M43.5901 69.1001V81.3201" stroke="#4D4D4D" stroke-width="2.78" stroke-miterlimit="10"/>
<path d="M30.8201 69.1001V81.3201" stroke="#4D4D4D" stroke-width="2.78" stroke-miterlimit="10"/>
<path d="M49.7 94.9199H35.54" stroke="#4D4D4D" stroke-width="2.78" stroke-miterlimit="10"/>
<path d="M49.14 108.25H34.98" stroke="#4D4D4D" stroke-width="2.78" stroke-miterlimit="10"/>
<path d="M48.5899 134.9H34.4299" stroke="#4D4D4D" stroke-width="2.78" stroke-miterlimit="10"/>
<path d="M48.5899 148.79H34.4299" stroke="#4D4D4D" stroke-width="2.78" stroke-miterlimit="10"/>
<path d="M48.5899 162.11H34.4299" stroke="#4D4D4D" stroke-width="2.78" stroke-miterlimit="10"/>
<path d="M48.5899 175.44H34.4299" stroke="#4D4D4D" stroke-width="2.78" stroke-miterlimit="10"/>
<path d="M48.5899 188.77H34.4299" stroke="#4D4D4D" stroke-width="2.78" stroke-miterlimit="10"/>
<path d="M48.5899 202.1H34.4299" stroke="#4D4D4D" stroke-width="2.78" stroke-miterlimit="10"/>
<path d="M49.14 215.42H34.98" stroke="#4D4D4D" stroke-width="2.78" stroke-miterlimit="10"/>
<path d="M48.5899 229.31H34.4299" stroke="#4D4D4D" stroke-width="2.78" stroke-miterlimit="10"/>
<path d="M48.5899 243.19H34.4299" stroke="#4D4D4D" stroke-width="2.78" stroke-miterlimit="10"/>
<path d="M48.5899 256.52H34.4299" stroke="#4D4D4D" stroke-width="2.78" stroke-miterlimit="10"/>
<path d="M49.14 269.84H34.98" stroke="#4D4D4D" stroke-width="2.78" stroke-miterlimit="10"/>
<path d="M16.9399 69.1001V81.3201" stroke="#4D4D4D" stroke-width="2.78" stroke-miterlimit="10"/>
<path d="M66.9199 280.95H19.1599V291.5H66.9199V280.95Z" fill="#4D4D4D"/>
<path d="M53.8599 119.32H29.4299V124.72H53.8599V119.32Z" fill="#4D4D4D"/>
<path d="M59.41 81.5601H42.2V100.76H59.41V81.5601Z" fill="#4D4D4D"/>
<path d="M49.7 268.73L65.8 282.06" stroke="#4D4D4D" stroke-width="2.78" stroke-miterlimit="10"/>
<path d="M35.26 269.84L20.27 282.06" stroke="#4D4D4D" stroke-width="2.78" stroke-miterlimit="10"/>
<path d="M43.31 49.66C45.1491 49.66 46.64 48.1691 46.64 46.33C46.64 44.4909 45.1491 43 43.31 43C41.4709 43 39.98 44.4909 39.98 46.33C39.98 48.1691 41.4709 49.66 43.31 49.66Z" fill="#4D4D4D"/>
<path d="M289.15 38.3201H117" stroke="#4D4D4D" stroke-width="2" stroke-miterlimit="10"/>
<path d="M128.06 102.18V105.5C128.06 105.5 125.66 106.05 125.85 108.27C126.04 110.49 128.62 111.22 129.91 109.75" stroke="#4D4D4D" stroke-width="1.84" stroke-miterlimit="10"/>
<path d="M128.24 37.76V92.18" stroke="#4D4D4D" stroke-width="1.11" stroke-miterlimit="10"/>
<path d="M128.24 101.63C131.156 101.63 133.52 99.2661 133.52 96.3501C133.52 93.434 131.156 91.0701 128.24 91.0701C125.324 91.0701 122.96 93.434 122.96 96.3501C122.96 99.2661 125.324 101.63 128.24 101.63Z" stroke="#E13030" stroke-width="2.22" stroke-miterlimit="10"/>
<path d="M192.52 24.4299L244.89 4.42993" stroke="#4D4D4D" stroke-width="1.11" stroke-miterlimit="10"/>
<path d="M273.04 25.5399L246.94 4.43994" stroke="#4D4D4D" stroke-width="1.11" stroke-miterlimit="10"/>
<path d="M239.45 239.89V39.1499" stroke="#4D4D4D" stroke-width="2" stroke-miterlimit="10"/>
<path d="M254.44 239.89V39.1499" stroke="#4D4D4D" stroke-width="2" stroke-miterlimit="10"/>
<path d="M274.15 25.27H133.38" stroke="#4D4D4D" stroke-width="2" stroke-miterlimit="10"/>
<path d="M134 25L118.39 38.04" stroke="#4D4D4D" stroke-width="2" stroke-miterlimit="10"/>
<path d="M272.76 25.27L287.76 38.04" stroke="#4D4D4D" stroke-width="2" stroke-miterlimit="10"/>
<path d="M246.11 3.61011L251.66 24.1601" stroke="#4D4D4D" stroke-width="2" stroke-miterlimit="10"/>
<path d="M245 4.15991L239.45 24.7099" stroke="#4D4D4D" stroke-width="2" stroke-miterlimit="10"/>
<path d="M135.05 25.8201V38.0401" stroke="#4D4D4D" stroke-width="2.78" stroke-miterlimit="10"/>
<path d="M148.37 25.54V37.76" stroke="#4D4D4D" stroke-width="2.78" stroke-miterlimit="10"/>
<path d="M162.26 25.54V37.76" stroke="#4D4D4D" stroke-width="2.78" stroke-miterlimit="10"/>
<path d="M175.03 26.6499V38.8699" stroke="#4D4D4D" stroke-width="2.78" stroke-miterlimit="10"/>
<path d="M188.91 26.1001V38.3201" stroke="#4D4D4D" stroke-width="2.78" stroke-miterlimit="10"/>
<path d="M203.35 26.1001V38.3201" stroke="#4D4D4D" stroke-width="2.78" stroke-miterlimit="10"/>
<path d="M217.23 25.54V37.76" stroke="#4D4D4D" stroke-width="2.78" stroke-miterlimit="10"/>
<path d="M230.01 26.1001V38.3201" stroke="#4D4D4D" stroke-width="2.78" stroke-miterlimit="10"/>
<path d="M245.55 26.1001V38.3201" stroke="#4D4D4D" stroke-width="2.78" stroke-miterlimit="10"/>
<path d="M258.33 26.1001V38.3201" stroke="#4D4D4D" stroke-width="2.78" stroke-miterlimit="10"/>
<path d="M239.45 51.9199H253.61" stroke="#4D4D4D" stroke-width="2.78" stroke-miterlimit="10"/>
<path d="M240 65.25H254.16" stroke="#4D4D4D" stroke-width="2.78" stroke-miterlimit="10"/>
<path d="M240.56 91.8999H254.72" stroke="#4D4D4D" stroke-width="2.78" stroke-miterlimit="10"/>
<path d="M240.56 105.79H254.72" stroke="#4D4D4D" stroke-width="2.78" stroke-miterlimit="10"/>
<path d="M240.56 119.11H254.72" stroke="#4D4D4D" stroke-width="2.78" stroke-miterlimit="10"/>
<path d="M240.56 132.44H254.72" stroke="#4D4D4D" stroke-width="2.78" stroke-miterlimit="10"/>
<path d="M240.56 145.77H254.72" stroke="#4D4D4D" stroke-width="2.78" stroke-miterlimit="10"/>
<path d="M240.56 159.1H254.72" stroke="#4D4D4D" stroke-width="2.78" stroke-miterlimit="10"/>
<path d="M240 172.42H254.16" stroke="#4D4D4D" stroke-width="2.78" stroke-miterlimit="10"/>
<path d="M240.56 186.31H254.72" stroke="#4D4D4D" stroke-width="2.78" stroke-miterlimit="10"/>
<path d="M240.56 200.19H254.72" stroke="#4D4D4D" stroke-width="2.78" stroke-miterlimit="10"/>
<path d="M240.56 213.52H254.72" stroke="#4D4D4D" stroke-width="2.78" stroke-miterlimit="10"/>
<path d="M240 226.84H254.16" stroke="#4D4D4D" stroke-width="2.78" stroke-miterlimit="10"/>
<path d="M272.21 26.1001V38.3201" stroke="#4D4D4D" stroke-width="2.78" stroke-miterlimit="10"/>
<path d="M222.23 248.5H269.99V237.95H222.23V248.5Z" fill="#4D4D4D"/>
<path d="M235.28 81.71H259.71V76.31H235.28V81.71Z" fill="#4D4D4D"/>
<path d="M229.73 57.75H246.94V38.55H229.73V57.75Z" fill="#4D4D4D"/>
<path d="M239.45 225.73L223.34 239.06" stroke="#4D4D4D" stroke-width="2.78" stroke-miterlimit="10"/>
<path d="M253.88 226.84L268.88 239.06" stroke="#4D4D4D" stroke-width="2.78" stroke-miterlimit="10"/>
<path d="M245.83 6.66C247.669 6.66 249.16 5.16911 249.16 3.33C249.16 1.49089 247.669 0 245.83 0C243.991 0 242.5 1.49089 242.5 3.33C242.5 5.16911 243.991 6.66 245.83 6.66Z" fill="#4D4D4D"/>
<path d="M88.09 130H68V132.13H88.09V130Z" fill="#666666"/>
<path d="M88.09 140.96H68V143.09H88.09V140.96Z" fill="#666666"/>
<path d="M85.3501 142.79V130.92H83.2201V142.79H85.3501Z" fill="#666666"/>
<path d="M68.1299 142.78V130.91H65.9999V142.78H68.1299Z" fill="#666666"/>
<path d="M84.3233 139.871L70.2283 130.456L69.0452 132.227L83.1403 141.642L84.3233 139.871Z" fill="#666666"/>
<path d="M88.09 140.96H68V143.09H88.09V140.96Z" fill="#666666"/>
<path d="M88.09 151.91H68V154.04H88.09V151.91Z" fill="#666666"/>
<path d="M85.3501 153.74V141.87H83.2201V153.74H85.3501Z" fill="#666666"/>
<path d="M68.1299 153.74V141.87H65.9999V153.74H68.1299Z" fill="#666666"/>
<path d="M84.3158 150.824L70.2207 141.41L69.0376 143.181L83.1327 152.596L84.3158 150.824Z" fill="#666666"/>
<path d="M88.09 151.91H68V154.04H88.09V151.91Z" fill="#666666"/>
<path d="M86.09 162.87H66V165H86.09V162.87Z" fill="#666666"/>
<path d="M85.3401 164.7V152.83H83.2101V164.7H85.3401Z" fill="#666666"/>
<path d="M68.1299 164.7V152.83H65.9999V164.7H68.1299Z" fill="#666666"/>
<path d="M84.3238 161.78L70.2288 152.365L69.0457 154.137L83.1408 163.551L84.3238 161.78Z" fill="#666666"/>
<path d="M106.09 130H86V132.13H106.09V130Z" fill="#666666"/>
<path d="M106.09 140.96H86V143.09H106.09V140.96Z" fill="#666666"/>
<path d="M103.35 142.79V130.92H101.22V142.79H103.35Z" fill="#666666"/>
<path d="M89.1299 141.78V129.91H86.9999V141.78H89.1299Z" fill="#666666"/>
<path d="M102.321 139.868L88.2263 130.454L87.0433 132.225L101.138 141.639L102.321 139.868Z" fill="#666666"/>
<path d="M106.09 140.96H86V143.09H106.09V140.96Z" fill="#666666"/>
<path d="M106.09 151.91H86V154.04H106.09V151.91Z" fill="#666666"/>
<path d="M103.35 153.74V141.87H101.22V153.74H103.35Z" fill="#666666"/>
<path d="M89.1299 152.74V140.87H86.9999V152.74H89.1299Z" fill="#666666"/>
<path d="M102.314 150.832L88.219 141.417L87.0359 143.189L101.131 152.603L102.314 150.832Z" fill="#666666"/>
<path d="M106.09 151.91H86V154.04H106.09V151.91Z" fill="#666666"/>
<path d="M104.09 162.87H84V165H104.09V162.87Z" fill="#666666"/>
<path d="M103.34 164.7V152.83H101.21V164.7H103.34Z" fill="#666666"/>
<path d="M89.1299 163.7V151.83H86.9999V163.7H89.1299Z" fill="#666666"/>
<path d="M102.322 161.778L88.2271 152.363L87.044 154.135L101.139 163.549L102.322 161.778Z" fill="#666666"/>
<path d="M88.09 97H66V99.13H88.09V97Z" fill="#666666"/>
<path d="M88.09 107.96H68V110.09H88.09V107.96Z" fill="#666666"/>
<path d="M85.3501 109.79V97.9199H83.2201V109.79H85.3501Z" fill="#666666"/>
<path d="M68.1299 109.78V97.9099H65.9999V109.78H68.1299Z" fill="#666666"/>
<path d="M84.3223 106.869L70.2273 97.4543L69.0442 99.2256L83.1393 108.64L84.3223 106.869Z" fill="#666666"/>
<path d="M88.09 107.96H68V110.09H88.09V107.96Z" fill="#666666"/>
<path d="M88.09 118.91H68V121.04H88.09V118.91Z" fill="#666666"/>
<path d="M85.3501 120.74V108.87H83.2201V120.74H85.3501Z" fill="#666666"/>
<path d="M68.1299 120.74V108.87H65.9999V120.74H68.1299Z" fill="#666666"/>
<path d="M84.3248 117.833L70.2297 108.418L69.0467 110.189L83.1417 119.604L84.3248 117.833Z" fill="#666666"/>
<path d="M88.09 118.91H68V121.04H88.09V118.91Z" fill="#666666"/>
<path d="M88.09 129.87H68V132H88.09V129.87Z" fill="#666666"/>
<path d="M85.3401 131.7V119.83H83.2101V131.7H85.3401Z" fill="#666666"/>
<path d="M68.1299 131.7V119.83H65.9999V131.7H68.1299Z" fill="#666666"/>
<path d="M84.3228 128.778L70.2278 119.364L69.0447 121.135L83.1398 130.549L84.3228 128.778Z" fill="#666666"/>
<path d="M5.5 114H3V169H5.5V114Z" fill="#4D4D4D"/>
<path d="M11 132.33H8V169H11V132.33Z" fill="#4D4D4D"/>
<path d="M296.5 112H294V167H296.5V112Z" fill="#4D4D4D"/>
<path d="M290 129.33H288V166H290V129.33Z" fill="#4D4D4D"/>
<path d="M220 150.75H169.91V155.5H220V150.75Z" fill="#A23840"/>
<path d="M207.09 155.5H157V160.25H207.09V155.5Z" fill="#E13030"/>
<path d="M220 160H169.91V164.75H220V160Z" fill="#A23840"/>
<path d="M207.09 164.75H157V169.5H207.09V164.75Z" fill="#E13030"/>
<path d="M228.09 134H208V136.13H228.09V134Z" fill="#666666"/>
<path d="M225.35 146.79V134.92H223.22V146.79H225.35Z" fill="#666666"/>
<path d="M210.13 146.78V134.91H208V146.78H210.13Z" fill="#666666"/>
<path d="M224.321 143.876L210.226 134.462L209.043 136.233L223.138 145.647L224.321 143.876Z" fill="#666666"/>
<path d="M225.35 157.74V145.87H223.22V157.74H225.35Z" fill="#666666"/>
<path d="M210.13 157.74V145.87H208V157.74H210.13Z" fill="#666666"/>
<path d="M224.313 154.83L210.218 145.416L209.035 147.187L223.13 156.601L224.313 154.83Z" fill="#666666"/>
<path d="M228.09 155.91H208V158.04H228.09V155.91Z" fill="#666666"/>
<path d="M224.322 165.786L210.227 156.371L209.044 158.143L223.139 167.557L224.322 165.786Z" fill="#666666"/>
<path d="M228.09 156H208V158.13H228.09V156Z" fill="#666666"/>
<path d="M225.35 168.79V156.92H223.22V168.79H225.35Z" fill="#666666"/>
<path d="M210.13 168.78V156.91H208V168.78H210.13Z" fill="#666666"/>
<path d="M224.321 165.876L210.226 156.462L209.043 158.233L223.138 167.647L224.321 165.876Z" fill="#666666"/>
<path d="M225.35 179.74V167.87H223.22V179.74H225.35Z" fill="#666666"/>
<path d="M210.13 179.74V167.87H208V179.74H210.13Z" fill="#666666"/>
<path d="M224.313 176.83L210.218 167.416L209.035 169.187L223.13 178.601L224.313 176.83Z" fill="#666666"/>
<path d="M228.09 177.91H208V180.04H228.09V177.91Z" fill="#666666"/>
<path d="M224.322 187.786L210.227 178.371L209.044 180.143L223.139 189.557L224.322 187.786Z" fill="#666666"/>
</g>
<defs>
<clipPath id="clip0_54_3392">
<rect width="296.5" height="291.5" fill="white"/>
</clipPath>
</defs>
</svg>
