<svg width="173" height="249" viewBox="0 0 173 249" fill="none" xmlns="http://www.w3.org/2000/svg">
<path d="M0 38.3201H172.15" stroke="#4D4D4D" stroke-width="2" stroke-miterlimit="10"/>
<path d="M161.08 102.18V105.5C161.08 105.5 163.48 106.05 163.29 108.27C163.1 110.49 160.52 111.22 159.23 109.75" stroke="#4D4D4D" stroke-width="1.84" stroke-miterlimit="10"/>
<path d="M160.9 37.76V92.18" stroke="#4D4D4D" stroke-width="1.11" stroke-miterlimit="10"/>
<path d="M160.9 101.63C163.816 101.63 166.18 99.2661 166.18 96.3501C166.18 93.434 163.816 91.0701 160.9 91.0701C157.984 91.0701 155.62 93.434 155.62 96.3501C155.62 99.2661 157.984 101.63 160.9 101.63Z" stroke="#E13030" stroke-width="2.22" stroke-miterlimit="10"/>
<path d="M96.62 24.4299L44.25 4.42993" stroke="#4D4D4D" stroke-width="1.11" stroke-miterlimit="10"/>
<path d="M16.1001 25.5399L42.2001 4.43994" stroke="#4D4D4D" stroke-width="1.11" stroke-miterlimit="10"/>
<path d="M49.7 239.89V39.1499" stroke="#4D4D4D" stroke-width="2" stroke-miterlimit="10"/>
<path d="M34.71 239.89V39.1499" stroke="#4D4D4D" stroke-width="2" stroke-miterlimit="10"/>
<path d="M14.99 25.27H155.76" stroke="#4D4D4D" stroke-width="2" stroke-miterlimit="10"/>
<path d="M155 25L170.76 38.04" stroke="#4D4D4D" stroke-width="2" stroke-miterlimit="10"/>
<path d="M16.3799 25.27L1.38989 38.04" stroke="#4D4D4D" stroke-width="2" stroke-miterlimit="10"/>
<path d="M43.04 3.61011L37 25.0001" stroke="#4D4D4D" stroke-width="2" stroke-miterlimit="10"/>
<path d="M44.1499 4.15991L49.6999 24.7099" stroke="#4D4D4D" stroke-width="2" stroke-miterlimit="10"/>
<path d="M154.1 25.8201V38.0401" stroke="#4D4D4D" stroke-width="2.78" stroke-miterlimit="10"/>
<path d="M140.77 25.54V37.76" stroke="#4D4D4D" stroke-width="2.78" stroke-miterlimit="10"/>
<path d="M126.89 25.54V37.76" stroke="#4D4D4D" stroke-width="2.78" stroke-miterlimit="10"/>
<path d="M114.12 26.6499V38.8699" stroke="#4D4D4D" stroke-width="2.78" stroke-miterlimit="10"/>
<path d="M100.23 26.1001V38.3201" stroke="#4D4D4D" stroke-width="2.78" stroke-miterlimit="10"/>
<path d="M85.79 26.1001V38.3201" stroke="#4D4D4D" stroke-width="2.78" stroke-miterlimit="10"/>
<path d="M71.9099 25.54V37.76" stroke="#4D4D4D" stroke-width="2.78" stroke-miterlimit="10"/>
<path d="M59.1399 26.1001V38.3201" stroke="#4D4D4D" stroke-width="2.78" stroke-miterlimit="10"/>
<path d="M43.5901 26.1001V38.3201" stroke="#4D4D4D" stroke-width="2.78" stroke-miterlimit="10"/>
<path d="M30.8201 26.1001V38.3201" stroke="#4D4D4D" stroke-width="2.78" stroke-miterlimit="10"/>
<path d="M49.7 51.9199H35.54" stroke="#4D4D4D" stroke-width="2.78" stroke-miterlimit="10"/>
<path d="M49.14 65.25H34.98" stroke="#4D4D4D" stroke-width="2.78" stroke-miterlimit="10"/>
<path d="M48.5899 91.8999H34.4299" stroke="#4D4D4D" stroke-width="2.78" stroke-miterlimit="10"/>
<path d="M48.5899 105.79H34.4299" stroke="#4D4D4D" stroke-width="2.78" stroke-miterlimit="10"/>
<path d="M48.5899 119.11H34.4299" stroke="#4D4D4D" stroke-width="2.78" stroke-miterlimit="10"/>
<path d="M48.5899 132.44H34.4299" stroke="#4D4D4D" stroke-width="2.78" stroke-miterlimit="10"/>
<path d="M48.5899 145.77H34.4299" stroke="#4D4D4D" stroke-width="2.78" stroke-miterlimit="10"/>
<path d="M48.5899 159.1H34.4299" stroke="#4D4D4D" stroke-width="2.78" stroke-miterlimit="10"/>
<path d="M49.14 172.42H34.98" stroke="#4D4D4D" stroke-width="2.78" stroke-miterlimit="10"/>
<path d="M48.5899 186.31H34.4299" stroke="#4D4D4D" stroke-width="2.78" stroke-miterlimit="10"/>
<path d="M48.5899 200.19H34.4299" stroke="#4D4D4D" stroke-width="2.78" stroke-miterlimit="10"/>
<path d="M48.5899 213.52H34.4299" stroke="#4D4D4D" stroke-width="2.78" stroke-miterlimit="10"/>
<path d="M49.14 226.84H34.98" stroke="#4D4D4D" stroke-width="2.78" stroke-miterlimit="10"/>
<path d="M16.9399 26.1001V38.3201" stroke="#4D4D4D" stroke-width="2.78" stroke-miterlimit="10"/>
<path d="M66.9199 237.95H19.1599V248.5H66.9199V237.95Z" fill="#4D4D4D"/>
<path d="M53.8599 76.3201H29.4299V81.7201H53.8599V76.3201Z" fill="#4D4D4D"/>
<path d="M59.41 38.5601H42.2V57.7601H59.41V38.5601Z" fill="#4D4D4D"/>
<path d="M49.7 225.73L65.8 239.06" stroke="#4D4D4D" stroke-width="2.78" stroke-miterlimit="10"/>
<path d="M35.26 226.84L20.27 239.06" stroke="#4D4D4D" stroke-width="2.78" stroke-miterlimit="10"/>
<path d="M43.31 6.66C45.1491 6.66 46.64 5.16911 46.64 3.33C46.64 1.49089 45.1491 0 43.31 0C41.4709 0 39.98 1.49089 39.98 3.33C39.98 5.16911 41.4709 6.66 43.31 6.66Z" fill="#4D4D4D"/>
</svg>
