<svg width="112" height="32" viewBox="0 0 112 32" fill="none" xmlns="http://www.w3.org/2000/svg"><g clip-path="url(#clip0_655_3682)"><path d="M31.551 31.932h-2.714V26.99h2.714v.567h-2.064v1.53h1.984v.568h-1.984v1.701h2.064v.576zm6.767-2.525c0 .228-.017.455-.052.68a2.73 2.73 0 01-.17.605 2.05 2.05 0 01-.304.509 1.735 1.735 0 01-.457.391 2.29 2.29 0 01-.628.251 3.39 3.39 0 01-.813.089h-1.026V26.99H36.1c.746 0 1.302.199 1.668.596.366.398.55 1.005.55 1.821zm-.683.048a3.617 3.617 0 00-.094-.888 1.458 1.458 0 00-.29-.587 1.11 1.11 0 00-.485-.322 2.12 2.12 0 00-.688-.101h-.559v3.791h.487c1.086.001 1.63-.63 1.629-1.893zm7.133.757a2.3 2.3 0 01-.111.737c-.068.21-.18.402-.328.563a1.44 1.44 0 01-.527.36 1.892 1.892 0 01-.718.127 2.12 2.12 0 01-.756-.12 1.295 1.295 0 01-.507-.346 1.368 1.368 0 01-.285-.53 2.472 2.472 0 01-.09-.69V26.99h.651v3.27c-.002.171.016.342.053.51.03.134.089.26.174.367.084.1.191.177.313.222.15.054.31.08.47.076.345 0 .6-.104.765-.31.163-.207.247-.497.247-.873V26.99h.65v3.222zm6.452 1.534c-.38.165-.79.248-1.202.247-.675 0-1.194-.209-1.558-.627-.364-.417-.545-1.034-.542-1.85a3.582 3.582 0 01.15-1.074 2.35 2.35 0 01.427-.815c.183-.221.413-.398.672-.517.279-.124.58-.185.884-.181.208-.002.415.019.618.06.19.038.373.098.549.18v.66a2.215 2.215 0 00-1.148-.303 1.388 1.388 0 00-.61.131 1.25 1.25 0 00-.461.379c-.135.18-.234.386-.293.604a2.95 2.95 0 00-.103.814c0 .642.126 1.124.377 1.448.25.324.619.486 1.103.487a2.29 2.29 0 00.589-.074c.187-.05.369-.119.542-.207l.006.638zm7.02.186h-.71l-.331-1.078h-1.991l-.339 1.078h-.677l1.585-4.942h.892l1.57 4.942zm-1.228-1.678l-.808-2.644-.808 2.643h1.616zm6.971-2.689H62.57v4.367h-.655v-4.367h-1.417v-.575h3.486v.575zm4.315-.008h-1.1v-.567h2.857v.567h-1.1v3.8h1.1v.575h-2.857v-.574h1.1v-3.801zm8.437 1.875c.008.39-.043.777-.151 1.15-.085.29-.223.562-.407.8a1.61 1.61 0 01-.603.467 1.877 1.877 0 01-1.531-.018 1.498 1.498 0 01-.567-.498 2.284 2.284 0 01-.334-.791 4.575 4.575 0 01-.11-1.053 3.89 3.89 0 01.15-1.142c.084-.29.222-.562.407-.8.16-.202.367-.363.6-.469.23-.102.477-.154.728-.153a1.75 1.75 0 01.802.174c.227.116.422.287.569.498.16.238.276.505.338.788.077.343.114.695.11 1.047zm-.677.049a4.637 4.637 0 00-.064-.796 2.048 2.048 0 00-.207-.62 1.092 1.092 0 00-.366-.405.994.994 0 00-.542-.143.898.898 0 00-.528.153 1.182 1.182 0 00-.363.413 2.128 2.128 0 00-.212.617c-.047.247-.07.498-.068.75 0 .268.022.536.068.8.037.216.107.426.207.62.086.164.211.302.364.403a.97.97 0 00.536.143.917.917 0 00.532-.153c.152-.106.278-.248.367-.413.101-.193.173-.4.213-.614a3.86 3.86 0 00.065-.759l-.002.004zm7.071 2.451h-.847l-1.393-3.082-.4-.99v4.072h-.61V26.99h.837l1.326 2.918.478 1.132v-4.05h.61l-.001 4.942zM39.131 9.687l1.992 4.897h-4l-.764 1.864h5.618l2.324 5.599h2.384l-6.381-15.22-1.173 2.86zM16.99 4.26H9.898v17.787h2.262V6.124h4.34c4.278 0 6.417 2.18 6.417 6.542 0 5.01-2.14 7.514-6.417 7.514h-2.507v1.865h2.994c5.46 0 8.19-3.126 8.19-9.379 0-5.603-2.73-8.405-8.189-8.406zm36.08 0v17.787h2.106V7.842l10.533 14.205h2.226v-.821L55.296 4.26h-2.225zm12.76 11.065l2.105 2.783V4.26h-2.106v11.065zM82.99 4.26h-2.14v17.787h2.14V4.26zm4.92 0v2.175h6.479v15.612h2.139V6.435h6.478V4.26H87.91z" fill="#40404B"/><path d="M0 26.307V0h4.626v2.082h-2.58v22.142h2.58v2.081l-2.472.002H0z" fill="url(#paint0_linear_655_3682)"/><path d="M107.373 24.224h2.581l-.001-22.14-2.58-.002V.002h2.647L112 0v26.305h-4.627v-2.081z" fill="url(#paint1_linear_655_3682)"/><path d="M29.302 22.047h2.347L39.228 4.26h-2.506l-7.42 17.787z" fill="url(#paint2_linear_655_3682)"/><path d="M75.395 19.87h-2.14v2.177h2.14V19.87z" fill="url(#paint3_linear_655_3682)"/></g><defs><linearGradient id="paint0_linear_655_3682" x1="2.313" y1="28.785" x2="2.313" y2=".528" gradientUnits="userSpaceOnUse"><stop stop-color="#4657A3"/><stop offset="1" stop-color="#68C0AE"/></linearGradient><linearGradient id="paint1_linear_655_3682" x1="7598.99" y1="10985.3" x2="7598.99" y2="201.498" gradientUnits="userSpaceOnUse"><stop stop-color="#4657A3"/><stop offset="1" stop-color="#68C0AE"/></linearGradient><linearGradient id="paint2_linear_655_3682" x1="5050.11" y1="7432.28" x2="5050.11" y2="140.508" gradientUnits="userSpaceOnUse"><stop stop-color="#4657A3"/><stop offset="1" stop-color="#68C0AE"/></linearGradient><linearGradient id="paint3_linear_655_3682" x1="2420.45" y1="928.62" x2="2420.45" y2="36.539" gradientUnits="userSpaceOnUse"><stop stop-color="#4657A3"/><stop offset="1" stop-color="#68C0AE"/></linearGradient><clipPath id="clip0_655_3682"><path fill="#fff" d="M0 0h112v32H0z"/></clipPath></defs></svg>