<svg width="73" height="64" viewBox="0 0 73 64" fill="none" xmlns="http://www.w3.org/2000/svg">
<path d="M61.3573 0.847473H13.082V61.3199H61.3573V0.847473Z" fill="#F80000"/>
<path d="M59.9747 2.58508H14.4639V59.5935H59.9747V2.58508Z" fill="#4A4646"/>
<path d="M58.7742 4.08582H15.8359V59.1141H58.7742V4.08582Z" fill="#EBEBEB"/>
<mask id="mask0_58_28133" style="mask-type:luminance" maskUnits="userSpaceOnUse" x="15" y="4" width="44" height="56">
<path d="M58.7752 4.08588H15.8369V59.1141H58.7752V4.08588Z" fill="white"/>
</mask>
<path d="M30.7858 3.11542H29.6123V58.8376H30.7858V3.11542Z" fill="#4A4646"/>
<path d="M59.1123 33.5011V31.6676L15.3334 31.6676V33.5011H59.1123Z" fill="#4A4646"/>
<path d="M46.1363 3.11542H44.9629V58.8376H46.1363V3.11542Z" fill="#4A4646"/>
<path d="M61.7524 57.76H12.6816V63.4298H61.7524V57.76Z" fill="#4A4646"/>
<path d="M64.792 61.269H9.58887V63.4241H64.792V61.269Z" fill="#4A4646"/>
<path d="M65.8194 35.3741H8.56836V39.6899H65.8194V35.3741Z" fill="#4A4646"/>
<path d="M9.6123 38.618L9.6123 62.3522H10.6334L10.6334 38.618H9.6123Z" fill="#4A4646"/>
<path d="M17.792 38.618V62.3522H18.8131V38.618H17.792Z" fill="#4A4646"/>
<path d="M26.9941 38.618V62.3522H28.0153V38.618H26.9941Z" fill="#4A4646"/>
<path d="M36.1953 38.6124V62.3466H37.2164V38.6124H36.1953Z" fill="#4A4646"/>
<path d="M45.3965 39.6956V63.4298H46.4176V39.6956H45.3965Z" fill="#4A4646"/>
<path d="M54.5928 38.6124V62.3466H55.6139V38.6124H54.5928Z" fill="#4A4646"/>
<path d="M63.7939 38.618V62.3522H64.8151V38.618H63.7939Z" fill="#4A4646"/>
<path d="M66.9471 31.566H57.7344V32.322H66.9471V31.566Z" fill="#4A4646"/>
<path d="M65.5316 36.0229H59.4217L58.1523 31.566H66.7558L65.5316 36.0229Z" fill="#4A4646"/>
<path d="M66.7104 32.2995C66.7104 32.2995 64.8486 32.3446 62.5412 32.3446C60.2338 32.3446 58.3721 32.322 58.3721 32.2995C58.3721 32.2769 60.2338 32.2543 62.5412 32.2543C64.8486 32.2543 66.7104 32.2769 66.7104 32.2995Z" fill="#E0E0E0"/>
<path d="M66.9305 31.6337C66.9305 31.6337 72.1772 30.9285 72.7639 28.4688C73.1758 26.7537 71.1786 25.8454 71.1786 25.8454C71.1786 25.8454 72.1603 23.837 69.0743 22.861C67.0321 22.2179 65.3791 23.1713 65.3791 23.1713C65.3791 23.1713 62.9419 21.4957 59.6698 22.3984C57.4131 23.019 57.3172 24.6268 57.3172 24.6268C57.3172 24.6268 56.3694 24.0852 54.7333 24.8638C53.0973 25.6423 53.7066 27.064 53.7066 27.064C53.7066 27.064 51.8279 27.5323 51.8448 28.7847C51.8674 31.0301 57.6388 31.6394 57.6388 31.6394H66.9361L66.9305 31.6337Z" fill="#73A9A5"/>
<path d="M58.1583 28.2995C57.1598 28.1811 55.298 27.7749 55.7437 29.3996C54.9144 27.7072 57.1936 27.8087 58.1583 28.2995Z" fill="#95B7B3"/>
<path d="M65.9661 25.4505C65.2101 24.3279 64.2793 23.9499 63.1904 24.9259C63.2807 24.813 63.3766 24.7002 63.4782 24.5874C64.4034 23.6565 65.6163 24.3899 65.9661 25.4505Z" fill="#95B7B3"/>
<path d="M68.9557 30.0935C68.5495 28.9821 67.6694 28.6267 66.5693 28.9652C66.6822 28.9032 66.8006 28.8467 66.9191 28.7903C67.8951 28.3728 68.905 29.0837 68.9501 30.0992L68.9557 30.0935Z" fill="#95B7B3"/>
<path d="M16.0213 31.566H6.80859V32.322H16.0213V31.566Z" fill="#4A4646"/>
<path d="M14.6048 36.0228H8.49495L7.22559 31.566H15.829L14.6048 36.0228Z" fill="#4A4646"/>
<path d="M15.7836 32.2994C15.7836 32.2994 13.9219 32.3445 11.6145 32.3445C9.30704 32.3445 7.44531 32.322 7.44531 32.2994C7.44531 32.2768 9.30704 32.2543 11.6145 32.2543C13.9219 32.2543 15.7836 32.2768 15.7836 32.2994Z" fill="#E0E0E0"/>
<path d="M16.0037 31.6337C16.0037 31.6337 21.2504 30.9285 21.8372 28.4687C22.249 26.7537 20.2519 25.8454 20.2519 25.8454C20.2519 25.8454 21.2335 23.837 18.1476 22.861C16.1053 22.2178 14.4523 23.1712 14.4523 23.1712C14.4523 23.1712 12.0151 21.4957 8.74299 22.3983C6.48635 23.0189 6.39044 24.6268 6.39044 24.6268C6.39044 24.6268 5.44265 24.0852 3.80658 24.8637C2.17052 25.6423 2.77981 27.0639 2.77981 27.0639C2.77981 27.0639 0.901158 27.5322 0.918082 28.7846C0.940649 31.03 6.71201 31.6393 6.71201 31.6393H16.0094L16.0037 31.6337Z" fill="#73A9A5"/>
<path d="M7.2306 28.2995C6.23204 28.1811 4.37031 27.7749 4.81599 29.3996C3.98668 27.7072 6.26589 27.8087 7.2306 28.2995Z" fill="#95B7B3"/>
<path d="M15.0393 25.4505C14.2834 24.3279 13.3525 23.9499 12.2637 24.9259C12.3539 24.813 12.4498 24.7002 12.5514 24.5874C13.4766 23.6565 14.6896 24.3899 15.0393 25.4505Z" fill="#95B7B3"/>
<path d="M18.03 30.0935C17.6238 28.9821 16.7437 28.6267 15.6436 28.9652C15.7564 28.9032 15.8749 28.8467 15.9933 28.7903C16.9693 28.3728 17.9792 29.0837 18.0243 30.0992L18.03 30.0935Z" fill="#95B7B3"/>
</svg>
