<svg width="208" height="62" viewBox="0 0 208 62" fill="none" xmlns="http://www.w3.org/2000/svg">
<g clip-path="url(#clip0_3_5154)">
<path d="M208 0.691101H0V61.2259H208V0.691101Z" fill="#F80000"/>
<path fill-rule="evenodd" clip-rule="evenodd" d="M135.219 11.2347H129.614V12.1866H128.64V34.7801C128.64 35.4688 128.595 35.8216 128.461 36.0624C128.304 36.3087 128.041 36.4823 127.419 36.7063L117.251 40.5587V44.0359H145.421V32.4732C145.421 32.0756 145.265 31.4989 144.822 30.9893C144.402 30.5022 143.736 30.1046 142.695 29.9926V22.6183H141.345V16.8397H140.371V15.8654H137.689V16.8397H136.714V22.6407H136.138V12.1866H135.163V11.2347H135.208H135.219Z" fill="white"/>
<path fill-rule="evenodd" clip-rule="evenodd" d="M125.807 20.6921L124.721 18.0548L123.635 20.6921H122.218V32.0532H121.064V38.6549L127.509 36.1296C127.733 36.0176 127.862 35.8832 127.929 35.7096C127.996 35.5529 127.996 35.3793 127.996 35.2001V32.098H127.224V20.6921H125.807Z" fill="white"/>
<path d="M24.0777 18.2339V44.1031H20.1357V18.2339H24.0777Z" fill="white"/>
<path d="M30.7858 32.7419V44.1031H26.8662V18.2339H30.7858V28.5984H33.4679V18.2339H37.3874V44.1031H33.4679V32.7419H30.7858Z" fill="white"/>
<path d="M39.8232 18.2339H50.3221V21.9743H47.024V44.0807H43.1269V21.9967H39.8288V18.2339H39.8232Z" fill="white"/>
<path d="M52.6679 18.2339H61.5933V21.9743H56.5875V28.7496H60.507V32.6691H56.5875V40.1331H61.7949V44.0527H52.6455L52.6679 18.2283V18.2339Z" fill="white"/>
<path d="M70.4348 33.3411H68.1334V44.0807H64.2139V18.2339H70.4404C71.857 18.2339 72.8761 18.5643 73.4976 19.253C74.1416 19.897 74.4719 20.9832 74.4719 22.5287V28.6432C74.4943 31.7676 73.1449 33.3411 70.4404 33.3411H70.4348ZM68.1558 21.756V29.6399H69.1749C69.7293 29.6399 70.082 29.4831 70.2612 29.1975C70.4404 28.8672 70.5468 28.4024 70.5468 27.7809V23.531C70.5468 22.9542 70.4572 22.5119 70.2612 22.2039C70.082 21.8959 69.7069 21.7616 69.1749 21.7616H68.1558V21.756Z" fill="white"/>
<path d="M76.9922 44.1031V18.2339H84.8761V21.9743H80.9118V44.0807H76.9922V44.1031Z" fill="white"/>
<path d="M93.8909 44.1031L93.3589 39.2316H90.4808L89.9937 44.1031H86.4717L89.6409 18.2339H94.294L97.6592 44.1031H93.8965H93.8909ZM91.8975 25.8099L90.8784 35.3792H92.939L91.8975 25.8099Z" fill="white"/>
<path d="M106.781 44.1031V21.9967H104.502C104.502 31.2301 104.39 37.255 104.149 40.0267C104.06 41.421 103.707 42.44 103.063 43.1288C102.464 43.7727 101.445 44.1031 100.028 44.1031H99.0537V40.1163H99.3393C99.7816 40.1163 100.073 39.9819 100.246 39.7411C100.403 39.478 100.51 39.03 100.554 38.3917C100.711 36.8407 100.801 30.1326 100.801 18.2563H110.7V44.1255L106.781 44.1031Z" fill="white"/>
<path d="M151.788 44.0135V18.1219H161.268V21.8623H155.707V28.1056H158.009C160.691 28.1056 162.04 29.7015 162.04 32.8651V39.4444C162.04 40.9954 161.71 42.1489 161.066 42.8768C160.422 43.5879 159.403 43.9631 158.009 43.9631H151.782V44.0079L151.788 44.0135ZM155.73 40.2507H156.749C157.281 40.2507 157.634 40.0939 157.835 39.8083C158.014 39.5004 158.121 39.0748 158.121 38.4813V33.7834C158.121 33.1619 158.031 32.6971 157.835 32.3892C157.678 32.0588 157.303 31.902 156.749 31.902H155.73V40.2507Z" fill="white"/>
<path d="M173.889 18.1219L170.149 40.6034C169.947 41.8857 169.617 42.776 169.175 43.2855C168.732 43.7727 168.021 44.0191 167.024 44.0191H164.477V40.0323H165.384C165.585 40.0323 165.759 39.9875 165.871 39.9203C166.005 39.8531 166.095 39.7635 166.157 39.6348C166.201 39.5228 166.246 39.3716 166.291 39.1924L166.403 38.3973C166.47 37.9773 166.425 37.2886 166.269 36.3143L163.346 18.1723H167.332L168.794 29.6007L170.188 18.1723H173.889V18.1275V18.1219Z" fill="white"/>
<path d="M184.343 44.0135H173.934V40.0939H174.796C175.238 39.1868 175.569 38.1005 175.77 36.8183C176.123 34.4945 176.302 28.268 176.302 18.1443H186.179V40.0715H187.91V43.9911H184.343V44.0135ZM179.471 36.9247C179.337 38.0557 179.074 39.1196 178.699 40.0939H182.243V21.9071H179.987C179.987 29.4383 179.83 34.4441 179.477 36.9247H179.471Z" fill="white"/>
</g>
<defs>
<clipPath id="clip0_3_5154">
<rect width="208" height="60.5348" fill="white" transform="translate(0 0.691101)"/>
</clipPath>
</defs>
</svg>
