<svg width="197" height="102" viewBox="0 0 197 102" fill="none" xmlns="http://www.w3.org/2000/svg">
<path d="M49.6107 101.64C49.6107 101.64 -3.93132 89.7773 0.629139 63.8866C5.18959 37.9959 32.5235 42.3255 32.5235 42.3255C32.5235 42.3255 -10.772 5.66863 25.6828 5.66863C62.1375 5.66863 78.0703 27.2298 78.0703 27.2298C78.0703 27.2298 97.4378 -6.5984 122.491 2.03183C147.545 10.6621 137.298 29.3945 137.298 29.3945C137.298 29.3945 164.632 9.99818 173.753 31.5593C182.874 53.1204 164.632 55.2852 164.632 55.2852C164.632 55.2852 194.246 42.3543 196.527 66.0802C198.807 89.8061 145.265 101.669 145.265 101.669H49.5819L49.6107 101.64Z" fill="#43B554"/>
<path d="M133.056 51.1875L165.556 29.4243L134.73 53.5254L133.056 51.1875Z" fill="#333536"/>
<path d="M145.958 14.011L147.719 41.8933L143.101 14.3574L145.958 14.011Z" fill="#333536"/>
<path d="M47.0997 88.7973L37.4304 81.8123L24.5283 72.4604" fill="#0D1918"/>
<path d="M46.3204 89.8652L24.5283 72.4604L47.8501 87.7582L46.3204 89.8652Z" fill="#333536"/>
<path d="M41.038 61.78L37.2568 81.3495L38.0073 61.4336L41.038 61.78Z" fill="#333536"/>
</svg>
