<svg width="82" height="64" viewBox="0 0 82 64" fill="none" xmlns="http://www.w3.org/2000/svg">
<g id="Group 11 1">
<path id="Vector" d="M48.3562 46.9243L46.1531 49.4541C45.8038 49.8643 45.2038 49.8486 44.3217 49.4015C43.4842 48.9807 42.8932 48.2339 42.5618 47.1767C42.2439 46.2932 42.0827 45.1992 42.0827 43.937V15.4732C42.0827 13.6903 42.5081 12.4701 43.3455 11.8442C44.138 11.2551 45.1635 10.9028 46.3949 10.7923C46.3949 10.7818 46.3949 10.766 46.3904 10.7503C46.3725 10.6293 46.3412 10.5662 46.2964 10.5504C43.9187 9.87192 41.8722 8.2152 40.2154 5.62235C38.5899 3.08206 37.5018 1.42009 36.9734 0.683783C36.9286 0.625928 36.8435 0.52074 36.5973 0.773189C34.2911 3.33977 31.873 5.8748 29.4147 8.29935C26.9697 10.7082 24.5024 13.1696 22.0798 15.6099L21.7081 15.9833V5.99576C21.7081 4.77558 21.2962 3.78156 20.4499 2.96109C19.9304 2.44567 19.1826 2.07752 18.2288 1.86714C17.4273 1.70936 16.5093 1.63573 15.5017 1.66203C14.4808 1.68307 13.6121 1.71462 12.918 1.75144C11.6105 1.83033 10.0835 1.9513 8.37292 2.09855C6.59074 2.25634 5.38616 2.14589 4.6876 1.7567C4.38311 1.61995 4.21295 1.11505 4.17264 0.168362C4.15921 0.105249 3.98457 0.0368768 3.91292 0.0158392C3.86815 6.10352e-05 3.84128 0.0105798 3.82337 6.10352e-05C3.82337 0.0105798 3.82337 0.0316174 3.82337 0.0684333C3.80545 1.36225 3.76068 2.5982 3.69351 3.75C3.62634 4.88603 3.60843 5.94317 3.64425 6.90036C3.6756 8.81481 3.96666 10.1823 4.49953 10.9712C5.04136 11.7706 5.76679 12.4122 6.65792 12.8803C7.2176 13.2064 7.92961 13.3747 8.78487 13.3747C9.6402 13.3747 10.6791 13.3116 11.7806 13.1959L12.0269 13.1696V22.2894H9.22376C6.51909 22.2894 4.76373 23.0835 4.00249 24.6561C3.21885 26.276 2.82031 27.5908 2.82031 28.5691V35.0749H2.86957C3.04421 33.292 3.42484 32.1297 4.03383 31.5196C4.63835 30.9148 5.39512 30.6097 6.28622 30.6097C6.31756 30.6097 6.34443 30.6097 6.37578 30.6097L12.0359 30.8622V38.1675L12.0403 42.3223C12.3046 42.1751 12.5643 42.0488 12.824 41.9437C15.1211 40.9497 18.1169 40.5131 21.7216 40.6499V17.3508L25.3129 13.7165V49.6644L24.9681 49.3962C22.344 47.3766 19.9036 45.7515 17.7139 44.5681C15.6898 43.4794 13.4061 43.2795 10.9208 43.9475C10.8985 43.9475 10.8805 43.9633 10.8537 43.9633H10.8447C10.8268 43.9633 10.8134 43.9685 10.7955 43.9738C10.7686 43.9896 10.7418 43.9948 10.7059 44.0001C10.6209 44.0264 10.5402 44.0422 10.4551 44.0685L9.62676 44.3262C9.42971 44.4261 9.23272 44.5365 9.04462 44.6575C8.59236 44.9416 8.14906 45.2466 7.71017 45.5674C7.6744 45.6147 7.6341 45.6621 7.59827 45.7094L7.56692 45.7462C6.58626 46.6561 5.76231 47.7869 5.08614 49.1122C5.02793 51.074 5.18018 53.4302 5.26526 55.3762C5.87425 54.8818 6.46087 54.3927 7.36091 54.0876C9.99393 53.1988 11.5433 54.2086 13.5987 54.9922C15.6092 55.7601 17.6198 57.3642 19.5812 59.7572L30.1893 47.5607L29.5714 46.8139L26.2085 50.5691V12.8435L26.2846 12.7646C29.3699 9.61948 29.4952 9.48797 29.6296 9.55111H29.6744L29.7102 9.59318L29.7774 9.63002V9.67732L32.0969 12.4648V53.3355L37.9585 59.9834C38.1197 59.9624 38.2988 59.9729 38.4735 59.9518C40.0766 58.1215 41.8051 55.96 43.6007 53.5354C45.3605 51.1582 47.0621 49.0281 48.6518 47.203L48.3607 46.9296L48.3562 46.9243Z" fill="#010101"/>
<path id="Vector_2" d="M69.4 14.3003L69.6731 14.3687C71.6966 14.8947 73.7252 14.3793 75.7001 12.833C77.6662 11.292 78.8168 7.81553 79.1214 2.49827C79.1214 2.4299 79.1076 2.36678 78.9688 2.33522C78.9379 2.32997 78.9108 2.32471 78.8931 2.32471C78.6868 5.39619 78.1362 7.01609 77.2089 7.2843C76.4571 7.52626 75.4226 7.14755 74.057 6.11673C72.7267 5.11219 71.7238 3.18199 71.0747 0.378735C71.0432 0.347178 71.0205 0.341919 71.0116 0.341919C70.9896 0.341919 70.9044 0.347178 70.7518 0.50496H70.7429C69.6637 1.54106 67.9846 3.08732 65.6072 5.23841C63.2607 7.36321 60.6812 9.05146 57.9408 10.2453C56.1809 11.0185 54.5823 11.576 53.1628 11.9283V23.5516H46.1862L44.91 31.204H53.1628V42.112L52.921 42.0857C52.836 42.0752 52.7509 42.0752 52.6613 42.0752C51.5597 42.0752 50.0238 42.7273 48.0894 44.0211C46.0071 45.4149 44.3637 48.1708 43.1994 52.2047C42.5277 54.6136 42.389 57.0697 42.783 59.5048C42.9263 60.4041 43.1188 61.2561 43.3517 62.0661H44.1622C43.8532 60.9143 43.7592 59.5363 43.9025 57.9375C43.9921 56.975 44.3592 56.0809 44.9906 55.2762C45.6309 54.461 46.3967 54.0245 47.2609 53.9824C48.6536 53.9351 49.9969 54.4242 51.2865 55.4182C52.5314 56.3807 53.5703 57.1065 54.3852 57.5851C55.5898 58.3004 56.9422 58.9315 58.4109 59.4627C59.8707 59.9887 61.241 60.2516 62.4858 60.2516C64.1653 60.2516 65.7548 59.2997 67.2056 57.4168C68.6652 55.5287 69.4044 52.7675 69.4044 49.2227V31.1988H75.5298L76.833 23.5463H69.4044L69.4 14.3003ZM68.5087 45.3623C68.5087 47.7395 67.5683 49.149 65.71 49.5593C65.3158 49.6487 64.9171 49.6908 64.528 49.6908C63.1352 49.6908 61.7694 49.1438 60.4484 48.0656C59.9021 47.6449 58.8766 46.7087 57.4079 45.2992C55.9615 43.9107 54.8017 43.0166 53.9509 42.6484L53.3822 42.4012L53.9554 42.1593C55.1062 41.6649 56.4631 41.3862 57.9811 41.3283C59.4185 41.2705 61.0664 41.2758 62.8844 41.3494V7.77869L63.2961 8.51499C64.6756 10.9817 66.3862 12.7646 68.3832 13.8112L68.5176 13.8796V45.3623H68.5087Z" fill="#010101"/>
<path id="Vector_3" d="M17.798 56.6998C18.734 55.2219 17.6458 54.98 18.7161 53.6283C19.6519 52.445 20.5923 51.2616 21.4117 49.9625C21.667 49.5576 21.9222 49.1368 22.1551 48.7055C21.8506 48.5162 21.5506 48.3006 21.2506 48.0534C20.7043 47.6326 19.6788 46.6964 18.2101 45.2869C16.7637 43.8984 15.8143 44.9608 14.968 44.5874L14.3993 44.3402L9.11091 45.9654C7.02867 47.3591 5.27782 47.0436 4.07326 51.94C3.47322 54.3751 3.19559 57.0627 3.58964 59.4978C3.73294 60.3971 3.92549 61.2492 4.15834 62.0591H4.96885C4.65987 60.9073 4.56583 59.5293 4.70913 57.9304C4.79868 56.968 5.16587 56.0739 5.79726 55.2692C6.43758 54.454 9.35722 52.892 10.2214 52.8446C11.6141 52.7973 12.9575 53.2864 14.2471 54.2804C15.492 55.2429 16.5308 55.9687 17.3458 56.4473C17.4936 56.5368 17.6503 56.6209 17.8025 56.7051L17.798 56.6998Z" fill="#010101"/>
</g>
</svg>
