<svg width="73" height="120" viewBox="0 0 73 120" fill="none" xmlns="http://www.w3.org/2000/svg">
<g clip-path="url(#clip0_54_107)">
<path d="M41.4199 114.86L40.2099 97.3401L49.9099 86.1101L49.3099 85.6301L43.5899 90.5201L42.7599 85.6301L41.8499 85.8601L42.0099 91.9601L39.6799 94.2301L38.7999 76.3201L43.5399 70.4401L43.0199 69.9901L38.0999 73.9201L37.7799 64.5601H36.4999L35.6499 76.0701L34.4099 87.5101L27.9999 80.5701L27.3999 80.9601L29.7399 84.6401L25.6699 84.5801V85.2601L30.1099 85.9401L34.4799 92.7901L33.4899 114.86H41.4199Z" fill="#4A4646"/>
<path d="M0.0200305 51.47C-0.0599695 49.29 0.10003 47.04 1.02003 45.05C1.94003 43.07 3.73003 41.38 5.89003 41.07C7.14003 40.89 8.54003 41.24 9.31003 42.24C6.87003 39.21 4.64003 35.89 3.68003 32.11C2.72003 28.34 3.20003 24.03 5.71003 21.06C8.12003 18.2 12.16 16.96 15.87 17.51C19.58 18.05 18.18 19.82 20.62 22.66C17.02 17.34 16.14 13.66 17.21 7.88997C18.28 2.12997 39.27 -4.72003 49.39 4.47997C53.55 8.26997 58.1 13.95 55.3 22.91C56.82 20.82 61.84 21.12 64.16 22.28C75.52 27.96 77.03 52.19 62.2 55.68C64.59 54.61 67.61 56.05 68.77 58.4C70.34 61.59 68.84 65.27 66.66 67.81C64.82 69.95 62.39 71.49 59.87 72.75C45.76 79.83 28.59 78.81 14.36 72.65C9.07003 70.36 5.39003 66.58 2.57003 61.51C2.56003 61.49 2.55003 61.47 2.54003 61.45C0.85003 58.43 0.140031 54.94 0.0200305 51.47Z" fill="#43B554"/>
<path d="M41.8301 82.8299C42.5101 82.0299 44.5801 81.7699 44.5801 83.2599C45.0701 78.6699 51.0701 80.5499 48.4401 84.8999C50.1801 82.0299 55.1701 87.4199 51.2901 89.0599C55.2601 90.2499 51.7501 95.0099 49.1901 93.1899C51.0201 94.3199 49.9401 96.6699 47.9901 96.3099C42.8001 95.3199 37.2901 86.9299 41.8301 82.8399V82.8299Z" fill="#43B554"/>
<path d="M24.1201 86.62C24.9501 86.27 25.3501 85.35 25.3501 85.35C25.3501 85.35 24.4101 84.99 23.5901 85.34C22.7601 85.69 22.3601 86.61 22.3601 86.61C22.3601 86.61 23.3001 86.97 24.1201 86.62Z" fill="#43B554"/>
<path d="M23.1201 83.7099C24.0401 84.5299 25.4201 84.4799 25.4201 84.4799C25.4201 84.4799 25.3101 83.0999 24.3901 82.2799C23.4701 81.4599 22.0901 81.5099 22.0901 81.5099C22.0901 81.5099 22.2001 82.8899 23.1201 83.7099Z" fill="#43B554"/>
<path d="M50.1101 36.2699C51.1801 35.7299 52.3601 35.4499 53.5601 35.3799C54.7601 35.2999 56.0401 35.4299 57.2301 35.9999C58.4201 36.5399 59.4401 37.6899 59.7301 38.9699C60.1001 40.2399 59.7901 41.4999 59.3601 42.5799C59.2201 41.9799 59.2201 41.4099 59.0801 40.8799C58.9401 40.3399 58.8301 39.8299 58.5801 39.3899C58.1301 38.4899 57.4501 37.8499 56.5601 37.4299C55.6701 36.9899 54.6201 36.7699 53.5301 36.6099C52.4401 36.4599 51.3101 36.3799 50.1201 36.2799L50.1101 36.2699Z" fill="#33913E"/>
<path d="M59.9001 41.1199C60.5201 40.6699 61.2501 40.4299 62.0001 40.3399C62.7501 40.2399 63.5701 40.3099 64.3501 40.6799C65.1301 41.0299 65.8101 41.8199 65.9601 42.6699C66.1601 43.5199 65.9001 44.2999 65.5101 44.9399C65.2601 44.1999 65.1301 43.5499 64.8101 43.0899C64.5101 42.6199 64.1601 42.3299 63.6801 42.0999C63.2001 41.8599 62.6001 41.7099 61.9701 41.5699C61.3301 41.4299 60.6601 41.3199 59.9101 41.1299L59.9001 41.1199Z" fill="#33913E"/>
<path d="M56.9099 58.47C58.1099 58.72 59.2299 59.23 60.2599 59.92C61.2699 60.62 62.2899 61.5 62.7399 62.95C62.9499 63.67 62.8599 64.55 62.4799 65.21C62.1099 65.86 61.5799 66.35 61.0299 66.67C59.9299 67.36 58.7299 67.66 57.5199 67.77C58.5099 67.06 59.5099 66.44 60.2899 65.7C60.6799 65.33 60.9899 64.93 61.1499 64.54C61.3199 64.15 61.3399 63.78 61.2299 63.37C60.9899 62.53 60.2599 61.67 59.4899 60.87C58.6899 60.07 57.8099 59.31 56.9199 58.48L56.9099 58.47Z" fill="#33913E"/>
<path d="M43.23 85.5599C43.48 85.3899 43.76 85.3099 44.06 85.2599C44.35 85.2099 44.67 85.2399 44.98 85.3799C45.29 85.5199 45.54 85.8599 45.55 86.1899C45.59 86.5199 45.48 86.8099 45.33 87.0599C45.28 86.7699 45.27 86.4899 45.17 86.2799C45.08 86.0599 44.95 85.9199 44.75 85.8299C44.35 85.6299 43.79 85.6299 43.22 85.5599H43.23Z" fill="#33913E"/>
<path d="M44.23 87.5599C44.48 87.3899 44.76 87.3099 45.06 87.2599C45.35 87.2099 45.67 87.2399 45.98 87.3799C46.29 87.5199 46.54 87.8599 46.55 88.1899C46.59 88.5199 46.48 88.8099 46.33 89.0599C46.28 88.7699 46.27 88.4899 46.17 88.2799C46.08 88.0599 45.95 87.9199 45.75 87.8299C45.35 87.6299 44.79 87.6299 44.22 87.5599H44.23Z" fill="#33913E"/>
<path d="M31.1101 21.2699C32.1801 20.7299 33.3601 20.4499 34.5601 20.3799C35.7601 20.2999 37.0401 20.4299 38.2301 20.9999C39.4201 21.5399 40.4401 22.6899 40.7301 23.9699C41.1001 25.2399 40.7901 26.4999 40.3601 27.5799C40.2201 26.9799 40.2201 26.4099 40.0801 25.8799C39.9401 25.3399 39.8301 24.8299 39.5801 24.3899C39.1301 23.4899 38.4501 22.8499 37.5601 22.4299C36.6701 21.9899 35.6201 21.7699 34.5301 21.6099C33.4401 21.4599 32.3101 21.3799 31.1201 21.2799L31.1101 21.2699Z" fill="#33913E"/>
<path d="M21.45 55.8301C21.25 54.6501 21.34 53.4401 21.62 52.2701C21.9 51.1001 22.4 49.9201 23.3 48.9501C24.17 47.9701 25.56 47.3401 26.87 47.4401C28.2 47.4601 29.3 48.1301 30.21 48.8601C29.6 48.8201 29.05 48.6501 28.5 48.6201C27.95 48.5901 27.42 48.5501 26.93 48.6601C25.94 48.8201 25.13 49.2801 24.45 50.0101C23.77 50.7301 23.25 51.6701 22.77 52.6601C22.3 53.6601 21.89 54.7101 21.45 55.8201V55.8301Z" fill="#33913E"/>
<path d="M10.76 53.3999C10.99 52.0399 11.52 50.7499 12.25 49.5699C12.98 48.3899 13.96 47.2699 15.35 46.5699C16.04 46.2499 16.85 46.0499 17.65 46.0999C18.45 46.1699 19.2 46.4299 19.82 46.8299C21.07 47.6499 21.92 48.7999 22.46 50.0599C21.4 49.1999 20.35 48.3899 19.24 47.9199C18.13 47.4699 17.03 47.4699 16.03 47.9899C15 48.4699 14.09 49.3599 13.23 50.2999C12.38 51.2599 11.58 52.3099 10.76 53.3999Z" fill="#33913E"/>
<path d="M14.41 113.67C14.41 113.67 5.91996 113.67 7.10996 105.77C7.91996 100.4 11.86 101.26 11.86 101.26C11.86 101.26 8.21996 97.8199 12.15 94.6299C17.7 90.1299 18.65 98.0999 18.65 98.0999C18.65 98.0999 19.34 91.6699 23.25 92.2099C28.33 92.8999 27.48 98.5499 27.48 98.5499C27.48 98.5499 31.55 94.4899 32.91 98.9999C34.27 103.51 31.55 103.96 31.55 103.96C31.55 103.96 35.78 101.29 36.3 106.22C37.34 116.09 28.66 113.67 28.66 113.67H14.41Z" fill="#33913E"/>
<path d="M15.2599 119.61C15.2599 119.61 4.0499 119.61 5.6299 112.65C6.6999 107.91 11.8999 108.67 11.8999 108.67C11.8999 108.67 7.0899 105.64 12.2799 102.83C19.5999 98.8601 20.8599 105.89 20.8599 105.89C20.8599 105.89 21.7699 100.23 26.9299 100.7C33.6399 101.31 32.5099 106.29 32.5099 106.29C32.5099 106.29 37.8899 102.71 39.6799 106.69C41.4699 110.67 37.8899 111.06 37.8899 111.06C37.8899 111.06 43.4699 108.7 44.1599 113.05C45.5399 121.75 34.0799 119.61 34.0799 119.61H15.2599Z" fill="#43B554"/>
<path d="M31.7 110.32L38.07 106.3L31.9799 110.73L31.7 110.32Z" fill="#333536"/>
<path d="M34.1799 103.45L34.5599 108.59L33.6799 103.51L34.1799 103.45Z" fill="#333536"/>
<path d="M14.6298 117.45L10.3298 114.23L14.9098 117.04L14.6298 117.45Z" fill="#333536"/>
<path d="M13.5298 112.26L12.8298 115.87L13.0298 112.2L13.5298 112.26Z" fill="#333536"/>
</g>
<defs>
<clipPath id="clip0_54_107">
<rect width="73" height="119.85" fill="white"/>
</clipPath>
</defs>
</svg>
