<svg width="142" height="143" viewBox="0 0 142 143" fill="none" xmlns="http://www.w3.org/2000/svg">
<g clip-path="url(#clip0_54_66)">
<path d="M67.97 133H85.67L75.19 72.8301L72.19 71.8301L67.97 133Z" fill="#4A4646"/>
<path d="M70.5899 104.02L73.8799 100.18L53.6199 77.6201L53.1899 78.0001L70.5899 104.02Z" fill="#4A4646"/>
<path d="M119.45 58.3101C119.45 55.9201 119.15 53.4401 117.88 51.2201C116.61 49 114.22 47.06 111.41 46.62C109.79 46.3601 107.99 46.68 107.04 47.7401C110.07 44.5301 112.81 41 113.89 36.91C114.97 32.82 114.17 28.0701 110.8 24.6801C107.55 21.4201 102.28 19.8601 97.51 20.2701C92.74 20.6801 94.61 22.6901 91.58 25.6901C96.02 20.0301 96.99 16.0301 95.36 9.66005C93.73 3.28005 66.28 -5.26995 53.58 4.32005C48.35 8.27005 42.72 14.2701 46.72 24.2501C44.66 21.8801 38.18 21.9601 35.23 23.1101C20.78 28.7801 19.85 55.2901 39.19 59.8601C36.05 58.57 32.21 60 30.81 62.5201C28.91 65.94 31.01 70.05 33.94 72.9501C36.41 75.3901 39.62 77.2101 42.94 78.7101C70.19 91.0201 91.19 85.0201 101.81 80.8601C108.43 78.2701 113.16 74.6401 116.58 69.2301C116.59 69.2101 116.61 69.19 116.62 69.1701C118.66 65.9301 119.43 62.1301 119.45 58.3301V58.3101Z" fill="#43B554"/>
<path d="M64.54 51.63C65.01 50.53 65.73 49.56 66.6 48.72C67.46 47.88 68.52 47.16 69.8 46.82C71.06 46.46 72.58 46.68 73.63 47.47C74.74 48.2 75.31 49.36 75.68 50.47C75.19 50.11 74.82 49.67 74.36 49.35C73.91 49.03 73.49 48.71 73.01 48.54C72.09 48.14 71.15 48.1 70.2 48.35C69.24 48.59 68.29 49.1 67.36 49.69C66.43 50.28 65.52 50.95 64.55 51.64L64.54 51.63Z" fill="#33913E"/>
<path d="M85.3 69.5899C86.37 69.0499 87.55 68.7699 88.75 68.6999C89.95 68.6199 91.23 68.7499 92.42 69.3199C93.61 69.8599 94.63 71.0099 94.92 72.2899C95.29 73.5599 94.98 74.8199 94.55 75.8999C94.41 75.2999 94.41 74.7299 94.27 74.1999C94.13 73.6599 94.02 73.1499 93.77 72.7099C93.32 71.8099 92.64 71.1699 91.75 70.7499C90.86 70.3099 89.81 70.0899 88.72 69.9299C87.63 69.7799 86.5 69.6999 85.31 69.5999L85.3 69.5899Z" fill="#33913E"/>
<path d="M38.6001 38.2601C38.6801 37.0601 39.0401 35.9101 39.5901 34.8401C40.1301 33.7601 40.9001 32.7401 41.9901 32.0001C43.0601 31.2501 44.5701 30.9601 45.8201 31.3601C47.1101 31.6901 48.0301 32.6001 48.7401 33.5201C48.1501 33.3401 47.6601 33.0501 47.1301 32.8901C46.6001 32.7401 46.1001 32.5701 45.5901 32.5601C44.5901 32.4901 43.6901 32.7501 42.8701 33.3001C42.0401 33.8401 41.3101 34.6401 40.6201 35.4901C39.9301 36.3501 39.2901 37.2801 38.6001 38.2601Z" fill="#33913E"/>
<path d="M50.35 67.59C48.94 67.53 47.57 67.16 46.28 66.55C45.01 65.92 43.7 65.08 42.92 63.55C42.54 62.8 42.41 61.82 42.63 60.98C42.85 60.14 43.29 59.43 43.83 58.9C44.87 57.8 46.16 57.15 47.51 56.76C46.59 57.82 45.64 58.79 45.02 59.82C44.71 60.34 44.46 60.85 44.43 61.33C44.37 61.81 44.43 62.25 44.67 62.7C45.12 63.61 46.06 64.48 47.07 65.26C48.1 66.04 49.22 66.77 50.37 67.58L50.35 67.59Z" fill="#33913E"/>
<path d="M53.55 76.5501C52.46 76.0601 51.51 75.3101 50.69 74.4201C49.87 73.5401 49.18 72.4601 48.88 71.1701C48.55 69.9001 48.81 68.3901 49.62 67.3601C50.38 66.2701 51.55 65.7301 52.67 65.3801C52.29 65.8701 51.85 66.2201 51.52 66.6701C51.19 67.1101 50.86 67.5301 50.67 68.0001C50.25 68.9101 50.18 69.8401 50.41 70.8101C50.63 71.7801 51.12 72.7401 51.67 73.6801C52.24 74.6301 52.88 75.5601 53.55 76.5401V76.5501Z" fill="#33913E"/>
<path d="M98.6699 43.2402C99.6099 43.0602 100.57 43.0902 101.52 43.2902C102.46 43.5002 103.44 43.8802 104.21 44.7402C104.57 45.1802 104.83 45.7702 104.84 46.3602C104.84 46.9502 104.69 47.4902 104.43 47.9402C103.94 48.8502 103.21 49.5002 102.39 49.9902C102.81 49.1402 103.26 48.3402 103.49 47.5502C103.73 46.7502 103.66 46.0902 103.21 45.5802C102.77 45.0402 102 44.6302 101.21 44.2602C100.41 43.9002 99.5599 43.6002 98.6699 43.2402Z" fill="#33913E"/>
<path d="M93.77 33.1401C94.97 33.1701 96.14 33.4801 97.23 33.9801C98.33 34.4701 99.39 35.1901 100.17 36.2601C100.97 37.3001 101.32 38.7901 100.97 40.0601C100.7 41.3601 99.83 42.3201 98.94 43.0701C99.1 42.4801 99.36 41.9701 99.5 41.4401C99.63 40.9001 99.77 40.3901 99.76 39.8901C99.79 38.8901 99.49 38.0001 98.9 37.2001C98.32 36.4001 97.5 35.7001 96.61 35.0501C95.72 34.4001 94.76 33.8001 93.76 33.1501L93.77 33.1401Z" fill="#33913E"/>
<path d="M6.76004 64.6902C6.76004 64.6902 6.32004 67.8702 8.43004 67.8702C10.54 67.8702 10.1 64.6902 10.1 64.6902H6.75004H6.76004Z" fill="#4A4646"/>
<path d="M43.0899 58.5601C43.0399 57.6501 42.7399 55.0901 40.9399 53.2701C39.6799 51.9901 37.9599 51.3401 35.8399 51.3401C33.7199 51.3401 32.1599 51.9801 30.9699 53.2501C28.8099 55.5601 28.9399 59.1001 28.9599 59.4801V73.4301H27.1499V70.4301H23.6299V73.4301H21.8199V59.4801C21.8399 59.1101 21.9699 55.5601 19.8099 53.2501C18.6199 51.9801 16.9799 51.3401 14.9399 51.3401C12.8999 51.3401 11.0999 51.9901 9.83994 53.2701C8.03994 55.1001 7.73994 57.6501 7.68994 58.5601M9.17994 58.5601C9.22994 57.7801 9.50994 55.7101 10.8999 54.3001C11.8699 53.3201 13.2299 52.8201 14.9399 52.8201C16.5499 52.8201 17.8199 53.3001 18.7199 54.2601C20.5099 56.1701 20.3299 59.3801 20.3299 59.4101V73.4301H19.3199V74.9201H20.3299V80.3001H19.3199V81.7901H23.6199V135.01H27.1399V81.7901H31.4399V80.3001H30.4299V74.9201H31.4399V73.4301H30.4299V59.4101C30.4299 59.4101 30.2399 56.1901 32.0399 54.2701C32.9399 53.3101 34.2099 52.8301 35.8199 52.8301C37.5299 52.8301 38.8899 53.3301 39.8599 54.3101C41.2599 55.7201 41.5299 57.7901 41.5799 58.5701M21.8099 80.3001V74.9201H23.6199V80.3001H21.8099ZM28.9499 80.3001H27.1399V74.9201H28.9499V80.3001Z" fill="#4A4646"/>
<path d="M40.68 64.6902C40.68 64.6902 40.24 67.8702 42.35 67.8702C44.46 67.8702 44.02 64.6902 44.02 64.6902H40.67H40.68Z" fill="#4A4646"/>
<path d="M7.50999 57.8101C6.39999 57.9601 5.08999 58.5601 4.79999 60.5501C4.41999 63.2001 1.35999 64.1601 0.32999 64.4101C0.12999 64.4601 -0.0100098 64.6301 -0.0100098 64.8401V65.1401C-0.0100098 65.3801 0.18999 65.5801 0.42999 65.5801H16.05C16.29 65.5801 16.49 65.3801 16.49 65.1401V64.8401C16.49 64.6401 16.35 64.4601 16.15 64.4101C15.12 64.1601 12.06 63.2001 11.68 60.5501C11.39 58.5801 10.1 57.9701 8.98999 57.8201" fill="#E13030"/>
<path d="M41.51 57.8101C40.4 57.9601 39.09 58.5601 38.8 60.5501C38.42 63.2001 35.36 64.1601 34.33 64.4101C34.13 64.4601 33.99 64.6301 33.99 64.8401V65.1401C33.99 65.3801 34.19 65.5801 34.43 65.5801H50.05C50.29 65.5801 50.49 65.3801 50.49 65.1401V64.8401C50.49 64.6401 50.35 64.4601 50.15 64.4101C49.12 64.1601 46.06 63.2001 45.68 60.5501C45.39 58.5801 44.1 57.9701 42.99 57.8201" fill="#E13030"/>
<path d="M90.2501 138C90.2501 138 71.7001 133.89 73.2801 124.92C74.8601 115.95 84.3301 117.45 84.3301 117.45C84.3301 117.45 69.3301 104.75 81.9601 104.75C94.5901 104.75 100.11 112.22 100.11 112.22C100.11 112.22 106.82 100.5 115.5 103.49C124.18 106.48 120.63 112.97 120.63 112.97C120.63 112.97 130.1 106.25 133.26 113.72C136.42 121.19 130.1 121.94 130.1 121.94C130.1 121.94 140.36 117.46 141.15 125.68C141.94 133.9 123.39 138.01 123.39 138.01H90.2401L90.2501 138Z" fill="#43B554"/>
<path d="M126.16 129.52L137.43 121.98L126.75 130.33L126.16 129.52Z" fill="#333536"/>
<path d="M130.64 116.64L131.25 126.29L129.64 116.75L130.64 116.64Z" fill="#333536"/>
<path d="M86.45 115.41C86.54 114.57 86.83 113.77 87.25 113.03C87.66 112.29 88.23 111.6 89.02 111.11C89.8 110.62 90.86 110.45 91.73 110.77C92.62 111.04 93.24 111.7 93.72 112.37C92.94 112.04 92.25 111.66 91.54 111.61C90.84 111.53 90.2 111.68 89.61 112.05C89.01 112.4 88.48 112.95 87.97 113.52C87.46 114.11 86.98 114.74 86.47 115.4L86.45 115.41Z" fill="#33913E"/>
<path d="M92.73 108V127.22" stroke="#4A4646" stroke-width="1.3" stroke-miterlimit="10"/>
<path d="M43.6499 108.26V130.63" stroke="#4A4646" stroke-width="1.3" stroke-miterlimit="10"/>
<path d="M35.3199 127.22L96.8899 127.22V123.06H35.3199V127.22Z" fill="#E13030"/>
<path d="M25.5798 142.29V134.79C25.5798 129.21 29.7698 124.69 34.9298 124.69C40.0998 124.69 44.2798 129.21 44.2798 134.79V142.29" stroke="#4A4646" stroke-width="1.69" stroke-miterlimit="10"/>
<path d="M25.6899 132H95.1899" stroke="#A23840" stroke-miterlimit="10"/>
<path d="M36.6099 113.97L98.1799 113.97V109.81H36.6099V113.97Z" fill="#E13030"/>
<path d="M35.8399 120.35L97.4099 120.35V116.06H35.8399V120.35Z" fill="#E13030"/>
<path d="M25.19 131.64H94.03V128.78H25.19V131.64Z" fill="#E13030"/>
<path d="M76.3699 141.77V134.27C76.3699 128.69 80.5599 124.17 85.7199 124.17C90.8899 124.17 95.0699 128.69 95.0699 134.27V141.77" stroke="#4A4646" stroke-width="1.69" stroke-miterlimit="10"/>
</g>
<defs>
<clipPath id="clip0_54_66">
<rect width="141.19" height="142.29" fill="white"/>
</clipPath>
</defs>
</svg>
