<svg width="99" height="75" viewBox="0 0 99 75" fill="none" xmlns="http://www.w3.org/2000/svg">
<g clip-path="url(#clip0_58_22225)">
<path d="M82 0H0V70H82V0Z" fill="#A23840"/>
<path d="M68.6898 2H15.5698V55.15H68.6898V2Z" fill="#E13030"/>
<path d="M67.1698 3.52002H17.0898V53.62H67.1698V3.52002Z" fill="#4A4646"/>
<path d="M65.6601 5.05005H18.6201V52.1101H65.6601V5.05005Z" fill="#E0E0E0"/>
<g style="mix-blend-mode:multiply">
<path d="M65.6501 5.04004V5.95004H19.3401V52.1H18.6201V5.04004H65.6501Z" fill="#E0E0E0"/>
</g>
<path d="M51.4998 3.98999H33.5298V52.96H51.4998V3.98999Z" stroke="#4A4646" stroke-width="0.5" stroke-miterlimit="10"/>
<path d="M69 52.02H15V57H69V52.02Z" fill="#4A4646"/>
<path d="M33 30H0V58H33V30Z" fill="#E13030"/>
<path d="M93.57 30.5H32.5V57.5H93.57V30.5Z" fill="#A23840" stroke="#E13030" stroke-width="0.75" stroke-miterlimit="10"/>
<path d="M69.13 19.4199C69.34 19.5799 69.56 19.7399 69.82 19.7899C70.08 19.8399 70.39 19.7499 70.51 19.5199C70.58 19.3799 70.58 19.2199 70.57 19.0699C70.46 17.6399 69.67 16.3199 68.65 15.2899C67.63 14.2699 65.49 13.8499 66.29 15.9399C66.79 17.2399 68.05 18.5699 69.13 19.4199Z" fill="#2A662C"/>
<path d="M72.35 19.2299C72.44 19.4399 72.55 19.6499 72.74 19.7899C72.92 19.9299 73.2 19.9799 73.38 19.8499C73.49 19.7699 73.56 19.6399 73.61 19.5199C74.11 18.3599 74.03 17.0299 73.66 15.8299C73.29 14.6299 71.79 13.4599 71.56 15.4099C71.42 16.6199 71.85 18.1399 72.35 19.2399V19.2299Z" fill="#4C9A51"/>
<path d="M75.3802 18.8498C75.3702 19.0798 75.3702 19.3098 75.4702 19.5198C75.5702 19.7298 75.7902 19.8898 76.0202 19.8598C76.1602 19.8398 76.2702 19.7498 76.3802 19.6698C77.3502 18.8598 77.9002 17.6298 78.1202 16.3998C78.3402 15.1698 77.5402 13.4598 76.4402 15.0898C75.7602 16.1098 75.4502 17.6598 75.3902 18.8598L75.3802 18.8498Z" fill="#2A662C"/>
<path d="M73.5999 16.4399C73.5899 16.6699 73.5899 16.8999 73.6899 17.1099C73.7899 17.3199 74.0099 17.4799 74.2399 17.4499C74.3799 17.4299 74.4899 17.3399 74.5999 17.2599C75.5699 16.4499 76.1199 15.2199 76.3399 13.9899C76.5599 12.7599 75.7599 11.0499 74.6599 12.6799C73.9799 13.6999 73.6699 15.2499 73.6099 16.4499L73.5999 16.4399Z" fill="#2A662C"/>
<path d="M70.9302 17.5099C71.0802 17.6899 71.2402 17.8599 71.4502 17.9499C71.6602 18.0399 71.9402 18.0099 72.0902 17.8399C72.1802 17.7299 72.2002 17.5999 72.2202 17.4599C72.3802 16.2099 71.9502 14.9499 71.2602 13.8899C70.5702 12.8299 68.8102 12.0999 69.1202 14.0399C69.3102 15.2399 70.1502 16.5999 70.9302 17.5199V17.5099Z" fill="#2A662C"/>
<path d="M74.7302 19.9598C74.5602 20.1598 74.3902 20.3698 74.3302 20.6298C74.2702 20.8798 74.3502 21.1898 74.5802 21.3098C74.7202 21.3798 74.8802 21.3898 75.0402 21.3798C76.5002 21.3198 77.8602 20.5898 78.9402 19.6298C80.0202 18.6698 80.5202 16.5698 78.3602 17.2898C77.0202 17.7398 75.6302 18.9298 74.7202 19.9598H74.7302Z" fill="#4C9A51"/>
<path d="M73.1499 20.5598C73.1499 20.8198 73.1499 21.0898 73.2799 21.3198C73.3999 21.5498 73.6599 21.7298 73.9199 21.6798C74.0699 21.6498 74.1999 21.5498 74.3199 21.4398C75.3999 20.4698 75.9699 19.0498 76.1699 17.6298C76.3699 16.2098 75.3799 14.2898 74.1999 16.1998C73.4599 17.3898 73.1799 19.1798 73.1599 20.5498L73.1499 20.5598Z" fill="#4C9A51"/>
<path d="M72.1398 21.2498C72.3298 21.4298 72.5398 21.5998 72.7998 21.6698C73.0598 21.7398 73.3698 21.6698 73.5098 21.4498C73.5898 21.3198 73.5998 21.1598 73.5998 20.9998C73.5998 19.5598 72.9298 18.1898 71.9998 17.0798C71.0698 15.9798 68.9698 15.3898 69.5998 17.5398C69.9898 18.8798 71.1398 20.2998 72.1498 21.2298L72.1398 21.2498Z" fill="#4C9A51"/>
<path d="M70.6798 21.5898C70.9298 21.6598 71.1998 21.7298 71.4598 21.6798C71.7198 21.6298 71.9698 21.4298 71.9898 21.1698C71.9998 21.0198 71.9398 20.8698 71.8698 20.7298C71.2198 19.4398 69.9898 18.5098 68.6598 17.9298C67.3298 17.3498 65.1798 17.7498 66.7198 19.3998C67.6798 20.4298 69.3498 21.1898 70.6798 21.5798V21.5898Z" fill="#4C9A51"/>
<path d="M77.9201 19.4199C78.1301 19.5799 78.3501 19.7399 78.6101 19.7899C78.8701 19.8399 79.1801 19.7499 79.3001 19.5199C79.3701 19.3799 79.3701 19.2199 79.3601 19.0699C79.2501 17.6399 78.4601 16.3199 77.4401 15.2899C76.4201 14.2699 74.2801 13.8499 75.0801 15.9399C75.5801 17.2399 76.8401 18.5699 77.9201 19.4199Z" fill="#2A662C"/>
<path d="M81.14 19.2299C81.23 19.4399 81.34 19.6499 81.53 19.7899C81.71 19.9299 81.99 19.9799 82.17 19.8499C82.28 19.7699 82.35 19.6399 82.4 19.5199C82.9 18.3599 82.82 17.0299 82.45 15.8299C82.08 14.6299 80.58 13.4599 80.35 15.4099C80.21 16.6199 80.64 18.1399 81.14 19.2399V19.2299Z" fill="#4C9A51"/>
<path d="M84.1702 18.8498C84.1602 19.0798 84.1602 19.3098 84.2602 19.5198C84.3602 19.7298 84.5802 19.8898 84.8102 19.8598C84.9502 19.8398 85.0602 19.7498 85.1702 19.6698C86.1402 18.8598 86.6902 17.6298 86.9102 16.3998C87.1302 15.1698 86.3302 13.4598 85.2302 15.0898C84.5502 16.1098 84.2402 17.6598 84.1802 18.8598L84.1702 18.8498Z" fill="#2A662C"/>
<path d="M82.39 16.4399C82.38 16.6699 82.38 16.8999 82.48 17.1099C82.58 17.3199 82.8 17.4799 83.03 17.4499C83.17 17.4299 83.28 17.3399 83.39 17.2599C84.36 16.4499 84.91 15.2199 85.13 13.9899C85.35 12.7599 84.55 11.0499 83.45 12.6799C82.77 13.6999 82.46 15.2499 82.4 16.4499L82.39 16.4399Z" fill="#2A662C"/>
<path d="M79.7203 17.5099C79.8703 17.6899 80.0303 17.8599 80.2403 17.9499C80.4503 18.0399 80.7303 18.0099 80.8803 17.8399C80.9703 17.7299 80.9903 17.5999 81.0103 17.4599C81.1703 16.2099 80.7403 14.9499 80.0503 13.8899C79.3603 12.8299 77.6003 12.0999 77.9103 14.0399C78.1003 15.2399 78.9403 16.5999 79.7203 17.5199V17.5099Z" fill="#2A662C"/>
<path d="M83.5203 19.9598C83.3503 20.1598 83.1803 20.3698 83.1203 20.6298C83.0603 20.8798 83.1403 21.1898 83.3703 21.3098C83.5103 21.3798 83.6703 21.3898 83.8303 21.3798C85.2903 21.3198 86.6503 20.5898 87.7303 19.6298C88.8103 18.6698 89.3103 16.5698 87.1503 17.2898C85.8103 17.7398 84.4203 18.9298 83.5103 19.9598H83.5203Z" fill="#4C9A51"/>
<path d="M81.9399 20.5598C81.9399 20.8198 81.9399 21.0898 82.0699 21.3198C82.1899 21.5498 82.4499 21.7298 82.7099 21.6798C82.8599 21.6498 82.9899 21.5498 83.1099 21.4398C84.1899 20.4698 84.7599 19.0498 84.9599 17.6298C85.1599 16.2098 84.1699 14.2898 82.9899 16.1998C82.2499 17.3898 81.9699 19.1798 81.9499 20.5498L81.9399 20.5598Z" fill="#4C9A51"/>
<path d="M80.9298 21.2498C81.1198 21.4298 81.3298 21.5998 81.5898 21.6698C81.8498 21.7398 82.1599 21.6698 82.2999 21.4498C82.3799 21.3198 82.3898 21.1598 82.3898 20.9998C82.3898 19.5598 81.7198 18.1898 80.7898 17.0798C79.8598 15.9798 77.7598 15.3898 78.3898 17.5398C78.7798 18.8798 79.9299 20.2998 80.9399 21.2298L80.9298 21.2498Z" fill="#4C9A51"/>
<path d="M79.4698 21.5898C79.7198 21.6598 79.9898 21.7298 80.2498 21.6798C80.5098 21.6298 80.7598 21.4298 80.7798 21.1698C80.7898 21.0198 80.7298 20.8698 80.6598 20.7298C80.0098 19.4398 78.7798 18.5098 77.4498 17.9298C76.1198 17.3498 73.9698 17.7498 75.5098 19.3998C76.4698 20.4298 78.1398 21.1898 79.4698 21.5798V21.5898Z" fill="#4C9A51"/>
<path d="M86.7101 19.4199C86.9201 19.5799 87.1401 19.7399 87.4001 19.7899C87.6601 19.8399 87.9701 19.7499 88.0901 19.5199C88.1601 19.3799 88.1601 19.2199 88.1501 19.0699C88.0401 17.6399 87.2501 16.3199 86.2301 15.2899C85.2101 14.2699 83.0701 13.8499 83.8701 15.9399C84.3701 17.2399 85.6301 18.5699 86.7101 19.4199Z" fill="#2A662C"/>
<path d="M89.9301 19.2299C90.0201 19.4399 90.1301 19.6499 90.3201 19.7899C90.5001 19.9299 90.7801 19.9799 90.9601 19.8499C91.0701 19.7699 91.1401 19.6399 91.1901 19.5199C91.6901 18.3599 91.6101 17.0299 91.2401 15.8299C90.8701 14.6299 89.3701 13.4599 89.1401 15.4099C89.0001 16.6199 89.4301 18.1399 89.9301 19.2399V19.2299Z" fill="#4C9A51"/>
<path d="M92.97 18.8498C92.96 19.0798 92.96 19.3098 93.06 19.5198C93.16 19.7298 93.38 19.8898 93.61 19.8598C93.75 19.8398 93.86 19.7498 93.97 19.6698C94.94 18.8598 95.49 17.6298 95.71 16.3998C95.93 15.1698 95.13 13.4598 94.03 15.0898C93.35 16.1098 93.0401 17.6598 92.9801 18.8598L92.97 18.8498Z" fill="#2A662C"/>
<path d="M91.18 16.4399C91.17 16.6699 91.17 16.8999 91.27 17.1099C91.37 17.3199 91.59 17.4799 91.82 17.4499C91.96 17.4299 92.07 17.3399 92.18 17.2599C93.15 16.4499 93.7 15.2199 93.92 13.9899C94.14 12.7599 93.34 11.0499 92.24 12.6799C91.56 13.6999 91.25 15.2499 91.19 16.4499L91.18 16.4399Z" fill="#2A662C"/>
<path d="M88.5201 17.5099C88.6701 17.6899 88.8301 17.8599 89.0401 17.9499C89.2501 18.0399 89.5301 18.0099 89.6801 17.8399C89.7701 17.7299 89.7901 17.5999 89.8101 17.4599C89.9701 16.2099 89.5401 14.9499 88.8501 13.8899C88.1601 12.8299 86.4001 12.0999 86.7101 14.0399C86.9001 15.2399 87.7401 16.5999 88.5201 17.5199V17.5099Z" fill="#2A662C"/>
<path d="M92.3103 19.9598C92.1403 20.1598 91.9703 20.3698 91.9103 20.6298C91.8503 20.8798 91.9303 21.1898 92.1603 21.3098C92.3003 21.3798 92.4603 21.3898 92.6203 21.3798C94.0803 21.3198 95.4403 20.5898 96.5203 19.6298C97.6003 18.6698 98.1003 16.5698 95.9403 17.2898C94.6003 17.7398 93.2103 18.9298 92.3003 19.9598H92.3103Z" fill="#4C9A51"/>
<path d="M90.73 20.5598C90.73 20.8198 90.73 21.0898 90.86 21.3198C90.98 21.5498 91.24 21.7298 91.5 21.6798C91.65 21.6498 91.78 21.5498 91.9 21.4398C92.98 20.4698 93.55 19.0498 93.75 17.6298C93.95 16.2098 92.96 14.2898 91.78 16.1998C91.04 17.3898 90.76 19.1798 90.74 20.5498L90.73 20.5598Z" fill="#4C9A51"/>
<path d="M89.7199 21.2498C89.9099 21.4298 90.1199 21.5998 90.3799 21.6698C90.6399 21.7398 90.9499 21.6698 91.0899 21.4498C91.1699 21.3198 91.1799 21.1598 91.1799 20.9998C91.1799 19.5598 90.5099 18.1898 89.5799 17.0798C88.6499 15.9798 86.5499 15.3898 87.1799 17.5398C87.5699 18.8798 88.7199 20.2998 89.7299 21.2298L89.7199 21.2498Z" fill="#4C9A51"/>
<path d="M88.2599 21.5898C88.5099 21.6598 88.7799 21.7298 89.0399 21.6798C89.2999 21.6298 89.5499 21.4298 89.5699 21.1698C89.5799 21.0198 89.5199 20.8698 89.4499 20.7298C88.7999 19.4398 87.5699 18.5098 86.2399 17.9298C84.9099 17.3498 82.7599 17.7498 84.2999 19.3998C85.2599 20.4298 86.9299 21.1898 88.2599 21.5798V21.5898Z" fill="#4C9A51"/>
<path d="M66.8101 19.8298H96.7501L88.9401 30.2598H73.6401L66.8101 19.8298Z" fill="#4A4646"/>
<path d="M69.25 72.5499C69.25 72.5499 69.19 72.5499 69.16 72.5499C68.91 72.4999 68.74 72.2599 68.78 72.0099C69.11 70.2299 68.7 68.4499 68.26 66.5599C68.05 65.6499 67.83 64.7099 67.7 63.7699C67.41 61.6299 67.6 59.4699 67.78 57.3899C68.01 54.7799 68.24 52.0799 69.18 49.5399C69.36 49.0499 69.57 48.5699 69.77 48.0899C70.05 47.4499 70.33 46.7799 70.54 46.1199C71.31 43.6499 71.18 40.7299 70.13 36.9499C69.86 35.9699 69.55 34.9999 69.24 34.0199C68.59 31.9699 67.91 29.8399 67.59 27.6599C67.03 23.8699 67.75 20.5099 69.61 18.1999C69.77 17.9999 70.07 17.9699 70.27 18.1299C70.47 18.2899 70.51 18.5799 70.35 18.7799C68.06 21.6199 68.22 25.4799 68.52 27.5299C68.83 29.6399 69.49 31.7199 70.13 33.7399C70.44 34.7199 70.75 35.7099 71.03 36.6999C71.72 39.1899 72.52 42.8999 71.43 46.3799C71.21 47.0899 70.91 47.7799 70.62 48.4399C70.42 48.8999 70.22 49.3699 70.04 49.8399C69.14 52.2599 68.91 54.8999 68.69 57.4499C68.51 59.4799 68.33 61.5899 68.6 63.6299C68.72 64.5299 68.93 65.4499 69.14 66.3299C69.58 68.2199 70.03 70.1799 69.67 72.1499C69.63 72.3699 69.43 72.5299 69.21 72.5299L69.25 72.5499Z" fill="#4C9A51"/>
<path d="M72.9201 66.3598C72.7701 66.3598 72.6101 66.2898 72.5201 66.1498C71.2501 64.2098 70.6001 61.8698 70.7001 59.5598C70.7501 58.3098 71.0101 57.0898 71.2701 55.9098C71.4901 54.8698 71.7201 53.7898 71.8001 52.7198C72.0001 49.8398 71.1301 47.0898 70.2101 44.1898C69.4901 41.9398 68.7501 39.5998 68.5701 37.2098C68.3301 34.0798 69.0601 30.9498 69.7601 27.9298C70.5601 24.4698 71.3201 21.2098 70.7901 17.8798C70.7501 17.6298 70.9201 17.3898 71.1801 17.3498C71.4401 17.3098 71.6801 17.4798 71.7201 17.7298C72.2801 21.2298 71.4701 24.7398 70.6801 28.1298C69.9901 31.0798 69.2801 34.1398 69.5101 37.1298C69.6801 39.4198 70.4101 41.6998 71.1101 43.8998C72.0201 46.7598 72.9601 49.7098 72.7401 52.7698C72.6601 53.8998 72.4201 55.0098 72.1901 56.0798C71.9401 57.2298 71.6901 58.4098 71.6401 59.5798C71.5501 61.6998 72.1501 63.8498 73.3101 65.6298C73.4501 65.8398 73.3901 66.1298 73.1701 66.2698C73.0901 66.3198 73.0001 66.3398 72.9201 66.3398V66.3598Z" fill="#4C9A51"/>
<path d="M74.5699 66.6398C74.4599 66.6398 74.3399 66.5998 74.2499 66.5198C73.3499 65.6998 72.8899 64.3398 73.0099 62.7898C73.0699 61.9498 73.2799 61.1498 73.4699 60.3598C73.5699 59.9598 73.6699 59.5598 73.7499 59.1598C74.4699 55.5898 73.6999 52.0498 72.8899 48.2998C72.3899 45.9998 71.8699 43.6198 71.7399 41.2498C71.5899 38.5398 71.9399 35.8298 72.2699 33.2098L74.1799 18.3098C74.2099 18.0598 74.4499 17.8898 74.6999 17.9098C74.9599 17.9398 75.1399 18.1698 75.1099 18.4298L73.1999 33.3298C72.8699 35.9098 72.5299 38.5798 72.6699 41.1998C72.7999 43.4998 73.3099 45.8398 73.7999 48.1098C74.5999 51.7798 75.4299 55.5798 74.6699 59.3398C74.5899 59.7598 74.4799 60.1698 74.3799 60.5798C74.1799 61.3598 73.9999 62.0998 73.9399 62.8498C73.8399 64.1098 74.1899 65.1998 74.8799 65.8298C75.0699 65.9998 75.0799 66.2998 74.9099 66.4798C74.8199 66.5798 74.6899 66.6298 74.5699 66.6298V66.6398Z" fill="#4C9A51"/>
<path d="M77.58 67.5599C77.44 67.5599 77.29 67.4999 77.2 67.3699C74.95 64.3699 73.87 60.5199 74.22 56.8099C74.39 54.9999 74.89 53.2299 75.38 51.5199C75.64 50.5799 75.92 49.6199 76.13 48.6599C77 44.7599 76.96 40.6499 76 36.7799C75.84 36.1499 75.66 35.5199 75.48 34.8899C75.12 33.6299 74.74 32.3199 74.57 30.9799C74.02 26.8099 75.42 22.6599 76.66 18.9899C76.74 18.7499 77.01 18.6199 77.25 18.6999C77.5 18.7799 77.63 19.0399 77.55 19.2799C76.35 22.8499 74.98 26.8999 75.5 30.8599C75.67 32.1299 76.03 33.3999 76.38 34.6299C76.56 35.2699 76.75 35.9099 76.91 36.5599C77.9 40.5699 77.95 44.8299 77.05 48.8599C76.83 49.8399 76.55 50.8199 76.28 51.7699C75.81 53.4399 75.32 55.1699 75.15 56.8999C74.82 60.3899 75.84 64.0099 77.95 66.8299C78.1 67.0399 78.06 67.3199 77.85 67.4799C77.77 67.5399 77.67 67.5699 77.57 67.5699L77.58 67.5599Z" fill="#4C9A51"/>
<path d="M75.8397 74.9998C75.7397 74.9998 75.6397 74.9698 75.5497 74.8998C73.1997 73.1298 72.0397 69.9098 72.7297 67.0698C72.8597 66.5598 73.0297 66.0597 73.1997 65.5897C73.3397 65.1897 73.4897 64.7897 73.5997 64.3797C74.1097 62.5197 73.8997 60.4998 73.6997 58.5498L73.6097 57.6498C73.0397 51.5698 73.5197 45.4798 75.0497 39.5598C75.1597 39.1198 75.2897 38.6698 75.4097 38.2298C75.8197 36.7098 76.2497 35.1398 76.4097 33.5698C76.7497 30.3098 75.9497 26.9998 75.1697 23.8098C74.7197 21.9698 74.2697 20.0698 74.0097 18.1698C73.9797 17.9198 74.1597 17.6898 74.4097 17.6498C74.6597 17.6198 74.8997 17.7998 74.9397 18.0498C75.1797 19.8998 75.6397 21.7798 76.0797 23.5998C76.8697 26.8698 77.6897 30.2498 77.3397 33.6698C77.1697 35.3097 76.7297 36.9198 76.3097 38.4698C76.1897 38.9098 76.0697 39.3498 75.9597 39.7898C74.4597 45.6098 73.9797 51.5898 74.5497 57.5698L74.6397 58.4598C74.8497 60.4897 75.0597 62.5898 74.5097 64.6198C74.3897 65.0498 74.2397 65.4698 74.0897 65.8998C73.9197 66.3798 73.7597 66.8198 73.6397 67.2898C73.0297 69.7798 74.0497 72.6097 76.1197 74.1698C76.3297 74.3298 76.3597 74.6098 76.2097 74.8198C76.1197 74.9398 75.9797 74.9998 75.8397 74.9998Z" fill="#4C9A51"/>
<path d="M67.78 25.8398C67.89 25.8698 68 25.8998 68.11 25.8798C68.22 25.8598 68.32 25.7798 68.33 25.6698C68.33 25.6098 68.31 25.5398 68.28 25.4898C68.01 24.9498 67.49 24.5598 66.93 24.3198C66.37 24.0798 65.47 24.2498 66.12 24.9398C66.52 25.3698 67.22 25.6898 67.78 25.8498V25.8398Z" fill="#4C9A51"/>
<path d="M72.6599 29.6298C72.7699 29.6598 72.8799 29.6898 72.9899 29.6698C73.0999 29.6498 73.1999 29.5698 73.2099 29.4598C73.2099 29.3998 73.1899 29.3298 73.1599 29.2798C72.8899 28.7398 72.3699 28.3498 71.8099 28.1098C71.2499 27.8698 70.3499 28.0398 70.9999 28.7298C71.3999 29.1598 72.0999 29.4798 72.6599 29.6398V29.6298Z" fill="#4C9A51"/>
<path d="M70.1399 47.7199C70.2499 47.7499 70.3599 47.7799 70.4699 47.7599C70.5799 47.7399 70.6799 47.6599 70.6899 47.5499C70.6899 47.4899 70.6699 47.4199 70.6399 47.3699C70.3699 46.8299 69.8499 46.4399 69.2899 46.1999C68.7299 45.9599 67.8299 46.1299 68.4799 46.8199C68.8799 47.2499 69.5799 47.5699 70.1399 47.7299V47.7199Z" fill="#4C9A51"/>
<path d="M79.0901 29.0098C79.2001 28.9898 79.3101 28.9698 79.4001 28.8998C79.4901 28.8298 79.5501 28.7198 79.5101 28.6098C79.4901 28.5498 79.4301 28.5098 79.3801 28.4698C78.9001 28.0998 78.2601 27.9698 77.6501 27.9998C77.0401 28.0198 76.3101 28.5598 77.1901 28.8998C77.7401 29.1098 78.5101 29.0998 79.0901 29.0098Z" fill="#4C9A51"/>
<path d="M78.5198 65.4998C78.6298 65.4798 78.7398 65.4598 78.8298 65.3898C78.9198 65.3198 78.9798 65.2098 78.9398 65.0998C78.9198 65.0398 78.8598 64.9998 78.8098 64.9598C78.3298 64.5898 77.6898 64.4598 77.0798 64.4898C76.4698 64.5098 75.7398 65.0498 76.6198 65.3898C77.1698 65.5998 77.9398 65.5898 78.5198 65.4998Z" fill="#4C9A51"/>
<path d="M78.5198 22.7097C78.6298 22.6897 78.7398 22.6697 78.8298 22.5997C78.9198 22.5297 78.9798 22.4197 78.9398 22.3097C78.9198 22.2497 78.8598 22.2097 78.8098 22.1697C78.3298 21.7997 77.6898 21.6697 77.0798 21.6997C76.4698 21.7197 75.7398 22.2597 76.6198 22.5997C77.1698 22.8097 77.9398 22.7997 78.5198 22.7097Z" fill="#4C9A51"/>
<path d="M71.4998 64.0898C71.6098 64.0698 71.7198 64.0498 71.8098 63.9798C71.8998 63.9098 71.9598 63.7998 71.9198 63.6898C71.8998 63.6298 71.8398 63.5898 71.7898 63.5498C71.3098 63.1798 70.6698 63.0498 70.0598 63.0798C69.4498 63.0998 68.7198 63.6398 69.5998 63.9798C70.1498 64.1898 70.9198 64.1798 71.4998 64.0898Z" fill="#4C9A51"/>
<path d="M73.8601 58.9099C73.9701 58.8899 74.0801 58.8699 74.1701 58.7999C74.2601 58.7299 74.3201 58.6199 74.2801 58.5099C74.2601 58.4499 74.2001 58.4099 74.1501 58.3699C73.6701 57.9999 73.0301 57.8699 72.4201 57.8999C71.8101 57.9199 71.0801 58.4599 71.9601 58.7999C72.5101 59.0099 73.2801 58.9999 73.8601 58.9099Z" fill="#4C9A51"/>
<path d="M77.1801 31.7799C77.1201 31.7599 77.0501 31.7499 76.9901 31.7699C76.9301 31.7799 76.8701 31.8299 76.8701 31.8999C76.8701 31.9399 76.8801 31.9699 76.9001 31.9999C77.0701 32.2999 77.3701 32.5099 77.6901 32.6399C78.0101 32.7699 78.5201 32.6499 78.1401 32.2699C77.9001 32.0299 77.5001 31.8699 77.1801 31.7799Z" fill="#4C9A51"/>
<path d="M74.9799 43.1398C74.9199 43.1198 74.8499 43.1098 74.7899 43.1298C74.7299 43.1398 74.6699 43.1898 74.6699 43.2598C74.6699 43.2998 74.6799 43.3298 74.6999 43.3598C74.8699 43.6598 75.1699 43.8698 75.4899 43.9998C75.8099 44.1298 76.3199 44.0098 75.9399 43.6298C75.6999 43.3898 75.2999 43.2298 74.9799 43.1398Z" fill="#4C9A51"/>
<path d="M76.3701 51.6298C76.3101 51.6098 76.2401 51.5998 76.1801 51.6198C76.1201 51.6298 76.0601 51.6798 76.0601 51.7498C76.0601 51.7898 76.0701 51.8198 76.0901 51.8498C76.2601 52.1498 76.5601 52.3598 76.8801 52.4898C77.2001 52.6198 77.7101 52.4998 77.3301 52.1198C77.0901 51.8798 76.6901 51.7198 76.3701 51.6298Z" fill="#4C9A51"/>
<path d="M68.5297 56.3598C68.4697 56.3398 68.3997 56.3298 68.3397 56.3498C68.2797 56.3698 68.2197 56.4098 68.2197 56.4798C68.2197 56.5198 68.2297 56.5498 68.2497 56.5798C68.4197 56.8798 68.7197 57.0898 69.0397 57.2198C69.3597 57.3498 69.8697 57.2298 69.4897 56.8498C69.2497 56.6098 68.8497 56.4498 68.5297 56.3598Z" fill="#4C9A51"/>
<path d="M70.1699 40.0597C70.1099 40.0397 70.0399 40.0297 69.9799 40.0497C69.9199 40.0597 69.8599 40.1097 69.8599 40.1797C69.8599 40.2197 69.8699 40.2497 69.8899 40.2797C70.0599 40.5797 70.3599 40.7897 70.6799 40.9197C70.9999 41.0497 71.5099 40.9297 71.1299 40.5497C70.8899 40.3097 70.4899 40.1497 70.1699 40.0597Z" fill="#4C9A51"/>
<path d="M70.29 60.8598C70.23 60.8398 70.16 60.8298 70.1 60.8498C70.04 60.8698 69.98 60.9098 69.98 60.9798C69.98 61.0198 69.99 61.0498 70.01 61.0798C70.18 61.3798 70.48 61.5898 70.8 61.7198C71.12 61.8498 71.63 61.7298 71.25 61.3498C71.01 61.1098 70.61 60.9498 70.29 60.8598Z" fill="#4C9A51"/>
<path d="M67.9399 23.2299C67.8799 23.2099 67.8099 23.1999 67.7499 23.2199C67.6899 23.2299 67.6299 23.2799 67.6299 23.3499C67.6299 23.3899 67.6399 23.4199 67.6599 23.4499C67.8299 23.7499 68.1299 23.9599 68.4499 24.0899C68.7699 24.2199 69.2799 24.0999 68.8999 23.7199C68.6599 23.4799 68.2599 23.3199 67.9399 23.2299Z" fill="#4C9A51"/>
<path d="M75.0598 40.4399C75.1698 40.4199 75.2798 40.3999 75.3698 40.3299C75.4598 40.2599 75.5198 40.1499 75.4798 40.0399C75.4598 39.9799 75.3998 39.9399 75.3498 39.8999C74.8698 39.5299 74.2298 39.3999 73.6198 39.4299C73.0098 39.4499 72.2798 39.9899 73.1598 40.3299C73.7098 40.5399 74.4798 40.5299 75.0598 40.4399Z" fill="#4C9A51"/>
<path d="M76.7801 46.3198C76.8901 46.2998 77.0001 46.2798 77.0901 46.2098C77.1801 46.1398 77.2401 46.0298 77.2001 45.9198C77.1801 45.8598 77.1201 45.8198 77.0701 45.7798C76.5901 45.4098 75.9501 45.2798 75.3401 45.3098C74.7301 45.3298 74.0001 45.8698 74.8801 46.2098C75.4301 46.4198 76.2001 46.4098 76.7801 46.3198Z" fill="#4C9A51"/>
<path d="M68.49 53.0798C68.6 53.0598 68.71 53.0398 68.8 52.9698C68.89 52.8998 68.95 52.7898 68.91 52.6798C68.89 52.6198 68.83 52.5798 68.78 52.5398C68.3 52.1698 67.66 52.0398 67.05 52.0698C66.44 52.0898 65.71 52.6298 66.59 52.9698C67.14 53.1798 67.91 53.1698 68.49 53.0798Z" fill="#4C9A51"/>
<path d="M73.6897 24.6799C73.7997 24.6599 73.9097 24.6399 73.9997 24.5699C74.0897 24.4999 74.1497 24.3899 74.1097 24.2799C74.0897 24.2199 74.0297 24.1799 73.9797 24.1399C73.4997 23.7699 72.8597 23.6399 72.2497 23.6699C71.6397 23.6899 70.9097 24.2299 71.7897 24.5699C72.3397 24.7799 73.1097 24.7699 73.6897 24.6799Z" fill="#4C9A51"/>
<path d="M72.6599 70.6599C72.7699 70.6899 72.8799 70.7199 72.9899 70.6999C73.0999 70.6799 73.1999 70.5999 73.2099 70.4899C73.2099 70.4299 73.1899 70.3599 73.1599 70.3099C72.8899 69.7699 72.3699 69.3799 71.8099 69.1399C71.2499 68.8999 70.3499 69.0699 70.9999 69.7599C71.3999 70.1899 72.0999 70.5099 72.6599 70.6699V70.6599Z" fill="#4C9A51"/>
<path d="M67.4699 61.2597C67.5799 61.2897 67.6899 61.3197 67.7999 61.2997C67.9099 61.2797 68.0099 61.1997 68.0199 61.0897C68.0199 61.0297 67.9999 60.9597 67.9699 60.9097C67.6999 60.3697 67.1799 59.9797 66.6199 59.7397C66.0599 59.4997 65.1599 59.6697 65.8099 60.3597C66.2099 60.7897 66.9099 61.1097 67.4699 61.2697V61.2597Z" fill="#4C9A51"/>
<path d="M68.57 36.1599C68.68 36.1899 68.79 36.2199 68.9 36.1999C69.01 36.1799 69.11 36.0999 69.12 35.9899C69.12 35.9299 69.1 35.8599 69.07 35.8099C68.8 35.2699 68.28 34.8799 67.72 34.6399C67.16 34.3999 66.26 34.5699 66.91 35.2599C67.31 35.6899 68.01 36.0099 68.57 36.1699V36.1599Z" fill="#4C9A51"/>
<path d="M75.2898 33.3898C75.3998 33.4198 75.5098 33.4498 75.6198 33.4298C75.7298 33.4098 75.8298 33.3298 75.8398 33.2198C75.8398 33.1598 75.8198 33.0898 75.7898 33.0398C75.5198 32.4998 74.9998 32.1098 74.4398 31.8698C73.8798 31.6298 72.9798 31.7998 73.6298 32.4898C74.0298 32.9198 74.7298 33.2398 75.2898 33.3998V33.3898Z" fill="#4C9A51"/>
<path d="M88.2896 72.5499C88.2896 72.5499 88.2296 72.5499 88.1996 72.5499C87.9496 72.4999 87.7796 72.2599 87.8196 72.0099C88.1496 70.2299 87.7396 68.4499 87.2996 66.5599C87.0896 65.6499 86.8696 64.7099 86.7396 63.7699C86.4496 61.6299 86.6396 59.4699 86.8196 57.3899C87.0496 54.7799 87.2796 52.0799 88.2196 49.5399C88.3996 49.0499 88.6096 48.5699 88.8096 48.0899C89.0896 47.4499 89.3696 46.7799 89.5796 46.1199C90.3496 43.6499 90.2196 40.7299 89.1696 36.9499C88.8996 35.9699 88.5896 34.9999 88.2796 34.0199C87.6296 31.9699 86.9496 29.8399 86.6296 27.6599C86.0696 23.8699 86.7896 20.5099 88.6496 18.1999C88.8096 17.9999 89.1096 17.9699 89.3096 18.1299C89.5096 18.2899 89.5496 18.5799 89.3896 18.7799C87.0996 21.6199 87.2596 25.4799 87.5596 27.5299C87.8696 29.6399 88.5296 31.7199 89.1696 33.7399C89.4796 34.7199 89.7896 35.7099 90.0696 36.6999C90.7596 39.1899 91.5596 42.8999 90.4696 46.3799C90.2496 47.0899 89.9496 47.7799 89.6596 48.4399C89.4596 48.8999 89.2596 49.3699 89.0796 49.8399C88.1796 52.2599 87.9496 54.8999 87.7296 57.4499C87.5496 59.4799 87.3696 61.5899 87.6396 63.6299C87.7596 64.5299 87.9696 65.4499 88.1796 66.3299C88.6196 68.2199 89.0696 70.1799 88.7096 72.1499C88.6696 72.3699 88.4696 72.5299 88.2496 72.5299L88.2896 72.5499Z" fill="#4C9A51"/>
<path d="M91.9596 66.3598C91.8096 66.3598 91.6496 66.2898 91.5596 66.1498C90.2896 64.2098 89.6396 61.8698 89.7396 59.5598C89.7896 58.3098 90.0496 57.0898 90.3096 55.9098C90.5296 54.8698 90.7596 53.7898 90.8396 52.7198C91.0396 49.8398 90.1696 47.0898 89.2496 44.1898C88.5296 41.9398 87.7896 39.5998 87.6096 37.2098C87.3696 34.0798 88.0996 30.9498 88.7996 27.9298C89.5996 24.4698 90.3596 21.2098 89.8296 17.8798C89.7896 17.6298 89.9596 17.3898 90.2196 17.3498C90.4796 17.3098 90.7196 17.4798 90.7596 17.7298C91.3196 21.2298 90.5096 24.7398 89.7196 28.1298C89.0296 31.0798 88.3196 34.1398 88.5496 37.1298C88.7196 39.4198 89.4496 41.6998 90.1496 43.8998C91.0596 46.7598 91.9996 49.7098 91.7796 52.7698C91.6996 53.8998 91.4596 55.0098 91.2296 56.0798C90.9796 57.2298 90.7296 58.4098 90.6796 59.5798C90.5896 61.6998 91.1896 63.8498 92.3496 65.6298C92.4896 65.8398 92.4296 66.1298 92.2096 66.2698C92.1296 66.3198 92.0396 66.3398 91.9596 66.3398V66.3598Z" fill="#4C9A51"/>
<path d="M93.6197 66.6398C93.5097 66.6398 93.3897 66.5998 93.2997 66.5198C92.3997 65.6998 91.9397 64.3398 92.0597 62.7898C92.1197 61.9498 92.3297 61.1498 92.5197 60.3598C92.6197 59.9598 92.7197 59.5598 92.7997 59.1598C93.5197 55.5898 92.7497 52.0498 91.9397 48.2998C91.4397 45.9998 90.9197 43.6198 90.7897 41.2498C90.6397 38.5398 90.9897 35.8298 91.3197 33.2098L93.2297 18.3098C93.2597 18.0598 93.4997 17.8898 93.7497 17.9098C94.0097 17.9398 94.1897 18.1698 94.1597 18.4298L92.2497 33.3298C91.9197 35.9098 91.5797 38.5798 91.7197 41.1998C91.8497 43.4998 92.3597 45.8398 92.8497 48.1098C93.6497 51.7798 94.4797 55.5798 93.7197 59.3398C93.6397 59.7598 93.5297 60.1698 93.4297 60.5798C93.2297 61.3598 93.0497 62.0998 92.9897 62.8498C92.8897 64.1098 93.2397 65.1998 93.9297 65.8298C94.1197 65.9998 94.1297 66.2998 93.9597 66.4798C93.8697 66.5798 93.7397 66.6298 93.6197 66.6298V66.6398Z" fill="#4C9A51"/>
<path d="M96.6196 67.5599C96.4796 67.5599 96.3296 67.4999 96.2396 67.3699C93.9896 64.3699 92.9096 60.5199 93.2596 56.8099C93.4296 54.9999 93.9296 53.2299 94.4196 51.5199C94.6796 50.5799 94.9596 49.6199 95.1696 48.6599C96.0396 44.7599 95.9996 40.6499 95.0396 36.7799C94.8796 36.1499 94.6996 35.5199 94.5196 34.8899C94.1596 33.6299 93.7796 32.3199 93.6096 30.9799C93.0596 26.8099 94.4596 22.6599 95.6996 18.9899C95.7796 18.7499 96.0496 18.6199 96.2896 18.6999C96.5396 18.7799 96.6696 19.0399 96.5896 19.2799C95.3896 22.8499 94.0196 26.8999 94.5396 30.8599C94.7096 32.1299 95.0696 33.3999 95.4196 34.6299C95.5996 35.2699 95.7896 35.9099 95.9496 36.5599C96.9396 40.5699 96.9896 44.8299 96.0896 48.8599C95.8696 49.8399 95.5896 50.8199 95.3196 51.7699C94.8496 53.4399 94.3596 55.1699 94.1896 56.8999C93.8596 60.3899 94.8796 64.0099 96.9896 66.8299C97.1396 67.0399 97.0996 67.3199 96.8896 67.4799C96.8096 67.5399 96.7096 67.5699 96.6096 67.5699L96.6196 67.5599Z" fill="#4C9A51"/>
<path d="M94.8798 74.9998C94.7798 74.9998 94.6798 74.9698 94.5898 74.8998C92.2398 73.1298 91.0798 69.9098 91.7698 67.0698C91.8998 66.5598 92.0698 66.0597 92.2398 65.5897C92.3798 65.1897 92.5298 64.7897 92.6398 64.3797C93.1498 62.5197 92.9398 60.4998 92.7398 58.5498L92.6498 57.6498C92.0798 51.5698 92.5598 45.4798 94.0898 39.5598C94.1998 39.1198 94.3298 38.6698 94.4498 38.2298C94.8598 36.7098 95.2898 35.1398 95.4498 33.5698C95.7898 30.3098 94.9898 26.9998 94.2098 23.8098C93.7598 21.9698 93.3098 20.0698 93.0498 18.1698C93.0198 17.9198 93.1998 17.6898 93.4498 17.6498C93.6998 17.6198 93.9398 17.7998 93.9798 18.0498C94.2198 19.8998 94.6798 21.7798 95.1198 23.5998C95.9098 26.8698 96.7298 30.2498 96.3798 33.6698C96.2098 35.3097 95.7698 36.9198 95.3498 38.4698C95.2298 38.9098 95.1098 39.3498 94.9998 39.7898C93.4998 45.6098 93.0198 51.5898 93.5898 57.5698L93.6798 58.4598C93.8898 60.4897 94.0998 62.5898 93.5498 64.6198C93.4298 65.0498 93.2798 65.4698 93.1298 65.8998C92.9598 66.3798 92.7998 66.8198 92.6798 67.2898C92.0698 69.7798 93.0898 72.6097 95.1598 74.1698C95.3698 74.3298 95.3998 74.6098 95.2498 74.8198C95.1598 74.9398 95.0198 74.9998 94.8798 74.9998Z" fill="#4C9A51"/>
<path d="M86.8298 25.8398C86.9398 25.8698 87.0498 25.8998 87.1598 25.8798C87.2698 25.8598 87.3698 25.7798 87.3798 25.6698C87.3798 25.6098 87.3598 25.5398 87.3298 25.4898C87.0598 24.9498 86.5398 24.5598 85.9798 24.3198C85.4198 24.0798 84.5198 24.2498 85.1698 24.9398C85.5698 25.3698 86.2698 25.6898 86.8298 25.8498V25.8398Z" fill="#4C9A51"/>
<path d="M91.6999 29.6298C91.8099 29.6598 91.9199 29.6898 92.0299 29.6698C92.1399 29.6498 92.2399 29.5698 92.2499 29.4598C92.2499 29.3998 92.2299 29.3298 92.1999 29.2798C91.9299 28.7398 91.4099 28.3498 90.8499 28.1098C90.2899 27.8698 89.3899 28.0398 90.0399 28.7298C90.4399 29.1598 91.1399 29.4798 91.6999 29.6398V29.6298Z" fill="#4C9A51"/>
<path d="M89.1897 47.7199C89.2997 47.7499 89.4097 47.7799 89.5197 47.7599C89.6297 47.7399 89.7297 47.6599 89.7397 47.5499C89.7397 47.4899 89.7197 47.4199 89.6897 47.3699C89.4197 46.8299 88.8997 46.4399 88.3397 46.1999C87.7797 45.9599 86.8797 46.1299 87.5297 46.8199C87.9297 47.2499 88.6297 47.5699 89.1897 47.7299V47.7199Z" fill="#4C9A51"/>
<path d="M98.1297 29.0098C98.2397 28.9898 98.3497 28.9698 98.4397 28.8998C98.5297 28.8298 98.5897 28.7198 98.5497 28.6098C98.5297 28.5498 98.4697 28.5098 98.4197 28.4698C97.9397 28.0998 97.2997 27.9698 96.6897 27.9998C96.0797 28.0198 95.3497 28.5598 96.2297 28.8998C96.7797 29.1098 97.5497 29.0998 98.1297 29.0098Z" fill="#4C9A51"/>
<path d="M97.5598 65.4998C97.6698 65.4798 97.7798 65.4598 97.8698 65.3898C97.9598 65.3198 98.0198 65.2098 97.9798 65.0998C97.9598 65.0398 97.8998 64.9998 97.8498 64.9598C97.3698 64.5898 96.7298 64.4598 96.1198 64.4898C95.5098 64.5098 94.7798 65.0498 95.6598 65.3898C96.2098 65.5998 96.9798 65.5898 97.5598 65.4998Z" fill="#4C9A51"/>
<path d="M97.5598 22.7097C97.6698 22.6897 97.7798 22.6697 97.8698 22.5997C97.9598 22.5297 98.0198 22.4197 97.9798 22.3097C97.9598 22.2497 97.8998 22.2097 97.8498 22.1697C97.3698 21.7997 96.7298 21.6697 96.1198 21.6997C95.5098 21.7197 94.7798 22.2597 95.6598 22.5997C96.2098 22.8097 96.9798 22.7997 97.5598 22.7097Z" fill="#4C9A51"/>
<path d="M90.5496 64.0898C90.6596 64.0698 90.7696 64.0498 90.8596 63.9798C90.9496 63.9098 91.0096 63.7998 90.9696 63.6898C90.9496 63.6298 90.8896 63.5898 90.8396 63.5498C90.3596 63.1798 89.7196 63.0498 89.1096 63.0798C88.4996 63.0998 87.7696 63.6398 88.6496 63.9798C89.1996 64.1898 89.9696 64.1798 90.5496 64.0898Z" fill="#4C9A51"/>
<path d="M92.9099 58.9099C93.0199 58.8899 93.1299 58.8699 93.2199 58.7999C93.3099 58.7299 93.3699 58.6199 93.3299 58.5099C93.3099 58.4499 93.2499 58.4099 93.1999 58.3699C92.7199 57.9999 92.0799 57.8699 91.4699 57.8999C90.8599 57.9199 90.1299 58.4599 91.0099 58.7999C91.5599 59.0099 92.3299 58.9999 92.9099 58.9099Z" fill="#4C9A51"/>
<path d="M96.2299 31.7799C96.1699 31.7599 96.0999 31.7499 96.0399 31.7699C95.9799 31.7799 95.9199 31.8299 95.9199 31.8999C95.9199 31.9399 95.9299 31.9699 95.9499 31.9999C96.1199 32.2999 96.4199 32.5099 96.7399 32.6399C97.0599 32.7699 97.5699 32.6499 97.1899 32.2699C96.9499 32.0299 96.5499 31.8699 96.2299 31.7799Z" fill="#4C9A51"/>
<path d="M94.0297 43.1398C93.9697 43.1198 93.8997 43.1098 93.8397 43.1298C93.7797 43.1398 93.7197 43.1898 93.7197 43.2598C93.7197 43.2998 93.7297 43.3298 93.7497 43.3598C93.9197 43.6598 94.2197 43.8698 94.5397 43.9998C94.8597 44.1298 95.3697 44.0098 94.9897 43.6298C94.7497 43.3898 94.3497 43.2298 94.0297 43.1398Z" fill="#4C9A51"/>
<path d="M95.4096 51.6298C95.3496 51.6098 95.2796 51.5998 95.2196 51.6198C95.1596 51.6298 95.0996 51.6798 95.0996 51.7498C95.0996 51.7898 95.1096 51.8198 95.1296 51.8498C95.2996 52.1498 95.5996 52.3598 95.9196 52.4898C96.2396 52.6198 96.7496 52.4998 96.3696 52.1198C96.1296 51.8798 95.7296 51.7198 95.4096 51.6298Z" fill="#4C9A51"/>
<path d="M87.5698 56.3598C87.5098 56.3398 87.4398 56.3298 87.3798 56.3498C87.3198 56.3698 87.2598 56.4098 87.2598 56.4798C87.2598 56.5198 87.2698 56.5498 87.2898 56.5798C87.4598 56.8798 87.7598 57.0898 88.0798 57.2198C88.3998 57.3498 88.9098 57.2298 88.5298 56.8498C88.2898 56.6098 87.8898 56.4498 87.5698 56.3598Z" fill="#4C9A51"/>
<path d="M89.2197 40.0597C89.1597 40.0397 89.0897 40.0297 89.0297 40.0497C88.9697 40.0597 88.9097 40.1097 88.9097 40.1797C88.9097 40.2197 88.9197 40.2497 88.9397 40.2797C89.1097 40.5797 89.4097 40.7897 89.7297 40.9197C90.0497 41.0497 90.5597 40.9297 90.1797 40.5497C89.9397 40.3097 89.5397 40.1497 89.2197 40.0597Z" fill="#4C9A51"/>
<path d="M89.3398 60.8598C89.2798 60.8398 89.2098 60.8298 89.1498 60.8498C89.0898 60.8698 89.0298 60.9098 89.0298 60.9798C89.0298 61.0198 89.0398 61.0498 89.0598 61.0798C89.2298 61.3798 89.5298 61.5898 89.8498 61.7198C90.1698 61.8498 90.6798 61.7298 90.2998 61.3498C90.0598 61.1098 89.6598 60.9498 89.3398 60.8598Z" fill="#4C9A51"/>
<path d="M86.9897 23.2299C86.9297 23.2099 86.8597 23.1999 86.7997 23.2199C86.7397 23.2299 86.6797 23.2799 86.6797 23.3499C86.6797 23.3899 86.6897 23.4199 86.7097 23.4499C86.8797 23.7499 87.1797 23.9599 87.4997 24.0899C87.8197 24.2199 88.3297 24.0999 87.9497 23.7199C87.7097 23.4799 87.3097 23.3199 86.9897 23.2299Z" fill="#4C9A51"/>
<path d="M94.0999 40.4399C94.2099 40.4199 94.3199 40.3999 94.4099 40.3299C94.4999 40.2599 94.5599 40.1499 94.5199 40.0399C94.4999 39.9799 94.4399 39.9399 94.3899 39.8999C93.9099 39.5299 93.2699 39.3999 92.6599 39.4299C92.0499 39.4499 91.3199 39.9899 92.1999 40.3299C92.7499 40.5399 93.5199 40.5299 94.0999 40.4399Z" fill="#4C9A51"/>
<path d="M95.8196 46.3198C95.9296 46.2998 96.0396 46.2798 96.1296 46.2098C96.2196 46.1398 96.2796 46.0298 96.2396 45.9198C96.2196 45.8598 96.1596 45.8198 96.1096 45.7798C95.6296 45.4098 94.9896 45.2798 94.3796 45.3098C93.7696 45.3298 93.0396 45.8698 93.9196 46.2098C94.4696 46.4198 95.2396 46.4098 95.8196 46.3198Z" fill="#4C9A51"/>
<path d="M87.5398 53.0798C87.6498 53.0598 87.7598 53.0398 87.8498 52.9698C87.9398 52.8998 87.9998 52.7898 87.9598 52.6798C87.9398 52.6198 87.8798 52.5798 87.8298 52.5398C87.3498 52.1698 86.7098 52.0398 86.0998 52.0698C85.4898 52.0898 84.7598 52.6298 85.6398 52.9698C86.1898 53.1798 86.9598 53.1698 87.5398 53.0798Z" fill="#4C9A51"/>
<path d="M92.7298 24.6799C92.8398 24.6599 92.9498 24.6399 93.0398 24.5699C93.1298 24.4999 93.1898 24.3899 93.1498 24.2799C93.1298 24.2199 93.0698 24.1799 93.0198 24.1399C92.5398 23.7699 91.8998 23.6399 91.2898 23.6699C90.6798 23.6899 89.9498 24.2299 90.8298 24.5699C91.3798 24.7799 92.1498 24.7699 92.7298 24.6799Z" fill="#4C9A51"/>
<path d="M91.6999 70.6599C91.8099 70.6899 91.9199 70.7199 92.0299 70.6999C92.1399 70.6799 92.2399 70.5999 92.2499 70.4899C92.2499 70.4299 92.2299 70.3599 92.1999 70.3099C91.9299 69.7699 91.4099 69.3799 90.8499 69.1399C90.2899 68.8999 89.3899 69.0699 90.0399 69.7599C90.4399 70.1899 91.1399 70.5099 91.6999 70.6699V70.6599Z" fill="#4C9A51"/>
<path d="M86.5197 61.2597C86.6297 61.2897 86.7397 61.3197 86.8497 61.2997C86.9597 61.2797 87.0597 61.1997 87.0697 61.0897C87.0697 61.0297 87.0497 60.9597 87.0197 60.9097C86.7497 60.3697 86.2297 59.9797 85.6697 59.7397C85.1097 59.4997 84.2097 59.6697 84.8597 60.3597C85.2597 60.7897 85.9597 61.1097 86.5197 61.2697V61.2597Z" fill="#4C9A51"/>
<path d="M87.6198 36.1599C87.7298 36.1899 87.8398 36.2199 87.9498 36.1999C88.0598 36.1799 88.1598 36.0999 88.1698 35.9899C88.1698 35.9299 88.1498 35.8599 88.1198 35.8099C87.8498 35.2699 87.3298 34.8799 86.7698 34.6399C86.2098 34.3999 85.3098 34.5699 85.9598 35.2599C86.3598 35.6899 87.0598 36.0099 87.6198 36.1699V36.1599Z" fill="#4C9A51"/>
<path d="M94.3298 33.3898C94.4398 33.4198 94.5498 33.4498 94.6598 33.4298C94.7698 33.4098 94.8698 33.3298 94.8798 33.2198C94.8798 33.1598 94.8598 33.0898 94.8298 33.0398C94.5598 32.4998 94.0398 32.1098 93.4798 31.8698C92.9198 31.6298 92.0198 31.7998 92.6698 32.4898C93.0698 32.9198 93.7698 33.2398 94.3298 33.3998V33.3898Z" fill="#4C9A51"/>
</g>
<defs>
<clipPath id="clip0_58_22225">
<rect width="98.56" height="75" fill="white"/>
</clipPath>
</defs>
</svg>
